# Blender v2.92.0 OBJ File: 'letters.blend'
# www.blender.org
mtllib exclamation mark.mtl
o exclamation_mark.001_Curve.017
v 0.047837 0.044645 0.050000
v 0.047837 0.051029 0.050000
v 0.047044 0.038472 0.050000
v 0.047837 0.044645 -0.050000
v 0.047837 0.051029 -0.050000
v 0.047044 0.038472 -0.050000
v 0.045456 0.032581 -0.050000
v 0.043075 0.026972 -0.050000
v 0.045456 0.032581 0.050000
v 0.043075 0.026972 0.050000
v 0.039901 0.021646 0.050000
v 0.035933 0.016602 0.050000
v 0.039901 0.021646 -0.050000
v 0.035933 0.016602 -0.050000
v 0.031235 0.011905 -0.050000
v 0.026190 0.007937 -0.050000
v 0.031235 0.011905 0.050000
v 0.026190 0.007936 0.050000
v 0.020864 0.004762 0.050000
v 0.015256 0.002380 0.050000
v 0.020864 0.004762 -0.050000
v 0.015256 0.002380 -0.050000
v 0.009365 0.000793 -0.050000
v 0.003192 0.000000 -0.050000
v 0.009365 0.000793 0.050000
v 0.003192 0.000000 0.050000
v -0.003192 0.000000 0.050000
v -0.009365 0.000793 0.050000
v -0.003192 0.000000 -0.050000
v -0.009365 0.000793 -0.050000
v -0.015256 0.002380 -0.050000
v -0.015256 0.002380 0.050000
v -0.020864 0.004762 -0.050000
v -0.026190 0.007937 -0.050000
v -0.020864 0.004762 0.050000
v -0.026190 0.007936 0.050000
v -0.031235 0.011905 0.050000
v -0.035933 0.016603 0.050000
v -0.031235 0.011905 -0.050000
v -0.035933 0.016603 -0.050000
v -0.039901 0.021647 -0.050000
v -0.043075 0.026973 -0.050000
v -0.039901 0.021647 0.050000
v -0.043075 0.026973 0.050000
v -0.045456 0.032581 0.050000
v -0.047044 0.038472 0.050000
v -0.045456 0.032581 -0.050000
v -0.047044 0.038472 -0.050000
v -0.047837 0.044645 -0.050000
v -0.047837 0.051030 -0.050000
v -0.047837 0.044645 0.050000
v -0.047837 0.051030 0.050000
v -0.047044 0.057203 0.050000
v -0.045456 0.063094 0.050000
v -0.047044 0.057203 -0.050000
v -0.045456 0.063094 -0.050000
v -0.043075 0.068702 -0.050000
v -0.039901 0.074029 -0.050000
v -0.043075 0.068702 0.050000
v -0.039901 0.074028 0.050000
v -0.035933 0.079072 0.050000
v -0.031235 0.083770 0.050000
v -0.035933 0.079072 -0.050000
v -0.031235 0.083770 -0.050000
v -0.026191 0.087738 -0.050000
v -0.020864 0.090913 -0.050000
v -0.026191 0.087738 0.050000
v -0.020864 0.090913 0.050000
v -0.015256 0.093294 0.050000
v -0.009365 0.094881 0.050000
v -0.015256 0.093294 -0.050000
v -0.009365 0.094881 -0.050000
v -0.003192 0.095675 -0.050000
v 0.003192 0.095675 -0.050000
v -0.003192 0.095675 0.050000
v 0.003192 0.095675 0.050000
v 0.009365 0.094881 0.050000
v 0.015256 0.093294 0.050000
v 0.009365 0.094881 -0.050000
v 0.015256 0.093294 -0.050000
v 0.020864 0.090913 -0.050000
v 0.026190 0.087738 -0.050000
v 0.020864 0.090913 0.050000
v 0.026190 0.087738 0.050000
v 0.031235 0.083770 0.050000
v 0.035933 0.079072 0.050000
v 0.031235 0.083770 -0.050000
v 0.035933 0.079072 -0.050000
v 0.039901 0.074028 -0.050000
v 0.043075 0.068702 -0.050000
v 0.039901 0.074028 0.050000
v 0.043075 0.068702 0.050000
v 0.045456 0.063093 0.050000
v 0.047044 0.057202 0.050000
v 0.045456 0.063093 -0.050000
v 0.047044 0.057202 -0.050000
v -0.042857 0.425932 0.050000
v -0.036508 0.425932 0.050000
v -0.025714 0.157996 0.050000
v -0.042857 0.425932 -0.050000
v -0.036508 0.425932 -0.050000
v -0.025714 0.157996 -0.050000
v 0.018730 0.135139 -0.050000
v 0.024444 0.135139 -0.050000
v 0.018730 0.135139 0.050000
v 0.024444 0.135139 0.050000
v 0.039683 0.397361 0.050000
v 0.039683 0.397361 -0.050000
vt 0.010417 1.000000
vt 0.989583 0.000000
vt 0.989583 1.000000
vt 0.425743 0.000000
vt 0.900990 0.000000
vt 0.663366 0.000000
vt 0.031250 1.000000
vt 0.010417 0.000000
vt 0.188119 0.000000
vt 0.425743 0.000000
vt 0.900990 0.000000
vt 0.052083 1.000000
vt 0.031250 0.000000
vt 0.072917 0.000000
vt 0.072917 1.000000
vt 0.093750 1.000000
vt 0.114583 1.000000
vt 0.093750 0.000000
vt 0.135417 1.000000
vt 0.114583 0.000000
vt 0.156250 1.000000
vt 0.135417 0.000000
vt 0.177083 1.000000
vt 0.156250 0.000000
vt 0.197917 1.000000
vt 0.177083 0.000000
vt 0.218750 1.000000
vt 0.197917 0.000000
vt 0.239583 1.000000
vt 0.218750 0.000000
vt 0.260417 0.000000
vt 0.260417 1.000000
vt 0.281250 0.000000
vt 0.281250 1.000000
vt 0.302083 0.000000
vt 0.302083 1.000000
vt 0.322917 1.000000
vt 0.343750 0.000000
vt 0.343750 1.000000
vt 0.364583 1.000000
vt 0.385417 0.000000
vt 0.385417 1.000000
vt 0.406250 1.000000
vt 0.427083 1.000000
vt 0.406250 0.000000
vt 0.447917 0.000000
vt 0.447917 1.000000
vt 0.468750 0.000000
vt 0.468750 1.000000
vt 0.489583 1.000000
vt 0.510417 1.000000
vt 0.489583 0.000000
vt 0.531250 0.000000
vt 0.531250 1.000000
vt 0.552083 0.000000
vt 0.552083 1.000000
vt 0.572917 0.000000
vt 0.572917 1.000000
vt 0.593750 0.000000
vt 0.593750 1.000000
vt 0.614583 0.000000
vt 0.614583 1.000000
vt 0.635417 0.000000
vt 0.635417 1.000000
vt 0.656250 0.000000
vt 0.656250 1.000000
vt 0.677083 0.000000
vt 0.677083 1.000000
vt 0.697917 0.000000
vt 0.697917 1.000000
vt 0.718750 0.000000
vt 0.718750 1.000000
vt 0.739583 0.000000
vt 0.739583 1.000000
vt 0.760417 1.000000
vt 0.781250 0.000000
vt 0.781250 1.000000
vt 0.802083 1.000000
vt 0.822917 1.000000
vt 0.802083 0.000000
vt 0.843750 0.000000
vt 0.843750 1.000000
vt 0.864583 1.000000
vt 0.885417 1.000000
vt 0.864583 0.000000
vt 0.906250 1.000000
vt 0.885417 0.000000
vt 0.927083 1.000000
vt 0.906250 0.000000
vt 0.947917 1.000000
vt 0.927083 0.000000
vt 0.968750 1.000000
vt 0.947917 0.000000
vt 0.166667 1.000000
vt 0.000000 0.000000
vt 0.000000 1.000000
vt 0.049505 0.000000
vt 0.039604 0.000000
vt 0.029703 0.000000
vt 1.000000 1.000000
vt 0.833333 0.000000
vt 0.833333 1.000000
vt 0.009901 0.000000
vt 0.019802 0.000000
vt 0.666667 0.000000
vt 0.666667 1.000000
vt 0.500000 0.000000
vt 0.500000 1.000000
vt 0.333333 0.000000
vt 0.333333 1.000000
vt 0.166667 0.000000
vt 0.108911 0.000000
vt 0.089109 0.000000
vt 0.128713 0.000000
vt 0.069307 0.000000
vt 0.148515 0.000000
vt 1.000000 0.000000
vt 0.980198 0.000000
vt 0.920792 0.000000
vt 0.960396 0.000000
vt 0.940594 0.000000
vt 0.881188 0.000000
vt 0.861386 0.000000
vt 0.762376 0.000000
vt 0.683168 0.000000
vt 0.841584 0.000000
vt 0.801980 0.000000
vt 0.821782 0.000000
vt 0.782178 0.000000
vt 0.742574 0.000000
vt 0.722772 0.000000
vt 0.702970 0.000000
vt 0.643564 0.000000
vt 0.623762 0.000000
vt 0.544554 0.000000
vt 0.603960 0.000000
vt 0.564356 0.000000
vt 0.584158 0.000000
vt 0.524752 0.000000
vt 0.504951 0.000000
vt 0.445545 0.000000
vt 0.485149 0.000000
vt 0.465347 0.000000
vt 0.405941 0.000000
vt 0.188119 0.000000
vt 0.386139 0.000000
vt 0.287129 0.000000
vt 0.207921 0.000000
vt 0.366337 0.000000
vt 0.326733 0.000000
vt 0.346535 0.000000
vt 0.306931 0.000000
vt 0.267327 0.000000
vt 0.247525 0.000000
vt 0.227723 0.000000
vt 0.168317 0.000000
vt 0.306931 0.000000
vt 0.326733 0.000000
vt 0.386139 0.000000
vt 0.346535 0.000000
vt 0.366337 0.000000
vt 0.405941 0.000000
vt 0.445545 0.000000
vt 0.544554 0.000000
vt 0.465347 0.000000
vt 0.524752 0.000000
vt 0.485149 0.000000
vt 0.504951 0.000000
vt 0.564356 0.000000
vt 0.623762 0.000000
vt 0.584158 0.000000
vt 0.603960 0.000000
vt 0.643564 0.000000
vt 0.663366 0.000000
vt 0.881188 0.000000
vt 0.782178 0.000000
vt 0.683168 0.000000
vt 0.702970 0.000000
vt 0.762376 0.000000
vt 0.722772 0.000000
vt 0.742574 0.000000
vt 0.801980 0.000000
vt 0.861386 0.000000
vt 0.821782 0.000000
vt 0.841584 0.000000
vt 0.920792 0.000000
vt 0.069307 0.000000
vt 0.940594 0.000000
vt 1.000000 0.000000
vt 0.960396 0.000000
vt 0.980198 0.000000
vt 0.089109 0.000000
vt 0.148515 0.000000
vt 0.108911 0.000000
vt 0.128713 0.000000
vt 0.168317 0.000000
vt 0.207921 0.000000
vt 0.227723 0.000000
vt 0.287129 0.000000
vt 0.247525 0.000000
vt 0.267327 0.000000
vt 0.052083 0.000000
vt 0.239583 0.000000
vt 0.322917 0.000000
vt 0.364583 0.000000
vt 0.427083 0.000000
vt 0.510417 0.000000
vt 0.760417 0.000000
vt 0.822917 0.000000
vt 0.968750 0.000000
vt 0.019802 0.000000
vt 0.009901 0.000000
vt 0.000000 0.000000
vt 1.000000 0.000000
vt 0.029703 0.000000
vt 0.049505 0.000000
vt 0.039604 0.000000
vn 0.9980 -0.0639 -0.0000
vn 0.9980 0.0639 0.0000
vn -0.0000 -0.0000 1.0000
vn 0.9809 -0.1943 -0.0000
vn -0.0000 0.0000 -1.0000
vn 0.9453 -0.3262 -0.0000
vn 0.8918 -0.4524 -0.0000
vn 0.8242 -0.5663 -0.0000
vn 0.7478 -0.6639 -0.0000
vn 0.6638 -0.7479 -0.0000
vn 0.5663 -0.8242 -0.0000
vn 0.4525 -0.8918 -0.0000
vn 0.3263 -0.9453 -0.0000
vn 0.1943 -0.9810 -0.0000
vn 0.0639 -0.9980 -0.0000
vn -0.0639 -0.9980 -0.0000
vn -0.1943 -0.9810 -0.0000
vn -0.3263 -0.9453 -0.0000
vn -0.4525 -0.8918 -0.0000
vn -0.5663 -0.8242 -0.0000
vn -0.6639 -0.7478 -0.0000
vn -0.7478 -0.6639 -0.0000
vn -0.8242 -0.5663 -0.0000
vn -0.8918 -0.4524 -0.0000
vn -0.9453 -0.3263 -0.0000
vn -0.9809 -0.1943 -0.0000
vn -0.9980 -0.0639 -0.0000
vn -0.9980 0.0639 0.0000
vn -0.9809 0.1943 0.0000
vn -0.9453 0.3263 0.0000
vn -0.8918 0.4524 0.0000
vn -0.8242 0.5663 0.0000
vn -0.7478 0.6639 0.0000
vn -0.6639 0.7479 0.0000
vn -0.5663 0.8242 0.0000
vn -0.4525 0.8918 0.0000
vn -0.3263 0.9453 0.0000
vn -0.1943 0.9810 0.0000
vn -0.0639 0.9980 0.0000
vn 0.0639 0.9980 0.0000
vn 0.1943 0.9810 0.0000
vn 0.3263 0.9453 0.0000
vn 0.4525 0.8918 0.0000
vn 0.5663 0.8242 0.0000
vn 0.6639 0.7478 0.0000
vn 0.7478 0.6639 0.0000
vn 0.8242 0.5663 0.0000
vn 0.8918 0.4524 0.0000
vn 0.9453 0.3262 0.0000
vn 0.9809 0.1943 0.0000
vn 0.1784 0.9840 0.0000
vn 0.0000 1.0000 0.0000
vn -0.4573 -0.8893 -0.0000
vn -0.2353 -0.9719 -0.0000
vn 0.0000 -1.0000 -0.0000
vn 0.9983 -0.0580 -0.0000
vn 0.3511 0.9363 0.0000
usemtl Material.004
s 1
f 1/1/1 5/2/2 2/3/2
f 38/4/3 86/5/3 62/6/3
f 3/7/4 4/8/1 1/1/1
f 15/9/5 40/10/5 88/11/5
f 9/12/6 6/13/4 3/7/4
f 8/14/7 9/12/6 10/15/7
f 11/16/8 8/14/7 10/15/7
f 12/17/9 13/18/8 11/16/8
f 17/19/10 14/20/9 12/17/9
f 18/21/11 15/22/10 17/19/10
f 19/23/12 16/24/11 18/21/11
f 20/25/13 21/26/12 19/23/12
f 25/27/14 22/28/13 20/25/13
f 26/29/15 23/30/14 25/27/14
f 29/31/16 26/29/15 27/32/16
f 30/33/17 27/32/16 28/34/17
f 31/35/18 28/34/17 32/36/18
f 35/37/19 31/35/18 32/36/18
f 34/38/20 35/37/19 36/39/20
f 37/40/21 34/38/20 36/39/20
f 40/41/22 37/40/21 38/42/22
f 43/43/23 40/41/22 38/42/22
f 44/44/24 41/45/23 43/43/23
f 47/46/25 44/44/24 45/47/25
f 48/48/26 45/47/25 46/49/26
f 51/50/27 48/48/26 46/49/26
f 52/51/28 49/52/27 51/50/27
f 55/53/29 52/51/28 53/54/29
f 56/55/30 53/54/29 54/56/30
f 57/57/31 54/56/30 59/58/31
f 58/59/32 59/58/31 60/60/32
f 63/61/33 60/60/32 61/62/33
f 64/63/34 61/62/33 62/64/34
f 65/65/35 62/64/34 67/66/35
f 66/67/36 67/66/35 68/68/36
f 71/69/37 68/68/36 69/70/37
f 72/71/38 69/70/37 70/72/38
f 73/73/39 70/72/38 75/74/39
f 76/75/40 73/73/39 75/74/39
f 79/76/41 76/75/40 77/77/41
f 78/78/42 79/76/41 77/77/41
f 83/79/43 80/80/42 78/78/42
f 82/81/44 83/79/43 84/82/44
f 85/83/45 82/81/44 84/82/44
f 86/84/46 87/85/45 85/83/45
f 91/86/47 88/87/46 86/84/46
f 92/88/48 89/89/47 91/86/47
f 93/90/49 90/91/48 92/88/48
f 94/92/50 95/93/49 93/90/49
f 5/2/2 94/92/50 2/3/2
f 98/94/51 100/95/52 97/96/52
f 99/97/3 105/98/3 106/99/3
f 97/100/27 102/101/27 99/102/27
f 100/95/5 101/103/5 108/104/5
f 99/102/53 103/105/54 105/106/54
f 105/106/54 104/107/55 106/108/55
f 106/108/56 108/109/56 107/110/56
f 107/110/57 101/111/51 98/94/51
f 1/1/1 4/8/1 5/2/2
f 9/112/3 3/113/3 10/114/3
f 3/113/3 1/115/3 11/116/3
f 1/115/3 2/117/3 86/5/3
f 2/117/3 94/118/3 91/119/3
f 86/5/3 2/117/3 91/119/3
f 94/118/3 93/120/3 92/121/3
f 92/121/3 91/119/3 94/118/3
f 86/5/3 85/122/3 62/6/3
f 85/122/3 84/123/3 75/124/3
f 62/6/3 75/124/3 67/125/3
f 84/123/3 83/126/3 77/127/3
f 83/126/3 78/128/3 77/127/3
f 77/127/3 76/129/3 84/123/3
f 76/129/3 75/124/3 84/123/3
f 75/124/3 70/130/3 67/125/3
f 70/130/3 69/131/3 68/132/3
f 68/132/3 67/125/3 70/130/3
f 62/6/3 61/133/3 38/4/3
f 61/133/3 60/134/3 52/135/3
f 38/4/3 61/133/3 52/135/3
f 60/134/3 59/136/3 53/137/3
f 59/136/3 54/138/3 53/137/3
f 53/137/3 52/135/3 60/134/3
f 52/135/3 51/139/3 38/4/3
f 51/139/3 46/140/3 43/141/3
f 38/4/3 51/139/3 43/141/3
f 46/140/3 45/142/3 44/143/3
f 44/143/3 43/141/3 46/140/3
f 38/4/3 37/144/3 17/145/3
f 37/144/3 36/146/3 26/147/3
f 17/145/3 26/147/3 18/148/3
f 36/146/3 35/149/3 28/150/3
f 35/149/3 32/151/3 28/150/3
f 28/150/3 27/152/3 36/146/3
f 27/152/3 26/147/3 36/146/3
f 26/147/3 25/153/3 18/148/3
f 25/153/3 20/154/3 19/155/3
f 19/155/3 18/148/3 25/153/3
f 17/145/3 12/156/3 86/5/3
f 12/156/3 11/116/3 1/115/3
f 86/5/3 12/156/3 1/115/3
f 11/116/3 10/114/3 3/113/3
f 75/124/3 62/6/3 85/122/3
f 26/147/3 17/145/3 37/144/3
f 38/4/3 17/145/3 86/5/3
f 3/7/4 6/13/4 4/8/1
f 29/157/5 30/158/5 34/159/5
f 30/158/5 31/160/5 33/161/5
f 34/159/5 30/158/5 33/161/5
f 34/159/5 39/162/5 29/157/5
f 39/162/5 40/10/5 15/9/5
f 40/10/5 41/163/5 50/164/5
f 41/163/5 42/165/5 49/166/5
f 50/164/5 41/163/5 49/166/5
f 42/165/5 47/167/5 48/168/5
f 48/168/5 49/166/5 42/165/5
f 50/164/5 55/169/5 58/170/5
f 55/169/5 56/171/5 57/172/5
f 58/170/5 55/169/5 57/172/5
f 58/170/5 63/173/5 50/164/5
f 63/173/5 64/174/5 87/175/5
f 87/175/5 64/174/5 74/176/5
f 64/174/5 65/177/5 74/176/5
f 65/177/5 66/178/5 73/179/5
f 74/176/5 65/177/5 73/179/5
f 66/178/5 71/180/5 72/181/5
f 72/181/5 73/179/5 66/178/5
f 74/176/5 79/182/5 82/183/5
f 79/182/5 80/184/5 81/185/5
f 82/183/5 79/182/5 81/185/5
f 82/183/5 87/175/5 74/176/5
f 87/175/5 88/11/5 63/173/5
f 63/173/5 88/11/5 40/10/5
f 88/11/5 89/186/5 4/187/5
f 89/186/5 90/188/5 5/189/5
f 4/187/5 89/186/5 5/189/5
f 90/188/5 95/190/5 96/191/5
f 96/191/5 5/189/5 90/188/5
f 4/187/5 6/192/5 13/193/5
f 6/192/5 7/194/5 8/195/5
f 13/193/5 6/192/5 8/195/5
f 13/193/5 14/196/5 4/187/5
f 14/196/5 15/9/5 88/11/5
f 15/9/5 16/197/5 29/157/5
f 16/197/5 21/198/5 24/199/5
f 29/157/5 16/197/5 24/199/5
f 21/198/5 22/200/5 23/201/5
f 23/201/5 24/199/5 21/198/5
f 39/162/5 15/9/5 29/157/5
f 63/173/5 40/10/5 50/164/5
f 14/196/5 88/11/5 4/187/5
f 9/12/6 7/202/6 6/13/4
f 8/14/7 7/202/6 9/12/6
f 11/16/8 13/18/8 8/14/7
f 12/17/9 14/20/9 13/18/8
f 17/19/10 15/22/10 14/20/9
f 18/21/11 16/24/11 15/22/10
f 19/23/12 21/26/12 16/24/11
f 20/25/13 22/28/13 21/26/12
f 25/27/14 23/30/14 22/28/13
f 26/29/15 24/203/15 23/30/14
f 29/31/16 24/203/15 26/29/15
f 30/33/17 29/31/16 27/32/16
f 31/35/18 30/33/17 28/34/17
f 35/37/19 33/204/19 31/35/18
f 34/38/20 33/204/19 35/37/19
f 37/40/21 39/205/21 34/38/20
f 40/41/22 39/205/21 37/40/21
f 43/43/23 41/45/23 40/41/22
f 44/44/24 42/206/24 41/45/23
f 47/46/25 42/206/24 44/44/24
f 48/48/26 47/46/25 45/47/25
f 51/50/27 49/52/27 48/48/26
f 52/51/28 50/207/28 49/52/27
f 55/53/29 50/207/28 52/51/28
f 56/55/30 55/53/29 53/54/29
f 57/57/31 56/55/30 54/56/30
f 58/59/32 57/57/31 59/58/31
f 63/61/33 58/59/32 60/60/32
f 64/63/34 63/61/33 61/62/33
f 65/65/35 64/63/34 62/64/34
f 66/67/36 65/65/35 67/66/35
f 71/69/37 66/67/36 68/68/36
f 72/71/38 71/69/37 69/70/37
f 73/73/39 72/71/38 70/72/38
f 76/75/40 74/208/40 73/73/39
f 79/76/41 74/208/40 76/75/40
f 78/78/42 80/80/42 79/76/41
f 83/79/43 81/209/43 80/80/42
f 82/81/44 81/209/43 83/79/43
f 85/83/45 87/85/45 82/81/44
f 86/84/46 88/87/46 87/85/45
f 91/86/47 89/89/47 88/87/46
f 92/88/48 90/91/48 89/89/47
f 93/90/49 95/93/49 90/91/48
f 94/92/50 96/210/50 95/93/49
f 5/2/2 96/210/50 94/92/50
f 98/94/51 101/111/51 100/95/52
f 106/99/3 107/211/3 99/97/3
f 107/211/3 98/212/3 97/213/3
f 99/97/3 107/211/3 97/213/3
f 97/100/27 100/214/27 102/101/27
f 108/104/5 104/215/5 102/216/5
f 104/215/5 103/217/5 102/216/5
f 102/216/5 100/95/5 108/104/5
f 99/102/53 102/101/53 103/105/54
f 105/106/54 103/105/54 104/107/55
f 106/108/56 104/107/56 108/109/56
f 107/110/57 108/109/57 101/111/51
