# Blender v2.92.0 OBJ File: 'letters.blend'
# www.blender.org
mtllib forward slash.mtl
o forward_slash.001_Curve.169
v 0.108889 0.552381 -0.050000
v -0.030794 0.000000 -0.050000
v 0.030793 0.552381 -0.050000
v 0.108889 0.552381 0.050000
v 0.030793 0.552381 0.050000
v -0.030794 -0.000000 0.050000
v -0.108889 -0.000000 0.050000
v -0.108889 0.000000 -0.050000
vt 0.750000 1.000000
vt 0.500000 0.000000
vt 0.500000 1.000000
vt 1.000000 0.000000
vt 0.333333 0.000000
vt 0.666667 0.000000
vt 0.250000 0.000000
vt 0.250000 1.000000
vt 1.000000 0.000000
vt 0.333333 0.000000
vt 0.000000 0.000000
vt 1.000000 1.000000
vt 0.750000 0.000000
vt 0.000000 0.000000
vt 0.000000 1.000000
vt 0.666667 0.000000
vt 1.000000 0.000000
vn 0.9695 -0.2452 0.0000
vn 0.0000 0.0000 -1.0000
vn 0.0000 1.0000 0.0000
vn 0.0000 -0.0000 1.0000
vn 0.0000 -1.0000 -0.0000
vn -0.9695 0.2452 0.0000
usemtl Material.004
s 1
f 6/1/1 1/2/1 4/3/1
f 2/4/2 3/5/2 1/6/2
f 4/3/3 3/7/3 5/8/3
f 6/9/4 5/10/4 7/11/4
f 7/12/5 2/13/5 6/1/5
f 5/8/6 8/14/6 7/15/6
f 6/1/1 2/13/1 1/2/1
f 2/4/2 8/14/2 3/5/2
f 4/3/3 1/2/3 3/7/3
f 6/9/4 4/16/4 5/10/4
f 7/12/5 8/17/5 2/13/5
f 5/8/6 3/7/6 8/14/6
