# Blender v2.92.0 OBJ File: 'letters.blend'
# www.blender.org
mtllib full stop.mtl
o full_stop.001_Curve.018
v 0.051476 0.037019 0.050000
v 0.048778 0.030617 0.050000
v 0.053275 0.043756 0.050000
v 0.051476 0.037019 -0.050000
v 0.053275 0.043756 -0.050000
v 0.048778 0.030617 -0.050000
v 0.045180 0.024550 -0.050000
v 0.040682 0.018818 -0.050000
v 0.045180 0.024550 0.050000
v 0.040682 0.018818 0.050000
v 0.035358 0.013492 0.050000
v 0.029644 0.008995 0.050000
v 0.035358 0.013492 -0.050000
v 0.029644 0.008995 -0.050000
v 0.023612 0.005397 -0.050000
v 0.017263 0.002698 -0.050000
v 0.023612 0.005397 0.050000
v 0.017263 0.002698 0.050000
v 0.010596 0.000899 0.050000
v 0.003612 0.000000 0.050000
v 0.010596 0.000899 -0.050000
v 0.003612 0.000000 -0.050000
v -0.003610 0.000000 -0.050000
v -0.010594 0.000899 -0.050000
v -0.003610 0.000000 0.050000
v -0.010594 0.000899 0.050000
v -0.017261 0.002698 0.050000
v -0.023610 0.005397 0.050000
v -0.017261 0.002698 -0.050000
v -0.023610 0.005397 -0.050000
v -0.029642 0.008995 -0.050000
v -0.035356 0.013492 -0.050000
v -0.029642 0.008995 0.050000
v -0.035356 0.013492 0.050000
v -0.040680 0.018818 0.050000
v -0.045177 0.024550 0.050000
v -0.040680 0.018818 -0.050000
v -0.045177 0.024550 -0.050000
v -0.048775 0.030618 -0.050000
v -0.051474 0.037020 -0.050000
v -0.048775 0.030618 0.050000
v -0.051474 0.037020 0.050000
v -0.053273 0.043757 0.050000
v -0.054172 0.050829 0.050000
v -0.053273 0.043757 -0.050000
v -0.054172 0.050829 -0.050000
v -0.054174 0.058152 -0.050000
v -0.053293 0.065225 -0.050000
v -0.054174 0.058152 0.050000
v -0.053293 0.065225 0.050000
v -0.051529 0.071962 0.050000
v -0.048883 0.078364 0.050000
v -0.051529 0.071962 -0.050000
v -0.048883 0.078364 -0.050000
v -0.045356 0.084431 -0.050000
v -0.040947 0.090163 -0.050000
v -0.045356 0.084431 0.050000
v -0.040947 0.090163 0.050000
v -0.035722 0.095489 0.050000
v -0.030078 0.099987 0.050000
v -0.035722 0.095489 -0.050000
v -0.030078 0.099987 -0.050000
v -0.024082 0.103584 -0.050000
v -0.024082 0.103584 0.050000
v -0.017733 0.106283 -0.050000
v -0.017733 0.106283 0.050000
v -0.011031 0.108082 -0.050000
v -0.003976 0.108981 -0.050000
v -0.011031 0.108082 0.050000
v -0.003976 0.108981 0.050000
v 0.003345 0.108981 0.050000
v 0.010418 0.108082 0.050000
v 0.003345 0.108981 -0.050000
v 0.010418 0.108082 -0.050000
v 0.017155 0.106283 -0.050000
v 0.023557 0.103584 -0.050000
v 0.017155 0.106283 0.050000
v 0.023557 0.103584 0.050000
v 0.029624 0.099987 0.050000
v 0.035356 0.095489 0.050000
v 0.029624 0.099987 -0.050000
v 0.035356 0.095489 -0.050000
v 0.040682 0.090163 -0.050000
v 0.045180 0.084431 -0.050000
v 0.040682 0.090163 0.050000
v 0.045180 0.084431 0.050000
v 0.048778 0.078363 0.050000
v 0.051476 0.071961 0.050000
v 0.048778 0.078363 -0.050000
v 0.051476 0.071961 -0.050000
v 0.053275 0.065224 -0.050000
v 0.054174 0.058152 -0.050000
v 0.053275 0.065224 0.050000
v 0.054174 0.058152 0.050000
v 0.054174 0.050829 0.050000
v 0.054174 0.050829 -0.050000
vt 0.072917 1.000000
vt 0.052083 0.000000
vt 0.052083 1.000000
vt 0.621053 0.000000
vt 0.389474 0.000000
vt 0.894737 0.000000
vt 0.031250 0.000000
vt 0.031250 1.000000
vt 0.136842 0.000000
vt 0.242105 0.000000
vt 0.368421 0.000000
vt 0.093750 1.000000
vt 0.072917 0.000000
vt 0.114583 1.000000
vt 0.093750 0.000000
vt 0.135417 1.000000
vt 0.114583 0.000000
vt 0.156250 1.000000
vt 0.135417 0.000000
vt 0.177083 1.000000
vt 0.156250 0.000000
vt 0.197917 1.000000
vt 0.177083 0.000000
vt 0.218750 1.000000
vt 0.197917 0.000000
vt 0.239583 1.000000
vt 0.218750 0.000000
vt 0.260417 0.000000
vt 0.260417 1.000000
vt 0.281250 0.000000
vt 0.281250 1.000000
vt 0.302083 0.000000
vt 0.302083 1.000000
vt 0.322917 0.000000
vt 0.322917 1.000000
vt 0.343750 0.000000
vt 0.343750 1.000000
vt 0.364583 0.000000
vt 0.364583 1.000000
vt 0.385417 0.000000
vt 0.385417 1.000000
vt 0.406250 0.000000
vt 0.406250 1.000000
vt 0.427083 0.000000
vt 0.427083 1.000000
vt 0.447917 0.000000
vt 0.447917 1.000000
vt 0.468750 0.000000
vt 0.468750 1.000000
vt 0.489583 0.000000
vt 0.489583 1.000000
vt 0.510417 0.000000
vt 0.510417 1.000000
vt 0.531250 0.000000
vt 0.531250 1.000000
vt 0.552083 0.000000
vt 0.552083 1.000000
vt 0.572917 0.000000
vt 0.572917 1.000000
vt 0.593750 0.000000
vt 0.593750 1.000000
vt 0.614583 0.000000
vt 0.614583 1.000000
vt 0.635417 0.000000
vt 0.635417 1.000000
vt 0.656250 0.000000
vt 0.656250 1.000000
vt 0.677083 0.000000
vt 0.677083 1.000000
vt 0.697917 1.000000
vt 0.718750 1.000000
vt 0.697917 0.000000
vt 0.739583 0.000000
vt 0.739583 1.000000
vt 0.760417 0.000000
vt 0.760417 1.000000
vt 0.781250 1.000000
vt 0.802083 1.000000
vt 0.781250 0.000000
vt 0.822917 0.000000
vt 0.822917 1.000000
vt 0.843750 1.000000
vt 0.864583 0.000000
vt 0.864583 1.000000
vt 0.885417 1.000000
vt 0.906250 1.000000
vt 0.885417 0.000000
vt 0.927083 1.000000
vt 0.906250 0.000000
vt 0.947917 1.000000
vt 0.927083 0.000000
vt 0.968750 1.000000
vt 0.947917 0.000000
vt 0.989583 1.000000
vt 0.968750 0.000000
vt 0.010417 1.000000
vt 0.989583 0.000000
vt 0.010417 0.000000
vt 0.221053 0.000000
vt 0.200000 0.000000
vt 0.178947 0.000000
vt 0.157895 0.000000
vt 0.136842 0.000000
vt 0.242105 0.000000
vt 0.115789 0.000000
vt 0.094737 0.000000
vt 0.010526 0.000000
vt 0.073684 0.000000
vt 0.031579 0.000000
vt 0.052632 0.000000
vt 1.000000 0.000000
vt 0.978947 0.000000
vt 0.915789 0.000000
vt 0.957895 0.000000
vt 0.936842 0.000000
vt 0.873684 0.000000
vt 0.852632 0.000000
vt 0.768421 0.000000
vt 0.831579 0.000000
vt 0.789474 0.000000
vt 0.810526 0.000000
vt 0.747368 0.000000
vt 0.642105 0.000000
vt 0.726316 0.000000
vt 0.663158 0.000000
vt 0.705263 0.000000
vt 0.684211 0.000000
vt 0.600000 0.000000
vt 0.515789 0.000000
vt 0.578947 0.000000
vt 0.557895 0.000000
vt 0.536842 0.000000
vt 0.494737 0.000000
vt 0.473684 0.000000
vt 0.410526 0.000000
vt 0.452632 0.000000
vt 0.431579 0.000000
vt 0.368421 0.000000
vt 0.347368 0.000000
vt 0.326316 0.000000
vt 0.284211 0.000000
vt 0.305263 0.000000
vt 0.263158 0.000000
vt 0.557895 0.000000
vt 0.578947 0.000000
vt 0.600000 0.000000
vt 0.621053 0.000000
vt 0.515789 0.000000
vt 0.642105 0.000000
vt 0.873684 0.000000
vt 0.389474 0.000000
vt 0.894737 0.000000
vt 0.663158 0.000000
vt 0.747368 0.000000
vt 0.684211 0.000000
vt 0.726316 0.000000
vt 0.705263 0.000000
vt 0.768421 0.000000
vt 0.789474 0.000000
vt 0.852632 0.000000
vt 0.810526 0.000000
vt 0.831579 0.000000
vt 0.915789 0.000000
vt 1.000000 0.000000
vt 0.936842 0.000000
vt 0.978947 0.000000
vt 0.957895 0.000000
vt 0.010526 0.000000
vt 0.031579 0.000000
vt 0.094737 0.000000
vt 0.052632 0.000000
vt 0.073684 0.000000
vt 0.115789 0.000000
vt 0.157895 0.000000
vt 0.178947 0.000000
vt 0.221053 0.000000
vt 0.200000 0.000000
vt 0.263158 0.000000
vt 0.347368 0.000000
vt 0.284211 0.000000
vt 0.305263 0.000000
vt 0.326316 0.000000
vt 0.410526 0.000000
vt 0.494737 0.000000
vt 0.431579 0.000000
vt 0.473684 0.000000
vt 0.452632 0.000000
vt 0.536842 0.000000
vt 0.239583 0.000000
vt 0.718750 0.000000
vt 0.802083 0.000000
vt 0.843750 0.000000
vn 0.8929 -0.4503 -0.0000
vn 0.9461 -0.3240 -0.0000
vn 0.0000 -0.0000 1.0000
vn 0.9813 -0.1925 -0.0000
vn -0.0000 0.0000 -1.0000
vn 0.8252 -0.5649 -0.0000
vn 0.7483 -0.6633 -0.0000
vn 0.6640 -0.7477 -0.0000
vn 0.5666 -0.8240 -0.0000
vn 0.4527 -0.8916 -0.0000
vn 0.5665 -0.8240 -0.0000
vn 0.3266 -0.9452 -0.0000
vn 0.1946 -0.9809 -0.0000
vn 0.0640 -0.9980 -0.0000
vn -0.0640 -0.9980 -0.0000
vn -0.1946 -0.9809 -0.0000
vn -0.3266 -0.9452 -0.0000
vn -0.4527 -0.8916 -0.0000
vn -0.5666 -0.8240 -0.0000
vn -0.5665 -0.8240 -0.0000
vn -0.6640 -0.7477 -0.0000
vn -0.7483 -0.6633 -0.0000
vn -0.8252 -0.5649 -0.0000
vn -0.8929 -0.4503 -0.0000
vn -0.9461 -0.3240 -0.0000
vn -0.9813 -0.1925 -0.0000
vn -0.9980 -0.0634 -0.0000
vn -0.9981 0.0618 0.0000
vn -0.9820 0.1889 0.0000
vn -0.9480 0.3183 0.0000
vn -0.8964 0.4433 0.0000
vn -0.8303 0.5573 0.0000
vn -0.7546 0.6562 0.0000
vn -0.6698 0.7426 0.0000
vn -0.5701 0.8216 0.0000
vn -0.4539 0.8911 0.0000
vn -0.3260 0.9454 0.0000
vn -0.1933 0.9811 0.0000
vn -0.0634 0.9980 0.0000
vn 0.0632 0.9980 0.0000
vn 0.1925 0.9813 0.0000
vn 0.3240 0.9461 0.0000
vn 0.4503 0.8929 0.0000
vn 0.5649 0.8252 0.0000
vn 0.6634 0.7483 0.0000
vn 0.7483 0.6634 0.0000
vn 0.8252 0.5649 0.0000
vn 0.8929 0.4503 0.0000
vn 0.9461 0.3240 0.0000
vn 0.9813 0.1925 0.0000
vn 0.9980 0.0632 0.0000
vn 0.9980 -0.0632 -0.0000
usemtl Material.004
s 1
f 2/1/1 4/2/2 1/3/2
f 58/4/3 35/5/3 85/6/3
f 1/3/2 5/7/4 3/8/4
f 13/9/5 22/10/5 32/11/5
f 9/12/6 6/13/1 2/1/1
f 10/14/7 7/15/6 9/12/6
f 11/16/8 8/17/7 10/14/7
f 12/18/9 13/19/8 11/16/8
f 17/20/10 14/21/11 12/18/9
f 18/22/12 15/23/10 17/20/10
f 19/24/13 16/25/12 18/22/12
f 20/26/14 21/27/13 19/24/13
f 23/28/15 20/26/14 25/29/15
f 24/30/16 25/29/15 26/31/16
f 29/32/17 26/31/16 27/33/17
f 30/34/18 27/33/17 28/35/18
f 31/36/19 28/35/18 33/37/20
f 32/38/21 33/37/20 34/39/21
f 37/40/22 34/39/21 35/41/22
f 38/42/23 35/41/22 36/43/23
f 39/44/24 36/43/23 41/45/24
f 40/46/25 41/45/24 42/47/25
f 45/48/26 42/47/25 43/49/26
f 46/50/27 43/49/26 44/51/27
f 47/52/28 44/51/27 49/53/28
f 48/54/29 49/53/28 50/55/29
f 53/56/30 50/55/29 51/57/30
f 54/58/31 51/57/30 52/59/31
f 55/60/32 52/59/31 57/61/32
f 56/62/33 57/61/32 58/63/33
f 61/64/34 58/63/33 59/65/34
f 62/66/35 59/65/34 60/67/35
f 63/68/36 60/67/35 64/69/36
f 66/70/37 63/68/36 64/69/36
f 69/71/38 65/72/37 66/70/37
f 68/73/39 69/71/38 70/74/39
f 73/75/40 70/74/39 71/76/40
f 72/77/41 73/75/40 71/76/40
f 77/78/42 74/79/41 72/77/41
f 76/80/43 77/78/42 78/81/43
f 79/82/44 76/80/43 78/81/43
f 82/83/45 79/82/44 80/84/45
f 85/85/46 82/83/45 80/84/45
f 86/86/47 83/87/46 85/85/46
f 87/88/48 84/89/47 86/86/47
f 88/90/49 89/91/48 87/88/48
f 93/92/50 90/93/49 88/90/49
f 94/94/51 91/95/50 93/92/50
f 95/96/52 92/97/51 94/94/51
f 3/8/4 96/98/52 95/96/52
f 2/1/1 6/13/1 4/2/2
f 19/99/3 18/100/3 17/101/3
f 17/101/3 12/102/3 19/99/3
f 12/102/3 11/103/3 20/104/3
f 19/99/3 12/102/3 20/104/3
f 11/103/3 10/105/3 35/5/3
f 10/105/3 9/106/3 95/107/3
f 85/6/3 10/105/3 95/107/3
f 9/106/3 2/108/3 3/109/3
f 2/108/3 1/110/3 3/109/3
f 3/109/3 95/107/3 9/106/3
f 95/107/3 94/111/3 85/6/3
f 94/111/3 93/112/3 86/113/3
f 85/6/3 94/111/3 86/113/3
f 93/112/3 88/114/3 87/115/3
f 87/115/3 86/113/3 93/112/3
f 85/6/3 80/116/3 58/4/3
f 80/116/3 79/117/3 71/118/3
f 79/117/3 78/119/3 72/120/3
f 78/119/3 77/121/3 72/120/3
f 72/120/3 71/118/3 79/117/3
f 71/118/3 70/122/3 59/123/3
f 70/122/3 69/124/3 60/125/3
f 59/123/3 70/122/3 60/125/3
f 69/124/3 66/126/3 64/127/3
f 64/127/3 60/125/3 69/124/3
f 59/123/3 58/4/3 80/116/3
f 58/4/3 57/128/3 49/129/3
f 35/5/3 58/4/3 49/129/3
f 57/128/3 52/130/3 51/131/3
f 51/131/3 50/132/3 57/128/3
f 50/132/3 49/129/3 57/128/3
f 49/129/3 44/133/3 35/5/3
f 44/133/3 43/134/3 36/135/3
f 35/5/3 44/133/3 36/135/3
f 43/134/3 42/136/3 41/137/3
f 41/137/3 36/135/3 43/134/3
f 35/5/3 34/138/3 11/103/3
f 34/138/3 33/139/3 20/104/3
f 33/139/3 28/140/3 26/141/3
f 28/140/3 27/142/3 26/141/3
f 26/141/3 25/143/3 33/139/3
f 25/143/3 20/104/3 33/139/3
f 20/104/3 11/103/3 34/138/3
f 10/105/3 85/6/3 35/5/3
f 80/116/3 71/118/3 59/123/3
f 1/3/2 4/2/2 5/7/4
f 53/144/5 54/145/5 55/146/5
f 55/146/5 56/147/5 47/148/5
f 56/147/5 61/149/5 82/150/5
f 37/151/5 56/147/5 83/152/5
f 61/149/5 62/153/5 68/154/5
f 62/153/5 63/155/5 67/156/5
f 63/155/5 65/157/5 67/156/5
f 67/156/5 68/154/5 62/153/5
f 68/154/5 73/158/5 61/149/5
f 73/158/5 74/159/5 81/160/5
f 74/159/5 75/161/5 76/162/5
f 81/160/5 74/159/5 76/162/5
f 81/160/5 82/150/5 73/158/5
f 82/150/5 83/152/5 56/147/5
f 73/158/5 82/150/5 61/149/5
f 83/152/5 84/163/5 92/164/5
f 84/163/5 89/165/5 91/166/5
f 89/165/5 90/167/5 91/166/5
f 91/166/5 92/164/5 84/163/5
f 92/164/5 96/168/5 83/152/5
f 96/168/5 5/169/5 7/170/5
f 5/169/5 4/171/5 6/172/5
f 7/170/5 5/169/5 6/172/5
f 7/170/5 8/173/5 96/168/5
f 8/173/5 13/9/5 37/151/5
f 83/152/5 8/173/5 37/151/5
f 13/9/5 14/174/5 22/10/5
f 14/174/5 15/175/5 21/176/5
f 15/175/5 16/177/5 21/176/5
f 21/176/5 22/10/5 14/174/5
f 22/10/5 23/178/5 31/179/5
f 23/178/5 24/180/5 31/179/5
f 24/180/5 29/181/5 30/182/5
f 31/179/5 24/180/5 30/182/5
f 31/179/5 32/11/5 22/10/5
f 32/11/5 37/151/5 13/9/5
f 37/151/5 38/183/5 46/184/5
f 38/183/5 39/185/5 45/186/5
f 39/185/5 40/187/5 45/186/5
f 45/186/5 46/184/5 38/183/5
f 46/184/5 47/148/5 37/151/5
f 47/148/5 48/188/5 55/146/5
f 48/188/5 53/144/5 55/146/5
f 56/147/5 37/151/5 47/148/5
f 83/152/5 96/168/5 8/173/5
f 9/12/6 7/15/6 6/13/1
f 10/14/7 8/17/7 7/15/6
f 11/16/8 13/19/8 8/17/7
f 12/18/9 14/21/11 13/19/8
f 17/20/10 15/23/10 14/21/11
f 18/22/12 16/25/12 15/23/10
f 19/24/13 21/27/13 16/25/12
f 20/26/14 22/189/14 21/27/13
f 23/28/15 22/189/14 20/26/14
f 24/30/16 23/28/15 25/29/15
f 29/32/17 24/30/16 26/31/16
f 30/34/18 29/32/17 27/33/17
f 31/36/19 30/34/18 28/35/18
f 32/38/21 31/36/19 33/37/20
f 37/40/22 32/38/21 34/39/21
f 38/42/23 37/40/22 35/41/22
f 39/44/24 38/42/23 36/43/23
f 40/46/25 39/44/24 41/45/24
f 45/48/26 40/46/25 42/47/25
f 46/50/27 45/48/26 43/49/26
f 47/52/28 46/50/27 44/51/27
f 48/54/29 47/52/28 49/53/28
f 53/56/30 48/54/29 50/55/29
f 54/58/31 53/56/30 51/57/30
f 55/60/32 54/58/31 52/59/31
f 56/62/33 55/60/32 57/61/32
f 61/64/34 56/62/33 58/63/33
f 62/66/35 61/64/34 59/65/34
f 63/68/36 62/66/35 60/67/35
f 66/70/37 65/72/37 63/68/36
f 69/71/38 67/190/38 65/72/37
f 68/73/39 67/190/38 69/71/38
f 73/75/40 68/73/39 70/74/39
f 72/77/41 74/79/41 73/75/40
f 77/78/42 75/191/42 74/79/41
f 76/80/43 75/191/42 77/78/42
f 79/82/44 81/192/44 76/80/43
f 82/83/45 81/192/44 79/82/44
f 85/85/46 83/87/46 82/83/45
f 86/86/47 84/89/47 83/87/46
f 87/88/48 89/91/48 84/89/47
f 88/90/49 90/93/49 89/91/48
f 93/92/50 91/95/50 90/93/49
f 94/94/51 92/97/51 91/95/50
f 95/96/52 96/98/52 92/97/51
f 3/8/4 5/7/4 96/98/52
