# Blender v2.92.0 OBJ File: 'letters.blend'
# www.blender.org
mtllib minus.mtl
o minus.001_Curve.013
v 0.150158 0.240714 0.050000
v 0.117143 0.307381 0.050000
v 0.150158 0.235000 0.050000
v 0.150158 0.240714 -0.050000
v 0.117143 0.307381 -0.050000
v 0.150158 0.235000 -0.050000
v -0.117143 0.235000 -0.050000
v -0.117143 0.235000 0.050000
v -0.150159 0.301032 -0.050000
v -0.150159 0.307381 -0.050000
v -0.150159 0.301032 0.050000
v -0.150159 0.307381 0.050000
vt 1.000000 1.000000
vt 0.833333 0.000000
vt 0.833333 1.000000
vt 1.000000 0.000000
vt 0.800000 0.000000
vt 0.400000 0.000000
vt 0.166667 1.000000
vt 0.000000 0.000000
vt 0.000000 1.000000
vt 0.800000 0.000000
vt 1.000000 0.000000
vt 0.400000 0.000000
vt 0.333333 1.000000
vt 0.166667 0.000000
vt 0.500000 1.000000
vt 0.333333 0.000000
vt 0.666667 1.000000
vt 0.500000 0.000000
vt 0.666667 0.000000
vt 1.000000 0.000000
vt 0.600000 0.000000
vt 0.200000 0.000000
vt 0.000000 0.000000
vt 0.200000 0.000000
vt 0.600000 0.000000
vn 0.9737 0.2279 0.0000
vn 0.8961 0.4438 0.0000
vn 0.0000 -0.0000 1.0000
vn 1.0000 0.0000 0.0000
vn -0.0000 0.0000 -1.0000
vn 0.0000 -1.0000 -0.0000
vn -0.9732 -0.2298 0.0000
vn -0.8944 -0.4472 0.0000
vn -1.0000 0.0000 0.0000
vn 0.0000 1.0000 0.0000
usemtl Material.004
s 1
f 1/1/1 5/2/2 2/3/2
f 2/4/3 12/5/3 8/6/3
f 3/7/4 4/8/1 1/9/1
f 10/10/5 5/11/5 7/12/5
f 8/13/6 6/14/6 3/7/6
f 11/15/7 7/16/8 8/13/8
f 12/17/9 9/18/7 11/15/7
f 2/3/10 10/19/10 12/17/10
f 1/1/1 4/20/1 5/2/2
f 11/21/3 8/6/3 12/5/3
f 8/6/3 3/22/3 2/4/3
f 3/22/3 1/23/3 2/4/3
f 3/7/4 6/14/4 4/8/1
f 4/8/5 6/24/5 5/11/5
f 6/24/5 7/12/5 5/11/5
f 7/12/5 9/25/5 10/10/5
f 8/13/6 7/16/6 6/14/6
f 11/15/7 9/18/7 7/16/8
f 12/17/9 10/19/9 9/18/7
f 2/3/10 5/2/10 10/19/10
