# Blender v2.92.0 OBJ File: 'letters.blend'
# www.blender.org
mtllib right bracket.mtl
o right_bracket.001_Curve.008
v -0.048869 0.659424 0.050000
v -0.062540 0.670476 0.050000
v -0.035794 0.648068 0.050000
v -0.023313 0.636408 0.050000
v -0.011428 0.624444 0.050000
v 0.010556 0.599603 0.050000
v -0.011428 0.624444 -0.050000
v -0.023313 0.636408 -0.050000
v 0.010556 0.599603 -0.050000
v 0.020655 0.586726 -0.050000
v 0.030159 0.573545 -0.050000
v 0.047381 0.546269 -0.050000
v 0.030159 0.573545 0.050000
v 0.020655 0.586726 0.050000
v 0.047381 0.546269 0.050000
v 0.055099 0.532176 0.050000
v 0.062222 0.517778 0.050000
v 0.074735 0.488448 0.050000
v 0.062222 0.517778 -0.050000
v 0.055099 0.532176 -0.050000
v 0.074735 0.488448 -0.050000
v 0.080139 0.473611 -0.050000
v 0.084973 0.458660 -0.050000
v 0.089239 0.443594 -0.050000
v 0.084973 0.458660 0.050000
v 0.080139 0.473611 0.050000
v 0.089239 0.443594 0.050000
v 0.092936 0.428413 0.050000
v 0.096065 0.413117 0.050000
v 0.100615 0.382183 0.050000
v 0.096065 0.413117 -0.050000
v 0.092936 0.428413 -0.050000
v 0.100615 0.382183 -0.050000
v 0.102037 0.366543 -0.050000
v 0.102890 0.350789 -0.050000
v 0.103175 0.334920 -0.050000
v 0.102890 0.319054 -0.050000
v 0.100615 0.287678 -0.050000
v 0.102890 0.319054 0.050000
v 0.103175 0.334920 0.050000
v 0.100615 0.287678 0.050000
v 0.092937 0.241508 0.050000
v 0.084974 0.211322 0.050000
v 0.092937 0.241508 -0.050000
v 0.084974 0.211322 -0.050000
v 0.062222 0.152381 -0.050000
v 0.030159 0.096790 -0.050000
v 0.062222 0.152381 0.050000
v 0.030159 0.096790 0.050000
v 0.020655 0.083642 0.050000
v 0.010555 0.070794 0.050000
v -0.000139 0.058245 0.050000
v -0.011429 0.045997 0.050000
v -0.062540 -0.000000 0.050000
v -0.011429 0.045997 -0.050000
v -0.000139 0.058245 -0.050000
v -0.062540 0.000000 -0.050000
v -0.103175 0.033016 -0.050000
v -0.093230 0.042606 -0.050000
v -0.103175 0.033016 0.050000
v -0.093230 0.042606 0.050000
v -0.083712 0.052540 0.050000
v -0.074623 0.062818 0.050000
v -0.065961 0.073439 0.050000
v -0.035591 0.119365 0.050000
v -0.065961 0.073439 -0.050000
v -0.035591 0.119365 -0.050000
v -0.074623 0.062818 -0.050000
v -0.083712 0.052540 -0.050000
v -0.029068 0.131706 -0.050000
v -0.022972 0.144392 -0.050000
v -0.017304 0.157421 -0.050000
v -0.012064 0.170794 -0.050000
v -0.007247 0.184350 -0.050000
v -0.012064 0.170794 0.050000
v -0.007247 0.184350 0.050000
v -0.017304 0.157421 0.050000
v -0.022972 0.144392 0.050000
v -0.029068 0.131706 0.050000
v -0.002849 0.197927 0.050000
v 0.001131 0.211528 0.050000
v 0.004691 0.225150 0.050000
v 0.010555 0.252460 0.050000
v 0.004691 0.225150 -0.050000
v 0.010555 0.252460 -0.050000
v 0.001131 0.211528 -0.050000
v -0.002849 0.197928 -0.050000
v 0.012859 0.266149 -0.050000
v 0.014744 0.279859 -0.050000
v 0.017886 0.348721 -0.050000
v 0.014744 0.279859 0.050000
v 0.017886 0.348721 0.050000
v 0.012859 0.266149 0.050000
v 0.017258 0.362504 0.050000
v 0.016210 0.376269 0.050000
v 0.014744 0.390017 0.050000
v 0.004691 0.444831 0.050000
v 0.014744 0.390017 -0.050000
v 0.016210 0.376269 -0.050000
v 0.004691 0.444831 -0.050000
v -0.012064 0.499365 -0.050000
v -0.035591 0.550970 -0.050000
v -0.012064 0.499365 0.050000
v -0.035591 0.550970 0.050000
v -0.049921 0.574683 0.050000
v -0.057727 0.586017 0.050000
v -0.065961 0.597002 0.050000
v -0.103175 0.637460 0.050000
v -0.065961 0.597002 -0.050000
v -0.103175 0.637460 -0.050000
v -0.057727 0.586017 -0.050000
v -0.049921 0.574683 -0.050000
v -0.062540 0.670476 -0.050000
v -0.048869 0.659424 -0.050000
v -0.035794 0.648068 -0.050000
v 0.017258 0.362504 -0.050000
v 0.010555 0.070794 -0.050000
v 0.020655 0.083642 -0.050000
v 0.102890 0.350789 0.050000
v 0.102037 0.366543 0.050000
vt 0.010204 1.000000
vt 0.020408 1.000000
vt 0.020408 0.000000
vt 0.701031 0.000000
vt 0.690722 0.000000
vt 0.309278 0.000000
vt 0.061224 0.000000
vt 0.040816 1.000000
vt 0.061224 1.000000
vt 0.659794 0.000000
vt 0.670103 0.000000
vt 0.329897 0.000000
vt 0.102041 0.000000
vt 0.081633 1.000000
vt 0.102041 1.000000
vt 0.142857 0.000000
vt 0.122449 1.000000
vt 0.142857 1.000000
vt 0.183673 1.000000
vt 0.193878 0.000000
vt 0.183673 0.000000
vt 0.214286 1.000000
vt 0.193878 1.000000
vt 0.234694 0.000000
vt 0.224490 0.000000
vt 0.234694 1.000000
vt 0.275510 1.000000
vt 0.255102 0.000000
vt 0.255102 1.000000
vt 0.306122 1.000000
vt 0.275510 0.000000
vt 0.326531 1.000000
vt 0.306122 0.000000
vt 0.367347 1.000000
vt 0.326531 0.000000
vt 0.408163 1.000000
vt 0.367347 0.000000
vt 0.428571 0.000000
vt 0.418367 0.000000
vt 0.428571 1.000000
vt 0.489796 1.000000
vt 0.448980 0.000000
vt 0.448980 1.000000
vt 0.500000 1.000000
vt 0.489796 0.000000
vt 0.510204 1.000000
vt 0.520408 1.000000
vt 0.520408 0.000000
vt 0.581633 1.000000
vt 0.540816 0.000000
vt 0.540816 1.000000
vt 0.602041 0.000000
vt 0.591837 0.000000
vt 0.602041 1.000000
vt 0.632653 1.000000
vt 0.642857 1.000000
vt 0.642857 0.000000
vt 0.683673 0.000000
vt 0.663265 1.000000
vt 0.683673 1.000000
vt 0.755102 0.000000
vt 0.704082 1.000000
vt 0.755102 1.000000
vt 0.765306 0.000000
vt 0.765306 1.000000
vt 0.826531 0.000000
vt 0.785714 1.000000
vt 0.826531 1.000000
vt 0.867347 0.000000
vt 0.867347 1.000000
vt 0.908163 0.000000
vt 0.908163 1.000000
vt 0.928571 0.000000
vt 0.928571 1.000000
vt 0.989796 0.000000
vt 0.948980 1.000000
vt 0.989796 1.000000
vt 1.000000 1.000000
vt 0.030612 1.000000
vt 0.030612 0.000000
vt 0.040816 0.000000
vt 0.010204 0.000000
vt 0.000000 0.000000
vt 0.000000 1.000000
vt 0.278351 0.000000
vt 0.257732 0.000000
vt 0.711340 0.000000
vt 0.247423 0.000000
vt 0.762887 0.000000
vt 0.237113 0.000000
vt 0.226804 0.000000
vt 0.216495 0.000000
vt 0.773196 0.000000
vt 0.195876 0.000000
vt 0.793814 0.000000
vt 0.185567 0.000000
vt 0.175258 0.000000
vt 0.835052 0.000000
vt 0.164948 0.000000
vt 0.154639 0.000000
vt 0.144330 0.000000
vt 0.123711 0.000000
vt 0.876289 0.000000
vt 0.113402 0.000000
vt 0.103093 0.000000
vt 0.082474 0.000000
vt 0.917526 0.000000
vt 0.072165 0.000000
vt 0.061856 0.000000
vt 0.041237 0.000000
vt 0.938144 0.000000
vt 0.030928 0.000000
vt 0.958763 0.000000
vt 0.020619 0.000000
vt 0.948454 0.000000
vt 0.010309 0.000000
vt 0.000000 0.000000
vt 1.000000 0.000000
vt 0.371134 0.000000
vt 0.639175 0.000000
vt 0.628866 0.000000
vt 0.329897 0.000000
vt 0.659794 0.000000
vt 0.618557 0.000000
vt 0.412371 0.000000
vt 0.422680 0.000000
vt 0.597938 0.000000
vt 0.608247 0.000000
vt 0.443299 0.000000
vt 0.432990 0.000000
vt 0.587629 0.000000
vt 0.494845 0.000000
vt 0.453608 0.000000
vt 0.536082 0.000000
vt 0.546392 0.000000
vt 0.525773 0.000000
vt 0.515464 0.000000
vt 0.505155 0.000000
vt 0.649485 0.000000
vt 0.783505 0.000000
vt 0.670103 0.000000
vt 0.071429 1.000000
vt 0.071429 0.000000
vt 0.081633 0.000000
vt 0.958763 0.000000
vt 1.000000 0.000000
vt 0.010309 0.000000
vt 0.020619 0.000000
vt 0.030928 0.000000
vt 0.041237 0.000000
vt 0.948454 0.000000
vt 0.061856 0.000000
vt 0.938144 0.000000
vt 0.072165 0.000000
vt 0.917526 0.000000
vt 0.082474 0.000000
vt 0.103093 0.000000
vt 0.113402 0.000000
vt 0.876289 0.000000
vt 0.123711 0.000000
vt 0.144330 0.000000
vt 0.154639 0.000000
vt 0.835052 0.000000
vt 0.164948 0.000000
vt 0.175258 0.000000
vt 0.185567 0.000000
vt 0.195876 0.000000
vt 0.793814 0.000000
vt 0.216495 0.000000
vt 0.226804 0.000000
vt 0.773196 0.000000
vt 0.237113 0.000000
vt 0.762887 0.000000
vt 0.247423 0.000000
vt 0.257732 0.000000
vt 0.278351 0.000000
vt 0.711340 0.000000
vt 0.309278 0.000000
vt 0.690722 0.000000
vt 0.371134 0.000000
vt 0.412371 0.000000
vt 0.618557 0.000000
vt 0.701031 0.000000
vt 0.422680 0.000000
vt 0.597938 0.000000
vt 0.432990 0.000000
vt 0.587629 0.000000
vt 0.443299 0.000000
vt 0.453608 0.000000
vt 0.546392 0.000000
vt 0.494845 0.000000
vt 0.536082 0.000000
vt 0.505155 0.000000
vt 0.515464 0.000000
vt 0.525773 0.000000
vt 0.783505 0.000000
vt 0.608247 0.000000
vt 0.628866 0.000000
vt 0.639175 0.000000
vt 0.649485 0.000000
vt 0.112245 1.000000
vt 0.112245 0.000000
vt 0.122449 0.000000
vt 0.153061 1.000000
vt 0.163265 1.000000
vt 0.153061 0.000000
vt 0.163265 0.000000
vt 0.173469 1.000000
vt 0.173469 0.000000
vt 0.214286 0.000000
vt 0.224490 1.000000
vt 0.244898 1.000000
vt 0.244898 0.000000
vt 0.408163 0.000000
vt 0.418367 1.000000
vt 0.438776 1.000000
vt 0.438776 0.000000
vt 0.500000 0.000000
vt 0.530612 1.000000
vt 0.530612 0.000000
vt 0.510204 0.000000
vt 0.581633 0.000000
vt 0.591837 1.000000
vt 0.612245 1.000000
vt 0.622449 1.000000
vt 0.622449 0.000000
vt 0.612245 0.000000
vt 0.653061 1.000000
vt 0.653061 0.000000
vt 0.663265 0.000000
vt 0.632653 0.000000
vt 0.693878 1.000000
vt 0.693878 0.000000
vt 0.704082 0.000000
vt 0.775510 1.000000
vt 0.775510 0.000000
vt 0.785714 0.000000
vt 0.938776 1.000000
vt 0.938776 0.000000
vt 0.948980 0.000000
vt 1.000000 0.000000
vn 0.6423 0.7665 0.0000
vn 0.6693 0.7430 0.0000
vn 0.0000 -0.0000 1.0000
vn 0.7682 0.6402 0.0000
vn 0.7295 0.6840 0.0000
vn 0.0000 0.0000 -1.0000
vn 0.8617 0.5074 0.0000
vn 0.8287 0.5596 0.0000
vn 0.9300 0.3674 0.0000
vn 0.9084 0.4181 0.0000
vn 0.9758 0.2185 0.0000
vn 0.9849 0.1730 0.0000
vn 0.9930 0.1181 0.0000
vn 0.9994 0.0360 0.0000
vn 0.9974 0.0723 0.0000
vn 0.9930 -0.1183 0.0000
vn 0.9990 -0.0451 0.0000
vn 0.9777 -0.2098 -0.0000
vn 0.9514 -0.3081 -0.0000
vn 0.9023 -0.4312 -0.0000
vn 0.8394 -0.5434 -0.0000
vn 0.7738 -0.6334 -0.0000
vn 0.7985 -0.6020 -0.0000
vn 0.6689 -0.7433 -0.0000
vn 0.7029 -0.7113 -0.0000
vn -0.6306 -0.7761 -0.0000
vn -0.7083 0.7060 0.0000
vn -0.7357 0.6773 0.0000
vn -0.8601 0.5101 0.0000
vn -0.8056 0.5925 0.0000
vn -0.9093 0.4161 0.0000
vn -0.8929 0.4503 0.0000
vn -0.9469 0.3215 0.0000
vn -0.9556 0.2945 0.0000
vn -0.9822 0.1880 0.0000
vn -0.9728 0.2315 0.0000
vn -1.0000 0.0000 0.0000
vn -0.9959 0.0910 0.0000
vn -0.9982 -0.0607 0.0000
vn -0.9714 -0.2374 0.0000
vn -0.9897 -0.1433 0.0000
vn -0.9349 -0.3550 0.0000
vn -0.8844 -0.4668 0.0000
vn -0.8401 -0.5425 0.0000
vn -0.7360 -0.6770 0.0000
vn -0.7691 -0.6392 0.0000
vn -0.6306 0.7761 0.0000
vn 0.6962 0.7179 0.0000
vn 0.6287 0.7777 0.0000
vn 0.7992 0.6011 0.0000
vn 0.8869 0.4620 0.0000
vn 0.9457 0.3250 0.0000
vn 0.9570 0.2901 0.0000
vn 0.9671 0.2546 0.0000
vn 1.0000 0.0000 0.0000
vn 0.7483 -0.6633 -0.0000
vn -0.7622 0.6474 0.0000
vn -0.6942 0.7198 0.0000
vn -0.9242 0.3819 0.0000
vn -0.9368 0.3499 0.0000
vn -0.9637 0.2669 0.0000
vn -0.9885 0.1511 0.0000
vn -0.9959 -0.0910 0.0000
vn -0.8120 -0.5836 0.0000
usemtl Material.004
s 1
f 1/1/1 3/2/2 115/3/2
f 93/4/3 83/5/3 42/6/3
f 9/7/4 5/8/5 6/9/4
f 86/10/6 84/11/6 45/12/6
f 12/13/7 13/14/8 15/15/7
f 21/16/9 17/17/10 18/18/9
f 28/19/11 31/20/12 32/21/11
f 30/22/13 31/20/12 29/23/12
f 35/24/14 34/25/15 119/26/14
f 41/27/16 37/28/17 39/29/17
f 42/30/18 38/31/16 41/27/16
f 43/32/19 44/33/18 42/30/18
f 48/34/20 45/35/19 43/32/19
f 49/36/21 46/37/20 48/34/20
f 117/38/22 118/39/23 51/40/22
f 54/41/24 55/42/25 53/43/25
f 60/44/26 57/45/26 54/41/26
f 61/46/27 62/47/28 69/48/28
f 65/49/29 66/50/30 64/51/30
f 71/52/31 70/53/32 78/54/31
f 76/55/33 80/56/34 87/57/34
f 85/58/35 82/59/36 83/60/35
f 90/61/37 91/62/38 92/63/37
f 116/64/39 92/63/37 94/65/39
f 100/66/40 96/67/41 97/68/40
f 101/69/42 97/68/40 103/70/42
f 102/71/43 103/70/42 104/72/43
f 112/73/44 104/72/43 105/74/44
f 110/75/45 107/76/46 108/77/45
f 2/78/47 110/75/47 108/77/47
f 3/2/2 4/79/48 115/3/2
f 4/79/48 5/8/5 8/80/48
f 115/3/2 4/79/48 8/80/48
f 5/8/5 7/81/5 8/80/48
f 115/3/2 114/82/1 1/1/1
f 114/82/1 113/83/49 2/84/49
f 2/84/49 1/1/1 114/82/1
f 41/85/3 39/86/3 91/87/3
f 39/86/3 40/88/3 92/89/3
f 91/87/3 39/86/3 92/89/3
f 40/88/3 119/90/3 92/89/3
f 119/90/3 120/91/3 92/89/3
f 120/91/3 30/92/3 94/93/3
f 30/92/3 29/94/3 96/95/3
f 120/91/3 94/93/3 92/89/3
f 29/94/3 28/96/3 96/95/3
f 28/96/3 27/97/3 97/98/3
f 27/97/3 25/99/3 97/98/3
f 25/99/3 26/100/3 97/98/3
f 26/100/3 18/101/3 97/98/3
f 18/101/3 17/102/3 103/103/3
f 17/102/3 16/104/3 103/103/3
f 16/104/3 15/105/3 103/103/3
f 15/105/3 13/106/3 104/107/3
f 13/106/3 14/108/3 104/107/3
f 14/108/3 6/109/3 104/107/3
f 6/109/3 5/110/3 105/111/3
f 104/107/3 6/109/3 105/111/3
f 5/110/3 4/112/3 107/113/3
f 4/112/3 3/114/3 107/113/3
f 5/110/3 107/113/3 106/115/3
f 3/114/3 1/116/3 107/113/3
f 1/116/3 2/117/3 108/118/3
f 107/113/3 1/116/3 108/118/3
f 5/110/3 106/115/3 105/111/3
f 18/101/3 103/103/3 97/98/3
f 28/96/3 97/98/3 96/95/3
f 42/6/3 41/85/3 91/87/3
f 48/119/3 76/120/3 75/121/3
f 48/119/3 43/122/3 81/123/3
f 43/122/3 42/6/3 83/5/3
f 48/119/3 77/124/3 49/125/3
f 50/126/3 49/125/3 79/127/3
f 78/128/3 49/125/3 77/124/3
f 52/129/3 51/130/3 65/131/3
f 51/130/3 50/126/3 65/131/3
f 54/132/3 53/133/3 63/134/3
f 53/133/3 52/129/3 64/135/3
f 54/132/3 63/134/3 62/136/3
f 61/137/3 60/138/3 54/132/3
f 62/136/3 61/137/3 54/132/3
f 49/125/3 78/128/3 79/127/3
f 77/124/3 48/119/3 75/121/3
f 76/120/3 48/119/3 80/139/3
f 80/139/3 48/119/3 81/123/3
f 63/134/3 53/133/3 64/135/3
f 64/135/3 52/129/3 65/131/3
f 15/105/3 104/107/3 103/103/3
f 79/127/3 65/131/3 50/126/3
f 96/95/3 95/140/3 30/92/3
f 95/140/3 94/93/3 30/92/3
f 81/123/3 43/122/3 82/141/3
f 82/141/3 43/122/3 83/5/3
f 91/87/3 93/4/3 42/6/3
f 6/9/4 14/142/50 9/7/4
f 14/142/50 13/14/8 10/143/50
f 9/7/4 14/142/50 10/143/50
f 13/14/8 11/144/8 10/143/50
f 9/7/4 7/81/5 5/8/5
f 109/145/6 110/146/6 114/147/6
f 110/146/6 113/83/6 114/147/6
f 114/147/6 115/148/6 109/145/6
f 115/148/6 8/149/6 109/145/6
f 8/149/6 7/150/6 109/145/6
f 109/145/6 7/150/6 111/151/6
f 7/150/6 9/152/6 112/153/6
f 9/152/6 10/154/6 102/155/6
f 7/150/6 112/153/6 111/151/6
f 10/154/6 11/156/6 102/155/6
f 11/156/6 12/157/6 102/155/6
f 12/157/6 20/158/6 101/159/6
f 20/158/6 19/160/6 101/159/6
f 19/160/6 21/161/6 101/159/6
f 21/161/6 22/162/6 100/163/6
f 22/162/6 23/164/6 100/163/6
f 23/164/6 24/165/6 100/163/6
f 24/165/6 32/166/6 100/163/6
f 32/166/6 31/167/6 98/168/6
f 31/167/6 33/169/6 98/168/6
f 33/169/6 34/170/6 116/171/6
f 34/170/6 35/172/6 90/173/6
f 35/172/6 36/174/6 90/173/6
f 34/170/6 90/173/6 116/171/6
f 36/174/6 37/175/6 90/173/6
f 37/175/6 38/176/6 89/177/6
f 38/176/6 44/178/6 89/177/6
f 44/178/6 45/12/6 85/179/6
f 45/12/6 46/180/6 86/10/6
f 46/180/6 47/181/6 72/182/6
f 89/177/6 44/178/6 88/183/6
f 47/181/6 118/184/6 70/185/6
f 118/184/6 117/186/6 67/187/6
f 117/186/6 56/188/6 67/187/6
f 56/188/6 55/189/6 66/190/6
f 67/187/6 56/188/6 66/190/6
f 55/189/6 57/191/6 68/192/6
f 57/191/6 58/193/6 59/194/6
f 57/191/6 59/194/6 69/195/6
f 118/184/6 67/187/6 70/185/6
f 37/175/6 89/177/6 90/173/6
f 32/166/6 98/168/6 100/163/6
f 33/169/6 116/171/6 99/196/6
f 21/161/6 100/163/6 101/159/6
f 102/155/6 12/157/6 101/159/6
f 33/169/6 99/196/6 98/168/6
f 57/191/6 69/195/6 68/192/6
f 112/153/6 9/152/6 102/155/6
f 55/189/6 68/192/6 66/190/6
f 47/181/6 70/185/6 71/197/6
f 47/181/6 71/197/6 72/182/6
f 72/182/6 73/198/6 46/180/6
f 73/198/6 74/199/6 46/180/6
f 88/183/6 44/178/6 85/179/6
f 74/199/6 87/200/6 46/180/6
f 87/200/6 86/10/6 46/180/6
f 85/179/6 45/12/6 84/11/6
f 15/15/7 16/201/51 12/13/7
f 16/201/51 17/17/10 20/202/51
f 12/13/7 16/201/51 20/202/51
f 17/17/10 19/203/10 20/202/51
f 12/13/7 11/144/8 13/14/8
f 18/18/9 26/204/52 21/16/9
f 26/204/52 25/205/53 22/206/52
f 21/16/9 26/204/52 22/206/52
f 25/205/53 23/207/53 22/206/52
f 21/16/9 19/203/10 17/17/10
f 25/205/53 27/208/54 23/207/53
f 27/208/54 28/19/11 24/209/54
f 23/207/53 27/208/54 24/209/54
f 28/19/11 29/23/12 31/20/12
f 32/21/11 24/209/54 28/19/11
f 30/22/13 33/210/13 31/20/12
f 30/22/13 120/211/15 33/210/13
f 120/211/15 119/26/14 34/25/15
f 33/210/13 120/211/15 34/25/15
f 40/212/55 39/29/17 37/28/17
f 119/26/14 40/212/55 36/213/55
f 40/212/55 37/28/17 36/213/55
f 36/213/55 35/24/14 119/26/14
f 41/27/16 38/31/16 37/28/17
f 42/30/18 44/33/18 38/31/16
f 43/32/19 45/35/19 44/33/18
f 48/34/20 46/37/20 45/35/19
f 49/36/21 47/214/21 46/37/20
f 49/36/21 50/215/23 47/214/21
f 50/215/23 51/40/22 118/39/23
f 47/214/21 50/215/23 118/39/23
f 52/216/56 53/43/25 55/42/25
f 51/40/22 52/216/56 56/217/56
f 52/216/56 55/42/25 56/217/56
f 56/217/56 117/38/22 51/40/22
f 54/41/24 57/45/24 55/42/25
f 60/44/26 58/218/26 57/45/26
f 62/47/28 63/219/57 69/48/28
f 63/219/57 64/51/30 68/220/57
f 69/48/28 63/219/57 68/220/57
f 64/51/30 66/50/30 68/220/57
f 69/48/28 59/221/27 61/46/27
f 59/221/27 58/218/58 60/44/58
f 60/44/58 61/46/27 59/221/27
f 65/49/29 67/222/29 66/50/30
f 65/49/29 79/223/32 67/222/29
f 79/223/32 78/54/31 70/53/32
f 67/222/29 79/223/32 70/53/32
f 77/224/59 75/225/60 73/226/60
f 78/54/31 77/224/59 72/227/59
f 77/224/59 73/226/60 72/227/59
f 72/227/59 71/52/31 78/54/31
f 80/56/34 81/228/61 87/57/34
f 81/228/61 82/59/36 86/229/61
f 87/57/34 81/228/61 86/229/61
f 82/59/36 84/230/36 86/229/61
f 87/57/34 74/231/33 76/55/33
f 74/231/33 73/226/60 75/225/60
f 75/225/60 76/55/33 74/231/33
f 83/60/35 93/232/62 85/58/35
f 93/232/62 91/62/38 88/233/62
f 85/58/35 93/232/62 88/233/62
f 91/62/38 89/234/38 88/233/62
f 85/58/35 84/230/36 82/59/36
f 90/61/37 89/234/38 91/62/38
f 94/65/39 95/235/63 116/64/39
f 95/235/63 96/67/41 99/236/63
f 116/64/39 95/235/63 99/236/63
f 96/67/41 98/237/41 99/236/63
f 116/64/39 90/61/37 92/63/37
f 100/66/40 98/237/41 96/67/41
f 101/69/42 100/66/40 97/68/40
f 102/71/43 101/69/42 103/70/42
f 105/74/44 106/238/64 112/73/44
f 106/238/64 107/76/46 111/239/64
f 112/73/44 106/238/64 111/239/64
f 107/76/46 109/240/46 111/239/64
f 112/73/44 102/71/43 104/72/43
f 110/75/45 109/240/46 107/76/46
f 2/78/47 113/241/47 110/75/47
