# Blender v2.92.0 OBJ File: 'letters.blend'
# www.blender.org
mtllib apostrophe.mtl
o apostrophe.001_Curve.085
v -0.027952 0.386181 0.050000
v 0.027952 0.386181 0.050000
v -0.013976 0.263191 0.050000
v -0.027952 0.386181 -0.050000
v 0.027952 0.386181 -0.050000
v -0.013976 0.263191 -0.050000
v 0.013976 0.263191 -0.050000
v 0.013976 0.263191 0.050000
vt 0.500000 1.000000
vt 0.250000 0.000000
vt 0.250000 1.000000
vt 0.000000 0.000000
vt 0.666667 0.000000
vt 0.333333 0.000000
vt 0.000000 0.000000
vt 0.000000 1.000000
vt 0.666667 0.000000
vt 1.000000 0.000000
vt 1.000000 1.000000
vt 0.750000 0.000000
vt 0.750000 1.000000
vt 0.500000 0.000000
vt 1.000000 0.000000
vt 0.333333 0.000000
vt 1.000000 0.000000
vn 0.0000 1.0000 0.0000
vn 0.0000 -0.0000 1.0000
vn -0.9936 -0.1129 0.0000
vn 0.0000 0.0000 -1.0000
vn 0.0000 -1.0000 0.0000
vn 0.9936 -0.1129 0.0000
usemtl Material.004
s 1
f 2/1/1 4/2/1 1/3/1
f 3/4/2 2/5/2 1/6/2
f 1/3/3 6/7/3 3/8/3
f 6/7/4 5/9/4 7/10/4
f 3/11/5 7/12/5 8/13/5
f 8/13/6 5/14/6 2/1/6
f 2/1/1 5/14/1 4/2/1
f 3/4/2 8/15/2 2/5/2
f 1/3/3 4/2/3 6/7/3
f 6/7/4 4/16/4 5/9/4
f 3/11/5 6/17/5 7/12/5
f 8/13/6 7/12/6 5/14/6
