# Blender v2.92.0 OBJ File: 'letters.blend'
# www.blender.org
mtllib equals.mtl
o equals_Curve.096
v -0.132774 0.283358 0.050000
v -0.152341 0.323190 0.050000
v 0.152341 0.283358 0.050000
v -0.132774 0.283358 -0.050000
v -0.152341 0.323190 -0.050000
v 0.152341 0.283358 -0.050000
v 0.152341 0.286852 -0.050000
v 0.152341 0.286852 0.050000
v 0.132774 0.327383 -0.050000
v -0.152341 0.327383 -0.050000
v 0.132774 0.327383 0.050000
v -0.152341 0.327383 0.050000
v 0.152341 0.174343 0.050000
v 0.152341 0.170849 0.050000
v 0.132774 0.214874 0.050000
v 0.152341 0.174343 -0.050000
v 0.132774 0.214874 -0.050000
v 0.152341 0.170849 -0.050000
v -0.132774 0.170849 -0.050000
v -0.152341 0.210681 -0.050000
v -0.132774 0.170849 0.050000
v -0.152341 0.210681 0.050000
v -0.152341 0.214874 0.050000
v -0.152341 0.214874 -0.050000
vt 0.500000 1.000000
vt 0.333333 0.000000
vt 0.333333 1.000000
vt 0.454545 0.000000
vt 0.363636 0.000000
vt 0.181818 0.000000
vt 0.166667 0.000000
vt 0.166667 1.000000
vt 0.181818 0.000000
vt 0.454545 0.000000
vt 0.090909 0.000000
vt 0.000000 0.000000
vt 0.000000 1.000000
vt 1.000000 1.000000
vt 0.833333 0.000000
vt 0.833333 1.000000
vt 0.666667 0.000000
vt 0.666667 1.000000
vt 0.500000 0.000000
vt 0.166667 1.000000
vt 0.000000 0.000000
vt 0.000000 1.000000
vt 1.000000 0.000000
vt 0.909091 0.000000
vt 0.727273 0.000000
vt 1.000000 1.000000
vt 0.833333 0.000000
vt 0.833333 1.000000
vt 0.909091 0.000000
vt 1.000000 0.000000
vt 0.727273 0.000000
vt 0.333333 1.000000
vt 0.166667 0.000000
vt 0.500000 1.000000
vt 0.333333 0.000000
vt 0.666667 1.000000
vt 0.500000 0.000000
vt 0.666667 0.000000
vt 0.272727 0.000000
vt 0.090909 0.000000
vt 0.000000 0.000000
vt 0.272727 0.000000
vt 0.363636 0.000000
vt 1.000000 0.000000
vt 0.818182 0.000000
vt 0.636364 0.000000
vt 0.545455 0.000000
vt 1.000000 0.000000
vt 0.545455 0.000000
vt 0.636364 0.000000
vt 0.818182 0.000000
vn -0.9741 -0.2263 0.0000
vn -0.8976 -0.4409 0.0000
vn -0.0000 -0.0000 1.0000
vn 0.0000 -1.0000 0.0000
vn 0.0000 0.0000 -1.0000
vn 1.0000 0.0000 0.0000
vn 0.9748 0.2230 0.0000
vn 0.9006 0.4347 0.0000
vn 0.0000 1.0000 0.0000
vn -1.0000 0.0000 0.0000
usemtl Material.004
s 1
f 2/1/1 4/2/2 1/3/2
f 11/4/3 12/5/3 1/6/3
f 1/3/4 6/7/4 3/8/4
f 4/9/5 9/10/5 6/11/5
f 3/8/6 7/12/7 8/13/7
f 8/14/7 9/15/8 11/16/8
f 11/16/9 10/17/9 12/18/9
f 12/18/10 5/19/1 2/1/1
f 14/20/6 16/21/7 13/22/7
f 15/23/3 23/24/3 21/25/3
f 13/26/7 17/27/8 15/28/8
f 24/29/5 17/30/5 19/31/5
f 21/32/4 18/33/4 14/20/4
f 22/34/1 19/35/2 21/32/2
f 23/36/10 20/37/1 22/34/1
f 15/28/9 24/38/9 23/36/9
f 2/1/1 5/19/1 4/2/2
f 2/39/3 1/6/3 12/5/3
f 1/6/3 3/40/3 11/4/3
f 3/40/3 8/41/3 11/4/3
f 1/3/4 4/2/4 6/7/4
f 4/9/5 5/42/5 10/43/5
f 10/43/5 9/10/5 4/9/5
f 9/10/5 7/12/5 6/11/5
f 3/8/6 6/7/6 7/12/7
f 8/14/7 7/44/7 9/15/8
f 11/16/9 9/15/9 10/17/9
f 12/18/10 10/17/10 5/19/1
f 14/20/6 18/33/6 16/21/7
f 22/45/3 21/25/3 23/24/3
f 21/25/3 14/46/3 15/23/3
f 14/46/3 13/47/3 15/23/3
f 13/26/7 16/48/7 17/27/8
f 16/49/5 18/50/5 17/30/5
f 18/50/5 19/31/5 17/30/5
f 19/31/5 20/51/5 24/29/5
f 21/32/4 19/35/4 18/33/4
f 22/34/1 20/37/1 19/35/2
f 23/36/10 24/38/10 20/37/1
f 15/28/9 17/27/9 24/38/9
