# Blender v2.92.0 OBJ File: 'letters.blend'
# www.blender.org
mtllib hashtag.mtl
o hashtag_Curve.084
v -0.055206 0.305381 0.050000
v -0.093641 0.305381 0.050000
v 0.226415 0.305381 0.050000
v -0.081062 0.169811 0.050000
v 0.075471 0.305381 0.050000
v -0.055206 0.305381 -0.050000
v 0.075471 0.305381 -0.050000
v -0.081062 0.169812 -0.050000
v -0.093641 0.305381 -0.050000
v 0.226415 0.305381 -0.050000
v 0.113906 0.305381 -0.050000
v 0.226415 0.342418 -0.050000
v -0.188679 0.305381 -0.050000
v -0.188679 0.305381 0.050000
v -0.188679 0.342418 -0.050000
v -0.086653 0.342418 -0.050000
v -0.188679 0.342418 0.050000
v -0.086653 0.342418 0.050000
v -0.060797 0.473795 0.050000
v -0.022362 0.473795 0.050000
v -0.060797 0.473795 -0.050000
v -0.022362 0.473795 -0.050000
v -0.047519 0.342418 -0.050000
v -0.047519 0.342418 0.050000
v 0.082460 0.342418 -0.050000
v 0.082460 0.342418 0.050000
v 0.108316 0.473795 -0.050000
v 0.108316 0.473795 0.050000
v 0.146750 0.473795 -0.050000
v 0.121593 0.342418 -0.050000
v 0.146750 0.473795 0.050000
v 0.121593 0.342418 0.050000
v 0.226415 0.342418 0.050000
v 0.088050 0.169812 -0.050000
v 0.113906 0.305381 0.050000
v 0.088050 0.169811 0.050000
v 0.188679 0.169811 0.050000
v 0.188679 0.132774 0.050000
v 0.188679 0.169812 -0.050000
v 0.188679 0.132774 -0.050000
v 0.081062 0.132774 -0.050000
v -0.226415 0.132774 -0.050000
v -0.127184 0.132774 -0.050000
v -0.088050 0.132774 -0.050000
v 0.041929 0.132774 -0.050000
v 0.016073 0.000000 -0.050000
v 0.041929 0.132774 0.050000
v 0.016073 0.000000 0.050000
v -0.088050 0.132774 0.050000
v 0.081062 0.132774 0.050000
v 0.055206 0.000000 0.050000
v 0.055206 0.000000 -0.050000
v -0.113906 0.000000 0.050000
v -0.127184 0.132774 0.050000
v -0.226415 0.132774 0.050000
v -0.153040 0.000000 0.050000
v -0.153040 0.000000 -0.050000
v -0.113906 0.000000 -0.050000
v -0.226415 0.169811 0.050000
v -0.226415 0.169812 -0.050000
v -0.120196 0.169811 0.050000
v -0.120196 0.169812 -0.050000
v 0.048917 0.169812 -0.050000
v 0.048917 0.169811 0.050000
vt 0.290323 0.000000
vt 0.032258 0.000000
vt 0.000000 0.000000
vt 0.096774 0.000000
vt 0.161290 0.000000
vt 0.677419 0.000000
vt 0.064516 0.000000
vt 1.000000 1.000000
vt 0.750000 0.000000
vt 0.750000 1.000000
vt 0.500000 0.000000
vt 0.500000 1.000000
vt 0.161290 0.000000
vt 0.064516 0.000000
vt 0.096774 0.000000
vt 0.000000 0.000000
vt 0.032258 0.000000
vt 0.290323 0.000000
vt 0.677419 0.000000
vt 0.071429 1.000000
vt 0.035714 0.000000
vt 0.035714 1.000000
vt 0.000000 0.000000
vt 0.000000 1.000000
vt 0.193548 0.000000
vt 0.774194 0.000000
vt 0.870968 0.000000
vt 0.709677 0.000000
vt 0.678571 1.000000
vt 0.642857 0.000000
vt 0.642857 1.000000
vt 0.607143 0.000000
vt 0.607143 1.000000
vt 0.714286 1.000000
vt 0.678571 0.000000
vt 1.000000 0.000000
vt 0.903226 0.000000
vt 0.750000 1.000000
vt 0.714286 0.000000
vt 0.785714 1.000000
vt 0.750000 0.000000
vt 0.821429 1.000000
vt 0.785714 0.000000
vt 0.857143 1.000000
vt 0.821429 0.000000
vt 0.892857 1.000000
vt 0.857143 0.000000
vt 0.928571 1.000000
vt 0.892857 0.000000
vt 0.964286 1.000000
vt 0.928571 0.000000
vt 1.000000 1.000000
vt 0.964286 0.000000
vt 0.709677 0.000000
vt 0.107143 1.000000
vt 0.071429 0.000000
vt 0.193548 0.000000
vt 0.142857 1.000000
vt 0.107143 0.000000
vt 0.178571 1.000000
vt 0.142857 0.000000
vt 0.214286 1.000000
vt 0.178571 0.000000
vt 0.322581 0.000000
vt 0.419355 0.000000
vt 0.548387 0.000000
vt 0.580645 0.000000
vt 0.451613 0.000000
vt 0.357143 1.000000
vt 0.321429 0.000000
vt 0.321429 1.000000
vt 0.354839 0.000000
vt 0.285714 0.000000
vt 0.285714 1.000000
vt 0.354839 0.000000
vt 0.419355 0.000000
vt 0.387097 0.000000
vt 0.451613 0.000000
vt 0.322581 0.000000
vt 0.250000 1.000000
vt 0.214286 0.000000
vt 0.250000 0.000000
vt 0.392857 1.000000
vt 0.357143 0.000000
vt 0.483871 0.000000
vt 0.548387 0.000000
vt 0.516129 0.000000
vt 0.500000 1.000000
vt 0.464286 0.000000
vt 0.464286 1.000000
vt 0.428571 0.000000
vt 0.428571 1.000000
vt 0.580645 0.000000
vt 0.392857 0.000000
vt 0.483871 0.000000
vt 0.535714 1.000000
vt 0.500000 0.000000
vt 0.571429 1.000000
vt 0.535714 0.000000
vt 0.571429 0.000000
vt 0.250000 1.000000
vt 0.000000 1.000000
vt 0.250000 0.000000
vt 0.225806 0.000000
vt 0.258065 0.000000
vt 0.612903 0.000000
vt 0.645161 0.000000
vt 1.000000 0.000000
vt 0.612903 0.000000
vt 0.645161 0.000000
vt 0.225806 0.000000
vt 0.258065 0.000000
vt 0.903226 0.000000
vt 0.935484 0.000000
vt 1.000000 0.000000
vt 0.967742 0.000000
vt 0.129032 0.000000
vt 0.806452 0.000000
vt 0.838710 0.000000
vt 0.741935 0.000000
vt 0.870968 0.000000
vt 0.838710 0.000000
vt 0.806452 0.000000
vt 0.774194 0.000000
vt 0.741935 0.000000
vt 0.967742 0.000000
vt 0.935484 0.000000
vt 0.129032 0.000000
vt 1.000000 0.000000
vt 0.387097 0.000000
vt 0.516129 0.000000
vn 0.0000 -0.0000 1.0000
vn 0.0000 0.0000 -1.0000
vn 0.5773 -0.5773 0.5773
vn 0.9823 -0.1873 -0.0000
vn 0.0000 -1.0000 0.0000
vn 0.5773 -0.5773 -0.5773
vn 1.0000 0.0000 0.0000
vn -1.0000 0.0000 0.0000
vn 0.0000 1.0000 0.0000
vn -0.9812 0.1931 0.0000
vn 0.9822 -0.1881 0.0000
vn -0.9816 0.1911 0.0000
vn 0.9816 -0.1911 -0.0000
vn -0.9814 0.1922 0.0000
usemtl Material.004
s 1
f 38/1/1 64/2/1 4/3/1
f 1/4/2 3/5/2 2/6/2
f 5/7/1 3/5/3 1/4/1
f 4/8/4 6/9/4 1/10/4
f 1/10/5 7/11/5 5/12/5
f 10/13/6 7/14/1 6/15/1
f 8/16/2 63/17/2 40/18/2
f 10/13/6 6/15/1 9/19/1
f 35/20/5 10/21/5 3/22/5
f 3/22/7 12/23/7 33/24/7
f 10/13/2 11/25/2 7/14/2
f 16/26/2 23/27/2 13/28/2
f 10/13/6 9/19/1 13/28/1
f 17/29/8 13/30/8 14/31/8
f 14/31/5 9/32/5 2/33/5
f 18/34/9 15/35/9 17/29/9
f 32/36/1 26/37/1 3/5/1
f 19/38/10 16/39/10 18/34/10
f 20/40/9 21/41/9 19/38/9
f 24/42/11 22/43/11 20/40/11
f 26/44/9 23/45/9 24/42/9
f 28/46/10 25/47/10 26/44/10
f 31/48/9 27/49/9 28/46/9
f 32/50/11 29/51/11 31/48/11
f 33/52/9 30/53/9 32/50/9
f 2/6/1 3/5/1 14/54/1
f 36/55/4 11/56/4 35/20/4
f 35/57/1 3/5/3 5/7/1
f 37/58/9 34/59/9 36/55/9
f 38/60/7 39/61/7 37/58/7
f 50/62/5 40/63/5 38/60/5
f 40/18/6 41/64/2 45/65/2
f 40/18/2 43/66/2 42/67/2
f 40/18/1 44/68/1 43/66/1
f 40/18/6 45/65/2 44/68/2
f 49/69/5 45/70/5 47/71/5
f 52/72/2 45/65/2 41/64/2
f 47/71/12 46/73/12 48/74/12
f 51/75/1 47/76/1 48/77/1
f 47/76/1 38/1/3 49/78/1
f 50/79/1 38/1/3 47/76/1
f 51/80/13 41/81/13 50/62/13
f 48/74/5 52/82/5 51/80/5
f 53/83/13 44/84/13 49/69/13
f 53/85/1 54/86/1 56/87/1
f 49/78/1 38/1/3 54/86/1
f 55/88/5 43/89/5 54/90/5
f 54/90/12 57/91/12 56/92/12
f 54/86/2 38/1/2 55/93/2
f 56/92/5 58/94/5 53/83/5
f 58/95/2 43/66/2 44/68/2
f 59/96/8 42/97/8 55/88/8
f 61/98/9 60/99/9 59/96/9
f 2/33/14 62/100/14 61/98/14
f 64/101/9 8/16/9 4/102/9
f 5/12/14 63/103/14 64/101/14
f 36/104/1 35/57/1 5/7/1
f 36/104/1 5/7/1 64/2/1
f 38/1/1 37/105/1 36/104/1
f 59/106/1 55/93/1 61/107/1
f 55/93/1 38/1/1 4/3/1
f 61/107/1 55/93/1 4/3/1
f 1/4/1 2/6/1 4/3/1
f 2/6/1 61/107/1 4/3/1
f 38/1/1 36/104/1 64/2/1
f 4/8/4 8/108/4 6/9/4
f 1/10/5 6/9/5 7/11/5
f 40/18/2 42/67/2 8/16/2
f 42/67/2 60/109/2 62/110/2
f 62/110/2 9/19/2 8/16/2
f 9/19/2 6/15/2 8/16/2
f 42/67/2 62/110/2 8/16/2
f 34/111/2 39/112/2 40/18/2
f 7/14/2 11/25/2 34/111/2
f 63/17/2 7/14/2 34/111/2
f 63/17/2 34/111/2 40/18/2
f 35/20/5 11/56/5 10/21/5
f 3/22/7 10/21/7 12/23/7
f 25/113/2 27/114/2 30/115/2
f 27/114/2 29/116/2 30/115/2
f 30/115/2 12/117/2 10/13/2
f 21/118/2 22/119/2 23/27/2
f 25/113/2 30/115/2 10/13/2
f 16/26/2 21/118/2 23/27/2
f 23/27/2 25/113/2 13/28/2
f 25/113/2 10/13/2 13/28/2
f 13/28/2 15/120/2 16/26/2
f 17/29/8 15/35/8 13/30/8
f 14/31/5 13/30/5 9/32/5
f 18/34/9 16/39/9 15/35/9
f 24/121/1 20/122/1 19/123/1
f 18/124/1 17/125/1 14/54/1
f 24/121/1 19/123/1 18/124/1
f 31/126/1 28/127/1 32/36/1
f 28/127/1 26/37/1 32/36/1
f 24/121/1 18/124/1 14/54/1
f 26/37/1 24/121/1 14/54/1
f 14/54/1 3/5/1 26/37/1
f 3/5/1 33/128/1 32/36/1
f 19/38/10 21/41/10 16/39/10
f 20/40/9 22/43/9 21/41/9
f 24/42/11 23/45/11 22/43/11
f 26/44/9 25/47/9 23/45/9
f 28/46/10 27/49/10 25/47/10
f 31/48/9 29/51/9 27/49/9
f 32/50/11 30/53/11 29/51/11
f 33/52/9 12/129/9 30/53/9
f 36/55/4 34/59/4 11/56/4
f 37/58/9 39/61/9 34/59/9
f 38/60/7 40/63/7 39/61/7
f 50/62/5 41/81/5 40/63/5
f 49/69/5 44/84/5 45/70/5
f 52/72/2 46/130/2 45/65/2
f 47/71/12 45/70/12 46/73/12
f 51/75/1 50/79/1 47/76/1
f 51/80/13 52/82/13 41/81/13
f 48/74/5 46/73/5 52/82/5
f 53/83/13 58/94/13 44/84/13
f 53/85/1 49/78/1 54/86/1
f 55/88/5 42/97/5 43/89/5
f 54/90/12 43/89/12 57/91/12
f 56/92/5 57/91/5 58/94/5
f 58/95/2 57/131/2 43/66/2
f 59/96/8 60/99/8 42/97/8
f 61/98/9 62/100/9 60/99/9
f 2/33/14 9/32/14 62/100/14
f 64/101/9 63/103/9 8/16/9
f 5/12/14 7/11/14 63/103/14
