# Blender v2.92.0 OBJ File: 'letters.blend'
# www.blender.org
mtllib left square bracket.mtl
o left_square_bracket_Curve.091
v 0.083159 0.607268 0.050000
v -0.037037 0.607268 0.050000
v 0.055206 0.648497 0.050000
v 0.083159 0.607268 -0.050000
v 0.055206 0.648497 -0.050000
v -0.037037 0.607268 -0.050000
v -0.037037 0.040531 -0.050000
v 0.055206 0.040531 -0.050000
v -0.037037 0.040531 0.050000
v 0.055206 0.040531 0.050000
v 0.083159 -0.000000 0.050000
v -0.047519 -0.000000 0.050000
v 0.083159 0.000000 -0.050000
v -0.047519 0.000000 -0.050000
v -0.083159 0.040531 -0.050000
v -0.083159 0.040531 0.050000
v -0.083159 0.648497 -0.050000
v -0.083159 0.648497 0.050000
vt 0.111111 1.000000
vt 0.000000 0.000000
vt 0.000000 1.000000
vt 0.125000 0.000000
vt 1.000000 0.000000
vt 0.875000 0.000000
vt 1.000000 1.000000
vt 0.888889 0.000000
vt 0.888889 1.000000
vt 0.250000 0.000000
vt 0.375000 0.000000
vt 0.625000 0.000000
vt 0.222222 1.000000
vt 0.111111 0.000000
vt 0.333333 1.000000
vt 0.222222 0.000000
vt 0.444444 1.000000
vt 0.333333 0.000000
vt 0.555556 1.000000
vt 0.444444 0.000000
vt 0.666667 1.000000
vt 0.555556 0.000000
vt 0.777778 1.000000
vt 0.666667 0.000000
vt 0.777778 0.000000
vt 0.000000 0.000000
vt 0.750000 0.000000
vt 0.625000 0.000000
vt 0.250000 0.000000
vt 0.500000 0.000000
vt 0.375000 0.000000
vt 1.000000 0.000000
vt 0.750000 0.000000
vt 0.875000 0.000000
vt 0.125000 0.000000
vt 1.000000 0.000000
vt 0.500000 0.000000
vn 0.0000 -1.0000 0.0000
vn 0.0000 -0.0000 1.0000
vn 0.8277 0.5612 0.0000
vn 0.0000 0.0000 -1.0000
vn 1.0000 0.0000 0.0000
vn 0.0000 1.0000 0.0000
vn 0.8232 0.5677 0.0000
vn -0.7510 -0.6603 -0.0000
vn -1.0000 0.0000 0.0000
usemtl Material.004
s 1
f 2/1/1 4/2/1 1/3/1
f 2/4/2 3/5/2 18/6/2
f 1/7/3 5/8/3 3/9/3
f 7/10/4 8/11/4 14/12/4
f 9/13/5 6/14/5 2/1/5
f 10/15/6 7/16/6 9/13/6
f 11/17/7 8/18/7 10/15/7
f 12/19/1 13/20/1 11/17/1
f 16/21/8 14/22/8 12/19/8
f 18/23/9 15/24/9 16/21/9
f 3/9/6 17/25/6 18/23/6
f 2/1/1 6/14/1 4/2/1
f 2/4/2 1/26/2 3/5/2
f 18/6/2 16/27/2 2/4/2
f 16/27/2 12/28/2 9/29/2
f 2/4/2 16/27/2 9/29/2
f 12/28/2 11/30/2 10/31/2
f 12/28/2 10/31/2 9/29/2
f 1/7/3 4/32/3 5/8/3
f 14/12/4 15/33/4 7/10/4
f 15/33/4 17/34/4 6/35/4
f 7/10/4 15/33/4 6/35/4
f 17/34/4 5/36/4 6/35/4
f 5/36/4 4/2/4 6/35/4
f 8/11/4 13/37/4 14/12/4
f 9/13/5 7/16/5 6/14/5
f 10/15/6 8/18/6 7/16/6
f 11/17/7 13/20/7 8/18/7
f 12/19/1 14/22/1 13/20/1
f 16/21/8 15/24/8 14/22/8
f 18/23/9 17/25/9 15/24/9
f 3/9/6 5/8/6 17/25/6
