# Blender v2.92.0 OBJ File: 'letters.blend'
# www.blender.org
mtllib A_.mtl
o A__Curve.167
v -0.078966 0.169113 0.050000
v -0.018868 0.353599 0.050000
v 0.058001 0.169113 0.050000
v -0.078966 0.169113 -0.050000
v -0.011880 0.383648 -0.050000
v -0.086653 0.143955 -0.050000
v 0.058001 0.169113 -0.050000
v 0.065688 0.143955 -0.050000
v -0.123690 0.031447 -0.050000
v -0.086653 0.143955 0.050000
v 0.065688 0.143955 0.050000
v -0.123690 0.031447 0.050000
v -0.120016 0.029874 0.050000
v -0.116216 0.028418 0.050000
v -0.108238 0.025856 0.050000
v -0.104060 0.024750 0.050000
v -0.108238 0.025856 -0.050000
v -0.116216 0.028418 -0.050000
v -0.104060 0.024750 -0.050000
v -0.099755 0.023760 -0.050000
v -0.095325 0.022886 -0.050000
v -0.090768 0.022129 -0.050000
v -0.090768 0.022129 0.050000
v -0.071279 0.020266 -0.050000
v -0.071279 0.020266 0.050000
v -0.071589 0.014597 -0.050000
v -0.071589 0.014597 0.050000
v -0.071978 0.011356 -0.050000
v -0.072521 0.007842 -0.050000
v -0.074074 0.000000 -0.050000
v -0.202655 0.000000 -0.050000
v -0.074074 -0.000000 0.050000
v -0.202655 -0.000000 0.050000
v -0.072521 0.007842 0.050000
v -0.071978 0.011356 0.050000
v -0.202345 0.006289 0.050000
v -0.199860 0.020266 0.050000
v -0.202345 0.006289 -0.050000
v -0.199860 0.020266 -0.050000
v -0.185729 0.023255 -0.050000
v -0.182584 0.024209 -0.050000
v -0.185729 0.023255 0.050000
v -0.182584 0.024208 0.050000
v -0.179595 0.025245 0.050000
v -0.176761 0.026363 0.050000
v -0.174082 0.027564 0.050000
v -0.169190 0.030214 0.050000
v -0.174082 0.027564 -0.050000
v -0.169190 0.030214 -0.050000
v -0.176761 0.026363 -0.050000
v -0.179595 0.025245 -0.050000
v -0.164920 0.033194 -0.050000
v -0.161134 0.036523 -0.050000
v -0.164920 0.033194 0.050000
v -0.161134 0.036523 0.050000
v -0.159373 0.038325 0.050000
v -0.157699 0.040221 0.050000
v -0.156112 0.042208 0.050000
v -0.153200 0.046459 0.050000
v -0.156112 0.042208 -0.050000
v -0.153200 0.046459 -0.050000
v -0.157699 0.040221 -0.050000
v -0.159373 0.038325 -0.050000
v -0.150638 0.051079 -0.050000
v -0.148425 0.056068 -0.050000
v -0.150638 0.051079 0.050000
v -0.148425 0.056068 0.050000
v -0.147449 0.058700 0.050000
v -0.023061 0.429769 0.050000
v -0.010560 0.433264 0.050000
v -0.023061 0.429769 -0.050000
v -0.010560 0.433264 -0.050000
v -0.007022 0.433919 -0.050000
v -0.003319 0.434486 -0.050000
v 0.000548 0.434967 -0.050000
v 0.004581 0.435360 -0.050000
v 0.022362 0.436059 -0.050000
v 0.004581 0.435360 0.050000
v 0.022362 0.436059 0.050000
v 0.000548 0.434967 0.050000
v -0.003319 0.434486 0.050000
v -0.007022 0.433919 0.050000
v 0.145353 0.059399 0.050000
v -0.011880 0.383648 0.050000
v 0.147643 0.052964 0.050000
v 0.148934 0.049987 0.050000
v 0.151807 0.044513 0.050000
v 0.148934 0.049987 -0.050000
v 0.147643 0.052964 -0.050000
v 0.151807 0.044513 -0.050000
v 0.155068 0.039679 -0.050000
v 0.158718 0.035487 -0.050000
v 0.155068 0.039679 0.050000
v 0.158718 0.035487 0.050000
v 0.162755 0.031934 0.050000
v 0.164920 0.030398 0.050000
v 0.162755 0.031934 -0.050000
v 0.164920 0.030398 -0.050000
v 0.169656 0.027690 -0.050000
v 0.175014 0.025390 -0.050000
v 0.169656 0.027690 0.050000
v 0.175014 0.025390 0.050000
v 0.177925 0.024393 0.050000
v 0.180992 0.023498 0.050000
v 0.187592 0.022013 0.050000
v 0.202655 0.020266 0.050000
v 0.187592 0.022013 -0.050000
v 0.180992 0.023498 -0.050000
v 0.202655 0.020266 -0.050000
v 0.200481 0.005047 -0.050000
v 0.200166 0.003625 -0.050000
v 0.200481 0.005047 0.050000
v 0.200166 0.003625 0.050000
v 0.199841 0.002310 0.050000
v 0.199506 0.001102 0.050000
v 0.199161 -0.000000 0.050000
v 0.049616 -0.000000 0.050000
v 0.199161 0.000000 -0.050000
v 0.199506 0.001102 -0.050000
v 0.049616 0.000000 -0.050000
v 0.049635 0.001956 -0.050000
v 0.049693 0.003863 -0.050000
v 0.049790 0.005722 -0.050000
v 0.049926 0.007532 -0.050000
v 0.050314 0.011006 -0.050000
v 0.049926 0.007532 0.050000
v 0.049790 0.005722 0.050000
v 0.050314 0.011006 0.050000
v 0.050567 0.012671 0.050000
v 0.050858 0.014287 0.050000
v 0.052411 0.020266 0.050000
v 0.050858 0.014287 -0.050000
v 0.050567 0.012671 -0.050000
v 0.052411 0.020266 -0.050000
v 0.062505 0.022051 -0.050000
v 0.067261 0.023061 -0.050000
v 0.071822 0.024148 -0.050000
v 0.080363 0.026555 -0.050000
v 0.071822 0.024148 0.050000
v 0.067261 0.023061 0.050000
v 0.080363 0.026555 0.050000
v 0.084343 0.027875 0.050000
v 0.088128 0.029272 0.050000
v 0.091719 0.030748 0.050000
v 0.088128 0.029272 -0.050000
v 0.091719 0.030748 -0.050000
v 0.084343 0.027875 -0.050000
v 0.095116 0.032301 -0.050000
v 0.098319 0.033931 -0.050000
v 0.101328 0.035639 -0.050000
v 0.101328 0.035639 0.050000
v 0.098319 0.033931 0.050000
v 0.095116 0.032301 0.050000
v 0.062505 0.022051 0.050000
v 0.049693 0.003863 0.050000
v 0.049635 0.001956 0.050000
v 0.199841 0.002310 -0.050000
v 0.177925 0.024393 -0.050000
v 0.145353 0.059399 -0.050000
v -0.095325 0.022886 0.050000
v -0.099755 0.023760 0.050000
v -0.120016 0.029874 -0.050000
vt 0.000000 1.000000
vt 0.250000 0.000000
vt 0.750000 0.000000
vt 0.140845 0.000000
vt 0.133803 0.000000
vt 0.056338 0.000000
vt 0.500000 1.000000
vt 0.250000 1.000000
vt 0.633803 0.000000
vt 0.647887 0.000000
vt 0.225352 0.000000
vt 0.753521 0.000000
vt 0.767606 0.000000
vt 0.204225 0.000000
vt 0.750000 1.000000
vt 0.500000 0.000000
vt 0.194245 1.000000
vt 0.187050 0.000000
vt 0.187050 1.000000
vt 0.201439 1.000000
vt 0.194245 0.000000
vt 0.215827 1.000000
vt 0.230216 0.000000
vt 0.215827 0.000000
vt 0.244604 0.000000
vt 0.237410 0.000000
vt 0.244604 1.000000
vt 0.287770 1.000000
vt 0.258993 0.000000
vt 0.258993 1.000000
vt 0.316547 1.000000
vt 0.287770 0.000000
vt 0.345324 0.000000
vt 0.330935 0.000000
vt 0.345324 1.000000
vt 0.381295 1.000000
vt 0.374101 0.000000
vt 0.374101 1.000000
vt 0.410072 0.000000
vt 0.410072 1.000000
vt 0.467626 0.000000
vt 0.467626 1.000000
vt 0.496403 1.000000
vt 0.503597 1.000000
vt 0.510791 1.000000
vt 0.510791 0.000000
vt 0.539568 1.000000
vt 0.525180 0.000000
vt 0.525180 1.000000
vt 0.553957 1.000000
vt 0.539568 0.000000
vt 0.568345 1.000000
vt 0.553957 0.000000
vt 0.575540 0.000000
vt 0.575540 1.000000
vt 0.604317 0.000000
vt 0.589928 1.000000
vt 0.604317 1.000000
vt 0.618705 1.000000
vt 0.633094 0.000000
vt 0.633094 1.000000
vt 0.640288 1.000000
vt 0.647482 0.000000
vt 0.661972 0.000000
vt 0.000000 0.000000
vt 0.021127 0.000000
vt 0.676259 1.000000
vt 0.647482 1.000000
vt 0.690647 0.000000
vt 0.683453 0.000000
vt 0.690647 1.000000
vt 0.733813 0.000000
vt 0.705036 1.000000
vt 0.733813 1.000000
vt 0.741007 0.000000
vt 0.741007 1.000000
vt 0.776978 0.000000
vt 0.762590 1.000000
vt 0.776978 1.000000
vt 0.791367 1.000000
vt 0.805755 1.000000
vt 0.791367 0.000000
vt 0.820144 1.000000
vt 0.805755 0.000000
vt 0.827338 1.000000
vt 0.820144 0.000000
vt 0.841727 0.000000
vt 0.841727 1.000000
vt 0.856115 1.000000
vt 0.870504 1.000000
vt 0.884892 0.000000
vt 0.870504 0.000000
vt 0.913669 0.000000
vt 0.884892 1.000000
vt 0.913669 1.000000
vt 0.971223 0.000000
vt 0.971223 1.000000
vt 0.978417 1.000000
vt 0.985611 1.000000
vt 0.985611 0.000000
vt 0.007194 1.000000
vt 0.000000 0.000000
vt 0.000000 1.000000
vt 0.014388 1.000000
vt 0.021583 1.000000
vt 0.021583 0.000000
vt 0.050360 0.000000
vt 0.035971 1.000000
vt 0.050360 1.000000
vt 0.093525 0.000000
vt 0.064748 1.000000
vt 0.093525 1.000000
vt 0.107914 0.000000
vt 0.107914 1.000000
vt 0.136691 0.000000
vt 0.122302 1.000000
vt 0.136691 1.000000
vt 0.158273 1.000000
vt 0.165468 1.000000
vt 0.165468 0.000000
vt 0.179856 0.000000
vt 0.179856 1.000000
vt 0.366197 0.000000
vt 0.352113 0.000000
vt 0.281690 0.000000
vt 0.338028 0.000000
vt 0.309859 0.000000
vt 0.274648 0.000000
vt 0.394366 0.000000
vt 0.429577 0.000000
vt 0.401408 0.000000
vt 0.514085 0.000000
vt 0.239437 0.000000
vt 0.521127 0.000000
vt 0.528169 0.000000
vt 0.485915 0.000000
vt 0.267606 0.000000
vt 0.260563 0.000000
vt 0.535211 0.000000
vt 0.253521 0.000000
vt 0.542253 0.000000
vt 0.232394 0.000000
vt 0.556338 0.000000
vt 0.225352 0.000000
vt 0.570423 0.000000
vt 0.584507 0.000000
vt 0.591549 0.000000
vt 0.598592 0.000000
vt 0.605634 0.000000
vt 0.619718 0.000000
vt 0.633803 0.000000
vt 0.647887 0.000000
vt 0.218310 0.000000
vt 0.654930 0.000000
vt 0.007042 0.000000
vt 0.753521 0.000000
vt 0.014085 0.000000
vt 0.211268 0.000000
vt 0.767606 0.000000
vt 0.204225 0.000000
vt 0.774648 0.000000
vt 0.788732 0.000000
vt 0.802817 0.000000
vt 0.816901 0.000000
vt 0.830986 0.000000
vt 0.197183 0.000000
vt 0.838028 0.000000
vt 0.190141 0.000000
vt 0.852113 0.000000
vt 0.183099 0.000000
vt 0.028169 0.000000
vt 0.176056 0.000000
vt 0.866197 0.000000
vt 0.169014 0.000000
vt 0.035211 0.000000
vt 0.873239 0.000000
vt 0.880282 0.000000
vt 0.161972 0.000000
vt 0.894366 0.000000
vt 0.147887 0.000000
vt 0.978873 0.000000
vt 0.922535 0.000000
vt 1.000000 0.000000
vt 0.985915 0.000000
vt 0.992958 0.000000
vt 0.049296 0.000000
vt 0.042254 0.000000
vt 0.063380 0.000000
vt 0.084507 0.000000
vt 0.077465 0.000000
vt 0.119718 0.000000
vt 0.091549 0.000000
vt 0.429577 0.000000
vt 0.485915 0.000000
vt 0.514085 0.000000
vt 0.401408 0.000000
vt 0.521127 0.000000
vt 0.394366 0.000000
vt 0.239437 0.000000
vt 0.253521 0.000000
vt 0.260563 0.000000
vt 0.352113 0.000000
vt 0.366197 0.000000
vt 0.281690 0.000000
vt 0.309859 0.000000
vt 0.338028 0.000000
vt 0.274648 0.000000
vt 0.528169 0.000000
vt 0.535211 0.000000
vt 0.267606 0.000000
vt 0.542253 0.000000
vt 0.556338 0.000000
vt 0.232394 0.000000
vt 0.570423 0.000000
vt 0.584507 0.000000
vt 0.591549 0.000000
vt 0.598592 0.000000
vt 0.007042 0.000000
vt 0.218310 0.000000
vt 0.605634 0.000000
vt 0.021127 0.000000
vt 0.661972 0.000000
vt 0.746479 0.000000
vt 0.711268 0.000000
vt 0.718310 0.000000
vt 0.697183 0.000000
vt 0.704225 0.000000
vt 0.690141 0.000000
vt 0.619718 0.000000
vt 0.077465 0.000000
vt 0.084507 0.000000
vt 0.133803 0.000000
vt 0.091549 0.000000
vt 0.119718 0.000000
vt 0.140845 0.000000
vt 0.056338 0.000000
vt 0.063380 0.000000
vt 0.049296 0.000000
vt 0.035211 0.000000
vt 0.042254 0.000000
vt 1.000000 0.000000
vt 0.028169 0.000000
vt 0.894366 0.000000
vt 0.176056 0.000000
vt 0.169014 0.000000
vt 0.985915 0.000000
vt 0.992958 0.000000
vt 0.922535 0.000000
vt 0.978873 0.000000
vt 0.147887 0.000000
vt 0.183099 0.000000
vt 0.880282 0.000000
vt 0.873239 0.000000
vt 0.161972 0.000000
vt 0.866197 0.000000
vt 0.852113 0.000000
vt 0.838028 0.000000
vt 0.190141 0.000000
vt 0.830986 0.000000
vt 0.197183 0.000000
vt 0.816901 0.000000
vt 0.802817 0.000000
vt 0.211268 0.000000
vt 0.014085 0.000000
vt 0.788732 0.000000
vt 0.774648 0.000000
vt 0.201439 0.000000
vt 0.208633 1.000000
vt 0.208633 0.000000
vt 0.230216 1.000000
vt 0.237410 1.000000
vt 0.251799 1.000000
vt 0.251799 0.000000
vt 0.316547 0.000000
vt 0.330935 1.000000
vt 0.381295 0.000000
vt 0.496403 0.000000
vt 0.517986 1.000000
vt 0.517986 0.000000
vt 0.503597 0.000000
vt 0.568345 0.000000
vt 0.582734 1.000000
vt 0.582734 0.000000
vt 0.589928 0.000000
vt 0.618705 0.000000
vt 0.746479 0.000000
vt 0.718310 0.000000
vt 0.711268 0.000000
vt 0.704225 0.000000
vt 0.697183 0.000000
vt 0.690141 0.000000
vt 0.676259 0.000000
vt 0.683453 1.000000
vt 0.697842 1.000000
vt 0.705036 0.000000
vt 0.697842 0.000000
vt 0.755396 1.000000
vt 0.755396 0.000000
vt 0.762590 0.000000
vt 0.827338 0.000000
vt 0.856115 0.000000
vt 0.863309 1.000000
vt 0.863309 0.000000
vt 0.992806 1.000000
vt 1.000000 1.000000
vt 1.000000 0.000000
vt 0.992806 0.000000
vt 0.978417 0.000000
vt 0.007194 0.000000
vt 0.028777 1.000000
vt 0.035971 0.000000
vt 0.028777 0.000000
vt 0.014388 0.000000
vt 0.057554 1.000000
vt 0.064748 0.000000
vt 0.057554 0.000000
vt 0.115108 1.000000
vt 0.115108 0.000000
vt 0.122302 0.000000
vt 0.143885 1.000000
vt 0.151079 1.000000
vt 0.143885 0.000000
vt 0.151079 0.000000
vt 0.172662 1.000000
vt 0.172662 0.000000
vt 0.158273 0.000000
vn 0.9625 -0.2712 -0.0102
vn 0.9519 -0.3063 -0.0070
vn 0.9584 -0.2848 -0.0186
vn -0.0000 -0.0000 1.0000
vn 0.0000 1.0000 0.0000
vn -0.0000 0.0000 -1.0000
vn -0.9508 -0.3097 0.0000
vn 0.0000 -1.0000 -0.0000
vn 0.9499 -0.3127 -0.0000
vn 0.3319 0.9433 0.0000
vn 0.2810 0.9597 0.0000
vn 0.2088 0.9780 0.0000
vn 0.2401 0.9707 0.0000
vn 0.0952 0.9955 0.0000
vn 0.1296 0.9916 0.0000
vn 0.9962 -0.0869 -0.0000
vn 0.9985 -0.0547 -0.0000
vn 0.9848 -0.1736 -0.0000
vn 0.9907 -0.1359 -0.0000
vn -0.9937 0.1124 0.0000
vn -0.9988 0.0493 0.0000
vn -0.9846 0.1750 0.0000
vn -0.2488 0.9686 0.0000
vn -0.2070 0.9783 0.0000
vn -0.3089 0.9511 0.0000
vn -0.3474 0.9377 0.0000
vn -0.5251 0.8511 0.0000
vn -0.4430 0.8965 0.0000
vn -0.6173 0.7867 0.0000
vn -0.6883 0.7254 0.0000
vn -0.7326 0.6807 0.0000
vn -0.8507 0.5256 0.0000
vn -0.8038 0.5949 0.0000
vn -0.8952 0.4457 0.0000
vn -0.9320 0.3624 0.0004
vn -0.9264 0.3766 0.0000
vn -0.9431 0.3325 0.0004
vn -0.9481 0.3179 0.0001
vn -0.2259 0.9742 0.0000
vn -0.2692 0.9631 0.0000
vn -0.1374 0.9905 0.0000
vn -0.1669 0.9860 0.0000
vn -0.0393 0.9992 0.0000
vn -0.0682 0.9977 0.0000
vn 0.9464 0.3229 0.0000
vn 0.9506 0.3104 0.0000
vn 0.8585 0.5128 0.0000
vn 0.9021 0.4316 0.0000
vn 0.7931 0.6091 0.0000
vn 0.7090 0.7052 0.0000
vn 0.6205 0.7842 0.0000
vn 0.5382 0.8428 0.0000
vn 0.4461 0.8950 0.0000
vn 0.3595 0.9331 0.0000
vn 0.2500 0.9682 0.0000
vn 0.1676 0.9859 0.0000
vn 0.1152 0.9933 0.0000
vn 0.9838 -0.1791 -0.0000
vn 0.9899 -0.1414 -0.0000
vn 0.9838 -0.1792 -0.0002
vn 0.9736 -0.2282 -0.0002
vn 0.9673 -0.2535 -0.0000
vn 0.9673 -0.2536 0.0004
vn -0.9998 0.0201 -0.0002
vn -0.9991 0.0413 0.0000
vn -0.9991 0.0413 0.0004
vn -0.9914 0.1306 0.0002
vn -0.9957 0.0928 -0.0002
vn -0.9915 0.1305 0.0000
vn -0.9679 0.2514 0.0000
vn -0.9768 0.2144 -0.0002
vn -0.1909 0.9816 0.0000
vn -0.1742 0.9847 0.0000
vn -0.2931 0.9561 0.0000
vn -0.2516 0.9678 0.0000
vn -0.3980 0.9174 0.0000
vn -0.4348 0.9005 0.0000
vn -0.9499 -0.3125 -0.0000
vn 0.9740 -0.2265 0.0000
vn 0.9508 -0.3097 0.0000
vn 0.3935 0.9193 0.0000
vn 0.3757 0.9267 0.0000
vn 0.2401 0.9708 0.0000
vn 0.1787 0.9839 0.0000
vn 0.9810 -0.1942 -0.0000
vn -0.3882 0.9216 0.0000
vn -0.7657 0.6433 0.0000
vn -0.7657 0.6432 0.0000
vn -0.9481 0.3178 0.0000
vn -0.1102 0.9939 0.0000
vn 0.9303 0.3668 0.0000
vn 0.3022 0.9532 0.0000
vn 0.9591 -0.2829 -0.0002
vn 0.9545 -0.2983 -0.0004
vn 0.9544 -0.2985 -0.0000
vn 0.9592 -0.2827 0.0002
vn 0.9736 -0.2284 0.0002
vn -0.9980 0.0636 -0.0002
vn -0.9957 0.0930 0.0000
vn -0.9980 0.0634 0.0002
vn -0.9998 0.0203 0.0002
vn -0.9999 0.0102 -0.0004
vn -1.0000 0.0099 0.0000
vn -0.9865 0.1638 -0.0002
vn -0.9767 0.2145 0.0000
vn -0.9865 0.1635 0.0002
vn -0.2197 0.9756 0.0000
vn -0.3307 0.9438 0.0000
vn -0.3632 0.9317 0.0000
vn -0.4738 0.8806 0.0000
vn -0.4937 0.8696 0.0000
usemtl Material.004
s 1
f 2/1/1 4/2/2 5/3/3
f 140/4/4 154/5/4 127/6/4
f 3/7/5 4/2/5 1/8/5
f 64/9/6 65/10/6 9/11/6
f 159/12/6 89/13/6 150/14/6
f 84/15/7 7/16/7 3/7/7
f 10/17/8 8/18/8 11/19/8
f 12/20/9 6/21/9 10/17/9
f 14/22/10 17/23/11 18/24/10
f 20/25/12 19/26/13 161/27/12
f 25/28/14 22/29/15 23/30/15
f 27/31/16 24/32/17 25/28/17
f 29/33/18 28/34/19 34/35/18
f 33/36/8 30/37/8 32/38/8
f 38/39/20 33/36/21 36/40/20
f 39/41/22 36/40/20 37/42/22
f 42/43/23 39/41/24 37/42/24
f 43/44/25 44/45/26 51/46/26
f 47/47/27 48/48/28 46/49/28
f 54/50/29 49/51/27 47/47/27
f 55/52/30 52/53/29 54/50/29
f 63/54/31 55/52/30 56/55/31
f 61/56/32 58/57/33 59/58/32
f 66/59/34 61/56/32 59/58/32
f 65/60/35 66/59/34 67/61/36
f 65/60/35 68/62/37 71/63/38
f 69/64/4 2/65/4 84/66/4
f 70/67/39 71/63/40 69/68/40
f 74/69/41 73/70/42 81/71/41
f 77/72/43 78/73/44 79/74/43
f 159/75/45 79/74/46 83/76/45
f 90/77/47 86/78/48 87/79/47
f 93/80/49 90/77/47 87/79/47
f 94/81/50 91/82/49 93/80/49
f 95/83/51 92/84/50 94/81/50
f 96/85/52 97/86/51 95/83/51
f 99/87/53 96/85/52 101/88/53
f 102/89/54 99/87/53 101/88/53
f 104/90/55 107/91/56 108/92/55
f 109/93/57 105/94/56 106/95/57
f 110/96/58 106/95/59 112/97/60
f 113/98/61 114/99/62 157/100/63
f 117/101/8 118/102/8 116/103/8
f 156/104/64 155/105/65 122/106/66
f 125/107/67 126/108/68 128/109/69
f 134/110/70 130/111/71 131/112/70
f 135/113/72 131/112/73 154/114/72
f 138/115/74 139/116/75 141/117/74
f 144/118/76 153/119/77 148/120/77
f 11/19/78 150/121/78 151/122/78
f 5/3/3 84/15/79 2/1/1
f 2/1/1 1/8/80 4/2/2
f 34/123/4 35/124/4 23/125/4
f 35/124/4 27/126/4 23/125/4
f 27/126/4 25/127/4 23/125/4
f 23/125/4 160/128/4 32/129/4
f 34/123/4 23/125/4 32/129/4
f 36/130/4 33/131/4 42/132/4
f 33/131/4 32/129/4 14/133/4
f 43/134/4 33/131/4 44/135/4
f 42/132/4 37/136/4 36/130/4
f 43/134/4 42/132/4 33/131/4
f 160/128/4 161/137/4 32/129/4
f 161/137/4 16/138/4 32/129/4
f 44/135/4 33/131/4 45/139/4
f 14/133/4 32/129/4 15/140/4
f 15/140/4 32/129/4 16/138/4
f 45/139/4 33/131/4 46/141/4
f 33/131/4 14/133/4 13/142/4
f 46/141/4 33/131/4 13/142/4
f 47/143/4 46/141/4 12/144/4
f 46/141/4 13/142/4 12/144/4
f 54/145/4 47/143/4 12/144/4
f 55/146/4 54/145/4 12/144/4
f 56/147/4 55/146/4 12/144/4
f 57/148/4 56/147/4 12/144/4
f 58/149/4 57/148/4 12/144/4
f 59/150/4 58/149/4 12/144/4
f 66/151/4 59/150/4 12/144/4
f 66/151/4 12/144/4 67/152/4
f 12/144/4 10/153/4 68/154/4
f 67/152/4 12/144/4 68/154/4
f 2/65/4 68/154/4 1/155/4
f 1/155/4 68/154/4 10/153/4
f 83/156/4 84/66/4 3/157/4
f 1/155/4 10/153/4 11/158/4
f 85/159/4 83/156/4 151/160/4
f 83/156/4 3/157/4 11/158/4
f 86/161/4 85/159/4 151/160/4
f 83/156/4 11/158/4 151/160/4
f 3/157/4 1/155/4 11/158/4
f 87/162/4 151/160/4 93/163/4
f 87/162/4 86/161/4 151/160/4
f 94/164/4 93/163/4 151/160/4
f 94/164/4 151/160/4 95/165/4
f 151/160/4 152/166/4 95/165/4
f 95/165/4 152/166/4 96/167/4
f 152/166/4 153/168/4 96/167/4
f 96/167/4 153/168/4 101/169/4
f 153/168/4 144/170/4 101/169/4
f 101/169/4 144/170/4 116/171/4
f 144/170/4 143/172/4 116/171/4
f 102/173/4 101/169/4 116/171/4
f 143/172/4 142/174/4 117/175/4
f 116/171/4 143/172/4 117/175/4
f 103/176/4 102/173/4 116/171/4
f 103/176/4 116/171/4 104/177/4
f 142/174/4 141/178/4 117/175/4
f 104/177/4 116/171/4 105/179/4
f 141/178/4 139/180/4 117/175/4
f 112/181/4 106/182/4 105/179/4
f 105/179/4 116/171/4 115/183/4
f 139/180/4 140/4/4 117/175/4
f 113/184/4 112/181/4 105/179/4
f 115/183/4 114/185/4 105/179/4
f 114/185/4 113/184/4 105/179/4
f 155/186/4 156/187/4 140/4/4
f 156/187/4 117/175/4 140/4/4
f 126/188/4 127/6/4 154/5/4
f 127/6/4 155/186/4 140/4/4
f 129/189/4 128/190/4 154/5/4
f 128/190/4 126/188/4 154/5/4
f 131/191/4 130/192/4 154/5/4
f 130/192/4 129/189/4 154/5/4
f 3/7/5 7/16/5 4/2/5
f 38/193/6 39/194/6 40/195/6
f 38/193/6 40/195/6 31/196/6
f 40/195/6 41/197/6 31/196/6
f 30/198/6 31/196/6 18/199/6
f 30/198/6 17/200/6 19/201/6
f 28/202/6 29/203/6 22/204/6
f 29/203/6 30/198/6 22/204/6
f 24/205/6 26/206/6 22/204/6
f 26/206/6 28/202/6 22/204/6
f 17/200/6 30/198/6 18/199/6
f 22/204/6 30/198/6 21/207/6
f 41/197/6 51/208/6 31/196/6
f 51/208/6 50/209/6 31/196/6
f 21/207/6 30/198/6 20/210/6
f 20/210/6 30/198/6 19/201/6
f 50/209/6 48/211/6 31/196/6
f 48/211/6 49/212/6 9/11/6
f 31/196/6 48/211/6 162/213/6
f 49/212/6 52/214/6 9/11/6
f 18/199/6 31/196/6 162/213/6
f 162/213/6 48/211/6 9/11/6
f 52/214/6 53/215/6 9/11/6
f 53/215/6 63/216/6 9/11/6
f 63/216/6 62/217/6 9/11/6
f 4/218/6 6/219/6 65/10/6
f 6/219/6 9/11/6 65/10/6
f 9/11/6 62/217/6 60/220/6
f 5/221/6 4/218/6 71/222/6
f 77/223/6 159/12/6 5/221/6
f 75/224/6 76/225/6 5/221/6
f 76/225/6 77/223/6 5/221/6
f 73/226/6 74/227/6 5/221/6
f 74/227/6 75/224/6 5/221/6
f 71/222/6 72/228/6 5/221/6
f 72/228/6 73/226/6 5/221/6
f 65/10/6 71/222/6 4/218/6
f 9/11/6 60/220/6 61/229/6
f 9/11/6 61/229/6 64/9/6
f 125/230/6 133/231/6 135/232/6
f 133/231/6 132/233/6 135/232/6
f 132/233/6 134/234/6 135/232/6
f 135/232/6 136/235/6 123/236/6
f 124/237/6 135/232/6 123/236/6
f 124/237/6 125/230/6 135/232/6
f 122/238/6 123/236/6 136/235/6
f 120/239/6 121/240/6 136/235/6
f 121/240/6 122/238/6 136/235/6
f 119/241/6 118/242/6 107/243/6
f 118/242/6 120/239/6 145/244/6
f 145/244/6 120/239/6 147/245/6
f 111/246/6 157/247/6 107/243/6
f 157/247/6 119/241/6 107/243/6
f 109/248/6 110/249/6 107/243/6
f 110/249/6 111/246/6 107/243/6
f 120/239/6 136/235/6 137/250/6
f 118/242/6 145/244/6 146/251/6
f 108/252/6 107/243/6 118/242/6
f 158/253/6 108/252/6 118/242/6
f 120/239/6 137/250/6 138/254/6
f 120/239/6 138/254/6 147/245/6
f 100/255/6 158/253/6 118/242/6
f 99/256/6 100/255/6 118/242/6
f 118/242/6 146/251/6 99/256/6
f 98/257/6 99/256/6 148/258/6
f 148/258/6 99/256/6 146/251/6
f 97/259/6 98/257/6 149/260/6
f 98/257/6 148/258/6 149/260/6
f 92/261/6 97/259/6 150/14/6
f 97/259/6 149/260/6 150/14/6
f 91/262/6 92/261/6 150/14/6
f 8/263/6 6/219/6 7/264/6
f 6/219/6 4/218/6 7/264/6
f 91/262/6 150/14/6 90/265/6
f 150/14/6 8/263/6 159/12/6
f 90/265/6 150/14/6 88/266/6
f 88/266/6 150/14/6 89/13/6
f 7/264/6 5/221/6 159/12/6
f 7/264/6 159/12/6 8/263/6
f 84/15/7 5/3/7 7/16/7
f 10/17/8 6/21/8 8/18/8
f 12/20/9 9/267/9 6/21/9
f 12/20/81 13/268/82 9/267/81
f 13/268/82 14/22/10 162/269/82
f 9/267/81 13/268/82 162/269/82
f 14/22/10 15/270/11 17/23/11
f 18/24/10 162/269/82 14/22/10
f 15/270/11 16/271/83 17/23/11
f 16/271/83 161/27/12 19/26/13
f 17/23/11 16/271/83 19/26/13
f 160/272/84 23/30/15 22/29/15
f 161/27/12 160/272/84 21/273/84
f 160/272/84 22/29/15 21/273/84
f 21/273/84 20/25/12 161/27/12
f 25/28/14 24/32/14 22/29/15
f 27/31/16 26/274/16 24/32/17
f 26/274/16 27/31/16 35/275/19
f 34/35/18 32/38/85 30/37/85
f 26/274/16 35/275/19 28/34/19
f 35/275/19 34/35/18 28/34/19
f 30/37/85 29/33/18 34/35/18
f 33/36/8 31/276/8 30/37/8
f 38/39/20 31/276/21 33/36/21
f 39/41/22 38/39/20 36/40/20
f 42/43/23 40/277/23 39/41/24
f 44/45/26 45/278/86 51/46/26
f 45/278/86 46/49/28 50/279/86
f 51/46/26 45/278/86 50/279/86
f 46/49/28 48/48/28 50/279/86
f 51/46/26 41/280/25 43/44/25
f 41/280/25 40/277/23 42/43/23
f 42/43/23 43/44/25 41/280/25
f 47/47/27 49/51/27 48/48/28
f 54/50/29 52/53/29 49/51/27
f 55/52/30 53/281/30 52/53/29
f 56/55/31 57/282/87 63/54/31
f 57/282/87 58/57/33 62/283/88
f 63/54/31 57/282/87 62/283/88
f 58/57/33 60/284/33 62/283/88
f 63/54/31 53/281/30 55/52/30
f 61/56/32 60/284/33 58/57/33
f 66/59/34 64/285/34 61/56/32
f 65/60/35 64/285/34 66/59/34
f 67/61/36 68/62/37 65/60/35
f 68/62/37 69/68/89 71/63/38
f 84/66/4 83/156/4 79/286/4
f 79/286/4 78/287/4 84/66/4
f 78/287/4 80/288/4 84/66/4
f 80/288/4 81/289/4 84/66/4
f 81/289/4 82/290/4 84/66/4
f 82/290/4 70/291/4 84/66/4
f 70/291/4 69/64/4 84/66/4
f 69/64/4 68/154/4 2/65/4
f 70/67/39 72/292/39 71/63/40
f 70/67/39 82/293/42 72/292/39
f 82/293/42 81/71/41 73/70/42
f 72/292/39 82/293/42 73/70/42
f 80/294/90 78/73/44 76/295/44
f 81/71/41 80/294/90 75/296/90
f 80/294/90 76/295/44 75/296/90
f 75/296/90 74/69/41 81/71/41
f 77/72/43 76/295/44 78/73/44
f 83/76/45 85/297/91 159/75/45
f 85/297/91 86/78/48 89/298/91
f 159/75/45 85/297/91 89/298/91
f 86/78/48 88/299/48 89/298/91
f 159/75/45 77/72/46 79/74/46
f 90/77/47 88/299/48 86/78/48
f 93/80/49 91/82/49 90/77/47
f 94/81/50 92/84/50 91/82/49
f 95/83/51 97/86/51 92/84/50
f 96/85/52 98/300/52 97/86/51
f 99/87/53 98/300/52 96/85/52
f 102/89/54 100/301/54 99/87/53
f 102/89/54 103/302/92 100/301/54
f 103/302/92 104/90/55 158/303/92
f 100/301/54 103/302/92 158/303/92
f 104/90/55 105/94/56 107/91/56
f 108/92/55 158/303/92 104/90/55
f 109/93/57 107/91/56 105/94/56
f 110/96/58 109/93/59 106/95/59
f 114/99/62 115/304/93 157/100/63
f 115/304/93 116/305/94 157/100/63
f 116/305/94 118/306/95 119/307/96
f 157/100/63 111/308/97 112/97/60
f 111/308/97 110/96/58 112/97/60
f 116/305/94 119/307/96 157/100/63
f 112/97/60 113/98/61 157/100/63
f 117/101/8 120/309/8 118/102/8
f 155/105/65 127/310/98 122/106/66
f 127/310/98 126/108/68 122/106/66
f 126/108/68 124/311/99 123/312/100
f 122/106/66 121/313/101 117/101/102
f 121/313/101 120/309/103 117/101/102
f 126/108/68 123/312/100 122/106/66
f 117/101/102 156/104/64 122/106/66
f 128/109/69 129/314/104 125/107/67
f 129/314/104 130/111/71 125/107/67
f 130/111/71 132/315/105 133/316/106
f 125/107/67 124/311/99 126/108/68
f 130/111/71 133/316/106 125/107/67
f 134/110/70 132/315/105 130/111/71
f 154/114/72 140/317/107 135/113/72
f 140/317/107 139/116/75 136/318/107
f 135/113/72 140/317/107 136/318/107
f 139/116/75 137/319/75 136/318/107
f 135/113/72 134/110/73 131/112/73
f 141/117/74 142/320/108 138/115/74
f 142/320/108 143/321/109 147/322/108
f 138/115/74 142/320/108 147/322/108
f 143/321/109 145/323/109 147/322/108
f 138/115/74 137/319/75 139/116/75
f 153/119/77 152/324/110 148/120/77
f 152/324/110 151/122/111 149/325/110
f 148/120/77 152/324/110 149/325/110
f 151/122/111 150/121/111 149/325/110
f 148/120/77 146/326/76 144/118/76
f 146/326/76 145/323/109 143/321/109
f 143/321/109 144/118/76 146/326/76
f 11/19/78 8/18/78 150/121/78
