# Blender v2.92.0 OBJ File: 'letters.blend'
# www.blender.org
mtllib c.mtl
o c_Curve.140
v 0.131232 0.051013 0.050000
v 0.112840 0.035426 0.050000
v 0.122148 0.062194 0.050000
v 0.131232 0.051013 -0.050000
v 0.122148 0.062194 -0.050000
v 0.112840 0.035426 -0.050000
v 0.094001 0.022673 -0.050000
v 0.074716 0.012753 -0.050000
v 0.094001 0.022673 0.050000
v 0.074716 0.012753 0.050000
v 0.054984 0.005668 0.050000
v 0.034806 0.001417 0.050000
v 0.054984 0.005668 -0.050000
v 0.034806 0.001417 -0.050000
v 0.014181 0.000000 -0.050000
v -0.006084 0.001233 -0.050000
v 0.014181 0.000000 0.050000
v -0.006084 0.001233 0.050000
v -0.025185 0.004931 0.050000
v -0.043121 0.011094 0.050000
v -0.025185 0.004931 -0.050000
v -0.043121 0.011094 -0.050000
v -0.059893 0.019722 -0.050000
v -0.059893 0.019722 0.050000
v -0.075500 0.030816 -0.050000
v -0.075500 0.030816 0.050000
v -0.089942 0.044375 -0.050000
v -0.102647 0.060020 -0.050000
v -0.089942 0.044375 0.050000
v -0.102647 0.060020 0.050000
v -0.108133 0.068484 0.050000
v -0.117373 0.086692 0.050000
v -0.108133 0.068484 -0.050000
v -0.117373 0.086692 -0.050000
v -0.124302 0.106608 -0.050000
v -0.128922 0.128232 -0.050000
v -0.124302 0.106608 0.050000
v -0.128922 0.128232 0.050000
v -0.131232 0.151565 0.050000
v -0.131206 0.176203 0.050000
v -0.131232 0.151565 -0.050000
v -0.131206 0.176203 -0.050000
v -0.128682 0.199729 -0.050000
v -0.123635 0.221742 -0.050000
v -0.128682 0.199729 0.050000
v -0.123635 0.221742 0.050000
v -0.116065 0.242240 0.050000
v -0.105971 0.261225 0.050000
v -0.116065 0.242240 -0.050000
v -0.105971 0.261225 -0.050000
v -0.093353 0.278695 -0.050000
v -0.078348 0.294508 -0.050000
v -0.093353 0.278695 0.050000
v -0.078348 0.294508 0.050000
v -0.061771 0.307805 0.050000
v -0.043757 0.318442 0.050000
v -0.061771 0.307805 -0.050000
v -0.043757 0.318442 -0.050000
v -0.034211 0.322764 -0.050000
v -0.014043 0.329412 -0.050000
v -0.034211 0.322764 0.050000
v -0.014043 0.329412 0.050000
v 0.007562 0.333401 0.050000
v 0.030603 0.334731 0.050000
v 0.007562 0.333401 -0.050000
v 0.030603 0.334731 -0.050000
v 0.048753 0.333974 -0.050000
v 0.065932 0.331703 -0.050000
v 0.048753 0.333974 0.050000
v 0.065932 0.331703 0.050000
v 0.082141 0.327918 0.050000
v 0.082141 0.327918 -0.050000
v 0.097379 0.322618 0.050000
v 0.111646 0.315805 0.050000
v 0.097379 0.322618 -0.050000
v 0.111646 0.315805 -0.050000
v 0.124943 0.307477 -0.050000
v 0.118654 0.232006 -0.050000
v 0.124943 0.307477 0.050000
v 0.118654 0.232006 0.050000
v 0.103979 0.234102 0.050000
v 0.103377 0.244885 0.050000
v 0.103979 0.234102 -0.050000
v 0.103377 0.244885 -0.050000
v 0.101572 0.254872 -0.050000
v 0.098563 0.264064 -0.050000
v 0.101572 0.254872 0.050000
v 0.098563 0.264064 0.050000
v 0.094351 0.272459 0.050000
v 0.088935 0.280059 0.050000
v 0.094351 0.272459 -0.050000
v 0.088935 0.280059 -0.050000
v 0.082315 0.286862 -0.050000
v 0.082315 0.286862 0.050000
v 0.074745 0.292734 -0.050000
v 0.066476 0.297539 -0.050000
v 0.074745 0.292734 0.050000
v 0.066476 0.297539 0.050000
v 0.057508 0.301275 0.050000
v 0.057508 0.301275 -0.050000
v 0.047841 0.303945 0.050000
v 0.037475 0.305546 0.050000
v 0.047841 0.303945 -0.050000
v 0.037475 0.305546 -0.050000
v 0.026410 0.306080 -0.050000
v 0.011318 0.305041 -0.050000
v 0.026410 0.306080 0.050000
v 0.011318 0.305041 0.050000
v -0.002746 0.301926 0.050000
v -0.015780 0.296733 0.050000
v -0.002746 0.301926 -0.050000
v -0.015780 0.296733 -0.050000
v -0.021912 0.293358 -0.050000
v -0.021912 0.293358 0.050000
v -0.033404 0.285050 -0.050000
v -0.043866 0.274665 -0.050000
v -0.033404 0.285050 0.050000
v -0.043866 0.274665 0.050000
v -0.053232 0.262285 0.050000
v -0.061094 0.248406 0.050000
v -0.053232 0.262285 -0.050000
v -0.061094 0.248406 -0.050000
v -0.067383 0.233110 -0.050000
v -0.072100 0.216396 -0.050000
v -0.067383 0.233110 0.050000
v -0.072100 0.216396 0.050000
v -0.075245 0.198266 0.050000
v -0.075245 0.198266 -0.050000
v -0.076817 0.178719 0.050000
v -0.076817 0.178719 -0.050000
v -0.075289 0.138627 0.050000
v -0.072222 0.120613 0.050000
v -0.075289 0.138627 -0.050000
v -0.072222 0.120613 -0.050000
v -0.067621 0.104075 -0.050000
v -0.061487 0.089011 -0.050000
v -0.067621 0.104074 0.050000
v -0.061487 0.089011 0.050000
v -0.053819 0.075423 0.050000
v -0.044677 0.063378 0.050000
v -0.053819 0.075423 -0.050000
v -0.044677 0.063378 -0.050000
v -0.034408 0.053284 -0.050000
v -0.034408 0.053284 0.050000
v -0.023072 0.045209 -0.050000
v -0.017003 0.041929 -0.050000
v -0.023072 0.045209 0.050000
v -0.017003 0.041929 0.050000
v -0.004065 0.036882 0.050000
v -0.004065 0.036882 -0.050000
v 0.009940 0.033854 0.050000
v 0.009940 0.033854 -0.050000
v 0.025013 0.032844 0.050000
v 0.025013 0.032844 -0.050000
v 0.040717 0.033660 0.050000
v 0.056615 0.036105 0.050000
v 0.040717 0.033660 -0.050000
v 0.056615 0.036105 -0.050000
v 0.072707 0.040182 -0.050000
v 0.088993 0.045889 -0.050000
v 0.072707 0.040182 0.050000
v 0.088993 0.045889 0.050000
v 0.097209 0.049354 0.050000
v 0.105473 0.053226 0.050000
v 0.113786 0.057507 0.050000
v 0.097209 0.049354 -0.050000
v 0.105473 0.053226 -0.050000
v 0.113786 0.057507 -0.050000
vt 0.017647 1.000000
vt 0.005882 0.000000
vt 0.005882 1.000000
vt 0.236686 0.000000
vt 0.786982 0.000000
vt 0.775148 0.000000
vt 0.000000 0.000000
vt 0.000000 1.000000
vt 0.763314 0.000000
vt 0.775148 0.000000
vt 0.248521 0.000000
vt 0.029412 0.000000
vt 0.029412 1.000000
vt 0.041176 1.000000
vt 0.052941 1.000000
vt 0.041176 0.000000
vt 0.064706 1.000000
vt 0.052941 0.000000
vt 0.076471 0.000000
vt 0.076471 1.000000
vt 0.088235 0.000000
vt 0.088235 1.000000
vt 0.100000 0.000000
vt 0.100000 1.000000
vt 0.111765 0.000000
vt 0.111765 1.000000
vt 0.123529 0.000000
vt 0.123529 1.000000
vt 0.135294 0.000000
vt 0.135294 1.000000
vt 0.147059 1.000000
vt 0.158824 0.000000
vt 0.158824 1.000000
vt 0.164706 1.000000
vt 0.176471 0.000000
vt 0.176471 1.000000
vt 0.188235 1.000000
vt 0.200000 0.000000
vt 0.200000 1.000000
vt 0.211765 0.000000
vt 0.211765 1.000000
vt 0.223529 1.000000
vt 0.235294 0.000000
vt 0.235294 1.000000
vt 0.247059 0.000000
vt 0.247059 1.000000
vt 0.258824 0.000000
vt 0.258824 1.000000
vt 0.270588 0.000000
vt 0.270588 1.000000
vt 0.282353 0.000000
vt 0.282353 1.000000
vt 0.294118 0.000000
vt 0.294118 1.000000
vt 0.305882 0.000000
vt 0.305882 1.000000
vt 0.317647 0.000000
vt 0.317647 1.000000
vt 0.323529 1.000000
vt 0.335294 1.000000
vt 0.323529 0.000000
vt 0.347059 0.000000
vt 0.347059 1.000000
vt 0.358824 0.000000
vt 0.358824 1.000000
vt 0.370588 1.000000
vt 0.382353 1.000000
vt 0.370588 0.000000
vt 0.394118 1.000000
vt 0.382353 0.000000
vt 0.405882 0.000000
vt 0.405882 1.000000
vt 0.417647 1.000000
vt 0.429412 1.000000
vt 0.417647 0.000000
vt 0.500000 1.000000
vt 0.429412 0.000000
vt 0.505882 1.000000
vt 0.500000 0.000000
vt 0.517647 0.000000
vt 0.517647 1.000000
vt 0.529412 1.000000
vt 0.541176 0.000000
vt 0.541176 1.000000
vt 0.552941 0.000000
vt 0.552941 1.000000
vt 0.564706 1.000000
vt 0.576471 0.000000
vt 0.576471 1.000000
vt 0.588235 0.000000
vt 0.588235 1.000000
vt 0.600000 0.000000
vt 0.600000 1.000000
vt 0.611765 1.000000
vt 0.623529 1.000000
vt 0.611765 0.000000
vt 0.635294 0.000000
vt 0.635294 1.000000
vt 0.647059 0.000000
vt 0.647059 1.000000
vt 0.658824 1.000000
vt 0.670588 0.000000
vt 0.670588 1.000000
vt 0.682353 0.000000
vt 0.682353 1.000000
vt 0.688235 1.000000
vt 0.700000 1.000000
vt 0.688235 0.000000
vt 0.711765 1.000000
vt 0.700000 0.000000
vt 0.723529 1.000000
vt 0.711765 0.000000
vt 0.735294 1.000000
vt 0.723529 0.000000
vt 0.747059 1.000000
vt 0.735294 0.000000
vt 0.758824 1.000000
vt 0.747059 0.000000
vt 0.770588 1.000000
vt 0.758824 0.000000
vt 0.782353 1.000000
vt 0.770588 0.000000
vt 0.805882 1.000000
vt 0.782353 0.000000
vt 0.817647 0.000000
vt 0.817647 1.000000
vt 0.829412 1.000000
vt 0.841176 1.000000
vt 0.829412 0.000000
vt 0.852941 0.000000
vt 0.852941 1.000000
vt 0.864706 1.000000
vt 0.876471 0.000000
vt 0.876471 1.000000
vt 0.888235 1.000000
vt 0.894118 1.000000
vt 0.888235 0.000000
vt 0.905882 1.000000
vt 0.894118 0.000000
vt 0.917647 1.000000
vt 0.905882 0.000000
vt 0.929412 1.000000
vt 0.917647 0.000000
vt 0.941176 1.000000
vt 0.929412 0.000000
vt 0.952941 0.000000
vt 0.952941 1.000000
vt 0.964706 0.000000
vt 0.964706 1.000000
vt 0.976471 0.000000
vt 0.976471 1.000000
vt 0.988235 0.000000
vt 0.982353 0.000000
vt 0.988235 1.000000
vt 0.017647 0.000000
vt 0.520710 0.000000
vt 0.508876 0.000000
vt 0.502959 0.000000
vt 0.431953 0.000000
vt 0.532544 0.000000
vt 0.420118 0.000000
vt 0.568047 0.000000
vt 0.408284 0.000000
vt 0.579882 0.000000
vt 0.396450 0.000000
vt 0.591716 0.000000
vt 0.603550 0.000000
vt 0.384615 0.000000
vt 0.372781 0.000000
vt 0.627219 0.000000
vt 0.360947 0.000000
vt 0.639053 0.000000
vt 0.349112 0.000000
vt 0.650888 0.000000
vt 0.337278 0.000000
vt 0.674556 0.000000
vt 0.325444 0.000000
vt 0.686391 0.000000
vt 0.662722 0.000000
vt 0.319527 0.000000
vt 0.692308 0.000000
vt 0.307692 0.000000
vt 0.704142 0.000000
vt 0.295858 0.000000
vt 0.715976 0.000000
vt 0.284024 0.000000
vt 0.727811 0.000000
vt 0.272189 0.000000
vt 0.739645 0.000000
vt 0.260355 0.000000
vt 0.751479 0.000000
vt 0.248521 0.000000
vt 0.763314 0.000000
vt 0.224852 0.000000
vt 0.213018 0.000000
vt 0.201183 0.000000
vt 0.810651 0.000000
vt 0.189349 0.000000
vt 0.822485 0.000000
vt 0.177515 0.000000
vt 0.165680 0.000000
vt 0.834320 0.000000
vt 0.846154 0.000000
vt 0.159763 0.000000
vt 0.147929 0.000000
vt 0.857988 0.000000
vt 0.136095 0.000000
vt 0.869823 0.000000
vt 0.124260 0.000000
vt 0.881657 0.000000
vt 0.112426 0.000000
vt 0.100592 0.000000
vt 0.899408 0.000000
vt 0.088757 0.000000
vt 0.911243 0.000000
vt 0.076923 0.000000
vt 0.923077 0.000000
vt 0.065089 0.000000
vt 0.934911 0.000000
vt 0.053254 0.000000
vt 0.946746 0.000000
vt 0.041420 0.000000
vt 0.958580 0.000000
vt 0.029586 0.000000
vt 0.970414 0.000000
vt 0.017751 0.000000
vt 0.988166 0.000000
vt 0.005917 0.000000
vt 1.000000 0.000000
vt 0.994083 0.000000
vt 0.000000 0.000000
vt 0.893491 0.000000
vt 0.615385 0.000000
vt 0.544379 0.000000
vt 0.556213 0.000000
vt 0.982249 0.000000
vt 0.431953 0.000000
vt 0.502959 0.000000
vt 0.532544 0.000000
vt 0.508876 0.000000
vt 0.520710 0.000000
vt 0.408284 0.000000
vt 0.420118 0.000000
vt 0.579882 0.000000
vt 0.568047 0.000000
vt 0.591716 0.000000
vt 0.384615 0.000000
vt 0.396450 0.000000
vt 0.603550 0.000000
vt 0.615385 0.000000
vt 0.360947 0.000000
vt 0.372781 0.000000
vt 0.639053 0.000000
vt 0.627219 0.000000
vt 0.337278 0.000000
vt 0.349112 0.000000
vt 0.674556 0.000000
vt 0.650888 0.000000
vt 0.319527 0.000000
vt 0.325444 0.000000
vt 0.692308 0.000000
vt 0.686391 0.000000
vt 0.295858 0.000000
vt 0.307692 0.000000
vt 0.715976 0.000000
vt 0.704142 0.000000
vt 0.272189 0.000000
vt 0.284024 0.000000
vt 0.739645 0.000000
vt 0.727811 0.000000
vt 0.260355 0.000000
vt 0.751479 0.000000
vt 0.224852 0.000000
vt 0.236686 0.000000
vt 0.786982 0.000000
vt 0.201183 0.000000
vt 0.213018 0.000000
vt 0.810651 0.000000
vt 0.177515 0.000000
vt 0.189349 0.000000
vt 0.822485 0.000000
vt 0.834320 0.000000
vt 0.159763 0.000000
vt 0.165680 0.000000
vt 0.846154 0.000000
vt 0.136095 0.000000
vt 0.147929 0.000000
vt 0.869823 0.000000
vt 0.857988 0.000000
vt 0.112426 0.000000
vt 0.124260 0.000000
vt 0.881657 0.000000
vt 0.893491 0.000000
vt 0.899408 0.000000
vt 0.088757 0.000000
vt 0.100592 0.000000
vt 0.911243 0.000000
vt 0.065089 0.000000
vt 0.076923 0.000000
vt 0.934911 0.000000
vt 0.923077 0.000000
vt 0.041420 0.000000
vt 0.053254 0.000000
vt 0.958580 0.000000
vt 0.946746 0.000000
vt 0.017751 0.000000
vt 0.029586 0.000000
vt 0.988166 0.000000
vt 0.970414 0.000000
vt 0.994083 0.000000
vt 1.000000 0.000000
vt 0.662722 0.000000
vt 0.544379 0.000000
vt 0.982249 0.000000
vt 0.556213 0.000000
vt 0.064706 0.000000
vt 0.147059 0.000000
vt 0.164706 0.000000
vt 0.188235 0.000000
vt 0.223529 0.000000
vt 0.335294 0.000000
vt 0.394118 0.000000
vt 0.505882 0.000000
vt 0.529412 0.000000
vt 0.564706 0.000000
vt 0.623529 0.000000
vt 0.658824 0.000000
vt 0.805882 0.000000
vt 0.841176 0.000000
vt 0.864706 0.000000
vt 0.941176 0.000000
vt 0.982353 1.000000
vt 0.994118 1.000000
vt 1.000000 1.000000
vt 1.000000 0.000000
vt 0.994118 0.000000
vn 0.6044 -0.7966 -0.0000
vn 0.6465 -0.7629 -0.0000
vn 0.0000 -0.0000 1.0000
vn 0.7761 0.6306 0.0000
vn -0.0000 0.0000 -1.0000
vn 0.5099 -0.8602 -0.0000
vn 0.3985 -0.9172 -0.0000
vn 0.2727 -0.9621 -0.0000
vn 0.1377 -0.9905 -0.0000
vn 0.0039 -1.0000 -0.0000
vn -0.1257 -0.9921 -0.0000
vn -0.2581 -0.9661 -0.0000
vn -0.3922 -0.9199 -0.0000
vn -0.5197 -0.8543 -0.0000
vn -0.6334 -0.7738 -0.0000
vn -0.7320 -0.6813 -0.0000
vn -0.8089 -0.5880 -0.0000
vn -0.8666 -0.4989 -0.0000
vn -0.9202 -0.3915 -0.0000
vn -0.9631 -0.2693 -0.0000
vn -0.9881 -0.1540 -0.0000
vn -0.9988 -0.0488 -0.0000
vn -0.9985 0.0539 0.0000
vn -0.9862 0.1654 0.0000
vn -0.9584 0.2856 0.0000
vn -0.9126 0.4089 0.0000
vn -0.8488 0.5287 0.0000
vn -0.7698 0.6383 0.0000
vn -0.6771 0.7359 0.0000
vn -0.5685 0.8227 0.0000
vn -0.4611 0.8873 0.0000
vn -0.3633 0.9317 0.0000
vn -0.2479 0.9688 0.0000
vn -0.1198 0.9928 0.0000
vn -0.0080 1.0000 0.0000
vn 0.0865 0.9963 0.0000
vn 0.1795 0.9838 0.0000
vn 0.2783 0.9605 0.0000
vn 0.3803 0.9249 0.0000
vn 0.4816 0.8764 0.0000
vn 0.5308 0.8475 0.0000
vn 0.9965 -0.0830 -0.0000
vn -0.1414 -0.9899 -0.0000
vn -0.9931 -0.1170 -0.0000
vn -0.9984 -0.0557 -0.0000
vn -0.9695 -0.2451 0.0000
vn -0.9246 -0.3808 0.0000
vn -0.8566 -0.5159 0.0000
vn -0.7678 -0.6407 0.0000
vn -0.6664 -0.7456 0.0000
vn -0.5589 -0.8293 0.0000
vn -0.4445 -0.8958 0.0000
vn -0.3260 -0.9454 0.0000
vn -0.2098 -0.9778 0.0000
vn -0.1006 -0.9949 0.0000
vn 0.0103 -0.9999 0.0000
vn 0.1429 -0.9897 0.0000
vn 0.2941 -0.9558 0.0000
vn 0.4270 -0.9043 0.0000
vn 0.5351 -0.8448 0.0000
vn 0.6471 -0.7624 0.0000
vn 0.7529 -0.6582 0.0000
vn 0.8356 -0.5493 0.0000
vn 0.8993 -0.4374 -0.0000
vn 0.9452 -0.3265 -0.0000
vn 0.9751 -0.2216 -0.0000
vn 0.9921 -0.1257 -0.0000
vn 0.9998 -0.0211 -0.0000
vn 0.9947 0.1032 0.0000
vn 0.9759 0.2182 0.0000
vn 0.9464 0.3231 0.0000
vn 0.9003 0.4352 0.0000
vn 0.8356 0.5493 0.0000
vn 0.7507 0.6606 0.0000
vn 0.6426 0.7662 0.0000
vn 0.5289 0.8487 0.0000
vn 0.4203 0.9074 0.0000
vn 0.2883 0.9575 0.0000
vn 0.1394 0.9902 0.0000
vn 0.0075 1.0000 0.0000
vn -0.1021 0.9948 0.0000
vn -0.1990 0.9800 0.0000
vn -0.2884 0.9575 0.0000
vn -0.3598 0.9330 0.0000
vn -0.4411 0.8974 0.0000
vn -0.4065 0.9136 0.0000
vn -0.4735 0.8808 0.0000
vn -0.4890 0.8723 0.0000
usemtl Material.004
s 1
f 2/1/1 4/2/2 1/3/2
f 45/4/3 129/5/3 127/6/3
f 1/3/4 5/7/4 3/8/4
f 124/9/5 128/10/5 44/11/5
f 7/12/6 2/1/1 9/13/6
f 10/14/7 7/12/6 9/13/6
f 11/15/8 8/16/7 10/14/7
f 12/17/9 13/18/8 11/15/8
f 15/19/10 12/17/9 17/20/10
f 16/21/11 17/20/10 18/22/11
f 21/23/12 18/22/11 19/24/12
f 22/25/13 19/24/12 20/26/13
f 23/27/14 20/26/13 24/28/14
f 25/29/15 24/28/14 26/30/15
f 29/31/16 25/29/15 26/30/15
f 28/32/17 29/31/16 30/33/17
f 31/34/18 28/32/17 30/33/17
f 34/35/19 31/34/18 32/36/19
f 37/37/20 34/35/19 32/36/19
f 36/38/21 37/37/20 38/39/21
f 41/40/22 38/39/21 39/41/22
f 40/42/23 41/40/22 39/41/22
f 43/43/24 40/42/23 45/44/24
f 44/45/25 45/44/24 46/46/25
f 49/47/26 46/46/25 47/48/26
f 50/49/27 47/48/26 48/50/27
f 51/51/28 48/50/27 53/52/28
f 52/53/29 53/52/28 54/54/29
f 57/55/30 54/54/29 55/56/30
f 58/57/31 55/56/30 56/58/31
f 61/59/32 58/57/31 56/58/31
f 62/60/33 59/61/32 61/59/32
f 65/62/34 62/60/33 63/63/34
f 66/64/35 63/63/34 64/65/35
f 69/66/36 66/64/35 64/65/35
f 70/67/37 67/68/36 69/66/36
f 71/69/38 68/70/37 70/67/37
f 75/71/39 71/69/38 73/72/39
f 74/73/40 75/71/39 73/72/39
f 79/74/41 76/75/40 74/73/40
f 80/76/42 77/77/42 79/74/42
f 81/78/43 78/79/43 80/76/43
f 84/80/44 81/78/45 82/81/44
f 87/82/46 84/80/44 82/81/44
f 86/83/47 87/82/46 88/84/47
f 91/85/48 88/84/47 89/86/48
f 90/87/49 91/85/48 89/86/48
f 93/88/50 90/87/49 94/89/50
f 95/90/51 94/89/50 97/91/51
f 96/92/52 97/91/51 98/93/52
f 99/94/53 96/92/52 98/93/52
f 101/95/54 100/96/53 99/94/53
f 104/97/55 101/95/54 102/98/55
f 105/99/56 102/98/55 107/100/56
f 108/101/57 105/99/56 107/100/56
f 111/102/58 108/101/57 109/103/58
f 112/104/59 109/103/58 110/105/59
f 114/106/60 112/104/59 110/105/59
f 117/107/61 113/108/60 114/106/60
f 118/109/62 115/110/61 117/107/61
f 119/111/63 116/112/62 118/109/62
f 120/113/64 121/114/63 119/111/63
f 125/115/65 122/116/64 120/113/64
f 126/117/66 123/118/65 125/115/65
f 127/119/67 124/120/66 126/117/66
f 129/121/68 128/122/67 127/119/67
f 131/123/69 130/124/68 129/121/68
f 134/125/70 131/123/69 132/126/70
f 137/127/71 134/125/70 132/126/70
f 138/128/72 135/129/71 137/127/71
f 141/130/73 138/128/72 139/131/73
f 140/132/74 141/130/73 139/131/73
f 143/133/75 140/132/74 144/134/75
f 147/135/76 143/133/75 144/134/75
f 148/136/77 145/137/76 147/135/76
f 149/138/78 146/139/77 148/136/77
f 151/140/79 150/141/78 149/138/78
f 153/142/80 152/143/79 151/140/79
f 155/144/81 154/145/80 153/142/80
f 158/146/82 155/144/81 156/147/82
f 159/148/83 156/147/82 161/149/83
f 160/150/84 161/149/83 162/151/84
f 167/152/85 166/153/86 164/154/85
f 2/1/1 6/155/1 4/2/2
f 82/156/3 81/157/3 80/158/3
f 80/158/3 79/159/3 87/160/3
f 79/159/3 74/161/3 90/162/3
f 80/158/3 87/160/3 82/156/3
f 74/161/3 73/163/3 94/164/3
f 73/163/3 71/165/3 97/166/3
f 97/166/3 71/165/3 98/167/3
f 71/165/3 70/168/3 98/167/3
f 70/168/3 69/169/3 101/170/3
f 69/169/3 64/171/3 102/172/3
f 64/171/3 63/173/3 107/174/3
f 69/169/3 102/172/3 101/170/3
f 63/173/3 62/175/3 109/176/3
f 62/175/3 61/177/3 110/178/3
f 63/173/3 109/176/3 108/179/3
f 61/177/3 56/180/3 114/181/3
f 56/180/3 55/182/3 117/183/3
f 55/182/3 54/184/3 118/185/3
f 54/184/3 53/186/3 119/187/3
f 118/185/3 54/184/3 119/187/3
f 53/186/3 48/188/3 120/189/3
f 48/188/3 47/190/3 125/191/3
f 120/189/3 48/188/3 125/191/3
f 47/190/3 46/192/3 126/193/3
f 46/192/3 45/4/3 127/6/3
f 126/193/3 46/192/3 127/6/3
f 45/4/3 40/194/3 129/5/3
f 40/194/3 39/195/3 129/5/3
f 39/195/3 38/196/3 131/197/3
f 38/196/3 37/198/3 132/199/3
f 37/198/3 32/200/3 132/199/3
f 32/200/3 31/201/3 137/202/3
f 137/202/3 31/201/3 138/203/3
f 31/201/3 30/204/3 138/203/3
f 30/204/3 29/205/3 139/206/3
f 138/203/3 30/204/3 139/206/3
f 29/205/3 26/207/3 140/208/3
f 26/207/3 24/209/3 140/208/3
f 140/208/3 24/209/3 144/210/3
f 24/209/3 20/211/3 144/210/3
f 20/211/3 19/212/3 148/213/3
f 19/212/3 18/214/3 149/215/3
f 18/214/3 17/216/3 151/217/3
f 17/216/3 12/218/3 153/219/3
f 12/218/3 11/220/3 155/221/3
f 153/219/3 12/218/3 155/221/3
f 11/220/3 10/222/3 156/223/3
f 10/222/3 9/224/3 161/225/3
f 9/224/3 2/226/3 163/227/3
f 2/226/3 1/228/3 165/229/3
f 164/230/3 2/226/3 165/229/3
f 1/228/3 3/231/3 165/229/3
f 10/222/3 161/225/3 156/223/3
f 2/226/3 164/230/3 163/227/3
f 18/214/3 151/217/3 149/215/3
f 151/217/3 17/216/3 153/219/3
f 20/211/3 148/213/3 147/232/3
f 38/196/3 132/199/3 131/197/3
f 53/186/3 120/189/3 119/187/3
f 56/180/3 117/183/3 114/181/3
f 117/183/3 55/182/3 118/185/3
f 70/168/3 101/170/3 99/233/3
f 87/160/3 79/159/3 88/234/3
f 88/234/3 79/159/3 89/235/3
f 70/168/3 99/233/3 98/167/3
f 102/172/3 64/171/3 107/174/3
f 20/211/3 147/232/3 144/210/3
f 9/224/3 163/227/3 162/236/3
f 89/235/3 79/159/3 90/162/3
f 9/224/3 162/236/3 161/225/3
f 94/164/3 90/162/3 74/161/3
f 11/220/3 156/223/3 155/221/3
f 97/166/3 94/164/3 73/163/3
f 19/212/3 149/215/3 148/213/3
f 107/174/3 63/173/3 108/179/3
f 109/176/3 62/175/3 110/178/3
f 29/205/3 140/208/3 139/206/3
f 114/181/3 110/178/3 61/177/3
f 32/200/3 137/202/3 132/199/3
f 39/195/3 131/197/3 129/5/3
f 125/191/3 47/190/3 126/193/3
f 1/3/4 4/2/4 5/7/4
f 77/237/5 78/238/5 85/239/5
f 78/238/5 83/240/5 84/241/5
f 78/238/5 84/241/5 85/239/5
f 75/242/5 76/243/5 93/244/5
f 76/243/5 77/237/5 92/245/5
f 75/242/5 93/244/5 95/246/5
f 68/247/5 72/248/5 96/249/5
f 72/248/5 75/242/5 95/246/5
f 68/247/5 96/249/5 100/250/5
f 66/251/5 67/252/5 104/253/5
f 67/252/5 68/247/5 103/254/5
f 103/254/5 68/247/5 100/250/5
f 60/255/5 65/256/5 111/257/5
f 65/256/5 66/251/5 105/258/5
f 58/259/5 59/260/5 113/261/5
f 59/260/5 60/255/5 112/262/5
f 113/261/5 59/260/5 112/262/5
f 52/263/5 57/264/5 116/265/5
f 57/264/5 58/259/5 115/266/5
f 50/267/5 51/268/5 122/269/5
f 51/268/5 52/263/5 121/270/5
f 44/11/5 49/271/5 124/9/5
f 49/271/5 50/267/5 123/272/5
f 42/273/5 43/274/5 130/275/5
f 43/274/5 44/11/5 128/10/5
f 130/275/5 43/274/5 128/10/5
f 36/276/5 41/277/5 133/278/5
f 41/277/5 42/273/5 130/275/5
f 133/278/5 41/277/5 130/275/5
f 34/279/5 35/280/5 134/281/5
f 35/280/5 36/276/5 134/281/5
f 34/279/5 134/281/5 135/282/5
f 28/283/5 33/284/5 136/285/5
f 33/284/5 34/279/5 135/282/5
f 25/286/5 27/287/5 142/288/5
f 27/287/5 28/283/5 141/289/5
f 142/288/5 27/287/5 141/289/5
f 22/290/5 23/291/5 143/292/5
f 23/291/5 25/286/5 142/288/5
f 22/290/5 145/293/5 146/294/5
f 16/295/5 21/296/5 150/297/5
f 21/296/5 22/290/5 146/294/5
f 150/297/5 21/296/5 146/294/5
f 14/298/5 15/299/5 154/300/5
f 15/299/5 16/295/5 152/301/5
f 152/301/5 16/295/5 150/297/5
f 8/302/5 13/303/5 158/304/5
f 13/303/5 14/298/5 157/305/5
f 158/304/5 13/303/5 157/305/5
f 6/306/5 7/307/5 166/308/5
f 7/307/5 8/302/5 159/309/5
f 6/306/5 166/308/5 167/310/5
f 5/7/5 4/2/5 168/311/5
f 4/2/5 6/306/5 168/311/5
f 145/293/5 22/290/5 143/292/5
f 33/284/5 135/282/5 136/285/5
f 49/271/5 123/272/5 124/9/5
f 51/268/5 121/270/5 122/269/5
f 57/264/5 115/266/5 116/265/5
f 65/256/5 105/258/5 106/312/5
f 77/237/5 85/239/5 86/313/5
f 67/252/5 103/254/5 104/253/5
f 96/249/5 72/248/5 95/246/5
f 58/259/5 113/261/5 115/266/5
f 168/311/5 6/306/5 167/310/5
f 166/308/5 7/307/5 160/314/5
f 77/237/5 86/313/5 91/315/5
f 77/237/5 91/315/5 92/245/5
f 160/314/5 7/307/5 159/309/5
f 159/309/5 8/302/5 158/304/5
f 92/245/5 93/244/5 76/243/5
f 154/300/5 157/305/5 14/298/5
f 152/301/5 154/300/5 15/299/5
f 66/251/5 104/253/5 105/258/5
f 65/256/5 106/312/5 111/257/5
f 143/292/5 23/291/5 142/288/5
f 60/255/5 111/257/5 112/262/5
f 136/285/5 141/289/5 28/283/5
f 52/263/5 116/265/5 121/270/5
f 134/281/5 36/276/5 133/278/5
f 50/267/5 122/269/5 123/272/5
f 7/12/6 6/155/1 2/1/1
f 10/14/7 8/16/7 7/12/6
f 11/15/8 13/18/8 8/16/7
f 12/17/9 14/316/9 13/18/8
f 15/19/10 14/316/9 12/17/9
f 16/21/11 15/19/10 17/20/10
f 21/23/12 16/21/11 18/22/11
f 22/25/13 21/23/12 19/24/12
f 23/27/14 22/25/13 20/26/13
f 25/29/15 23/27/14 24/28/14
f 29/31/16 27/317/16 25/29/15
f 28/32/17 27/317/16 29/31/16
f 31/34/18 33/318/18 28/32/17
f 34/35/19 33/318/18 31/34/18
f 37/37/20 35/319/20 34/35/19
f 36/38/21 35/319/20 37/37/20
f 41/40/22 36/38/21 38/39/21
f 40/42/23 42/320/23 41/40/22
f 43/43/24 42/320/23 40/42/23
f 44/45/25 43/43/24 45/44/24
f 49/47/26 44/45/25 46/46/25
f 50/49/27 49/47/26 47/48/26
f 51/51/28 50/49/27 48/50/27
f 52/53/29 51/51/28 53/52/28
f 57/55/30 52/53/29 54/54/29
f 58/57/31 57/55/30 55/56/30
f 61/59/32 59/61/32 58/57/31
f 62/60/33 60/321/33 59/61/32
f 65/62/34 60/321/33 62/60/33
f 66/64/35 65/62/34 63/63/34
f 69/66/36 67/68/36 66/64/35
f 70/67/37 68/70/37 67/68/36
f 71/69/38 72/322/38 68/70/37
f 75/71/39 72/322/38 71/69/38
f 74/73/40 76/75/40 75/71/39
f 79/74/41 77/77/41 76/75/40
f 80/76/42 78/79/42 77/77/42
f 81/78/43 83/323/43 78/79/43
f 84/80/44 83/323/45 81/78/45
f 87/82/46 85/324/46 84/80/44
f 86/83/47 85/324/46 87/82/46
f 91/85/48 86/83/47 88/84/47
f 90/87/49 92/325/49 91/85/48
f 93/88/50 92/325/49 90/87/49
f 95/90/51 93/88/50 94/89/50
f 96/92/52 95/90/51 97/91/51
f 99/94/53 100/96/53 96/92/52
f 101/95/54 103/326/54 100/96/53
f 104/97/55 103/326/54 101/95/54
f 105/99/56 104/97/55 102/98/55
f 108/101/57 106/327/57 105/99/56
f 111/102/58 106/327/57 108/101/57
f 112/104/59 111/102/58 109/103/58
f 114/106/60 113/108/60 112/104/59
f 117/107/61 115/110/61 113/108/60
f 118/109/62 116/112/62 115/110/61
f 119/111/63 121/114/63 116/112/62
f 120/113/64 122/116/64 121/114/63
f 125/115/65 123/118/65 122/116/64
f 126/117/66 124/120/66 123/118/65
f 127/119/67 128/122/67 124/120/66
f 129/121/68 130/124/68 128/122/67
f 131/123/69 133/328/69 130/124/68
f 134/125/70 133/328/69 131/123/69
f 137/127/71 135/129/71 134/125/70
f 138/128/72 136/329/72 135/129/71
f 141/130/73 136/329/72 138/128/72
f 140/132/74 142/330/74 141/130/73
f 143/133/75 142/330/74 140/132/74
f 147/135/76 145/137/76 143/133/75
f 148/136/77 146/139/77 145/137/76
f 149/138/78 150/141/78 146/139/77
f 151/140/79 152/143/79 150/141/78
f 153/142/80 154/145/80 152/143/79
f 155/144/81 157/331/81 154/145/80
f 158/146/82 157/331/81 155/144/81
f 159/148/83 158/146/82 156/147/82
f 160/150/84 159/148/83 161/149/83
f 162/151/84 163/332/86 160/150/84
f 163/332/86 164/154/85 166/153/86
f 160/150/84 163/332/86 166/153/86
f 165/333/87 3/334/88 5/335/88
f 164/154/85 165/333/87 168/336/87
f 165/333/87 5/335/88 168/336/87
f 168/336/87 167/152/85 164/154/85
