# Blender v2.92.0 OBJ File: 'letters.blend'
# www.blender.org
mtllib I_.mtl
o I_.001_Curve.159
v 0.035640 0.397624 0.050000
v 0.039289 0.399837 0.050000
v 0.034077 0.396396 0.050000
v 0.035640 0.397624 -0.050000
v 0.034077 0.396396 -0.050000
v 0.039289 0.399837 -0.050000
v 0.043715 0.401817 -0.050000
v 0.054895 0.405078 -0.050000
v 0.043715 0.401817 0.050000
v 0.054895 0.405078 0.050000
v 0.069182 0.407407 0.050000
v 0.069823 0.409504 0.050000
v 0.069182 0.407407 -0.050000
v 0.069823 0.409504 -0.050000
v 0.070347 0.412066 -0.050000
v 0.070565 0.413522 -0.050000
v 0.070347 0.412066 0.050000
v 0.070565 0.413522 0.050000
v 0.070755 0.415094 0.050000
v 0.070915 0.416783 0.050000
v 0.071046 0.418588 0.050000
v 0.071148 0.420510 0.050000
v 0.071221 0.422548 0.050000
v 0.071264 0.424703 0.050000
v 0.071279 0.426974 0.050000
v -0.070580 0.426974 0.050000
v 0.071279 0.426974 -0.050000
v -0.070580 0.426974 -0.050000
v 0.071264 0.424703 -0.050000
v 0.071221 0.422548 -0.050000
v 0.071148 0.420510 -0.050000
v 0.071046 0.418588 -0.050000
v 0.070915 0.416783 -0.050000
v 0.070755 0.415094 -0.050000
v -0.070915 0.425877 -0.050000
v -0.071221 0.424684 -0.050000
v -0.071497 0.423393 -0.050000
v -0.071745 0.422005 -0.050000
v -0.071963 0.420520 -0.050000
v -0.071745 0.422005 0.050000
v -0.071497 0.423393 0.050000
v -0.071963 0.420520 0.050000
v -0.072152 0.418938 0.050000
v -0.072444 0.415483 0.050000
v -0.072618 0.411639 0.050000
v -0.072676 0.407407 0.050000
v -0.055517 0.405233 0.050000
v -0.072676 0.407407 -0.050000
v -0.055517 0.405233 -0.050000
v -0.072618 0.411639 -0.050000
v -0.072444 0.415483 -0.050000
v -0.072152 0.418938 -0.050000
v -0.047344 0.403564 -0.050000
v -0.043360 0.402584 -0.050000
v -0.039444 0.401506 -0.050000
v -0.031815 0.399060 -0.050000
v -0.039444 0.401506 0.050000
v -0.043360 0.402584 0.050000
v -0.031815 0.399060 0.050000
v -0.028103 0.397692 0.050000
v -0.024458 0.396226 0.050000
v -0.024524 0.051084 0.050000
v -0.024458 0.396226 -0.050000
v -0.028103 0.397692 -0.050000
v -0.024524 0.051084 -0.050000
v -0.025048 0.046056 -0.050000
v -0.025048 0.046056 0.050000
v -0.026096 0.041591 -0.050000
v -0.027669 0.037690 -0.050000
v -0.026096 0.041591 0.050000
v -0.027669 0.037690 0.050000
v -0.028651 0.035950 0.050000
v -0.029765 0.034351 0.050000
v -0.028651 0.035950 -0.050000
v -0.029765 0.034351 -0.050000
v -0.031010 0.032893 -0.050000
v -0.031010 0.032893 0.050000
v -0.032386 0.031575 -0.050000
v -0.032386 0.031575 0.050000
v -0.033892 0.030398 -0.050000
v -0.033892 0.030398 0.050000
v -0.037474 0.028273 -0.050000
v -0.037474 0.028273 0.050000
v -0.041929 0.026322 -0.050000
v -0.041929 0.026322 0.050000
v -0.053459 0.022944 -0.050000
v -0.053459 0.022944 0.050000
v -0.056888 0.022209 -0.050000
v -0.060535 0.021518 -0.050000
v -0.064400 0.020870 -0.050000
v -0.068484 0.020266 -0.050000
v -0.068484 0.020266 0.050000
v -0.069513 0.017179 -0.050000
v -0.069513 0.017179 0.050000
v -0.070270 0.013976 -0.050000
v -0.070270 0.013976 0.050000
v -0.070969 0.007221 -0.050000
v -0.070969 0.007221 0.050000
v -0.070973 0.005459 -0.050000
v -0.070910 0.003669 -0.050000
v -0.070779 0.001849 -0.050000
v -0.070580 0.000000 -0.050000
v 0.070580 0.000000 -0.050000
v -0.070580 -0.000000 0.050000
v -0.070779 0.001849 0.050000
v 0.070580 -0.000000 0.050000
v 0.072444 0.010715 0.050000
v 0.072676 0.020266 0.050000
v 0.072444 0.010715 -0.050000
v 0.072676 0.020266 -0.050000
v 0.063999 0.020945 -0.050000
v 0.059792 0.021445 -0.050000
v 0.055672 0.022051 -0.050000
v 0.040065 0.025545 -0.050000
v 0.055672 0.022051 0.050000
v 0.059792 0.021445 0.050000
v 0.040065 0.025545 0.050000
v 0.025856 0.030748 0.050000
v 0.025924 0.377179 0.050000
v 0.025856 0.030748 -0.050000
v 0.025924 0.377179 -0.050000
v 0.026468 0.382032 -0.050000
v 0.027555 0.386380 -0.050000
v 0.026468 0.382032 0.050000
v 0.027555 0.386380 0.050000
v 0.029186 0.390223 0.050000
v 0.030205 0.391956 0.050000
v 0.029186 0.390223 -0.050000
v 0.030205 0.391956 -0.050000
v 0.031359 0.393562 -0.050000
v 0.032650 0.395042 -0.050000
v 0.031359 0.393562 0.050000
v 0.032650 0.395042 0.050000
v 0.063999 0.020945 0.050000
v -0.070910 0.003669 0.050000
v -0.070973 0.005459 0.050000
v -0.064400 0.020870 0.050000
v -0.060535 0.021518 0.050000
v -0.056888 0.022209 0.050000
v -0.047344 0.403564 0.050000
v -0.071221 0.424684 0.050000
v -0.070915 0.425877 0.050000
vt 1.000000 1.000000
vt 0.985294 0.000000
vt 0.985294 1.000000
vt 0.977778 0.000000
vt 0.948148 0.000000
vt 0.829630 0.000000
vt 0.007353 1.000000
vt 0.000000 0.000000
vt 0.000000 1.000000
vt 0.948148 0.000000
vt 0.977778 0.000000
vt 0.829630 0.000000
vt 0.970588 0.000000
vt 0.970588 1.000000
vt 0.941176 0.000000
vt 0.941176 1.000000
vt 0.911765 0.000000
vt 0.911765 1.000000
vt 0.897059 0.000000
vt 0.897059 1.000000
vt 0.882353 0.000000
vt 0.882353 1.000000
vt 0.830882 1.000000
vt 0.838235 1.000000
vt 0.838235 0.000000
vt 0.823529 1.000000
vt 0.816176 0.000000
vt 0.816176 1.000000
vt 0.794118 1.000000
vt 0.801471 1.000000
vt 0.801471 0.000000
vt 0.742647 0.000000
vt 0.727941 1.000000
vt 0.742647 1.000000
vt 0.727941 0.000000
vt 0.698529 1.000000
vt 0.683824 1.000000
vt 0.698529 0.000000
vt 0.683824 0.000000
vt 0.654412 1.000000
vt 0.669118 0.000000
vt 0.654412 0.000000
vt 0.639706 0.000000
vt 0.625000 1.000000
vt 0.639706 1.000000
vt 0.625000 0.000000
vt 0.610294 1.000000
vt 0.595588 0.000000
vt 0.595588 1.000000
vt 0.580882 1.000000
vt 0.573529 0.000000
vt 0.573529 1.000000
vt 0.566176 0.000000
vt 0.566176 1.000000
vt 0.558824 0.000000
vt 0.558824 1.000000
vt 0.551471 0.000000
vt 0.551471 1.000000
vt 0.544118 0.000000
vt 0.544118 1.000000
vt 0.529412 1.000000
vt 0.514706 0.000000
vt 0.514706 1.000000
vt 0.485294 1.000000
vt 0.463235 1.000000
vt 0.470588 1.000000
vt 0.470588 0.000000
vt 0.455882 1.000000
vt 0.441176 0.000000
vt 0.441176 1.000000
vt 0.426471 0.000000
vt 0.426471 1.000000
vt 0.397059 0.000000
vt 0.397059 1.000000
vt 0.375000 1.000000
vt 0.382353 1.000000
vt 0.382353 0.000000
vt 0.367647 1.000000
vt 0.360294 0.000000
vt 0.360294 1.000000
vt 0.301471 0.000000
vt 0.301471 1.000000
vt 0.183824 0.000000
vt 0.183824 1.000000
vt 0.169118 1.000000
vt 0.169118 0.000000
vt 0.154412 0.000000
vt 0.125000 1.000000
vt 0.154412 1.000000
vt 0.095588 0.000000
vt 0.095588 1.000000
vt 0.080882 0.000000
vt 0.080882 1.000000
vt 0.066176 0.000000
vt 0.066176 1.000000
vt 0.051471 0.000000
vt 0.051471 1.000000
vt 0.036765 0.000000
vt 0.036765 1.000000
vt 0.029412 0.000000
vt 0.029412 1.000000
vt 0.022059 0.000000
vt 0.022059 1.000000
vt 0.014706 0.000000
vt 0.014706 1.000000
vt 0.007353 0.000000
vt 1.000000 0.000000
vt 0.377778 0.000000
vt 0.370370 0.000000
vt 0.488889 0.000000
vt 0.362963 0.000000
vt 0.096296 0.000000
vt 0.303704 0.000000
vt 0.162963 0.000000
vt 0.185185 0.000000
vt 0.170370 0.000000
vt 0.385185 0.000000
vt 0.481481 0.000000
vt 0.533333 0.000000
vt 0.518519 0.000000
vt 0.400000 0.000000
vt 0.392593 0.000000
vt 0.474074 0.000000
vt 0.444444 0.000000
vt 0.429630 0.000000
vt 0.466667 0.000000
vt 0.459259 0.000000
vt 0.155556 0.000000
vt 0.125926 0.000000
vt 0.548148 0.000000
vt 0.555556 0.000000
vt 0.562963 0.000000
vt 0.570370 0.000000
vt 0.577778 0.000000
vt 0.585185 0.000000
vt 0.600000 0.000000
vt 0.614815 0.000000
vt 0.629630 0.000000
vt 0.081481 0.000000
vt 0.644444 0.000000
vt 0.066667 0.000000
vt 0.051852 0.000000
vt 0.651852 0.000000
vt 0.992593 0.000000
vt 0.037037 0.000000
vt 0.029630 0.000000
vt 0.659259 0.000000
vt 0.022222 0.000000
vt 0.014815 0.000000
vt 0.674074 0.000000
vt 0.822222 0.000000
vt 0.007407 0.000000
vt 0.000000 0.000000
vt 0.681481 0.000000
vt 0.688889 0.000000
vt 0.748148 0.000000
vt 0.733333 0.000000
vt 0.703704 0.000000
vt 0.814815 0.000000
vt 0.807407 0.000000
vt 0.762963 0.000000
vt 0.785185 0.000000
vt 0.777778 0.000000
vt 0.800000 0.000000
vt 0.792593 0.000000
vt 0.844444 0.000000
vt 0.837037 0.000000
vt 0.859259 0.000000
vt 0.851852 0.000000
vt 0.874074 0.000000
vt 0.866667 0.000000
vt 0.888889 0.000000
vt 0.881481 0.000000
vt 0.918519 0.000000
vt 0.903704 0.000000
vt 0.303704 0.000000
vt 0.362963 0.000000
vt 0.162963 0.000000
vt 0.370370 0.000000
vt 0.096296 0.000000
vt 0.125926 0.000000
vt 0.377778 0.000000
vt 0.488889 0.000000
vt 0.385185 0.000000
vt 0.481481 0.000000
vt 0.392593 0.000000
vt 0.400000 0.000000
vt 0.429630 0.000000
vt 0.474074 0.000000
vt 0.444444 0.000000
vt 0.466667 0.000000
vt 0.459259 0.000000
vt 0.155556 0.000000
vt 0.170370 0.000000
vt 0.185185 0.000000
vt 0.518519 0.000000
vt 0.533333 0.000000
vt 0.548148 0.000000
vt 0.555556 0.000000
vt 0.562963 0.000000
vt 0.570370 0.000000
vt 0.577778 0.000000
vt 0.585185 0.000000
vt 0.600000 0.000000
vt 0.614815 0.000000
vt 0.629630 0.000000
vt 0.081481 0.000000
vt 0.644444 0.000000
vt 0.066667 0.000000
vt 0.051852 0.000000
vt 0.651852 0.000000
vt 0.992593 0.000000
vt 0.037037 0.000000
vt 0.029630 0.000000
vt 0.659259 0.000000
vt 0.022222 0.000000
vt 0.014815 0.000000
vt 0.674074 0.000000
vt 0.822222 0.000000
vt 0.681481 0.000000
vt 0.688889 0.000000
vt 0.703704 0.000000
vt 0.733333 0.000000
vt 0.748148 0.000000
vt 0.762963 0.000000
vt 0.777778 0.000000
vt 0.785185 0.000000
vt 0.792593 0.000000
vt 0.800000 0.000000
vt 0.807407 0.000000
vt 0.814815 0.000000
vt 0.837037 0.000000
vt 0.844444 0.000000
vt 0.851852 0.000000
vt 0.859259 0.000000
vt 0.866667 0.000000
vt 0.874074 0.000000
vt 0.881481 0.000000
vt 0.888889 0.000000
vt 0.903704 0.000000
vt 0.918519 0.000000
vt 0.867647 1.000000
vt 0.875000 1.000000
vt 0.867647 0.000000
vt 0.875000 0.000000
vt 0.860294 0.000000
vt 0.852941 0.000000
vt 0.852941 1.000000
vt 0.860294 1.000000
vt 0.845588 0.000000
vt 0.845588 1.000000
vt 0.830882 0.000000
vt 0.823529 0.000000
vt 0.808824 1.000000
vt 0.808824 0.000000
vt 0.794118 0.000000
vt 0.786765 1.000000
vt 0.786765 0.000000
vt 0.772059 1.000000
vt 0.779412 1.000000
vt 0.772059 0.000000
vt 0.779412 0.000000
vt 0.757353 0.000000
vt 0.757353 1.000000
vt 0.669118 1.000000
vt 0.676471 1.000000
vt 0.676471 0.000000
vt 0.647059 1.000000
vt 0.647059 0.000000
vt 0.610294 0.000000
vt 0.580882 0.000000
vt 0.529412 0.000000
vt 0.485294 0.000000
vt 0.477941 1.000000
vt 0.477941 0.000000
vt 0.463235 0.000000
vt 0.455882 0.000000
vt 0.389706 1.000000
vt 0.389706 0.000000
vt 0.375000 0.000000
vt 0.367647 0.000000
vt 0.161765 1.000000
vt 0.161765 0.000000
vt 0.125000 0.000000
vn 0.5692 -0.8222 0.0000
vn 0.4643 -0.8857 0.0000
vn 0.0000 0.0000 1.0000
vn 0.6538 -0.7567 0.0000
vn 0.0000 0.0000 -1.0000
vn 0.3450 -0.9386 0.0000
vn 0.2209 -0.9753 0.0000
vn 0.1609 -0.9870 0.0000
vn 0.9563 -0.2923 0.0000
vn 0.9691 -0.2466 0.0000
vn 0.9847 -0.1744 0.0000
vn 0.9847 -0.1743 -0.0002
vn 0.9999 -0.0133 0.0000
vn 0.9996 -0.0279 0.0000
vn 0.9996 -0.0281 0.0002
vn 0.0000 1.0000 0.0000
vn -0.9813 0.1924 -0.0002
vn -0.9735 0.2288 0.0000
vn -0.9735 0.2288 0.0005
vn -0.9996 0.0296 0.0000
vn -0.9999 0.0137 0.0000
vn -0.1257 -0.9921 0.0000
vn -0.1630 -0.9866 0.0000
vn -0.2196 -0.9756 0.0000
vn -0.3257 -0.9455 0.0000
vn -0.2853 -0.9584 0.0000
vn -1.0000 0.0002 0.0000
vn -0.9986 0.0520 0.0000
vn -0.9860 0.1665 0.0000
vn -0.9533 0.3021 0.0000
vn -0.9010 0.4337 0.0000
vn -0.8466 0.5323 0.0000
vn -0.7915 0.6111 0.0000
vn -0.7271 0.6866 0.0000
vn -0.6544 0.7561 0.0000
vn -0.5641 0.8257 0.0000
vn -0.4566 0.8897 0.0000
vn -0.3418 0.9398 0.0000
vn -0.2456 0.9694 0.0000
vn -0.1558 0.9878 0.0000
vn -0.1758 0.9844 0.0000
vn -0.9486 0.3164 0.0000
vn -0.9619 0.2735 0.0000
vn -0.9860 0.1668 0.0000
vn -0.9986 0.0529 0.0000
vn -0.9986 0.0526 -0.0003
vn -0.9960 -0.0897 -0.0003
vn -0.9986 -0.0536 -0.0000
vn -0.9986 -0.0536 0.0006
vn 0.0000 -1.0000 -0.0000
vn 0.9852 -0.1714 -0.0000
vn 0.9952 -0.0981 -0.0000
vn 0.9997 -0.0244 -0.0000
vn 0.0980 0.9952 0.0000
vn 0.0781 0.9969 0.0000
vn 0.1822 0.9833 0.0000
vn 0.2817 0.9595 0.0000
vn 0.3438 0.9390 0.0000
vn 1.0000 -0.0002 0.0000
vn 0.9984 -0.0558 0.0000
vn 0.9842 -0.1773 0.0000
vn 0.9841 -0.1773 0.0000
vn 0.9482 -0.3176 0.0000
vn 0.8932 -0.4497 0.0000
vn 0.8378 -0.5459 0.0000
vn 0.7837 -0.6212 0.0000
vn 0.7218 -0.6921 0.0000
vn 0.9943 -0.1069 -0.0002
vn 0.9910 -0.1341 -0.0002
vn 0.9942 -0.1071 0.0002
vn 0.9910 -0.1338 0.0002
vn 0.9965 -0.0833 0.0002
vn 0.9980 -0.0628 0.0002
vn 0.9980 -0.0626 -0.0002
vn 0.9965 -0.0836 -0.0002
vn 0.9990 -0.0442 0.0002
vn 0.9990 -0.0444 -0.0002
vn 1.0000 -0.0064 0.0000
vn -0.9628 0.2703 -0.0003
vn -0.9565 0.2918 -0.0006
vn -0.9564 0.2921 0.0000
vn -0.9629 0.2700 0.0003
vn -0.9813 0.1927 0.0002
vn -0.9870 0.1605 -0.0004
vn -0.9870 0.1605 0.0000
vn -0.9948 0.1014 0.0000
vn -0.9912 0.1323 -0.0002
vn -0.9948 0.1016 0.0002
vn -0.9912 0.1320 0.0002
vn -0.9979 0.0647 0.0000
vn -0.2521 -0.9677 0.0000
vn -0.3731 -0.9278 0.0000
vn -0.3595 -0.9331 0.0000
vn -0.1980 0.9802 0.0000
vn -0.1464 0.9892 0.0000
vn -0.9999 -0.0161 -0.0003
vn -0.9999 -0.0165 0.0003
vn -0.9960 -0.0893 0.0003
vn -0.9943 -0.1066 -0.0006
vn -0.9943 -0.1071 -0.0000
vn 0.1318 0.9913 0.0000
usemtl Material.004
s 1
f 1/1/1 6/2/2 2/3/2
f 9/4/3 10/5/3 25/6/3
f 3/7/4 4/8/1 1/9/1
f 8/10/5 7/11/5 27/12/5
f 2/3/2 7/13/6 9/14/6
f 9/14/6 8/15/7 10/16/7
f 10/16/7 13/17/8 11/18/8
f 11/18/9 14/19/10 12/20/10
f 12/20/10 15/21/11 17/22/12
f 24/23/13 23/24/14 30/25/15
f 25/26/16 28/27/16 26/28/16
f 41/29/17 141/30/18 36/31/19
f 50/32/20 46/33/21 45/34/20
f 48/35/22 47/36/23 46/33/22
f 140/37/24 49/38/23 53/39/24
f 59/40/25 55/41/26 56/42/25
f 63/43/27 62/44/28 61/45/27
f 65/46/28 67/47/29 62/44/28
f 67/47/29 68/48/30 70/49/30
f 68/48/30 71/50/31 70/49/30
f 71/50/31 74/51/32 72/52/32
f 72/52/32 75/53/33 73/54/33
f 73/54/33 76/55/34 77/56/34
f 77/56/34 78/57/35 79/58/35
f 79/58/35 80/59/36 81/60/36
f 80/59/36 83/61/37 81/60/36
f 83/61/37 84/62/38 85/63/38
f 84/62/38 87/64/39 85/63/38
f 137/65/40 138/66/41 89/67/41
f 92/68/42 93/69/43 94/70/43
f 94/70/43 95/71/44 96/72/44
f 96/72/44 97/73/45 98/74/46
f 105/75/47 135/76/48 100/77/49
f 104/78/50 103/79/50 106/80/50
f 106/80/51 109/81/52 107/82/52
f 107/82/52 110/83/53 108/84/53
f 134/85/54 110/83/55 111/86/54
f 113/87/56 117/88/57 115/89/56
f 117/88/57 120/90/58 118/91/58
f 118/91/59 121/92/60 119/93/60
f 119/93/60 122/94/61 124/95/62
f 124/95/62 123/96/63 125/97/63
f 125/97/63 128/98/64 126/99/64
f 126/99/64 129/100/65 127/101/65
f 127/101/65 130/102/66 132/103/66
f 132/103/66 131/104/67 133/105/67
f 133/105/67 5/106/4 3/7/4
f 1/1/1 4/107/1 6/2/2
f 105/108/3 104/109/3 87/110/3
f 104/109/3 106/111/3 118/112/3
f 106/111/3 107/113/3 116/114/3
f 107/113/3 108/115/3 134/116/3
f 107/113/3 134/116/3 116/114/3
f 135/117/3 105/108/3 139/118/3
f 104/109/3 118/112/3 83/119/3
f 85/120/3 104/109/3 83/119/3
f 98/121/3 136/122/3 139/118/3
f 136/122/3 135/117/3 139/118/3
f 98/121/3 139/118/3 138/123/3
f 94/124/3 96/125/3 137/126/3
f 96/125/3 98/121/3 138/123/3
f 137/126/3 92/127/3 94/124/3
f 138/123/3 137/126/3 96/125/3
f 104/109/3 85/120/3 87/110/3
f 106/111/3 116/114/3 115/128/3
f 106/111/3 115/128/3 117/129/3
f 106/111/3 117/129/3 118/112/3
f 87/110/3 139/118/3 105/108/3
f 81/130/3 83/119/3 118/112/3
f 79/131/3 81/130/3 118/112/3
f 77/132/3 79/131/3 118/112/3
f 73/133/3 77/132/3 118/112/3
f 72/134/3 73/133/3 118/112/3
f 71/135/3 72/134/3 118/112/3
f 70/136/3 71/135/3 118/112/3
f 67/137/3 70/136/3 118/112/3
f 67/137/3 118/112/3 62/138/3
f 118/112/3 119/139/3 62/138/3
f 62/138/3 119/139/3 61/140/3
f 119/139/3 124/141/3 61/140/3
f 61/140/3 124/141/3 125/142/3
f 60/143/3 61/140/3 2/144/3
f 61/140/3 125/142/3 126/145/3
f 61/140/3 126/145/3 127/146/3
f 59/147/3 60/143/3 25/6/3
f 61/140/3 127/146/3 132/148/3
f 61/140/3 132/148/3 133/149/3
f 57/150/3 59/147/3 26/151/3
f 61/140/3 133/149/3 3/152/3
f 61/140/3 3/152/3 1/153/3
f 58/154/3 57/150/3 26/151/3
f 61/140/3 1/153/3 2/144/3
f 140/155/3 58/154/3 26/151/3
f 60/143/3 2/144/3 25/6/3
f 45/156/3 46/157/3 47/158/3
f 47/158/3 140/155/3 26/151/3
f 47/158/3 142/159/3 141/160/3
f 44/161/3 45/156/3 47/158/3
f 42/162/3 43/163/3 47/158/3
f 43/163/3 44/161/3 47/158/3
f 41/164/3 40/165/3 47/158/3
f 40/165/3 42/162/3 47/158/3
f 141/160/3 41/164/3 47/158/3
f 25/6/3 26/151/3 59/147/3
f 26/151/3 142/159/3 47/158/3
f 25/6/3 2/144/3 9/4/3
f 23/166/3 24/167/3 10/5/3
f 24/167/3 25/6/3 10/5/3
f 21/168/3 22/169/3 10/5/3
f 22/169/3 23/166/3 10/5/3
f 19/170/3 20/171/3 10/5/3
f 20/171/3 21/168/3 10/5/3
f 17/172/3 18/173/3 10/5/3
f 18/173/3 19/170/3 10/5/3
f 11/174/3 12/175/3 10/5/3
f 12/175/3 17/172/3 10/5/3
f 3/7/4 5/106/4 4/8/1
f 109/176/5 103/177/5 112/178/5
f 103/177/5 102/179/5 120/180/5
f 114/181/5 103/177/5 120/180/5
f 102/179/5 101/182/5 86/183/5
f 101/182/5 100/184/5 88/185/5
f 86/183/5 101/182/5 88/185/5
f 100/184/5 99/186/5 88/185/5
f 99/186/5 97/187/5 88/185/5
f 97/187/5 95/188/5 89/189/5
f 95/188/5 93/190/5 90/191/5
f 97/187/5 89/189/5 88/185/5
f 93/190/5 91/192/5 90/191/5
f 90/191/5 89/189/5 95/188/5
f 103/177/5 114/181/5 113/193/5
f 111/194/5 110/195/5 109/176/5
f 112/178/5 111/194/5 109/176/5
f 103/177/5 113/193/5 112/178/5
f 102/179/5 86/183/5 84/196/5
f 102/179/5 84/196/5 82/197/5
f 102/179/5 82/197/5 120/180/5
f 120/180/5 82/197/5 80/198/5
f 120/180/5 80/198/5 78/199/5
f 120/180/5 78/199/5 76/200/5
f 120/180/5 76/200/5 75/201/5
f 120/180/5 75/201/5 74/202/5
f 120/180/5 74/202/5 69/203/5
f 120/180/5 69/203/5 68/204/5
f 120/180/5 68/204/5 66/205/5
f 120/180/5 66/205/5 65/206/5
f 121/207/5 120/180/5 65/206/5
f 121/207/5 65/206/5 63/208/5
f 122/209/5 121/207/5 63/208/5
f 122/209/5 63/208/5 123/210/5
f 63/208/5 64/211/5 6/212/5
f 123/210/5 63/208/5 128/213/5
f 128/213/5 63/208/5 129/214/5
f 64/211/5 56/215/5 27/12/5
f 129/214/5 63/208/5 130/216/5
f 130/216/5 63/208/5 131/217/5
f 56/215/5 55/218/5 28/219/5
f 131/217/5 63/208/5 5/106/5
f 5/106/5 63/208/5 4/8/5
f 55/218/5 54/220/5 28/219/5
f 4/8/5 63/208/5 6/212/5
f 54/220/5 53/221/5 28/219/5
f 6/212/5 64/211/5 27/12/5
f 49/222/5 48/223/5 50/224/5
f 53/221/5 49/222/5 28/219/5
f 49/222/5 50/224/5 51/225/5
f 51/225/5 52/226/5 49/222/5
f 52/226/5 39/227/5 49/222/5
f 39/227/5 38/228/5 49/222/5
f 38/228/5 37/229/5 49/222/5
f 37/229/5 36/230/5 49/222/5
f 36/230/5 35/231/5 49/222/5
f 35/231/5 28/219/5 49/222/5
f 28/219/5 27/12/5 56/215/5
f 6/212/5 27/12/5 7/11/5
f 27/12/5 29/232/5 8/10/5
f 29/232/5 30/233/5 8/10/5
f 30/233/5 31/234/5 8/10/5
f 31/234/5 32/235/5 8/10/5
f 32/235/5 33/236/5 8/10/5
f 33/236/5 34/237/5 8/10/5
f 34/237/5 16/238/5 8/10/5
f 16/238/5 15/239/5 8/10/5
f 15/239/5 14/240/5 8/10/5
f 14/240/5 13/241/5 8/10/5
f 2/3/2 6/2/2 7/13/6
f 9/14/6 7/13/6 8/15/7
f 10/16/7 8/15/7 13/17/8
f 11/18/9 13/17/9 14/19/10
f 12/20/10 14/19/10 15/21/11
f 19/242/68 18/243/69 34/244/70
f 18/243/69 17/22/12 34/244/70
f 17/22/12 15/21/11 16/245/71
f 34/244/70 33/246/72 19/242/68
f 33/246/72 32/247/73 19/242/68
f 17/22/12 16/245/71 34/244/70
f 21/248/74 20/249/75 32/247/73
f 20/249/75 19/242/68 32/247/73
f 32/247/73 31/250/76 21/248/74
f 31/250/76 30/25/15 21/248/74
f 23/24/14 22/251/77 30/25/15
f 22/251/77 21/248/74 30/25/15
f 30/25/15 29/252/13 24/23/13
f 29/252/13 27/253/78 25/26/78
f 25/26/78 24/23/13 29/252/13
f 25/26/16 27/253/16 28/27/16
f 141/30/18 142/254/79 36/31/19
f 142/254/79 26/28/80 36/31/19
f 26/28/80 28/27/81 35/255/82
f 36/31/19 37/256/83 40/257/84
f 37/256/83 38/258/85 40/257/84
f 26/28/80 35/255/82 36/31/19
f 40/257/84 41/29/17 36/31/19
f 43/259/86 42/260/87 52/261/88
f 42/260/87 40/257/84 52/261/88
f 40/257/84 38/258/85 39/262/89
f 52/261/88 51/263/90 43/259/86
f 51/263/90 50/32/20 44/264/90
f 43/259/86 51/263/90 44/264/90
f 40/257/84 39/262/89 52/261/88
f 45/34/20 44/264/90 50/32/20
f 50/32/20 48/35/21 46/33/21
f 48/35/22 49/38/23 47/36/23
f 57/265/26 58/266/91 55/41/26
f 58/266/91 140/37/24 54/267/91
f 55/41/26 58/266/91 54/267/91
f 140/37/24 47/36/23 49/38/23
f 53/39/24 54/267/91 140/37/24
f 61/45/92 60/268/93 63/43/92
f 60/268/93 59/40/25 64/269/93
f 63/43/92 60/268/93 64/269/93
f 59/40/25 57/265/26 55/41/26
f 56/42/25 64/269/93 59/40/25
f 63/43/27 65/46/28 62/44/28
f 65/46/28 66/270/29 67/47/29
f 67/47/29 66/270/29 68/48/30
f 68/48/30 69/271/31 71/50/31
f 71/50/31 69/271/31 74/51/32
f 72/52/32 74/51/32 75/53/33
f 73/54/33 75/53/33 76/55/34
f 77/56/34 76/55/34 78/57/35
f 79/58/35 78/57/35 80/59/36
f 80/59/36 82/272/37 83/61/37
f 83/61/37 82/272/37 84/62/38
f 84/62/38 86/273/39 87/64/39
f 138/66/41 139/274/94 89/67/41
f 139/274/94 87/64/39 88/275/94
f 89/67/41 139/274/94 88/275/94
f 87/64/39 86/273/39 88/275/94
f 89/67/41 90/276/40 137/65/40
f 90/276/40 91/277/95 92/68/95
f 92/68/95 137/65/40 90/276/40
f 92/68/42 91/277/42 93/69/43
f 94/70/43 93/69/43 95/71/44
f 96/72/44 95/71/44 97/73/45
f 135/76/48 136/278/96 100/77/49
f 136/278/96 98/74/46 100/77/49
f 98/74/46 97/73/45 99/279/97
f 100/77/49 101/280/98 104/78/99
f 101/280/98 102/281/100 104/78/99
f 98/74/46 99/279/97 100/77/49
f 104/78/99 105/75/47 100/77/49
f 104/78/50 102/281/50 103/79/50
f 106/80/51 103/79/51 109/81/52
f 107/82/52 109/81/52 110/83/53
f 115/89/56 116/282/101 113/87/56
f 116/282/101 134/85/54 112/283/101
f 113/87/56 116/282/101 112/283/101
f 134/85/54 108/84/55 110/83/55
f 111/86/54 112/283/101 134/85/54
f 113/87/56 114/284/57 117/88/57
f 117/88/57 114/284/57 120/90/58
f 118/91/59 120/90/59 121/92/60
f 119/93/60 121/92/60 122/94/61
f 124/95/62 122/94/61 123/96/63
f 125/97/63 123/96/63 128/98/64
f 126/99/64 128/98/64 129/100/65
f 127/101/65 129/100/65 130/102/66
f 132/103/66 130/102/66 131/104/67
f 133/105/67 131/104/67 5/106/4
