# Blender v2.92.0 OBJ File: 'letters.blend'
# www.blender.org
mtllib l.mtl
o l_Curve.129
v -0.034591 0.030748 0.050000
v -0.032973 0.031985 0.050000
v -0.038405 0.028535 0.050000
v -0.034591 0.030748 -0.050000
v -0.032973 0.031985 -0.050000
v -0.038405 0.028535 -0.050000
v -0.043093 0.026555 -0.050000
v -0.043093 0.026555 0.050000
v -0.045765 0.025652 -0.050000
v -0.048655 0.024808 -0.050000
v -0.051763 0.024022 -0.050000
v -0.055089 0.023294 -0.050000
v -0.058635 0.022624 -0.050000
v -0.055089 0.023294 0.050000
v -0.051763 0.024022 0.050000
v -0.058635 0.022624 0.050000
v -0.062398 0.022013 0.050000
v -0.070580 0.020964 0.050000
v -0.071978 0.013976 0.050000
v -0.070580 0.020964 -0.050000
v -0.062398 0.022013 -0.050000
v -0.071978 0.013976 -0.050000
v -0.072444 0.006988 -0.050000
v -0.072414 0.005241 -0.050000
v -0.072444 0.006988 0.050000
v -0.072414 0.005241 0.050000
v -0.072327 0.003494 0.050000
v -0.071978 0.000000 0.050000
v 0.071279 0.000000 0.050000
v -0.071978 0.000000 -0.050000
v 0.071279 0.000000 -0.050000
v -0.072327 0.003494 -0.050000
v 0.071614 0.001427 -0.050000
v 0.071919 0.002912 -0.050000
v 0.072443 0.006056 -0.050000
v 0.072443 0.006056 0.050000
v 0.072662 0.007716 -0.050000
v 0.072851 0.009434 -0.050000
v 0.073011 0.011210 -0.050000
v 0.073142 0.013044 -0.050000
v 0.073244 0.014937 -0.050000
v 0.073317 0.016888 -0.050000
v 0.073361 0.018897 -0.050000
v 0.073375 0.020964 -0.050000
v 0.055672 0.023061 -0.050000
v 0.073375 0.020964 0.050000
v 0.055672 0.023061 0.050000
v 0.073361 0.018897 0.050000
v 0.073317 0.016888 0.050000
v 0.073244 0.014937 0.050000
v 0.073142 0.013044 0.050000
v 0.073011 0.011210 0.050000
v 0.072851 0.009434 0.050000
v 0.072662 0.007716 0.050000
v 0.039832 0.026555 0.050000
v 0.039832 0.026555 -0.050000
v 0.025856 0.031447 0.050000
v 0.025856 0.499651 0.050000
v 0.025856 0.031447 -0.050000
v 0.025856 0.499651 -0.050000
v 0.009201 0.496991 -0.050000
v -0.007221 0.493672 -0.050000
v -0.023410 0.489693 -0.050000
v -0.039367 0.485053 -0.050000
v -0.070580 0.473795 -0.050000
v -0.039367 0.485053 0.050000
v -0.023410 0.489693 0.050000
v -0.070580 0.473795 0.050000
v -0.073065 0.460129 0.050000
v -0.073201 0.458595 0.050000
v -0.073065 0.460129 -0.050000
v -0.073201 0.458595 -0.050000
v -0.073298 0.457101 -0.050000
v -0.073356 0.455645 -0.050000
v -0.073375 0.454228 -0.050000
v -0.062349 0.454616 -0.050000
v -0.073375 0.454228 0.050000
v -0.073356 0.455645 0.050000
v -0.062349 0.454616 0.050000
v -0.052566 0.454849 0.050000
v -0.044025 0.454927 0.050000
v -0.040182 0.454907 0.050000
v -0.036571 0.454849 0.050000
v -0.033194 0.454752 0.050000
v -0.030049 0.454616 0.050000
v -0.027137 0.454441 0.050000
v -0.024458 0.454228 0.050000
v -0.024529 0.052367 0.050000
v -0.024458 0.454228 -0.050000
v -0.024529 0.052367 -0.050000
v -0.027137 0.454441 -0.050000
v -0.030049 0.454616 -0.050000
v -0.033194 0.454752 -0.050000
v -0.036571 0.454849 -0.050000
v -0.040182 0.454907 -0.050000
v -0.044025 0.454927 -0.050000
v -0.052566 0.454849 -0.050000
v -0.025092 0.047126 -0.050000
v -0.026217 0.042467 -0.050000
v -0.025092 0.047126 0.050000
v -0.026217 0.042467 0.050000
v -0.027906 0.038391 0.050000
v -0.028962 0.036571 0.050000
v -0.027906 0.038391 -0.050000
v -0.028962 0.036571 -0.050000
v -0.030158 0.034897 -0.050000
v -0.031495 0.033368 -0.050000
v -0.030158 0.034897 0.050000
v -0.031495 0.033368 0.050000
v -0.073298 0.457101 0.050000
v -0.007221 0.493672 0.050000
v 0.009201 0.496991 0.050000
v 0.071919 0.002912 0.050000
v 0.071614 0.001427 0.050000
v -0.048655 0.024808 0.050000
v -0.045765 0.025652 0.050000
vt 0.009009 1.000000
vt 0.000000 0.000000
vt 0.000000 1.000000
vt 0.063636 0.000000
vt 0.045455 0.000000
vt 0.563636 0.000000
vt 1.000000 1.000000
vt 0.981982 0.000000
vt 0.981982 1.000000
vt 0.063636 0.000000
vt 0.081818 0.000000
vt 0.563636 0.000000
vt 0.963964 1.000000
vt 0.936937 1.000000
vt 0.945946 1.000000
vt 0.945946 0.000000
vt 0.909910 0.000000
vt 0.891892 1.000000
vt 0.909910 1.000000
vt 0.891892 0.000000
vt 0.855856 1.000000
vt 0.855856 0.000000
vt 0.819820 1.000000
vt 0.801802 0.000000
vt 0.783784 1.000000
vt 0.801802 1.000000
vt 0.774775 0.000000
vt 0.774775 1.000000
vt 0.756757 0.000000
vt 0.738739 1.000000
vt 0.756757 1.000000
vt 0.675676 1.000000
vt 0.684685 1.000000
vt 0.684685 0.000000
vt 0.666667 1.000000
vt 0.630631 0.000000
vt 0.630631 1.000000
vt 0.594595 0.000000
vt 0.594595 1.000000
vt 0.558559 0.000000
vt 0.558559 1.000000
vt 0.549550 0.000000
vt 0.549550 1.000000
vt 0.513514 0.000000
vt 0.495495 0.000000
vt 0.513514 1.000000
vt 0.477477 0.000000
vt 0.441441 1.000000
vt 0.477477 1.000000
vt 0.441441 0.000000
vt 0.369369 1.000000
vt 0.342342 0.000000
vt 0.333333 0.000000
vt 0.351351 1.000000
vt 0.297297 0.000000
vt 0.261261 0.000000
vt 0.297297 1.000000
vt 0.117117 1.000000
vt 0.099099 0.000000
vt 0.099099 1.000000
vt 0.081081 1.000000
vt 0.081081 0.000000
vt 0.063063 1.000000
vt 0.063063 0.000000
vt 0.045045 1.000000
vt 0.036036 0.000000
vt 0.036036 1.000000
vt 0.027027 0.000000
vt 0.027027 1.000000
vt 0.018018 0.000000
vt 0.018018 1.000000
vt 0.009009 0.000000
vt 0.345455 0.000000
vt 0.336364 0.000000
vt 0.300000 0.000000
vt 0.354545 0.000000
vt 0.263636 0.000000
vt 0.445455 0.000000
vt 0.363636 0.000000
vt 0.372727 0.000000
vt 0.500000 0.000000
vt 0.481818 0.000000
vt 0.136364 0.000000
vt 0.227273 0.000000
vt 0.536364 0.000000
vt 0.518182 0.000000
vt 0.118182 0.000000
vt 0.554545 0.000000
vt 0.209091 0.000000
vt 0.681818 0.000000
vt 0.672727 0.000000
vt 0.636364 0.000000
vt 0.700000 0.000000
vt 0.690909 0.000000
vt 0.718182 0.000000
vt 0.709091 0.000000
vt 0.736364 0.000000
vt 0.727273 0.000000
vt 0.763636 0.000000
vt 0.745455 0.000000
vt 0.781818 0.000000
vt 0.772727 0.000000
vt 0.809091 0.000000
vt 0.790909 0.000000
vt 0.936364 0.000000
vt 0.945455 0.000000
vt 0.827273 0.000000
vt 0.818182 0.000000
vt 0.927273 0.000000
vt 0.900000 0.000000
vt 0.863636 0.000000
vt 0.918182 0.000000
vt 0.600000 0.000000
vt 0.954545 0.000000
vt 0.990909 0.000000
vt 0.963636 0.000000
vt 0.972727 0.000000
vt 0.190909 0.000000
vt 0.172727 0.000000
vt 0.154545 0.000000
vt 0.000000 0.000000
vt 0.009091 0.000000
vt 0.018182 0.000000
vt 0.100000 0.000000
vt 0.027273 0.000000
vt 0.036364 0.000000
vt 0.081818 0.000000
vt 1.000000 0.000000
vt 0.300000 0.000000
vt 0.336364 0.000000
vt 0.345455 0.000000
vt 0.354545 0.000000
vt 0.363636 0.000000
vt 0.372727 0.000000
vt 0.445455 0.000000
vt 0.481818 0.000000
vt 0.263636 0.000000
vt 0.500000 0.000000
vt 0.136364 0.000000
vt 0.227273 0.000000
vt 0.518182 0.000000
vt 0.118182 0.000000
vt 0.536364 0.000000
vt 0.554545 0.000000
vt 0.636364 0.000000
vt 0.672727 0.000000
vt 0.681818 0.000000
vt 0.690909 0.000000
vt 0.700000 0.000000
vt 0.709091 0.000000
vt 0.718182 0.000000
vt 0.727273 0.000000
vt 0.736364 0.000000
vt 0.745455 0.000000
vt 0.763636 0.000000
vt 0.772727 0.000000
vt 0.781818 0.000000
vt 0.790909 0.000000
vt 0.809091 0.000000
vt 0.936364 0.000000
vt 0.818182 0.000000
vt 0.927273 0.000000
vt 0.827273 0.000000
vt 0.863636 0.000000
vt 0.918182 0.000000
vt 0.900000 0.000000
vt 0.945455 0.000000
vt 0.600000 0.000000
vt 0.954545 0.000000
vt 0.990909 0.000000
vt 0.963636 0.000000
vt 0.209091 0.000000
vt 0.190909 0.000000
vt 0.972727 0.000000
vt 0.172727 0.000000
vt 0.154545 0.000000
vt 0.009091 0.000000
vt 0.018182 0.000000
vt 0.027273 0.000000
vt 0.036364 0.000000
vt 0.100000 0.000000
vt 0.045455 0.000000
vt 0.963964 0.000000
vt 0.954955 1.000000
vt 0.954955 0.000000
vt 0.936937 0.000000
vt 0.927928 0.000000
vt 0.927928 1.000000
vt 0.918919 1.000000
vt 0.918919 0.000000
vt 0.819820 0.000000
vt 0.810811 1.000000
vt 0.810811 0.000000
vt 0.783784 0.000000
vt 0.765766 1.000000
vt 0.765766 0.000000
vt 0.738739 0.000000
vt 0.720721 1.000000
vt 0.729730 1.000000
vt 0.720721 0.000000
vt 0.729730 0.000000
vt 0.711712 0.000000
vt 0.702703 0.000000
vt 0.702703 1.000000
vt 0.711712 1.000000
vt 0.693694 0.000000
vt 0.693694 1.000000
vt 0.675676 0.000000
vt 0.666667 0.000000
vt 0.495495 1.000000
vt 0.531532 1.000000
vt 0.531532 0.000000
vt 0.369369 0.000000
vt 0.333333 1.000000
vt 0.342342 1.000000
vt 0.360360 1.000000
vt 0.360360 0.000000
vt 0.351351 0.000000
vt 0.117117 0.000000
vt 0.135135 1.000000
vt 0.153153 1.000000
vt 0.171171 1.000000
vt 0.153153 0.000000
vt 0.189189 1.000000
vt 0.171171 0.000000
vt 0.135135 0.000000
vt 0.207207 1.000000
vt 0.189189 0.000000
vt 0.225225 1.000000
vt 0.207207 0.000000
vt 0.261261 1.000000
vt 0.225225 0.000000
vt 0.045045 0.000000
vn -0.6462 0.7632 0.0000
vn -0.5557 0.8314 0.0000
vn 0.0000 -0.0000 1.0000
vn -0.4463 0.8949 0.0000
vn -0.0000 0.0000 -1.0000
vn -0.3548 0.9349 0.0000
vn -0.2295 0.9733 0.0000
vn -0.2629 0.9648 0.0000
vn -0.1437 0.9896 0.0000
vn -0.1271 0.9919 0.0000
vn -0.9806 0.1961 0.0000
vn -0.9913 0.1316 0.0000
vn -0.9997 0.0248 -0.0003
vn -0.9972 -0.0745 0.0003
vn -0.9950 -0.0995 -0.0000
vn -0.9972 -0.0747 -0.0000
vn 0.0000 -1.0000 -0.0000
vn 0.9831 -0.1831 0.0002
vn 0.9891 -0.1473 -0.0002
vn 0.9831 -0.1830 -0.0000
vn 0.9999 -0.0143 -0.0001
vn 0.9996 -0.0295 -0.0000
vn 0.9996 -0.0295 0.0003
vn 0.1176 0.9931 0.0000
vn 0.1667 0.9860 0.0000
vn 0.2734 0.9619 0.0000
vn 0.3304 0.9439 0.0000
vn 1.0000 -0.0000 0.0000
vn -0.2185 0.9758 0.0000
vn -0.2590 0.9659 0.0000
vn -0.3094 0.9509 0.0000
vn -0.3393 0.9407 0.0000
vn -0.9839 0.1789 0.0000
vn -0.9910 0.1337 0.0000
vn -0.9996 0.0267 0.0002
vn -0.9999 0.0139 0.0004
vn -0.9986 0.0522 -0.0002
vn 0.0295 -0.9996 0.0000
vn 0.0164 -0.9999 0.0000
vn -1.0000 0.0002 0.0000
vn -0.9986 0.0536 0.0000
vn -0.9852 0.1712 0.0000
vn -0.9508 0.3098 0.0000
vn -0.8964 0.4432 0.0000
vn -0.8403 0.5421 0.0000
vn -0.7841 0.6206 0.0000
vn -0.7189 0.6951 0.0000
vn -0.3004 0.9538 0.0000
vn -0.1997 0.9799 0.0000
vn -0.1730 0.9849 0.0000
vn -0.9997 0.0250 0.0000
vn -0.9995 -0.0331 -0.0003
vn -0.9994 -0.0335 0.0003
vn 0.9766 -0.2152 -0.0002
vn 0.9736 -0.2283 -0.0004
vn 0.9735 -0.2286 -0.0000
vn 0.9766 -0.2150 0.0002
vn 0.9891 -0.1474 -0.0000
vn 0.9950 -0.0996 -0.0002
vn 0.9928 -0.1201 -0.0002
vn 0.9950 -0.0998 0.0002
vn 0.9928 -0.1199 0.0002
vn 0.9968 -0.0805 0.0002
vn 0.9980 -0.0626 0.0002
vn 0.9981 -0.0624 -0.0002
vn 0.9967 -0.0807 -0.0002
vn 0.9990 -0.0454 0.0002
vn 0.9990 -0.0456 -0.0002
vn 0.9999 -0.0145 0.0002
vn 1.0000 -0.0072 -0.0003
vn 1.0000 -0.0070 -0.0000
vn -0.1779 0.9840 0.0000
vn -0.1577 0.9875 0.0000
vn -0.9999 0.0136 0.0000
vn -0.9996 0.0269 -0.0002
vn -0.9971 0.0765 0.0000
vn -0.9986 0.0524 0.0000
vn -0.0795 -0.9968 0.0000
vn -0.0697 -0.9976 0.0000
vn -0.0515 -0.9987 0.0000
vn -0.0359 -0.9994 0.0000
vn -0.0224 -0.9997 0.0000
vn -0.0106 -0.9999 0.0000
vn 0.0020 -1.0000 0.0000
vn 0.0352 -0.9994 0.0000
usemtl Material.004
s 1
f 2/1/1 4/2/2 1/3/2
f 101/4/3 102/5/3 57/6/3
f 1/7/2 6/8/4 3/9/4
f 99/10/5 98/11/5 59/12/5
f 6/8/4 8/13/6 3/9/4
f 15/14/7 115/15/8 10/16/8
f 21/17/9 18/18/10 17/19/9
f 20/20/11 19/21/12 18/18/11
f 22/22/12 25/23/13 19/21/12
f 32/24/14 28/25/15 27/26/16
f 28/25/17 31/27/17 29/28/17
f 34/29/18 36/30/19 113/31/20
f 48/32/21 49/33/22 42/34/23
f 46/35/24 45/36/25 47/37/25
f 47/37/25 56/38/26 55/39/26
f 55/39/26 59/40/27 57/41/27
f 57/41/28 60/42/28 58/43/28
f 62/44/29 63/45/30 111/46/29
f 64/47/31 68/48/32 66/49/31
f 65/50/33 69/51/34 68/48/33
f 74/52/35 75/53/36 110/54/37
f 76/55/38 97/56/39 79/57/38
f 87/58/40 90/59/41 88/60/41
f 90/59/41 100/61/42 88/60/41
f 98/62/42 101/63/43 100/61/42
f 99/64/43 102/65/44 101/63/43
f 102/65/44 105/66/45 103/67/45
f 103/67/45 106/68/46 108/69/46
f 108/69/46 107/70/47 109/71/47
f 109/71/47 5/72/1 2/1/1
f 2/1/1 5/72/1 4/2/2
f 78/73/3 77/74/3 79/75/3
f 78/73/3 79/75/3 110/76/3
f 79/75/3 80/77/3 68/78/3
f 70/79/3 79/75/3 69/80/3
f 70/79/3 110/76/3 79/75/3
f 68/78/3 69/80/3 79/75/3
f 67/81/3 66/82/3 86/83/3
f 66/82/3 68/78/3 80/77/3
f 81/84/3 66/82/3 80/77/3
f 112/85/3 111/86/3 87/87/3
f 111/86/3 67/81/3 87/87/3
f 57/6/3 58/88/3 87/87/3
f 58/88/3 112/85/3 87/87/3
f 66/82/3 81/84/3 82/89/3
f 48/90/3 46/91/3 47/92/3
f 50/93/3 49/94/3 47/92/3
f 49/94/3 48/90/3 47/92/3
f 52/95/3 51/96/3 47/92/3
f 51/96/3 50/93/3 47/92/3
f 54/97/3 53/98/3 47/92/3
f 53/98/3 52/95/3 47/92/3
f 113/99/3 36/100/3 47/92/3
f 36/100/3 54/97/3 47/92/3
f 29/101/3 114/102/3 47/92/3
f 114/102/3 113/99/3 47/92/3
f 27/103/3 28/104/3 14/105/3
f 28/104/3 29/101/3 57/6/3
f 14/105/3 28/104/3 15/106/3
f 25/107/3 26/108/3 16/109/3
f 26/108/3 27/103/3 16/109/3
f 18/110/3 19/111/3 17/112/3
f 19/111/3 25/107/3 17/112/3
f 16/109/3 27/103/3 14/105/3
f 47/92/3 55/113/3 29/101/3
f 17/112/3 25/107/3 16/109/3
f 29/101/3 55/113/3 57/6/3
f 15/106/3 28/104/3 115/114/3
f 28/104/3 57/6/3 3/115/3
f 115/114/3 28/104/3 116/116/3
f 116/116/3 28/104/3 8/117/3
f 66/82/3 82/89/3 83/118/3
f 8/117/3 28/104/3 3/115/3
f 66/82/3 83/118/3 84/119/3
f 66/82/3 84/119/3 85/120/3
f 1/121/3 3/115/3 57/6/3
f 66/82/3 85/120/3 86/83/3
f 2/122/3 1/121/3 57/6/3
f 109/123/3 2/122/3 57/6/3
f 67/81/3 86/83/3 87/87/3
f 87/87/3 88/124/3 57/6/3
f 108/125/3 109/123/3 57/6/3
f 103/126/3 108/125/3 57/6/3
f 57/6/3 88/124/3 100/127/3
f 102/5/3 103/126/3 57/6/3
f 57/6/3 100/127/3 101/4/3
f 1/7/2 4/128/2 6/8/4
f 76/129/5 75/130/5 74/131/5
f 74/131/5 73/132/5 76/129/5
f 73/132/5 72/133/5 76/129/5
f 72/133/5 71/134/5 76/129/5
f 71/134/5 65/135/5 76/129/5
f 65/135/5 64/136/5 97/137/5
f 64/136/5 63/138/5 91/139/5
f 97/137/5 64/136/5 96/140/5
f 63/138/5 62/141/5 89/142/5
f 62/141/5 61/143/5 89/142/5
f 61/143/5 60/144/5 89/142/5
f 60/144/5 59/12/5 89/142/5
f 97/137/5 76/129/5 65/135/5
f 45/145/5 44/146/5 43/147/5
f 43/147/5 42/148/5 45/145/5
f 42/148/5 41/149/5 45/145/5
f 41/149/5 40/150/5 45/145/5
f 40/150/5 39/151/5 45/145/5
f 39/151/5 38/152/5 45/145/5
f 38/152/5 37/153/5 45/145/5
f 37/153/5 35/154/5 45/145/5
f 35/154/5 34/155/5 45/145/5
f 34/155/5 33/156/5 45/145/5
f 33/156/5 31/157/5 45/145/5
f 31/157/5 30/158/5 59/12/5
f 30/158/5 32/159/5 12/160/5
f 32/159/5 24/161/5 13/162/5
f 24/161/5 23/163/5 13/162/5
f 23/163/5 22/164/5 21/165/5
f 22/164/5 20/166/5 21/165/5
f 30/158/5 12/160/5 11/167/5
f 56/168/5 45/145/5 31/157/5
f 32/159/5 13/162/5 12/160/5
f 23/163/5 21/165/5 13/162/5
f 59/12/5 56/168/5 31/157/5
f 30/158/5 11/167/5 10/169/5
f 59/12/5 30/158/5 6/170/5
f 30/158/5 10/169/5 9/171/5
f 96/140/5 64/136/5 95/172/5
f 95/172/5 64/136/5 94/173/5
f 30/158/5 9/171/5 7/174/5
f 30/158/5 7/174/5 6/170/5
f 94/173/5 64/136/5 93/175/5
f 93/175/5 64/136/5 92/176/5
f 59/12/5 6/170/5 4/2/5
f 92/176/5 64/136/5 91/139/5
f 59/12/5 4/2/5 5/177/5
f 59/12/5 5/177/5 107/178/5
f 89/142/5 91/139/5 63/138/5
f 59/12/5 107/178/5 106/179/5
f 59/12/5 106/179/5 105/180/5
f 90/181/5 89/142/5 59/12/5
f 59/12/5 105/180/5 104/182/5
f 59/12/5 104/182/5 99/10/5
f 98/11/5 90/181/5 59/12/5
f 6/8/4 7/183/6 8/13/6
f 115/15/8 116/184/48 10/16/8
f 116/184/48 8/13/6 9/185/48
f 10/16/8 116/184/48 9/185/48
f 8/13/6 7/183/6 9/185/48
f 10/16/8 11/186/7 15/14/7
f 11/186/7 12/187/49 14/188/49
f 14/188/49 15/14/7 11/186/7
f 17/19/9 16/189/50 21/17/9
f 16/189/50 14/188/49 13/190/50
f 21/17/9 16/189/50 13/190/50
f 14/188/49 12/187/49 13/190/50
f 21/17/9 20/20/10 18/18/10
f 20/20/11 22/22/12 19/21/12
f 22/22/12 23/191/51 25/23/13
f 27/26/16 26/192/52 32/24/14
f 26/192/52 25/23/13 32/24/14
f 25/23/13 23/191/51 24/193/53
f 32/24/14 30/194/15 28/25/15
f 25/23/13 24/193/53 32/24/14
f 28/25/17 30/194/17 31/27/17
f 113/31/20 114/195/54 34/29/18
f 114/195/54 29/28/55 34/29/18
f 29/28/55 31/27/56 33/196/57
f 34/29/18 35/197/58 36/30/19
f 29/28/55 33/196/57 34/29/18
f 53/198/59 54/199/60 38/200/61
f 54/199/60 36/30/19 38/200/61
f 36/30/19 35/197/58 37/201/62
f 38/200/61 39/202/63 53/198/59
f 39/202/63 40/203/64 53/198/59
f 36/30/19 37/201/62 38/200/61
f 51/204/65 52/205/66 40/203/64
f 52/205/66 53/198/59 40/203/64
f 40/203/64 41/206/67 51/204/65
f 41/206/67 42/34/23 51/204/65
f 49/33/22 50/207/68 42/34/23
f 50/207/68 51/204/65 42/34/23
f 42/34/23 43/208/69 46/35/70
f 43/208/69 44/209/71 46/35/70
f 46/35/70 48/32/21 42/34/23
f 46/35/24 44/209/24 45/36/25
f 47/37/25 45/36/25 56/38/26
f 55/39/26 56/38/26 59/40/27
f 57/41/28 59/40/28 60/42/28
f 66/49/31 67/210/30 64/47/31
f 67/210/30 111/46/29 63/45/30
f 64/47/31 67/210/30 63/45/30
f 112/211/72 58/43/73 60/42/73
f 111/46/29 112/211/72 61/212/72
f 112/211/72 60/42/73 61/212/72
f 61/212/72 62/44/29 111/46/29
f 64/47/31 65/50/32 68/48/32
f 65/50/33 71/213/34 69/51/34
f 77/214/74 78/215/75 75/53/36
f 78/215/75 110/54/37 75/53/36
f 70/216/76 69/51/34 71/213/34
f 110/54/37 70/216/76 72/217/76
f 70/216/76 71/213/34 72/217/76
f 72/217/76 73/218/77 110/54/37
f 73/218/77 74/52/35 110/54/37
f 89/219/78 87/58/78 86/220/79
f 85/221/80 84/222/81 92/223/80
f 84/222/81 83/224/82 93/225/81
f 85/221/80 92/223/80 91/226/79
f 89/219/78 86/220/79 91/226/79
f 86/220/79 85/221/80 91/226/79
f 93/225/81 92/223/80 84/222/81
f 83/224/82 82/227/83 94/228/82
f 82/227/83 81/229/84 95/230/83
f 83/224/82 94/228/82 93/225/81
f 95/230/83 94/228/82 82/227/83
f 81/229/84 80/231/39 96/232/84
f 80/231/39 79/57/38 97/56/39
f 81/229/84 96/232/84 95/230/83
f 97/56/39 96/232/84 80/231/39
f 79/57/38 77/214/85 75/53/85
f 75/53/85 76/55/38 79/57/38
f 87/58/40 89/219/40 90/59/41
f 90/59/41 98/62/42 100/61/42
f 98/62/42 99/64/43 101/63/43
f 99/64/43 104/233/44 102/65/44
f 102/65/44 104/233/44 105/66/45
f 103/67/45 105/66/45 106/68/46
f 108/69/46 106/68/46 107/70/47
f 109/71/47 107/70/47 5/72/1
