# Blender v2.92.0 OBJ File: 'letters.blend'
# www.blender.org
mtllib Z_.mtl
o Z_.001_Curve.143
v -0.090845 0.027952 0.050000
v 0.150245 0.403215 0.050000
v 0.075222 0.028047 0.050000
v -0.090845 0.027952 -0.050000
v 0.150245 0.403215 -0.050000
v 0.075222 0.028047 -0.050000
v 0.080296 0.028331 -0.050000
v 0.085102 0.028804 -0.050000
v 0.093915 0.030318 -0.050000
v 0.085102 0.028804 0.050000
v 0.093915 0.030318 0.050000
v 0.080296 0.028331 0.050000
v 0.101661 0.032589 0.050000
v 0.108338 0.035618 0.050000
v 0.101661 0.032589 -0.050000
v 0.108338 0.035618 -0.050000
v 0.111277 0.037416 -0.050000
v 0.113948 0.039403 -0.050000
v 0.111277 0.037416 0.050000
v 0.113948 0.039403 0.050000
v 0.116353 0.041579 0.050000
v 0.120672 0.046752 0.050000
v 0.116353 0.041579 -0.050000
v 0.120672 0.046752 -0.050000
v 0.124545 0.053187 -0.050000
v 0.127972 0.060884 -0.050000
v 0.124545 0.053187 0.050000
v 0.127972 0.060884 0.050000
v 0.130952 0.069842 0.050000
v 0.132275 0.074795 0.050000
v 0.130952 0.069842 -0.050000
v 0.132275 0.074795 -0.050000
v 0.133486 0.080062 -0.050000
v 0.135570 0.091544 -0.050000
v 0.135570 0.091544 0.050000
v 0.137054 0.091525 -0.050000
v 0.138481 0.091467 -0.050000
v 0.139850 0.091370 -0.050000
v 0.141160 0.091234 -0.050000
v 0.142412 0.091059 -0.050000
v 0.141160 0.091234 0.050000
v 0.139850 0.091370 0.050000
v 0.142412 0.091059 0.050000
v 0.143606 0.090846 0.050000
v 0.144742 0.090593 0.050000
v 0.145820 0.090302 0.050000
v 0.147800 0.089603 0.050000
v 0.145820 0.090302 -0.050000
v 0.147800 0.089603 -0.050000
v 0.144742 0.090593 -0.050000
v 0.143606 0.090846 -0.050000
v 0.149547 0.088749 -0.050000
v 0.143257 0.000000 -0.050000
v 0.149547 0.088749 0.050000
v 0.143257 -0.000000 0.050000
v -0.144653 -0.000000 0.050000
v -0.146361 0.003397 0.050000
v -0.144653 0.000000 -0.050000
v -0.146361 0.003397 -0.050000
v -0.147758 0.007066 -0.050000
v -0.149622 0.015219 -0.050000
v -0.147758 0.007066 0.050000
v -0.149622 0.015219 0.050000
v -0.150244 0.024458 0.050000
v -0.150244 0.024458 -0.050000
v 0.092244 0.400419 0.050000
v 0.092244 0.400419 -0.050000
v -0.062533 0.400320 0.050000
v -0.067513 0.400021 0.050000
v -0.072239 0.399524 0.050000
v -0.080935 0.397932 0.050000
v -0.072239 0.399524 -0.050000
v -0.080935 0.397932 -0.050000
v -0.067513 0.400021 -0.050000
v -0.062533 0.400320 -0.050000
v -0.088622 0.395545 -0.050000
v -0.088622 0.395545 0.050000
v -0.095300 0.392361 -0.050000
v -0.098260 0.390471 -0.050000
v -0.095300 0.392361 0.050000
v -0.098260 0.390471 0.050000
v -0.100967 0.388382 0.050000
v -0.103424 0.386094 0.050000
v -0.100967 0.388382 -0.050000
v -0.103424 0.386094 -0.050000
v -0.107849 0.380707 -0.050000
v -0.111809 0.374097 -0.050000
v -0.107849 0.380707 0.050000
v -0.111809 0.374097 0.050000
v -0.115303 0.366265 0.050000
v -0.118332 0.357209 0.050000
v -0.115303 0.366265 -0.050000
v -0.118332 0.357209 -0.050000
v -0.122991 0.335430 -0.050000
v -0.122991 0.335430 0.050000
v -0.124053 0.335454 -0.050000
v -0.125145 0.335527 -0.050000
v -0.126266 0.335648 -0.050000
v -0.127416 0.335818 -0.050000
v -0.132308 0.336983 -0.050000
v -0.127416 0.335818 0.050000
v -0.126266 0.335648 0.050000
v -0.132308 0.336983 0.050000
v -0.137666 0.338924 0.050000
v -0.137617 0.346688 0.050000
v -0.137666 0.338924 -0.050000
v -0.137617 0.346688 -0.050000
v -0.137471 0.354375 -0.050000
v -0.137229 0.361985 -0.050000
v -0.136889 0.369516 -0.050000
v -0.136453 0.376970 -0.050000
v -0.135919 0.384347 -0.050000
v -0.135287 0.391645 -0.050000
v -0.134560 0.398866 -0.050000
v -0.133735 0.406010 -0.050000
v -0.132812 0.413076 -0.050000
v -0.131793 0.420064 -0.050000
v -0.130677 0.426974 -0.050000
v -0.130677 0.426974 0.050000
v 0.146751 0.426974 -0.050000
v 0.147819 0.424179 -0.050000
v 0.146751 0.426974 0.050000
v 0.147819 0.424179 0.050000
v 0.148691 0.420918 0.050000
v 0.149857 0.412998 0.050000
v 0.148691 0.420918 -0.050000
v 0.149857 0.412998 -0.050000
v 0.150026 0.410727 -0.050000
v 0.150147 0.408339 -0.050000
v 0.150220 0.405835 -0.050000
v 0.150026 0.410727 0.050000
v 0.150147 0.408339 0.050000
v 0.150220 0.405835 0.050000
v -0.131793 0.420064 0.050000
v -0.132812 0.413076 0.050000
v -0.133735 0.406010 0.050000
v -0.134560 0.398866 0.050000
v -0.135287 0.391645 0.050000
v -0.135919 0.384347 0.050000
v -0.136453 0.376970 0.050000
v -0.136889 0.369516 0.050000
v -0.137229 0.361985 0.050000
v -0.137471 0.354375 0.050000
v -0.125145 0.335527 0.050000
v -0.124053 0.335454 0.050000
v 0.138481 0.091467 0.050000
v 0.137054 0.091525 0.050000
v 0.133486 0.080062 0.050000
vt 1.000000 1.000000
vt 0.992063 0.000000
vt 0.992063 1.000000
vt 0.392000 0.000000
vt 0.024000 0.000000
vt 0.016000 0.000000
vt 0.015873 0.000000
vt 0.000000 1.000000
vt 0.015873 1.000000
vt 0.024000 0.000000
vt 0.392000 0.000000
vt 0.016000 0.000000
vt 0.047619 0.000000
vt 0.031746 1.000000
vt 0.047619 1.000000
vt 0.063492 0.000000
vt 0.063492 1.000000
vt 0.079365 0.000000
vt 0.079365 1.000000
vt 0.087302 1.000000
vt 0.095238 1.000000
vt 0.087302 0.000000
vt 0.103175 1.000000
vt 0.095238 0.000000
vt 0.119048 0.000000
vt 0.119048 1.000000
vt 0.134921 1.000000
vt 0.150794 1.000000
vt 0.134921 0.000000
vt 0.166667 0.000000
vt 0.166667 1.000000
vt 0.182540 1.000000
vt 0.198413 0.000000
vt 0.182540 0.000000
vt 0.206349 1.000000
vt 0.214286 1.000000
vt 0.214286 0.000000
vt 0.238095 1.000000
vt 0.246032 1.000000
vt 0.246032 0.000000
vt 0.277778 0.000000
vt 0.261905 1.000000
vt 0.277778 1.000000
vt 0.293651 1.000000
vt 0.388889 1.000000
vt 0.293651 0.000000
vt 0.396825 1.000000
vt 0.388889 0.000000
vt 0.412698 1.000000
vt 0.396825 0.000000
vt 0.428571 1.000000
vt 0.412698 0.000000
vt 0.460317 1.000000
vt 0.428571 0.000000
vt 0.492063 1.000000
vt 0.460317 0.000000
vt 0.500000 1.000000
vt 0.492063 0.000000
vt 0.515873 0.000000
vt 0.515873 1.000000
vt 0.547619 1.000000
vt 0.531746 0.000000
vt 0.531746 1.000000
vt 0.563492 1.000000
vt 0.547619 0.000000
vt 0.579365 1.000000
vt 0.563492 0.000000
vt 0.587302 1.000000
vt 0.579365 0.000000
vt 0.595238 1.000000
vt 0.587302 0.000000
vt 0.603175 1.000000
vt 0.595238 0.000000
vt 0.619048 1.000000
vt 0.603175 0.000000
vt 0.634921 1.000000
vt 0.619048 0.000000
vt 0.650794 1.000000
vt 0.634921 0.000000
vt 0.666667 1.000000
vt 0.650794 0.000000
vt 0.698413 1.000000
vt 0.666667 0.000000
vt 0.706349 0.000000
vt 0.698413 0.000000
vt 0.714286 1.000000
vt 0.761905 0.000000
vt 0.730159 1.000000
vt 0.761905 1.000000
vt 0.793651 0.000000
vt 0.793651 1.000000
vt 0.809524 0.000000
vt 0.801587 0.000000
vt 0.801587 1.000000
vt 0.896825 1.000000
vt 0.888889 0.000000
vt 0.888889 1.000000
vt 0.912698 1.000000
vt 0.896825 0.000000
vt 0.928571 1.000000
vt 0.912698 0.000000
vt 0.960317 1.000000
vt 0.928571 0.000000
vt 0.976190 0.000000
vt 0.968254 0.000000
vt 0.976190 1.000000
vt 1.000000 0.000000
vt 0.296000 0.000000
vt 0.280000 0.000000
vt 0.184000 0.000000
vt 0.264000 0.000000
vt 0.256000 0.000000
vt 0.248000 0.000000
vt 0.240000 0.000000
vt 0.232000 0.000000
vt 0.224000 0.000000
vt 0.216000 0.000000
vt 0.208000 0.000000
vt 0.200000 0.000000
vt 0.416000 0.000000
vt 0.400000 0.000000
vt 0.000000 0.000000
vt 0.464000 0.000000
vt 0.432000 0.000000
vt 0.504000 0.000000
vt 0.496000 0.000000
vt 0.152000 0.000000
vt 0.136000 0.000000
vt 0.176000 0.000000
vt 0.712000 0.000000
vt 0.704000 0.000000
vt 0.672000 0.000000
vt 0.728000 0.000000
vt 0.720000 0.000000
vt 0.768000 0.000000
vt 0.736000 0.000000
vt 0.808000 0.000000
vt 0.800000 0.000000
vt 0.824000 0.000000
vt 0.816000 0.000000
vt 0.840000 0.000000
vt 0.832000 0.000000
vt 0.656000 0.000000
vt 0.856000 0.000000
vt 0.848000 0.000000
vt 0.624000 0.000000
vt 0.640000 0.000000
vt 0.872000 0.000000
vt 0.864000 0.000000
vt 0.608000 0.000000
vt 0.888000 0.000000
vt 0.880000 0.000000
vt 0.584000 0.000000
vt 0.592000 0.000000
vt 0.568000 0.000000
vt 0.904000 0.000000
vt 0.896000 0.000000
vt 0.520000 0.000000
vt 0.528000 0.000000
vt 0.936000 0.000000
vt 0.920000 0.000000
vt 0.976000 0.000000
vt 0.968000 0.000000
vt 0.992000 0.000000
vt 0.984000 0.000000
vt 1.000000 0.000000
vt 0.536000 0.000000
vt 0.168000 0.000000
vt 0.600000 0.000000
vt 0.120000 0.000000
vt 0.104000 0.000000
vt 0.096000 0.000000
vt 0.088000 0.000000
vt 0.552000 0.000000
vt 0.080000 0.000000
vt 0.064000 0.000000
vt 0.048000 0.000000
vt 0.032000 0.000000
vt 0.023810 1.000000
vt 0.023810 0.000000
vt 0.031746 0.000000
vt 0.000000 0.000000
vt 0.184000 0.000000
vt 0.200000 0.000000
vt 0.208000 0.000000
vt 0.216000 0.000000
vt 0.224000 0.000000
vt 0.232000 0.000000
vt 0.240000 0.000000
vt 0.248000 0.000000
vt 0.256000 0.000000
vt 0.264000 0.000000
vt 0.280000 0.000000
vt 0.296000 0.000000
vt 0.152000 0.000000
vt 0.400000 0.000000
vt 0.416000 0.000000
vt 0.432000 0.000000
vt 0.464000 0.000000
vt 0.496000 0.000000
vt 0.504000 0.000000
vt 0.168000 0.000000
vt 0.176000 0.000000
vt 0.672000 0.000000
vt 0.704000 0.000000
vt 0.712000 0.000000
vt 0.720000 0.000000
vt 0.728000 0.000000
vt 0.736000 0.000000
vt 0.768000 0.000000
vt 0.808000 0.000000
vt 0.800000 0.000000
vt 0.816000 0.000000
vt 0.824000 0.000000
vt 0.832000 0.000000
vt 0.656000 0.000000
vt 0.840000 0.000000
vt 0.848000 0.000000
vt 0.640000 0.000000
vt 0.856000 0.000000
vt 0.624000 0.000000
vt 0.864000 0.000000
vt 0.872000 0.000000
vt 0.608000 0.000000
vt 0.880000 0.000000
vt 0.592000 0.000000
vt 0.888000 0.000000
vt 0.584000 0.000000
vt 0.568000 0.000000
vt 0.896000 0.000000
vt 0.904000 0.000000
vt 0.520000 0.000000
vt 0.920000 0.000000
vt 0.936000 0.000000
vt 0.968000 0.000000
vt 0.976000 0.000000
vt 0.984000 0.000000
vt 0.992000 0.000000
vt 1.000000 0.000000
vt 0.528000 0.000000
vt 0.536000 0.000000
vt 0.136000 0.000000
vt 0.600000 0.000000
vt 0.120000 0.000000
vt 0.104000 0.000000
vt 0.096000 0.000000
vt 0.088000 0.000000
vt 0.552000 0.000000
vt 0.080000 0.000000
vt 0.064000 0.000000
vt 0.048000 0.000000
vt 0.032000 0.000000
vt 0.103175 0.000000
vt 0.150794 0.000000
vt 0.174603 1.000000
vt 0.174603 0.000000
vt 0.198413 1.000000
vt 0.222222 1.000000
vt 0.230159 1.000000
vt 0.230159 0.000000
vt 0.222222 0.000000
vt 0.206349 0.000000
vt 0.253968 1.000000
vt 0.261905 0.000000
vt 0.253968 0.000000
vt 0.238095 0.000000
vt 0.500000 0.000000
vt 0.523810 1.000000
vt 0.523810 0.000000
vt 0.706349 1.000000
vt 0.722222 1.000000
vt 0.730159 0.000000
vt 0.722222 0.000000
vt 0.714286 0.000000
vt 0.841270 1.000000
vt 0.849206 1.000000
vt 0.849206 0.000000
vt 0.857143 1.000000
vt 0.857143 0.000000
vt 0.865079 0.000000
vt 0.865079 1.000000
vt 0.873016 0.000000
vt 0.873016 1.000000
vt 0.880952 1.000000
vt 0.880952 0.000000
vt 0.833333 1.000000
vt 0.841270 0.000000
vt 0.825397 1.000000
vt 0.833333 0.000000
vt 0.817460 1.000000
vt 0.825397 0.000000
vt 0.809524 1.000000
vt 0.817460 0.000000
vt 0.960317 0.000000
vt 0.968254 1.000000
vt 0.984127 1.000000
vt 0.984127 0.000000
vn 0.8413 -0.5405 0.0000
vn -0.0000 -0.0000 1.0000
vn -0.0282 0.9996 0.0000
vn -0.0006 1.0000 0.0000
vn 0.0000 0.0000 -1.0000
vn -0.2257 0.9742 0.0000
vn -0.1337 0.9910 0.0000
vn -0.3480 0.9375 0.0000
vn -0.4684 0.8835 0.0000
vn -0.5600 0.8285 0.0000
vn -0.6347 0.7728 0.0000
vn -0.7211 0.6929 0.0000
vn -0.8146 0.5800 0.0000
vn -0.8868 0.4621 0.0000
vn -0.9323 0.3616 0.0000
vn -0.9579 0.2870 0.0000
vn -0.9795 0.2014 0.0000
vn -0.9839 0.1786 0.0000
vn 0.0268 0.9996 -0.0002
vn 0.0558 0.9984 0.0000
vn 0.0558 0.9984 0.0004
vn 0.1570 0.9876 -0.0002
vn 0.1965 0.9805 0.0000
vn 0.1965 0.9805 0.0005
vn 0.3867 0.9222 0.0000
vn 0.2968 0.9549 -0.0003
vn 0.4394 0.8983 0.0000
vn 0.9975 -0.0707 -0.0000
vn 0.0000 -1.0000 -0.0000
vn -0.9152 -0.4031 -0.0000
vn -0.8934 -0.4492 -0.0000
vn -0.9570 -0.2901 -0.0000
vn -0.9894 -0.1454 -0.0000
vn -0.9977 -0.0671 -0.0000
vn -0.8404 0.5420 0.0000
vn 0.0303 -0.9995 0.0000
vn 0.0006 -1.0000 0.0000
vn 0.0302 -0.9995 0.0000
vn 0.2388 -0.9711 0.0000
vn 0.1425 -0.9898 0.0000
vn 0.3644 -0.9312 0.0000
vn 0.4852 -0.8744 0.0000
vn 0.5751 -0.8181 0.0000
vn 0.6469 -0.7626 0.0000
vn 0.7287 -0.6848 0.0000
vn 0.8175 -0.5759 0.0000
vn 0.8871 -0.4615 0.0000
vn 0.9319 -0.3627 0.0000
vn 0.9646 -0.2636 0.0000
vn 0.9779 -0.2092 0.0000
vn -0.0445 -0.9990 0.0002
vn -0.0231 -0.9997 0.0005
vn -0.0870 -0.9962 -0.0002
vn -0.2866 -0.9581 0.0000
vn -0.1890 -0.9820 0.0000
vn -0.3406 -0.9402 0.0000
vn -0.9997 0.0254 0.0000
vn -0.9999 0.0126 0.0000
vn 0.0000 1.0000 0.0000
vn 0.9514 0.3080 0.0000
vn 0.9342 0.3567 0.0000
vn 0.9793 0.2024 0.0000
vn 0.9939 0.1101 0.0000
vn 0.9992 0.0398 0.0000
vn 0.9980 0.0626 0.0000
vn -0.0769 0.9970 0.0000
vn -0.9705 0.2411 0.0000
vn 0.0871 0.9962 -0.0002
vn 0.1207 0.9927 -0.0004
vn 0.1207 0.9927 0.0000
vn 0.0868 0.9962 0.0002
vn 0.0271 0.9996 0.0002
vn 0.0133 0.9999 -0.0004
vn 0.0131 0.9999 0.0000
vn 0.2391 0.9710 -0.0003
vn 0.2970 0.9549 0.0000
vn 0.2388 0.9711 0.0003
vn 0.1573 0.9876 0.0002
vn 0.0823 -0.9966 0.0000
vn -0.0228 -0.9997 0.0000
vn -0.0448 -0.9990 -0.0002
vn -0.1269 -0.9919 0.0000
vn -0.0871 -0.9962 0.0000
vn -0.9969 0.0792 0.0000
vn -0.9956 0.0932 0.0000
vn -0.9942 0.1075 0.0000
vn -0.9925 0.1221 0.0000
vn -0.9906 0.1369 0.0000
vn -0.9884 0.1519 0.0000
vn -0.9872 0.1594 0.0000
vn -0.9979 0.0654 0.0000
vn -0.9987 0.0518 0.0000
vn -0.9993 0.0384 0.0000
vn -1.0000 0.0063 0.0000
vn 0.9998 0.0192 0.0000
vn 1.0000 0.0095 0.0000
usemtl Material.004
s 1
f 1/1/1 5/2/1 2/3/1
f 55/4/2 12/5/2 3/6/2
f 6/7/3 1/8/4 3/9/3
f 7/10/5 53/11/5 6/12/5
f 9/13/6 10/14/7 11/15/6
f 15/16/8 11/15/6 13/17/8
f 16/18/9 13/17/8 14/19/9
f 19/20/10 16/18/9 14/19/9
f 20/21/11 17/22/10 19/20/10
f 21/23/12 18/24/11 20/21/11
f 24/25/13 21/23/12 22/26/13
f 27/27/14 24/25/13 22/26/13
f 28/28/15 25/29/14 27/27/14
f 31/30/16 28/28/15 29/31/16
f 148/32/17 34/33/18 33/34/17
f 147/35/19 146/36/20 37/37/21
f 43/38/22 44/39/23 51/40/24
f 49/41/25 46/42/26 47/43/25
f 54/44/27 49/41/25 47/43/25
f 55/45/28 52/46/28 54/44/28
f 56/47/29 53/48/29 55/45/29
f 57/49/30 58/50/31 56/47/31
f 62/51/32 59/52/30 57/49/30
f 63/53/33 60/54/32 62/51/32
f 64/55/34 61/56/33 63/53/33
f 66/57/35 65/58/35 64/55/35
f 75/59/36 66/57/37 68/60/38
f 71/61/39 72/62/40 70/63/40
f 77/64/41 73/65/39 71/61/39
f 80/66/42 76/67/41 77/64/41
f 81/68/43 78/69/42 80/66/42
f 82/70/44 79/71/43 81/68/43
f 83/72/45 84/73/44 82/70/44
f 88/74/46 85/75/45 83/72/45
f 89/76/47 86/77/46 88/74/46
f 90/78/48 87/79/47 89/76/47
f 91/80/49 92/81/48 90/78/48
f 95/82/50 93/83/49 91/80/49
f 96/84/51 94/85/52 144/86/53
f 100/87/54 101/88/55 103/89/54
f 106/90/56 103/89/54 104/91/56
f 108/92/57 107/93/58 105/94/58
f 122/95/59 118/96/59 119/97/59
f 123/98/60 120/99/61 122/95/61
f 124/100/62 121/101/60 123/98/60
f 125/102/63 126/103/62 124/100/62
f 129/104/64 128/105/65 132/106/64
f 1/1/1 4/107/1 5/2/1
f 54/108/2 47/109/2 148/110/2
f 47/109/2 46/111/2 148/110/2
f 46/111/2 45/112/2 148/110/2
f 45/112/2 44/113/2 148/110/2
f 44/113/2 43/114/2 148/110/2
f 43/114/2 41/115/2 148/110/2
f 41/115/2 42/116/2 148/110/2
f 42/116/2 146/117/2 148/110/2
f 146/117/2 147/118/2 148/110/2
f 147/118/2 35/119/2 148/110/2
f 57/120/2 56/121/2 1/122/2
f 56/121/2 55/4/2 3/6/2
f 63/123/2 62/124/2 1/122/2
f 62/124/2 57/120/2 1/122/2
f 66/125/2 64/126/2 1/122/2
f 64/126/2 63/123/2 1/122/2
f 55/4/2 54/108/2 28/127/2
f 55/4/2 28/127/2 27/128/2
f 148/110/2 30/129/2 54/108/2
f 145/130/2 95/131/2 91/132/2
f 102/133/2 144/134/2 91/132/2
f 144/134/2 145/130/2 91/132/2
f 103/135/2 101/136/2 105/137/2
f 101/136/2 102/133/2 91/132/2
f 105/137/2 101/136/2 91/132/2
f 105/137/2 104/138/2 103/135/2
f 142/139/2 143/140/2 91/132/2
f 143/140/2 105/137/2 91/132/2
f 140/141/2 141/142/2 90/143/2
f 141/142/2 142/139/2 90/143/2
f 138/144/2 139/145/2 88/146/2
f 139/145/2 140/141/2 89/147/2
f 136/148/2 137/149/2 83/150/2
f 137/149/2 138/144/2 88/146/2
f 134/151/2 135/152/2 80/153/2
f 135/152/2 136/148/2 81/154/2
f 134/151/2 80/153/2 77/155/2
f 122/156/2 119/157/2 68/158/2
f 119/157/2 134/151/2 77/155/2
f 68/158/2 119/157/2 69/159/2
f 124/160/2 123/161/2 66/125/2
f 123/161/2 122/156/2 66/125/2
f 131/162/2 125/163/2 66/125/2
f 125/163/2 124/160/2 66/125/2
f 133/164/2 132/165/2 66/125/2
f 132/165/2 131/162/2 66/125/2
f 1/122/2 2/166/2 66/125/2
f 2/166/2 133/164/2 66/125/2
f 137/149/2 88/146/2 83/150/2
f 139/145/2 89/147/2 88/146/2
f 90/143/2 142/139/2 91/132/2
f 69/159/2 119/157/2 70/167/2
f 66/125/2 122/156/2 68/158/2
f 140/141/2 90/143/2 89/147/2
f 30/129/2 29/168/2 54/108/2
f 29/168/2 28/127/2 54/108/2
f 136/148/2 83/150/2 82/169/2
f 55/4/2 27/128/2 22/170/2
f 136/148/2 82/169/2 81/154/2
f 55/4/2 22/170/2 21/171/2
f 81/154/2 80/153/2 135/152/2
f 55/4/2 21/171/2 20/172/2
f 55/4/2 20/172/2 19/173/2
f 77/155/2 71/174/2 119/157/2
f 55/4/2 19/173/2 14/175/2
f 71/174/2 70/167/2 119/157/2
f 55/4/2 14/175/2 13/176/2
f 55/4/2 13/176/2 11/177/2
f 55/4/2 11/177/2 10/178/2
f 55/4/2 10/178/2 12/5/2
f 56/121/2 3/6/2 1/122/2
f 3/9/3 12/179/66 6/7/3
f 12/179/66 10/14/7 7/180/66
f 6/7/3 12/179/66 7/180/66
f 10/14/7 8/181/7 7/180/66
f 6/7/3 4/182/4 1/8/4
f 33/183/5 34/184/5 36/185/5
f 36/185/5 37/186/5 33/183/5
f 37/186/5 38/187/5 33/183/5
f 38/187/5 39/188/5 33/183/5
f 39/188/5 40/189/5 33/183/5
f 40/189/5 51/190/5 33/183/5
f 51/190/5 50/191/5 33/183/5
f 50/191/5 48/192/5 33/183/5
f 48/192/5 49/193/5 33/183/5
f 49/193/5 52/194/5 33/183/5
f 52/194/5 53/11/5 26/195/5
f 53/11/5 58/196/5 6/12/5
f 58/196/5 59/197/5 4/182/5
f 6/12/5 58/196/5 4/182/5
f 59/197/5 60/198/5 4/182/5
f 60/198/5 61/199/5 4/182/5
f 61/199/5 65/200/5 4/182/5
f 65/200/5 67/201/5 4/182/5
f 52/194/5 26/195/5 31/202/5
f 32/203/5 33/183/5 52/194/5
f 52/194/5 31/202/5 32/203/5
f 93/204/5 94/205/5 96/206/5
f 96/206/5 97/207/5 93/204/5
f 97/207/5 98/208/5 93/204/5
f 98/208/5 99/209/5 93/204/5
f 99/209/5 100/210/5 107/211/5
f 100/210/5 106/212/5 107/211/5
f 107/211/5 108/213/5 93/204/5
f 108/213/5 109/214/5 93/204/5
f 109/214/5 110/215/5 92/216/5
f 110/215/5 111/217/5 92/216/5
f 111/217/5 112/218/5 87/219/5
f 112/218/5 113/220/5 86/221/5
f 87/219/5 112/218/5 86/221/5
f 113/220/5 114/222/5 86/221/5
f 114/222/5 115/223/5 85/224/5
f 86/221/5 114/222/5 85/224/5
f 115/223/5 116/225/5 79/226/5
f 116/225/5 117/227/5 78/228/5
f 78/228/5 117/227/5 76/229/5
f 117/227/5 118/230/5 76/229/5
f 118/230/5 120/231/5 75/232/5
f 120/231/5 121/233/5 67/201/5
f 121/233/5 126/234/5 67/201/5
f 126/234/5 127/235/5 67/201/5
f 127/235/5 128/236/5 67/201/5
f 128/236/5 129/237/5 67/201/5
f 129/237/5 130/238/5 67/201/5
f 130/238/5 5/239/5 67/201/5
f 5/239/5 4/182/5 67/201/5
f 118/230/5 75/232/5 74/240/5
f 99/209/5 107/211/5 93/204/5
f 92/216/5 93/204/5 109/214/5
f 118/230/5 74/240/5 72/241/5
f 92/216/5 111/217/5 87/219/5
f 25/242/5 26/195/5 53/11/5
f 84/243/5 85/224/5 115/223/5
f 24/244/5 25/242/5 53/11/5
f 79/226/5 84/243/5 115/223/5
f 23/245/5 24/244/5 53/11/5
f 78/228/5 79/226/5 116/225/5
f 18/246/5 23/245/5 53/11/5
f 17/247/5 18/246/5 53/11/5
f 73/248/5 76/229/5 118/230/5
f 16/249/5 17/247/5 53/11/5
f 72/241/5 73/248/5 118/230/5
f 15/250/5 16/249/5 53/11/5
f 9/251/5 15/250/5 53/11/5
f 8/252/5 9/251/5 53/11/5
f 67/201/5 75/232/5 120/231/5
f 7/10/5 8/252/5 53/11/5
f 9/13/6 8/181/7 10/14/7
f 15/16/8 9/13/6 11/15/6
f 16/18/9 15/16/8 13/17/8
f 19/20/10 17/22/10 16/18/9
f 20/21/11 18/24/11 17/22/10
f 21/23/12 23/253/12 18/24/11
f 24/25/13 23/253/12 21/23/12
f 27/27/14 25/29/14 24/25/13
f 28/28/15 26/254/15 25/29/14
f 31/30/16 26/254/15 28/28/15
f 29/31/16 30/255/67 31/30/16
f 30/255/67 148/32/17 32/256/67
f 31/30/16 30/255/67 32/256/67
f 148/32/17 35/257/18 34/33/18
f 33/34/17 32/256/67 148/32/17
f 146/36/20 42/258/68 37/37/21
f 42/258/68 41/259/69 37/37/21
f 41/259/69 39/260/70 38/261/71
f 37/37/21 36/262/72 35/257/73
f 36/262/72 34/33/74 35/257/73
f 41/259/69 38/261/71 37/37/21
f 35/257/73 147/35/19 37/37/21
f 44/39/23 45/263/75 51/40/24
f 45/263/75 46/42/26 51/40/24
f 46/42/26 48/264/76 50/265/77
f 51/40/24 40/266/78 41/259/69
f 40/266/78 39/260/70 41/259/69
f 46/42/26 50/265/77 51/40/24
f 41/259/69 43/38/22 51/40/24
f 49/41/25 48/264/76 46/42/26
f 54/44/27 52/46/27 49/41/25
f 55/45/28 53/48/28 52/46/28
f 56/47/29 58/50/29 53/48/29
f 57/49/30 59/52/30 58/50/31
f 62/51/32 60/54/32 59/52/30
f 63/53/33 61/56/33 60/54/32
f 64/55/34 65/58/34 61/56/33
f 66/57/35 67/267/35 65/58/35
f 68/60/38 69/268/79 75/59/36
f 69/268/79 70/63/40 74/269/79
f 75/59/36 69/268/79 74/269/79
f 70/63/40 72/62/40 74/269/79
f 75/59/36 67/267/37 66/57/37
f 71/61/39 73/65/39 72/62/40
f 77/64/41 76/67/41 73/65/39
f 80/66/42 78/69/42 76/67/41
f 81/68/43 79/71/43 78/69/42
f 82/70/44 84/73/44 79/71/43
f 83/72/45 85/75/45 84/73/44
f 88/74/46 86/77/46 85/75/45
f 89/76/47 87/79/47 86/77/46
f 90/78/48 92/81/48 87/79/47
f 91/80/49 93/83/49 92/81/48
f 95/82/50 94/85/50 93/83/49
f 95/82/80 145/270/81 94/85/52
f 145/270/81 144/86/53 94/85/52
f 102/271/82 101/88/55 99/272/55
f 144/86/53 102/271/82 98/273/82
f 102/271/82 99/272/55 98/273/82
f 98/273/82 97/274/83 144/86/53
f 97/274/83 96/84/51 144/86/53
f 100/87/54 99/272/55 101/88/55
f 106/90/56 100/87/54 103/89/54
f 139/275/84 138/276/85 113/277/85
f 138/276/85 137/278/86 114/279/86
f 115/280/87 136/281/87 116/282/88
f 136/281/87 135/283/88 116/282/88
f 135/283/88 134/284/89 117/285/89
f 117/285/89 134/284/89 118/96/90
f 140/286/91 139/275/84 112/287/84
f 136/281/87 115/280/87 137/278/86
f 134/284/89 119/97/90 118/96/90
f 141/288/92 140/286/91 111/289/91
f 137/278/86 115/280/87 114/279/86
f 142/290/93 141/288/92 110/291/92
f 135/283/88 117/285/89 116/282/88
f 139/275/84 113/277/85 112/287/84
f 105/94/58 143/292/57 108/92/57
f 143/292/57 142/290/93 109/293/93
f 138/276/85 114/279/86 113/277/85
f 141/288/92 111/289/91 110/291/92
f 106/90/94 104/91/94 105/94/58
f 140/286/91 112/287/84 111/289/91
f 142/290/93 110/291/92 109/293/93
f 107/93/58 106/90/94 105/94/58
f 109/293/93 108/92/57 143/292/57
f 122/95/59 120/99/59 118/96/59
f 123/98/60 121/101/60 120/99/61
f 124/100/62 126/103/62 121/101/60
f 125/102/63 127/294/63 126/103/62
f 125/102/63 131/295/65 127/294/63
f 131/295/65 132/106/64 128/105/65
f 127/294/63 131/295/65 128/105/65
f 133/296/95 2/3/96 5/2/96
f 132/106/64 133/296/95 130/297/95
f 133/296/95 5/2/96 130/297/95
f 130/297/95 129/104/64 132/106/64
