# Blender v2.92.0 OBJ File: 'letters.blend'
# www.blender.org
mtllib A_.mtl
o A_.001_Curve.083
v -0.032063 0.320000 0.050000
v -0.027619 0.342222 0.050000
v -0.071428 0.186032 0.050000
v -0.032063 0.320000 -0.050000
v -0.071428 0.186032 -0.050000
v -0.027619 0.342222 -0.050000
v -0.159682 0.078095 -0.050000
v -0.051111 0.412064 -0.050000
v -0.164303 0.067513 -0.050000
v -0.159682 0.078095 0.050000
v -0.051111 0.412064 0.050000
v -0.164303 0.067513 0.050000
v -0.166905 0.062857 0.050000
v -0.168278 0.060688 0.050000
v -0.169700 0.058624 0.050000
v -0.172689 0.054815 0.050000
v -0.169700 0.058624 -0.050000
v -0.168278 0.060688 -0.050000
v -0.172689 0.054815 -0.050000
v -0.175873 0.051429 -0.050000
v -0.179409 0.048359 -0.050000
v -0.175873 0.051429 0.050000
v -0.179409 0.048359 0.050000
v -0.183457 0.045502 0.050000
v -0.193086 0.040423 0.050000
v -0.183457 0.045502 -0.050000
v -0.193086 0.040423 -0.050000
v -0.195813 0.039285 -0.050000
v -0.198668 0.038201 -0.050000
v -0.204762 0.036191 -0.050000
v -0.206455 0.019683 -0.050000
v -0.204762 0.036191 0.050000
v -0.198668 0.038201 0.050000
v -0.206455 0.019683 0.050000
v -0.206547 0.017917 0.050000
v -0.206613 0.016217 0.050000
v -0.206653 0.014583 0.050000
v -0.206666 0.013016 0.050000
v -0.206666 -0.000000 0.050000
v -0.064444 -0.000000 0.050000
v -0.206666 0.000000 -0.050000
v -0.206666 0.013016 -0.050000
v -0.064444 0.000000 -0.050000
v -0.064039 0.002870 -0.050000
v -0.063668 0.005767 -0.050000
v -0.063333 0.008690 -0.050000
v -0.063033 0.011640 -0.050000
v -0.062769 0.014616 -0.050000
v -0.062539 0.017619 -0.050000
v -0.062345 0.020648 -0.050000
v -0.062187 0.023704 -0.050000
v -0.062063 0.026786 -0.050000
v -0.061975 0.029894 -0.050000
v -0.061922 0.033029 -0.050000
v -0.061904 0.036191 -0.050000
v -0.083986 0.037107 -0.050000
v -0.061904 0.036191 0.050000
v -0.083986 0.037107 0.050000
v -0.061922 0.033029 0.050000
v -0.061975 0.029894 0.050000
v -0.062063 0.026786 0.050000
v -0.062187 0.023704 0.050000
v -0.062345 0.020648 0.050000
v -0.062539 0.017619 0.050000
v -0.062769 0.014616 0.050000
v -0.063033 0.011640 0.050000
v -0.063333 0.008690 0.050000
v -0.063668 0.005767 0.050000
v -0.064039 0.002870 0.050000
v -0.101129 0.039859 0.050000
v -0.107848 0.041922 0.050000
v -0.101129 0.039859 -0.050000
v -0.107848 0.041922 -0.050000
v -0.113333 0.044445 -0.050000
v -0.084762 0.142222 -0.050000
v -0.113333 0.044445 0.050000
v -0.084762 0.142222 0.050000
v 0.032064 0.142222 0.050000
v 0.058730 0.052063 0.050000
v 0.032064 0.142222 -0.050000
v 0.058730 0.052063 -0.050000
v 0.055578 0.050595 -0.050000
v 0.052258 0.049154 -0.050000
v 0.048770 0.047738 -0.050000
v 0.045115 0.046350 -0.050000
v 0.037302 0.043651 -0.050000
v 0.045115 0.046350 0.050000
v 0.048770 0.047738 0.050000
v 0.037302 0.043651 0.050000
v 0.028819 0.041059 0.050000
v 0.009842 0.036191 0.050000
v 0.007937 -0.000000 0.050000
v 0.009842 0.036191 -0.050000
v 0.028819 0.041059 -0.050000
v 0.007937 0.000000 -0.050000
v 0.204127 0.000000 -0.050000
v 0.206667 0.036191 -0.050000
v 0.204127 -0.000000 0.050000
v 0.206667 0.036191 0.050000
v 0.193651 0.037460 0.050000
v 0.193651 0.037460 -0.050000
v 0.188175 0.038730 0.050000
v 0.183386 0.040423 0.050000
v 0.188175 0.038730 -0.050000
v 0.183386 0.040423 -0.050000
v 0.179286 0.042540 -0.050000
v 0.177494 0.043757 -0.050000
v 0.179286 0.042540 0.050000
v 0.177494 0.043757 0.050000
v 0.175873 0.045079 0.050000
v 0.172849 0.048237 0.050000
v 0.175873 0.045079 -0.050000
v 0.172849 0.048237 -0.050000
v 0.169912 0.052205 -0.050000
v 0.169912 0.052205 0.050000
v 0.167064 0.056984 -0.050000
v 0.165673 0.059678 -0.050000
v 0.167064 0.056984 0.050000
v 0.165673 0.059678 0.050000
v 0.164304 0.062575 0.050000
v 0.161632 0.068977 0.050000
v 0.161632 0.068977 -0.050000
v 0.160329 0.072482 0.050000
v 0.159048 0.076190 0.050000
v 0.051111 0.420952 0.050000
v 0.040701 0.420696 0.050000
v 0.051111 0.420952 -0.050000
v 0.159048 0.076190 -0.050000
v 0.040701 0.420696 -0.050000
v 0.030635 0.420353 -0.050000
v 0.020913 0.419921 -0.050000
v 0.011535 0.419400 -0.050000
v 0.002500 0.418792 -0.050000
v -0.006190 0.418095 -0.050000
v -0.014537 0.417310 -0.050000
v -0.022539 0.416437 -0.050000
v -0.022539 0.416437 0.050000
v -0.014537 0.417310 0.050000
v -0.006190 0.418095 0.050000
v 0.002500 0.418792 0.050000
v 0.011535 0.419400 0.050000
v 0.020913 0.419921 0.050000
v 0.030635 0.420353 0.050000
v 0.160329 0.072482 -0.050000
v 0.018730 0.186032 -0.050000
v 0.018730 0.186032 0.050000
v 0.164304 0.062575 -0.050000
v 0.052258 0.049154 0.050000
v 0.055578 0.050595 0.050000
v -0.206653 0.014583 -0.050000
v -0.206613 0.016217 -0.050000
v -0.206547 0.017917 -0.050000
v -0.195813 0.039285 0.050000
v -0.166905 0.062857 -0.050000
vt 1.000000 1.000000
vt 0.750000 0.000000
vt 0.750000 1.000000
vt 0.207792 0.000000
vt 0.577922 0.000000
vt 0.370130 0.000000
vt 0.250000 1.000000
vt 0.000000 0.000000
vt 0.000000 1.000000
vt 0.889610 0.000000
vt 0.902597 0.000000
vt 0.025974 0.000000
vt 0.688312 0.000000
vt 0.714286 0.000000
vt 0.019481 0.000000
vt 0.675497 1.000000
vt 0.668874 0.000000
vt 0.668874 1.000000
vt 0.642384 1.000000
vt 0.785714 0.000000
vt 0.779221 0.000000
vt 0.188312 0.000000
vt 0.629139 1.000000
vt 0.642384 0.000000
vt 0.629139 0.000000
vt 0.615894 0.000000
vt 0.602649 1.000000
vt 0.615894 1.000000
vt 0.602649 0.000000
vt 0.589404 1.000000
vt 0.576159 0.000000
vt 0.576159 1.000000
vt 0.562914 1.000000
vt 0.562914 0.000000
vt 0.536424 1.000000
vt 0.523179 0.000000
vt 0.509934 1.000000
vt 0.523179 1.000000
vt 0.456954 0.000000
vt 0.456954 1.000000
vt 0.430464 0.000000
vt 0.350993 1.000000
vt 0.430464 1.000000
vt 0.344371 0.000000
vt 0.344371 1.000000
vt 0.278146 0.000000
vt 0.271523 0.000000
vt 0.271523 1.000000
vt 0.264901 1.000000
vt 0.238411 0.000000
vt 0.238411 1.000000
vt 0.211921 0.000000
vt 0.211921 1.000000
vt 0.198675 0.000000
vt 0.198675 1.000000
vt 0.185430 1.000000
vt 0.178808 0.000000
vt 0.178808 1.000000
vt 0.172185 0.000000
vt 0.172185 1.000000
vt 0.165563 0.000000
vt 0.165563 1.000000
vt 0.145695 1.000000
vt 0.152318 1.000000
vt 0.152318 0.000000
vt 0.112583 1.000000
vt 0.125828 1.000000
vt 0.125828 0.000000
vt 0.086093 1.000000
vt 0.006623 0.000000
vt 0.006623 1.000000
vt 0.000000 0.000000
vt 0.000000 1.000000
vt 1.000000 0.000000
vt 0.920530 1.000000
vt 1.000000 1.000000
vt 0.894040 0.000000
vt 0.894040 1.000000
vt 0.880795 0.000000
vt 0.880795 1.000000
vt 0.867550 0.000000
vt 0.867550 1.000000
vt 0.854305 0.000000
vt 0.854305 1.000000
vt 0.847682 0.000000
vt 0.847682 1.000000
vt 0.841060 0.000000
vt 0.841060 1.000000
vt 0.827815 0.000000
vt 0.827815 1.000000
vt 0.814570 1.000000
vt 0.801324 0.000000
vt 0.801324 1.000000
vt 0.788079 0.000000
vt 0.774834 1.000000
vt 0.788079 1.000000
vt 0.761589 0.000000
vt 0.754967 1.000000
vt 0.761589 1.000000
vt 0.741722 0.000000
vt 0.735099 0.000000
vt 0.741722 1.000000
vt 0.701987 0.000000
vt 0.701987 1.000000
vt 0.500000 1.000000
vt 0.250000 0.000000
vt 0.500000 0.000000
vt 1.000000 0.000000
vt 0.201299 0.000000
vt 0.006494 0.000000
vt 0.681818 0.000000
vt 0.000000 0.000000
vt 0.019481 0.000000
vt 0.655844 0.000000
vt 0.642857 0.000000
vt 0.636364 0.000000
vt 0.220779 0.000000
vt 0.629870 0.000000
vt 0.616883 0.000000
vt 0.233766 0.000000
vt 0.363636 0.000000
vt 0.603896 0.000000
vt 0.590909 0.000000
vt 0.292208 0.000000
vt 0.285714 0.000000
vt 0.259740 0.000000
vt 0.298701 0.000000
vt 0.357143 0.000000
vt 0.344156 0.000000
vt 0.350649 0.000000
vt 0.305195 0.000000
vt 0.318182 0.000000
vt 0.311688 0.000000
vt 0.331169 0.000000
vt 0.324675 0.000000
vt 0.337662 0.000000
vt 0.454545 0.000000
vt 0.448052 0.000000
vt 0.551948 0.000000
vt 0.467532 0.000000
vt 0.461039 0.000000
vt 0.525974 0.000000
vt 0.474026 0.000000
vt 0.538961 0.000000
vt 0.545455 0.000000
vt 0.363636 0.000000
vt 0.370130 0.000000
vt 0.220779 0.000000
vt 0.448052 0.000000
vt 0.577922 0.000000
vt 0.207792 0.000000
vt 0.454545 0.000000
vt 0.551948 0.000000
vt 0.461039 0.000000
vt 0.467532 0.000000
vt 0.474026 0.000000
vt 0.525974 0.000000
vt 0.538961 0.000000
vt 0.545455 0.000000
vt 0.357143 0.000000
vt 0.233766 0.000000
vt 0.344156 0.000000
vt 0.350649 0.000000
vt 0.259740 0.000000
vt 0.331169 0.000000
vt 0.337662 0.000000
vt 0.318182 0.000000
vt 0.324675 0.000000
vt 0.305195 0.000000
vt 0.311688 0.000000
vt 0.292208 0.000000
vt 0.298701 0.000000
vt 0.285714 0.000000
vt 0.590909 0.000000
vt 0.603896 0.000000
vt 0.616883 0.000000
vt 0.201299 0.000000
vt 0.681818 0.000000
vt 0.629870 0.000000
vt 0.636364 0.000000
vt 0.642857 0.000000
vt 0.655844 0.000000
vt 0.006494 0.000000
vt 0.012987 0.000000
vt 0.772727 0.000000
vt 0.194805 0.000000
vt 0.779221 0.000000
vt 0.188312 0.000000
vt 0.785714 0.000000
vt 0.798701 0.000000
vt 0.805195 0.000000
vt 0.811688 0.000000
vt 0.824675 0.000000
vt 0.181818 0.000000
vt 0.032468 0.000000
vt 0.837662 0.000000
vt 0.850649 0.000000
vt 0.175325 0.000000
vt 0.168831 0.000000
vt 0.857143 0.000000
vt 0.162338 0.000000
vt 0.863636 0.000000
vt 0.149351 0.000000
vt 0.876623 0.000000
vt 0.110390 0.000000
vt 0.136364 0.000000
vt 0.928571 0.000000
vt 0.740260 0.000000
vt 0.746753 0.000000
vt 0.753247 0.000000
vt 0.759740 0.000000
vt 0.766234 0.000000
vt 0.727273 0.000000
vt 0.733766 0.000000
vt 0.720779 0.000000
vt 0.675497 0.000000
vt 0.032468 0.000000
vt 0.025974 0.000000
vt 0.928571 0.000000
vt 0.902597 0.000000
vt 0.889610 0.000000
vt 0.136364 0.000000
vt 0.110390 0.000000
vt 0.149351 0.000000
vt 0.876623 0.000000
vt 0.863636 0.000000
vt 0.162338 0.000000
vt 0.168831 0.000000
vt 0.857143 0.000000
vt 0.850649 0.000000
vt 0.175325 0.000000
vt 0.181818 0.000000
vt 0.837662 0.000000
vt 0.194805 0.000000
vt 0.012987 0.000000
vt 0.772727 0.000000
vt 0.824675 0.000000
vt 0.811688 0.000000
vt 0.766234 0.000000
vt 0.805195 0.000000
vt 0.688312 0.000000
vt 0.720779 0.000000
vt 0.714286 0.000000
vt 0.733766 0.000000
vt 0.727273 0.000000
vt 0.746753 0.000000
vt 0.740260 0.000000
vt 0.759740 0.000000
vt 0.753247 0.000000
vt 0.798701 0.000000
vt 0.622517 1.000000
vt 0.622517 0.000000
vt 0.589404 0.000000
vt 0.536424 0.000000
vt 0.529801 1.000000
vt 0.529801 0.000000
vt 0.509934 0.000000
vt 0.443709 1.000000
vt 0.450331 1.000000
vt 0.443709 0.000000
vt 0.450331 0.000000
vt 0.437086 0.000000
vt 0.437086 1.000000
vt 0.350993 0.000000
vt 0.304636 1.000000
vt 0.311258 1.000000
vt 0.311258 0.000000
vt 0.317881 1.000000
vt 0.317881 0.000000
vt 0.324503 0.000000
vt 0.324503 1.000000
vt 0.331126 0.000000
vt 0.331126 1.000000
vt 0.337748 1.000000
vt 0.337748 0.000000
vt 0.298013 1.000000
vt 0.304636 0.000000
vt 0.291391 1.000000
vt 0.298013 0.000000
vt 0.284768 1.000000
vt 0.291391 0.000000
vt 0.278146 1.000000
vt 0.284768 0.000000
vt 0.264901 0.000000
vt 0.185430 0.000000
vt 0.158940 1.000000
vt 0.158940 0.000000
vt 0.145695 0.000000
vt 0.139073 0.000000
vt 0.139073 1.000000
vt 0.112583 0.000000
vt 0.086093 0.000000
vt 0.920530 0.000000
vt 0.814570 0.000000
vt 0.794702 1.000000
vt 0.794702 0.000000
vt 0.774834 0.000000
vt 0.768212 1.000000
vt 0.768212 0.000000
vt 0.754967 0.000000
vt 0.708609 1.000000
vt 0.715232 1.000000
vt 0.708609 0.000000
vt 0.721854 1.000000
vt 0.728477 1.000000
vt 0.721854 0.000000
vt 0.735099 1.000000
vt 0.728477 0.000000
vt 0.715232 0.000000
vt 0.748344 1.000000
vt 0.748344 0.000000
vn 0.9710 -0.2393 0.0000
vn 0.9806 -0.1961 0.0000
vn 0.0000 -0.0000 1.0000
vn 0.9594 -0.2819 0.0000
vn 0.0000 0.0000 -1.0000
vn -0.9510 0.3092 0.0000
vn -0.9348 0.3551 0.0000
vn -0.8958 0.4445 0.0000
vn -0.8593 0.5115 0.0000
vn -0.8054 0.5927 0.0000
vn -0.7584 0.6518 0.0000
vn -0.6929 0.7210 0.0000
vn -0.6169 0.7871 0.0000
vn -0.5227 0.8525 0.0000
vn -0.4262 0.9046 0.0000
vn -0.3343 0.9425 0.0000
vn -0.3133 0.9497 0.0000
vn -0.9948 0.1020 0.0000
vn -0.9970 0.0772 0.0000
vn -0.9970 0.0771 -0.0001
vn -1.0000 0.0043 0.0001
vn -1.0000 0.0000 0.0000
vn -1.0000 0.0042 0.0000
vn 0.0000 -1.0000 -0.0000
vn 0.9997 -0.0226 -0.0000
vn 0.9999 -0.0112 -0.0000
vn 0.0415 0.9991 0.0000
vn 0.1002 0.9950 0.0000
vn 0.2266 0.9740 0.0000
vn 0.3565 0.9343 0.0000
vn 0.4178 0.9085 0.0000
vn 0.9599 -0.2805 -0.0000
vn -0.9589 -0.2836 -0.0000
vn -0.3656 0.9308 0.0000
vn -0.3872 0.9220 0.0000
vn -0.2705 0.9627 0.0000
vn -0.3094 0.9509 0.0000
vn -0.9986 0.0526 0.0000
vn 0.9975 -0.0700 -0.0000
vn 0.0971 0.9953 0.0000
vn 0.1618 0.9868 0.0000
vn 0.2801 0.9600 0.0000
vn 0.3969 0.9178 0.0000
vn 0.5111 0.8595 0.0000
vn 0.5976 0.8018 0.0000
vn 0.6785 0.7346 0.0000
vn 0.7645 0.6446 0.0000
vn 0.8325 0.5541 0.0000
vn 0.8742 0.4856 0.0000
vn 0.9137 0.4063 0.0000
vn 0.9303 0.3669 0.0000
vn 0.9499 0.3127 0.0000
vn 0.9543 0.2988 0.0000
vn -0.0393 0.9992 0.0000
vn -0.0499 0.9988 0.0000
vn -0.1299 0.9915 0.0000
vn -0.1513 0.9885 0.0000
vn 0.0000 1.0000 0.0000
vn -0.9587 -0.2845 0.0000
vn -0.8343 0.5513 0.0000
vn -0.3701 0.9290 0.0000
vn -0.9995 0.0315 -0.0001
vn -0.9990 0.0457 -0.0001
vn -0.9995 0.0317 0.0001
vn -0.9990 0.0455 0.0001
vn -0.9999 0.0163 0.0001
vn -0.9999 0.0164 -0.0001
vn 0.9966 -0.0823 -0.0000
vn 0.9955 -0.0948 -0.0000
vn 0.9942 -0.1075 -0.0000
vn 0.9927 -0.1204 -0.0000
vn 0.9911 -0.1334 -0.0000
vn 0.9902 -0.1399 -0.0000
vn 0.9983 -0.0579 -0.0000
vn 0.9989 -0.0460 -0.0000
vn 0.9994 -0.0342 -0.0000
vn 1.0000 -0.0056 -0.0000
vn -0.4103 0.9120 0.0000
vn -0.4222 0.9065 0.0000
vn -0.3408 0.9401 0.0000
vn -0.2485 0.9686 0.0000
vn 0.8965 0.4431 0.0000
vn 0.9413 0.3375 0.0000
vn -0.1010 0.9949 0.0000
vn -0.0868 0.9962 0.0000
vn -0.0736 0.9973 0.0000
vn -0.0613 0.9981 0.0000
vn -0.0294 0.9996 0.0000
vn -0.0246 0.9997 0.0000
usemtl Material.004
s 1
f 1/1/1 6/2/2 2/3/2
f 76/4/3 24/5/3 39/6/3
f 3/7/4 4/8/1 1/9/1
f 104/10/5 101/11/5 96/12/5
f 8/13/5 136/14/5 6/15/5
f 11/16/6 7/17/7 10/18/7
f 7/17/7 12/19/8 10/18/7
f 121/20/3 123/21/3 79/22/3
f 13/23/9 9/24/8 154/25/9
f 17/26/10 16/27/11 15/28/10
f 19/29/11 22/30/12 16/27/11
f 22/30/12 21/31/13 23/32/13
f 21/31/13 24/33/14 23/32/13
f 26/34/14 25/35/15 24/33/14
f 29/36/16 32/37/17 33/38/16
f 32/37/18 31/39/19 34/40/20
f 42/41/21 39/42/22 38/43/23
f 39/42/24 43/44/24 40/45/24
f 53/46/25 54/47/26 59/48/26
f 57/49/27 56/50/28 58/51/28
f 58/51/28 72/52/29 70/53/29
f 70/53/29 73/54/30 71/55/30
f 73/54/30 76/56/31 71/55/30
f 76/56/32 75/57/32 77/58/32
f 77/58/24 80/59/24 78/60/24
f 78/60/33 81/61/33 79/62/33
f 88/63/34 148/64/35 83/65/35
f 90/66/36 89/67/37 86/68/37
f 91/69/38 95/70/38 92/71/38
f 92/71/24 96/72/24 98/73/24
f 96/74/39 99/75/39 98/76/39
f 99/75/40 101/77/41 100/78/41
f 100/78/41 104/79/42 102/80/42
f 102/80/42 105/81/43 103/82/43
f 103/82/43 106/83/44 108/84/44
f 108/84/44 107/85/45 109/86/45
f 109/86/45 112/87/46 110/88/46
f 110/88/46 113/89/47 111/90/47
f 113/89/47 115/91/48 111/90/47
f 115/91/48 116/92/49 118/93/49
f 147/94/50 121/95/51 120/96/50
f 128/97/52 125/98/53 124/99/52
f 130/100/54 131/101/55 143/102/54
f 136/103/56 11/16/57 137/104/56
f 146/105/58 5/106/58 3/7/58
f 2/3/59 145/107/59 146/105/59
f 1/1/1 4/108/1 6/2/2
f 77/109/3 3/110/3 10/111/3
f 3/110/3 1/112/3 10/111/3
f 77/109/3 10/111/3 76/4/3
f 1/112/3 2/113/3 10/111/3
f 10/111/3 12/114/3 76/4/3
f 12/114/3 13/115/3 76/4/3
f 76/4/3 13/115/3 14/116/3
f 71/117/3 76/4/3 39/6/3
f 76/4/3 14/116/3 15/118/3
f 76/4/3 15/118/3 16/119/3
f 70/120/3 71/117/3 40/121/3
f 76/4/3 16/119/3 22/122/3
f 76/4/3 22/122/3 23/123/3
f 59/124/3 57/125/3 58/126/3
f 76/4/3 23/123/3 24/5/3
f 59/124/3 58/126/3 60/127/3
f 58/126/3 70/120/3 69/128/3
f 67/129/3 58/126/3 68/130/3
f 61/131/3 60/127/3 58/126/3
f 63/132/3 62/133/3 58/126/3
f 62/133/3 61/131/3 58/126/3
f 65/134/3 64/135/3 58/126/3
f 64/135/3 63/132/3 58/126/3
f 67/129/3 66/136/3 58/126/3
f 66/136/3 65/134/3 58/126/3
f 69/128/3 68/130/3 58/126/3
f 39/6/3 40/121/3 71/117/3
f 40/121/3 69/128/3 70/120/3
f 37/137/3 38/138/3 25/139/3
f 38/138/3 39/6/3 24/5/3
f 35/140/3 36/141/3 25/139/3
f 36/141/3 37/137/3 25/139/3
f 32/142/3 34/143/3 33/144/3
f 34/143/3 35/140/3 25/139/3
f 33/144/3 34/143/3 153/145/3
f 153/145/3 34/143/3 25/139/3
f 38/138/3 24/5/3 25/139/3
f 3/7/4 5/106/4 4/8/1
f 43/146/5 41/147/5 73/148/5
f 41/147/5 42/149/5 26/150/5
f 74/151/5 41/147/5 26/150/5
f 42/149/5 150/152/5 27/153/5
f 150/152/5 151/154/5 27/153/5
f 151/154/5 152/155/5 27/153/5
f 152/155/5 31/156/5 27/153/5
f 31/156/5 30/157/5 29/158/5
f 31/156/5 29/158/5 28/159/5
f 44/160/5 43/146/5 72/161/5
f 41/147/5 74/151/5 73/148/5
f 46/162/5 45/163/5 56/164/5
f 45/163/5 44/160/5 56/164/5
f 48/165/5 47/166/5 56/164/5
f 47/166/5 46/162/5 56/164/5
f 50/167/5 49/168/5 56/164/5
f 49/168/5 48/165/5 56/164/5
f 52/169/5 51/170/5 56/164/5
f 51/170/5 50/167/5 56/164/5
f 54/171/5 53/172/5 56/164/5
f 53/172/5 52/169/5 56/164/5
f 56/164/5 55/173/5 54/171/5
f 72/161/5 56/164/5 44/160/5
f 31/156/5 28/159/5 27/153/5
f 43/146/5 73/148/5 72/161/5
f 42/149/5 27/153/5 26/150/5
f 74/151/5 26/150/5 21/174/5
f 74/151/5 21/174/5 20/175/5
f 74/151/5 20/175/5 19/176/5
f 75/177/5 74/151/5 7/178/5
f 74/151/5 19/176/5 17/179/5
f 74/151/5 17/179/5 18/180/5
f 74/151/5 18/180/5 154/181/5
f 74/151/5 154/181/5 9/182/5
f 74/151/5 9/182/5 7/178/5
f 7/178/5 4/8/5 5/183/5
f 7/178/5 5/183/5 75/177/5
f 145/184/5 128/185/5 80/186/5
f 128/185/5 144/187/5 81/188/5
f 80/186/5 128/185/5 81/188/5
f 144/187/5 122/189/5 81/188/5
f 75/177/5 5/183/5 145/184/5
f 80/186/5 75/177/5 145/184/5
f 122/189/5 147/190/5 81/188/5
f 147/190/5 117/191/5 81/188/5
f 117/191/5 116/192/5 81/188/5
f 81/188/5 116/192/5 114/193/5
f 82/194/5 81/188/5 95/195/5
f 81/188/5 114/193/5 113/196/5
f 81/188/5 113/196/5 112/197/5
f 83/198/5 82/194/5 95/195/5
f 81/188/5 112/197/5 96/12/5
f 81/188/5 96/12/5 95/195/5
f 84/199/5 83/198/5 95/195/5
f 112/197/5 107/200/5 96/12/5
f 85/201/5 84/199/5 95/195/5
f 107/200/5 106/202/5 96/12/5
f 86/203/5 85/201/5 95/195/5
f 106/202/5 105/204/5 96/12/5
f 95/195/5 93/205/5 94/206/5
f 94/206/5 86/203/5 95/195/5
f 105/204/5 104/10/5 96/12/5
f 101/11/5 97/207/5 96/12/5
f 132/208/5 131/209/5 6/15/5
f 131/209/5 130/210/5 6/15/5
f 130/210/5 129/211/5 6/15/5
f 129/211/5 127/212/5 6/15/5
f 127/212/5 128/185/5 145/184/5
f 6/15/5 4/8/5 8/13/5
f 4/8/5 7/178/5 8/13/5
f 127/212/5 145/184/5 6/15/5
f 134/213/5 133/214/5 6/15/5
f 133/214/5 132/208/5 6/15/5
f 136/14/5 135/215/5 6/15/5
f 135/215/5 134/213/5 6/15/5
f 11/16/6 8/216/6 7/17/7
f 7/17/7 9/24/8 12/19/8
f 92/217/3 98/218/3 79/22/3
f 98/218/3 99/219/3 100/220/3
f 98/218/3 100/220/3 102/221/3
f 90/222/3 91/223/3 92/217/3
f 89/224/3 90/222/3 92/217/3
f 98/218/3 102/221/3 103/225/3
f 98/218/3 103/225/3 108/226/3
f 87/227/3 89/224/3 92/217/3
f 88/228/3 87/227/3 92/217/3
f 98/218/3 108/226/3 109/229/3
f 98/218/3 109/229/3 110/230/3
f 148/231/3 88/228/3 92/217/3
f 149/232/3 148/231/3 92/217/3
f 98/218/3 110/230/3 79/22/3
f 110/230/3 111/233/3 79/22/3
f 79/22/3 149/232/3 92/217/3
f 3/110/3 77/109/3 78/234/3
f 146/235/3 3/110/3 78/234/3
f 78/234/3 79/22/3 124/236/3
f 79/22/3 111/233/3 115/237/3
f 79/22/3 115/237/3 118/238/3
f 2/113/3 146/235/3 125/239/3
f 146/235/3 78/234/3 124/236/3
f 119/240/3 79/22/3 118/238/3
f 11/241/3 10/111/3 2/113/3
f 138/242/3 137/243/3 2/113/3
f 137/243/3 11/241/3 2/113/3
f 140/244/3 139/245/3 2/113/3
f 139/245/3 138/242/3 2/113/3
f 142/246/3 141/247/3 2/113/3
f 141/247/3 140/244/3 2/113/3
f 126/248/3 143/249/3 2/113/3
f 143/249/3 142/246/3 2/113/3
f 124/236/3 125/239/3 146/235/3
f 125/239/3 126/248/3 2/113/3
f 79/22/3 119/240/3 120/250/3
f 79/22/3 120/250/3 121/20/3
f 123/21/3 124/236/3 79/22/3
f 15/28/10 14/251/60 17/26/10
f 14/251/60 13/23/9 18/252/60
f 17/26/10 14/251/60 18/252/60
f 13/23/9 12/19/8 9/24/8
f 154/25/9 18/252/60 13/23/9
f 17/26/10 19/29/11 16/27/11
f 19/29/11 20/253/12 22/30/12
f 22/30/12 20/253/12 21/31/13
f 21/31/13 26/34/14 24/33/14
f 26/34/14 27/254/15 25/35/15
f 33/38/16 153/255/61 29/36/16
f 153/255/61 25/35/15 28/256/61
f 29/36/16 153/255/61 28/256/61
f 25/35/15 27/254/15 28/256/61
f 29/36/16 30/257/17 32/37/17
f 32/37/18 30/257/18 31/39/19
f 36/258/62 35/259/63 151/260/64
f 35/259/63 34/40/20 151/260/64
f 34/40/20 31/39/19 152/261/65
f 151/260/64 150/262/66 36/258/62
f 150/262/66 42/41/21 36/258/62
f 34/40/20 152/261/65 151/260/64
f 38/43/23 37/263/67 42/41/21
f 37/263/67 36/258/62 42/41/21
f 42/41/21 41/264/22 39/42/22
f 39/42/24 41/264/24 43/44/24
f 64/265/39 65/266/68 48/267/68
f 65/266/68 66/268/69 47/269/69
f 46/270/70 67/271/70 45/272/71
f 67/271/70 68/273/71 45/272/71
f 68/273/71 69/274/72 44/275/72
f 44/275/72 69/274/72 43/44/73
f 63/276/74 64/265/39 49/277/39
f 67/271/70 46/270/70 66/268/69
f 69/274/72 40/45/73 43/44/73
f 62/278/75 63/276/74 50/279/74
f 66/268/69 46/270/70 47/269/69
f 61/280/76 62/278/75 51/281/75
f 68/273/71 44/275/72 45/272/71
f 64/265/39 48/267/68 49/277/39
f 59/48/26 60/282/25 53/46/25
f 60/282/25 61/280/76 52/283/76
f 65/266/68 47/269/69 48/267/68
f 62/278/75 50/279/74 51/281/75
f 55/284/77 57/49/77 59/48/26
f 63/276/74 49/277/39 50/279/74
f 61/280/76 51/281/75 52/283/76
f 54/47/26 55/284/77 59/48/26
f 52/283/76 53/46/25 60/282/25
f 57/49/27 55/284/27 56/50/28
f 58/51/28 56/50/28 72/52/29
f 70/53/29 72/52/29 73/54/30
f 73/54/30 74/285/31 76/56/31
f 76/56/32 74/285/32 75/57/32
f 77/58/24 75/57/24 80/59/24
f 78/60/33 80/59/33 81/61/33
f 148/64/35 149/286/78 83/65/35
f 149/286/78 79/62/79 82/287/78
f 83/65/35 149/286/78 82/287/78
f 79/62/79 81/61/79 82/287/78
f 83/65/35 84/288/34 88/63/34
f 84/288/34 85/289/80 87/290/80
f 87/290/80 88/63/34 84/288/34
f 89/67/37 87/290/80 85/289/80
f 86/68/37 94/291/36 90/66/36
f 94/291/36 93/292/81 90/66/36
f 89/67/37 85/289/80 86/68/37
f 93/292/81 91/69/81 90/66/36
f 91/69/38 93/292/38 95/70/38
f 92/71/24 95/70/24 96/72/24
f 96/74/39 97/293/39 99/75/39
f 99/75/40 97/293/40 101/77/41
f 100/78/41 101/77/41 104/79/42
f 102/80/42 104/79/42 105/81/43
f 103/82/43 105/81/43 106/83/44
f 108/84/44 106/83/44 107/85/45
f 109/86/45 107/85/45 112/87/46
f 110/88/46 112/87/46 113/89/47
f 113/89/47 114/294/48 115/91/48
f 115/91/48 114/294/48 116/92/49
f 120/96/50 119/295/82 147/94/50
f 119/295/82 118/93/49 117/296/82
f 147/94/50 119/295/82 117/296/82
f 118/93/49 116/92/49 117/296/82
f 147/94/50 122/297/51 121/95/51
f 124/99/52 123/298/83 128/97/52
f 123/298/83 121/95/51 144/299/83
f 128/97/52 123/298/83 144/299/83
f 121/95/51 122/297/51 144/299/83
f 128/97/52 127/300/53 125/98/53
f 137/104/56 138/301/84 136/103/56
f 138/301/84 139/302/85 135/303/84
f 136/103/56 138/301/84 135/303/84
f 140/304/86 141/305/87 133/306/86
f 141/305/87 142/307/55 132/308/87
f 140/304/86 134/309/85 139/302/85
f 134/309/85 140/304/86 133/306/86
f 142/307/55 143/102/54 131/101/55
f 135/303/84 139/302/85 134/309/85
f 141/305/87 132/308/87 133/306/86
f 143/102/54 126/310/88 129/311/88
f 126/310/88 125/98/89 127/300/89
f 131/101/55 132/308/87 142/307/55
f 126/310/88 127/300/89 129/311/88
f 129/311/88 130/100/54 143/102/54
f 136/103/56 8/216/57 11/16/57
f 146/105/58 145/107/58 5/106/58
f 2/3/59 6/2/59 145/107/59
