# Blender v2.92.0 OBJ File: 'letters.blend'
# www.blender.org
mtllib F_.mtl
o F__Curve.078
v 0.160000 0.294603 0.050000
v 0.163810 0.412699 0.050000
v 0.117460 0.293333 0.050000
v 0.160000 0.294603 -0.050000
v 0.163810 0.412699 -0.050000
v 0.117460 0.293333 -0.050000
v 0.116711 0.300917 -0.050000
v 0.115944 0.308007 -0.050000
v 0.115159 0.314603 -0.050000
v 0.114356 0.320706 -0.050000
v 0.113536 0.326314 -0.050000
v 0.112698 0.331429 -0.050000
v 0.112698 0.331429 0.050000
v 0.110970 0.340177 -0.050000
v 0.110079 0.343810 -0.050000
v 0.109171 0.346949 -0.050000
v 0.109171 0.346949 0.050000
v 0.108245 0.349595 -0.050000
v 0.105573 0.355194 -0.050000
v 0.108245 0.349595 0.050000
v 0.105573 0.355194 0.050000
v 0.103563 0.358342 0.050000
v 0.101270 0.361191 0.050000
v 0.103563 0.358342 -0.050000
v 0.101270 0.361191 -0.050000
v 0.098695 0.363739 -0.050000
v 0.098695 0.363739 0.050000
v 0.095838 0.365988 -0.050000
v 0.092698 0.367937 -0.050000
v 0.095838 0.365988 0.050000
v 0.092698 0.367937 0.050000
v 0.089277 0.369586 0.050000
v 0.089277 0.369586 -0.050000
v 0.085573 0.370935 0.050000
v 0.085573 0.370935 -0.050000
v 0.081587 0.371984 0.050000
v 0.081587 0.371984 -0.050000
v 0.072769 0.373183 0.050000
v -0.017143 0.373333 0.050000
v 0.072769 0.373183 -0.050000
v -0.017143 0.373333 -0.050000
v -0.017143 0.213968 -0.050000
v 0.066667 0.222857 -0.050000
v -0.017143 0.213968 0.050000
v 0.066667 0.222857 0.050000
v 0.094603 0.222857 0.050000
v 0.094603 0.166984 0.050000
v 0.094603 0.222857 -0.050000
v 0.094603 0.166984 -0.050000
v -0.017143 0.172699 -0.050000
v -0.017143 0.172698 0.050000
v -0.017143 0.048254 -0.050000
v 0.004797 0.042681 -0.050000
v -0.017143 0.048254 0.050000
v 0.004797 0.042681 0.050000
v 0.050794 0.036191 0.050000
v 0.050794 0.036191 -0.050000
v 0.050511 0.016931 0.050000
v 0.050511 0.016931 -0.050000
v 0.048254 0.000000 0.050000
v 0.048254 0.000000 -0.050000
v -0.161905 0.000000 0.050000
v -0.161905 0.000000 -0.050000
v -0.161883 0.016572 0.050000
v -0.161817 0.018245 0.050000
v -0.161552 0.021658 0.050000
v -0.161552 0.021658 -0.050000
v -0.158730 0.036191 0.050000
v -0.152434 0.037381 0.050000
v -0.158730 0.036191 -0.050000
v -0.152434 0.037381 -0.050000
v -0.149484 0.038075 -0.050000
v -0.146667 0.038836 -0.050000
v -0.141428 0.040555 -0.050000
v -0.146667 0.038836 0.050000
v -0.141428 0.040555 0.050000
v -0.149484 0.038075 0.050000
v -0.139008 0.041514 0.050000
v -0.136719 0.042540 0.050000
v -0.132540 0.044788 0.050000
v -0.136719 0.042540 -0.050000
v -0.139008 0.041514 -0.050000
v -0.132540 0.044788 -0.050000
v -0.128889 0.047302 -0.050000
v -0.127266 0.048697 -0.050000
v -0.128889 0.047302 0.050000
v -0.127266 0.048697 0.050000
v -0.125785 0.050238 0.050000
v -0.124444 0.051925 0.050000
v -0.125785 0.050238 -0.050000
v -0.124444 0.051925 -0.050000
v -0.123245 0.053757 -0.050000
v -0.123245 0.053757 0.050000
v -0.122187 0.055734 -0.050000
v -0.120494 0.060126 -0.050000
v -0.122187 0.055734 0.050000
v -0.120494 0.060126 0.050000
v -0.119365 0.065099 0.050000
v -0.118801 0.070655 0.050000
v -0.119365 0.065099 -0.050000
v -0.118801 0.070655 -0.050000
v -0.118730 0.370159 -0.050000
v -0.124391 0.372293 -0.050000
v -0.118730 0.370159 0.050000
v -0.124391 0.372293 0.050000
v -0.130794 0.374039 0.050000
v -0.130794 0.374039 -0.050000
v -0.134272 0.374766 0.050000
v -0.137936 0.375397 0.050000
v -0.141786 0.375930 0.050000
v -0.145820 0.376367 0.050000
v -0.163809 0.377143 0.050000
v -0.145820 0.376367 -0.050000
v -0.141786 0.375930 -0.050000
v -0.163809 0.377143 -0.050000
v -0.163457 0.396755 -0.050000
v -0.160635 0.412699 -0.050000
v -0.163457 0.396755 0.050000
v -0.160635 0.412699 0.050000
v -0.137936 0.375397 -0.050000
v -0.134272 0.374766 -0.050000
v -0.161817 0.018245 -0.050000
v -0.161883 0.016572 -0.050000
v 0.110079 0.343810 0.050000
v 0.110970 0.340177 0.050000
v 0.113536 0.326314 0.050000
v 0.114356 0.320706 0.050000
v 0.115159 0.314603 0.050000
v 0.115944 0.308007 0.050000
v 0.116711 0.300917 0.050000
vt 0.130890 1.000000
vt 0.005236 0.000000
vt 0.005236 1.000000
vt 0.005263 0.000000
vt 0.289474 0.000000
vt 0.284211 0.000000
vt 0.193717 0.000000
vt 0.193717 1.000000
vt 0.005263 0.000000
vt 0.289474 0.000000
vt 0.294737 0.000000
vt 0.198953 0.000000
vt 0.198953 1.000000
vt 0.235602 0.000000
vt 0.225131 1.000000
vt 0.235602 1.000000
vt 0.251309 1.000000
vt 0.246073 0.000000
vt 0.246073 1.000000
vt 0.261780 0.000000
vt 0.261780 1.000000
vt 0.267016 1.000000
vt 0.272251 1.000000
vt 0.267016 0.000000
vt 0.277487 1.000000
vt 0.272251 0.000000
vt 0.282723 1.000000
vt 0.277487 0.000000
vt 0.287958 1.000000
vt 0.282723 0.000000
vt 0.293194 1.000000
vt 0.287958 0.000000
vt 0.298429 1.000000
vt 0.293194 0.000000
vt 0.303665 1.000000
vt 0.298429 0.000000
vt 0.314136 0.000000
vt 0.314136 1.000000
vt 0.324607 1.000000
vt 0.329843 1.000000
vt 0.324607 0.000000
vt 0.335079 1.000000
vt 0.329843 0.000000
vt 0.340314 1.000000
vt 0.335079 0.000000
vt 0.345550 1.000000
vt 0.340314 0.000000
vt 0.356021 1.000000
vt 0.345550 0.000000
vt 0.361257 1.000000
vt 0.356021 0.000000
vt 0.382199 0.000000
vt 0.382199 1.000000
vt 0.424084 1.000000
vt 0.507853 1.000000
vt 0.424084 0.000000
vt 0.549738 1.000000
vt 0.507853 0.000000
vt 0.554974 1.000000
vt 0.549738 0.000000
vt 0.623037 1.000000
vt 0.628272 1.000000
vt 0.628272 0.000000
vt 0.680628 1.000000
vt 0.638743 0.000000
vt 0.638743 1.000000
vt 0.691099 0.000000
vt 0.691099 1.000000
vt 0.712042 0.000000
vt 0.701571 1.000000
vt 0.712042 1.000000
vt 0.732984 0.000000
vt 0.722513 1.000000
vt 0.732984 1.000000
vt 0.743455 0.000000
vt 0.743455 1.000000
vt 0.748691 1.000000
vt 0.753927 1.000000
vt 0.748691 0.000000
vt 0.759162 1.000000
vt 0.753927 0.000000
vt 0.764398 1.000000
vt 0.759162 0.000000
vt 0.769634 1.000000
vt 0.764398 0.000000
vt 0.780105 0.000000
vt 0.780105 1.000000
vt 0.790576 0.000000
vt 0.790576 1.000000
vt 0.801047 0.000000
vt 0.801047 1.000000
vt 0.811518 1.000000
vt 0.821990 0.000000
vt 0.821990 1.000000
vt 0.832461 1.000000
vt 0.842932 0.000000
vt 0.837696 0.000000
vt 0.842932 1.000000
vt 0.874346 0.000000
vt 0.853403 1.000000
vt 0.874346 1.000000
vt 0.958115 1.000000
vt 1.000000 1.000000
vt 0.958115 0.000000
vt 0.000000 0.000000
vt 0.000000 1.000000
vt 0.130890 0.000000
vt 0.000000 0.000000
vt 0.326316 0.000000
vt 0.963158 0.000000
vt 0.852632 0.000000
vt 0.878947 0.000000
vt 0.857895 0.000000
vt 0.194737 0.000000
vt 0.131579 0.000000
vt 0.200000 0.000000
vt 0.236842 0.000000
vt 0.205263 0.000000
vt 0.210526 0.000000
vt 0.847368 0.000000
vt 0.842105 0.000000
vt 0.215789 0.000000
vt 0.221053 0.000000
vt 0.836842 0.000000
vt 0.826316 0.000000
vt 0.226316 0.000000
vt 0.815789 0.000000
vt 0.694737 0.000000
vt 0.684211 0.000000
vt 0.642105 0.000000
vt 0.631579 0.000000
vt 0.705263 0.000000
vt 0.626316 0.000000
vt 0.557895 0.000000
vt 0.715789 0.000000
vt 0.552632 0.000000
vt 0.363158 0.000000
vt 0.510526 0.000000
vt 0.384211 0.000000
vt 0.426316 0.000000
vt 0.747368 0.000000
vt 0.721053 0.000000
vt 0.726316 0.000000
vt 0.700000 0.000000
vt 0.357895 0.000000
vt 0.347368 0.000000
vt 0.336842 0.000000
vt 0.342105 0.000000
vt 0.331579 0.000000
vt 0.736842 0.000000
vt 0.805263 0.000000
vt 0.794737 0.000000
vt 0.784211 0.000000
vt 0.752632 0.000000
vt 0.757895 0.000000
vt 0.763158 0.000000
vt 0.768421 0.000000
vt 0.773684 0.000000
vt 0.242105 0.000000
vt 0.247368 0.000000
vt 0.252632 0.000000
vt 0.263158 0.000000
vt 0.315789 0.000000
vt 0.305263 0.000000
vt 0.268421 0.000000
vt 0.273684 0.000000
vt 0.300000 0.000000
vt 0.294737 0.000000
vt 0.278947 0.000000
vt 0.857895 0.000000
vt 0.878947 0.000000
vt 0.963158 0.000000
vt 0.852632 0.000000
vt 0.326316 0.000000
vt 0.131579 0.000000
vt 0.236842 0.000000
vt 0.194737 0.000000
vt 0.200000 0.000000
vt 0.205263 0.000000
vt 0.847368 0.000000
vt 0.842105 0.000000
vt 0.210526 0.000000
vt 0.215789 0.000000
vt 0.836842 0.000000
vt 0.826316 0.000000
vt 0.221053 0.000000
vt 0.226316 0.000000
vt 0.815789 0.000000
vt 0.242105 0.000000
vt 0.247368 0.000000
vt 0.642105 0.000000
vt 0.684211 0.000000
vt 0.694737 0.000000
vt 0.626316 0.000000
vt 0.631579 0.000000
vt 0.705263 0.000000
vt 0.552632 0.000000
vt 0.557895 0.000000
vt 0.363158 0.000000
vt 0.715789 0.000000
vt 0.747368 0.000000
vt 0.426316 0.000000
vt 0.510526 0.000000
vt 0.384211 0.000000
vt 0.721053 0.000000
vt 0.726316 0.000000
vt 0.700000 0.000000
vt 0.342105 0.000000
vt 0.347368 0.000000
vt 0.336842 0.000000
vt 0.357895 0.000000
vt 0.331579 0.000000
vt 0.736842 0.000000
vt 0.805263 0.000000
vt 0.794737 0.000000
vt 0.784211 0.000000
vt 0.752632 0.000000
vt 0.757895 0.000000
vt 0.763158 0.000000
vt 0.768421 0.000000
vt 0.773684 0.000000
vt 0.252632 0.000000
vt 0.263158 0.000000
vt 0.268421 0.000000
vt 0.273684 0.000000
vt 0.315789 0.000000
vt 0.305263 0.000000
vt 0.278947 0.000000
vt 0.284211 0.000000
vt 0.300000 0.000000
vt 0.204188 1.000000
vt 0.209424 1.000000
vt 0.209424 0.000000
vt 0.214660 1.000000
vt 0.214660 0.000000
vt 0.219895 0.000000
vt 0.219895 1.000000
vt 0.225131 0.000000
vt 0.204188 0.000000
vt 0.240838 1.000000
vt 0.240838 0.000000
vt 0.251309 0.000000
vt 0.303665 0.000000
vt 0.361257 0.000000
vt 0.554974 0.000000
vt 0.623037 0.000000
vt 0.680628 0.000000
vt 0.696335 1.000000
vt 0.696335 0.000000
vt 0.701571 0.000000
vt 0.717277 1.000000
vt 0.717277 0.000000
vt 0.722513 0.000000
vt 0.769634 0.000000
vt 0.811518 0.000000
vt 0.832461 0.000000
vt 0.837696 1.000000
vt 0.848168 1.000000
vt 0.853403 0.000000
vt 0.848168 0.000000
vt 1.000000 0.000000
vn 0.9995 -0.0322 0.0000
vn -0.0000 -0.0000 1.0000
vn 0.0298 -0.9996 0.0000
vn -0.0000 0.0000 -1.0000
vn -0.9947 -0.1030 0.0000
vn -0.9952 -0.0984 0.0000
vn -0.9764 -0.2160 0.0000
vn -0.9841 -0.1778 0.0000
vn -0.9246 -0.3810 0.0000
vn -0.9526 -0.3043 0.0000
vn -0.8743 -0.4853 0.0000
vn -0.8121 -0.5835 0.0000
vn -0.7424 -0.6700 0.0000
vn -0.6620 -0.7495 0.0000
vn -0.5738 -0.8190 0.0000
vn -0.4815 -0.8765 0.0000
vn -0.3887 -0.9214 0.0000
vn -0.2987 -0.9543 0.0000
vn -0.1950 -0.9808 0.0000
vn -0.0684 -0.9977 0.0000
vn -0.0017 -1.0000 0.0000
vn 1.0000 -0.0000 0.0000
vn -0.0528 0.9986 0.0000
vn -0.1055 0.9944 0.0000
vn 0.0000 1.0000 0.0000
vn -0.0511 -0.9987 -0.0000
vn 0.1932 0.9812 0.0000
vn 0.2462 0.9692 0.0000
vn 0.1397 0.9902 0.0000
vn 0.9973 -0.0735 -0.0000
vn 0.9999 -0.0147 -0.0000
vn 0.9912 -0.1322 -0.0000
vn 0.0000 -1.0000 -0.0000
vn -0.9998 0.0204 0.0000
vn -0.9983 0.0584 0.0000
vn -0.9817 0.1906 0.0000
vn -0.9910 0.1342 0.0000
vn -0.2075 0.9782 0.0000
vn -0.1858 0.9826 0.0000
vn -0.3402 0.9403 0.0000
vn -0.2864 0.9581 0.0000
vn -0.5212 0.8534 0.0000
vn -0.4416 0.8972 0.0000
vn -0.6104 0.7921 0.0000
vn -0.6872 0.7264 0.0000
vn -0.7527 0.6583 0.0000
vn -0.8106 0.5856 0.0000
vn -0.8600 0.5102 0.0000
vn -0.9091 0.4166 0.0000
vn -0.9566 0.2913 0.0000
vn -0.9869 0.1615 0.0000
vn -0.9987 0.0507 0.0000
vn -1.0000 0.0002 0.0000
vn -0.3083 -0.9513 0.0000
vn -0.3527 -0.9357 0.0000
vn -0.2340 -0.9722 0.0000
vn -0.1535 -0.9882 0.0000
vn -0.1872 -0.9823 0.0000
vn -0.0431 -0.9991 0.0000
vn -0.0754 -0.9972 0.0000
vn -0.9953 0.0964 0.0000
vn -0.9998 0.0180 0.0000
vn -0.9847 0.1743 0.0000
vn -0.9936 -0.1129 0.0000
vn -0.9922 -0.1243 0.0000
vn -0.9905 -0.1375 0.0000
vn -0.9882 -0.1532 0.0000
vn -0.9661 -0.2581 0.0000
vn -1.0000 0.0013 0.0000
vn -0.2449 0.9695 0.0000
vn -0.3887 0.9214 0.0000
vn -0.1225 -0.9925 0.0000
usemtl Material.004
s 1
f 1/1/1 5/2/1 2/3/1
f 2/4/2 31/5/2 30/6/2
f 6/7/3 1/1/3 3/8/3
f 5/9/4 29/10/4 33/11/4
f 7/12/5 6/7/6 130/13/5
f 14/14/7 13/15/8 125/16/7
f 20/17/9 16/18/10 17/19/10
f 19/20/11 20/17/9 21/21/11
f 22/22/12 19/20/11 21/21/11
f 23/23/13 24/24/12 22/22/12
f 27/25/14 25/26/13 23/23/13
f 30/27/15 26/28/14 27/25/14
f 31/29/16 28/30/15 30/27/15
f 32/31/17 29/32/16 31/29/16
f 34/33/18 33/34/17 32/31/17
f 36/35/19 35/36/18 34/33/18
f 40/37/20 36/35/19 38/38/20
f 39/39/21 40/37/20 38/38/20
f 44/40/22 41/41/22 39/39/22
f 45/42/23 42/43/24 44/40/24
f 46/44/25 43/45/23 45/42/23
f 47/46/22 48/47/22 46/44/22
f 51/48/26 49/49/26 47/46/26
f 54/50/22 50/51/22 51/48/22
f 53/52/27 54/50/28 55/53/27
f 56/54/29 53/52/27 55/53/27
f 58/55/30 57/56/31 56/54/31
f 60/57/32 59/58/30 58/55/30
f 62/59/33 61/60/33 60/57/33
f 64/61/34 65/62/35 122/63/35
f 68/64/36 67/65/37 66/66/37
f 71/67/38 68/64/39 69/68/38
f 74/69/40 75/70/41 76/71/40
f 83/72/42 79/73/43 80/74/42
f 84/75/44 80/74/42 86/76/44
f 87/77/45 84/75/44 86/76/44
f 88/78/46 85/79/45 87/77/45
f 89/80/47 90/81/46 88/78/46
f 93/82/48 91/83/47 89/80/47
f 96/84/49 92/85/48 93/82/48
f 95/86/50 96/84/49 97/87/50
f 100/88/51 97/87/50 98/89/51
f 101/90/52 98/89/51 99/91/52
f 104/92/53 101/90/52 99/91/52
f 103/93/54 104/92/55 105/94/54
f 106/95/56 103/93/54 105/94/54
f 120/96/57 121/97/58 109/98/57
f 115/99/59 111/100/60 112/101/59
f 118/102/61 115/99/62 112/101/62
f 119/103/63 116/104/61 118/102/61
f 2/3/25 117/105/25 119/106/25
f 1/1/1 4/107/1 5/2/1
f 2/4/2 119/108/2 39/109/2
f 119/108/2 118/110/2 110/111/2
f 118/110/2 112/112/2 111/113/2
f 118/110/2 111/113/2 110/111/2
f 3/114/2 1/115/2 130/116/2
f 1/115/2 2/4/2 125/117/2
f 130/116/2 1/115/2 129/118/2
f 129/118/2 1/115/2 128/119/2
f 119/108/2 110/111/2 109/120/2
f 119/108/2 109/120/2 108/121/2
f 128/119/2 1/115/2 127/122/2
f 127/122/2 1/115/2 126/123/2
f 119/108/2 108/121/2 106/124/2
f 119/108/2 106/124/2 105/125/2
f 126/123/2 1/115/2 13/126/2
f 13/126/2 1/115/2 125/117/2
f 119/108/2 105/125/2 104/127/2
f 119/108/2 104/127/2 39/109/2
f 69/128/2 68/129/2 66/130/2
f 66/130/2 65/131/2 75/132/2
f 65/131/2 64/133/2 75/132/2
f 64/133/2 62/134/2 76/135/2
f 62/134/2 60/136/2 54/137/2
f 60/136/2 58/138/2 55/139/2
f 58/138/2 56/140/2 55/139/2
f 62/134/2 54/137/2 86/141/2
f 78/142/2 62/134/2 79/143/2
f 77/144/2 69/128/2 66/130/2
f 75/132/2 77/144/2 66/130/2
f 62/134/2 78/142/2 76/135/2
f 60/136/2 55/139/2 54/137/2
f 76/135/2 75/132/2 64/133/2
f 51/145/2 47/146/2 45/147/2
f 47/146/2 46/148/2 45/147/2
f 45/147/2 44/149/2 51/145/2
f 79/143/2 62/134/2 80/150/2
f 80/150/2 62/134/2 86/141/2
f 51/145/2 44/149/2 99/151/2
f 44/149/2 39/109/2 104/127/2
f 99/151/2 54/137/2 51/145/2
f 54/137/2 99/151/2 98/152/2
f 54/137/2 98/152/2 97/153/2
f 87/154/2 86/141/2 54/137/2
f 88/155/2 87/154/2 54/137/2
f 89/156/2 88/155/2 54/137/2
f 93/157/2 89/156/2 54/137/2
f 96/158/2 93/157/2 54/137/2
f 97/153/2 96/158/2 54/137/2
f 99/151/2 44/149/2 104/127/2
f 124/159/2 125/117/2 2/4/2
f 17/160/2 124/159/2 2/4/2
f 20/161/2 17/160/2 2/4/2
f 21/162/2 20/161/2 2/4/2
f 2/4/2 39/109/2 38/163/2
f 2/4/2 38/163/2 36/164/2
f 22/165/2 21/162/2 2/4/2
f 23/166/2 22/165/2 2/4/2
f 2/4/2 36/164/2 34/167/2
f 2/4/2 34/167/2 32/168/2
f 27/169/2 23/166/2 2/4/2
f 30/6/2 27/169/2 2/4/2
f 2/4/2 32/168/2 31/5/2
f 6/7/3 4/107/3 1/1/3
f 113/170/4 115/171/4 116/172/4
f 116/172/4 117/105/4 114/173/4
f 117/105/4 5/9/4 41/174/4
f 116/172/4 114/173/4 113/170/4
f 5/9/4 4/175/4 14/176/4
f 4/175/4 6/177/4 7/178/4
f 4/175/4 7/178/4 8/179/4
f 114/173/4 117/105/4 120/180/4
f 120/180/4 117/105/4 121/181/4
f 4/175/4 8/179/4 9/182/4
f 4/175/4 9/182/4 10/183/4
f 121/181/4 117/105/4 107/184/4
f 107/184/4 117/105/4 103/185/4
f 4/175/4 10/183/4 11/186/4
f 4/175/4 11/186/4 12/187/4
f 103/185/4 117/105/4 102/188/4
f 102/188/4 117/105/4 41/174/4
f 4/175/4 12/187/4 14/176/4
f 5/9/4 14/176/4 15/189/4
f 5/9/4 15/189/4 16/190/4
f 67/191/4 70/192/4 71/193/4
f 123/194/4 122/195/4 73/196/4
f 122/195/4 67/191/4 73/196/4
f 61/197/4 63/198/4 52/199/4
f 63/198/4 123/194/4 74/200/4
f 52/199/4 63/198/4 84/201/4
f 57/202/4 59/203/4 53/204/4
f 59/203/4 61/197/4 53/204/4
f 63/198/4 82/205/4 81/206/4
f 67/191/4 71/193/4 72/207/4
f 67/191/4 72/207/4 73/196/4
f 53/204/4 61/197/4 52/199/4
f 82/205/4 63/198/4 74/200/4
f 73/196/4 74/200/4 123/194/4
f 48/208/4 49/209/4 43/210/4
f 49/209/4 50/211/4 43/210/4
f 42/212/4 43/210/4 50/211/4
f 63/198/4 81/206/4 83/213/4
f 41/174/4 42/212/4 102/188/4
f 42/212/4 50/211/4 101/214/4
f 101/214/4 52/199/4 100/215/4
f 63/198/4 83/213/4 84/201/4
f 52/199/4 101/214/4 50/211/4
f 100/215/4 52/199/4 95/216/4
f 52/199/4 84/201/4 85/217/4
f 52/199/4 85/217/4 90/218/4
f 52/199/4 90/218/4 91/219/4
f 52/199/4 91/219/4 92/220/4
f 52/199/4 92/220/4 94/221/4
f 52/199/4 94/221/4 95/216/4
f 42/212/4 101/214/4 102/188/4
f 5/9/4 16/190/4 18/222/4
f 5/9/4 18/222/4 19/223/4
f 5/9/4 19/223/4 24/224/4
f 5/9/4 24/224/4 25/225/4
f 40/226/4 41/174/4 5/9/4
f 37/227/4 40/226/4 5/9/4
f 5/9/4 25/225/4 26/228/4
f 5/9/4 26/228/4 28/229/4
f 35/230/4 37/227/4 5/9/4
f 33/11/4 35/230/4 5/9/4
f 5/9/4 28/229/4 29/10/4
f 129/231/64 128/232/65 9/233/65
f 128/232/65 127/234/66 10/235/66
f 10/235/66 127/234/66 11/236/67
f 126/237/67 13/15/8 12/238/8
f 130/13/5 129/231/64 8/239/64
f 127/234/66 126/237/67 11/236/67
f 126/237/67 12/238/8 11/236/67
f 10/235/66 9/233/65 128/232/65
f 129/231/64 9/233/65 8/239/64
f 6/7/6 3/8/6 130/13/5
f 8/239/64 7/12/5 130/13/5
f 125/16/7 124/240/68 14/14/7
f 124/240/68 17/19/10 15/241/68
f 14/14/7 124/240/68 15/241/68
f 17/19/10 16/18/10 15/241/68
f 14/14/7 12/238/8 13/15/8
f 20/17/9 18/242/9 16/18/10
f 19/20/11 18/242/9 20/17/9
f 22/22/12 24/24/12 19/20/11
f 23/23/13 25/26/13 24/24/12
f 27/25/14 26/28/14 25/26/13
f 30/27/15 28/30/15 26/28/14
f 31/29/16 29/32/16 28/30/15
f 32/31/17 33/34/17 29/32/16
f 34/33/18 35/36/18 33/34/17
f 36/35/19 37/243/19 35/36/18
f 40/37/20 37/243/19 36/35/19
f 39/39/21 41/41/21 40/37/20
f 44/40/22 42/43/22 41/41/22
f 45/42/23 43/45/23 42/43/24
f 46/44/25 48/47/25 43/45/23
f 47/46/22 49/49/22 48/47/22
f 51/48/26 50/51/26 49/49/26
f 54/50/22 52/244/22 50/51/22
f 53/52/27 52/244/28 54/50/28
f 56/54/29 57/56/29 53/52/27
f 58/55/30 59/58/30 57/56/31
f 60/57/32 61/60/32 59/58/30
f 62/59/33 63/245/33 61/60/33
f 65/62/35 66/66/37 67/65/37
f 122/63/35 123/246/34 64/61/34
f 123/246/34 63/245/69 64/61/34
f 65/62/35 67/65/37 122/63/35
f 63/245/69 62/59/69 64/61/34
f 68/64/36 70/247/36 67/65/37
f 69/68/38 77/248/70 71/67/38
f 77/248/70 75/70/41 72/249/70
f 71/67/38 77/248/70 72/249/70
f 75/70/41 73/250/41 72/249/70
f 71/67/38 70/247/39 68/64/39
f 76/71/40 78/251/71 74/69/40
f 78/251/71 79/73/43 82/252/71
f 74/69/40 78/251/71 82/252/71
f 79/73/43 81/253/43 82/252/71
f 74/69/40 73/250/41 75/70/41
f 83/72/42 81/253/43 79/73/43
f 84/75/44 83/72/42 80/74/42
f 87/77/45 85/79/45 84/75/44
f 88/78/46 90/81/46 85/79/45
f 89/80/47 91/83/47 90/81/46
f 93/82/48 92/85/48 91/83/47
f 96/84/49 94/254/49 92/85/48
f 95/86/50 94/254/49 96/84/49
f 100/88/51 95/86/50 97/87/50
f 101/90/52 100/88/51 98/89/51
f 104/92/53 102/255/53 101/90/52
f 103/93/54 102/255/55 104/92/55
f 106/95/56 107/256/56 103/93/54
f 106/95/56 108/257/58 107/256/56
f 108/257/58 109/98/57 121/97/58
f 107/256/56 108/257/58 121/97/58
f 110/258/72 111/100/60 113/259/60
f 109/98/57 110/258/72 114/260/72
f 110/258/72 113/259/60 114/260/72
f 114/260/72 120/96/57 109/98/57
f 115/99/59 113/259/60 111/100/60
f 118/102/61 116/104/61 115/99/62
f 119/103/63 117/261/63 116/104/61
f 2/3/25 5/2/25 117/105/25
