# Blender v2.92.0 OBJ File: 'letters.blend'
# www.blender.org
mtllib I_.mtl
o I__Curve.075
v 0.061094 0.366032 0.050000
v 0.059471 0.364632 0.050000
v 0.064744 0.368545 0.050000
v 0.061094 0.366032 -0.050000
v 0.059471 0.364632 -0.050000
v 0.064744 0.368545 -0.050000
v 0.068924 0.370794 -0.050000
v 0.071213 0.371819 -0.050000
v 0.068924 0.370794 0.050000
v 0.071213 0.371819 0.050000
v 0.073633 0.372778 0.050000
v 0.078871 0.374497 0.050000
v 0.081689 0.375258 0.050000
v 0.078871 0.374497 -0.050000
v 0.081689 0.375258 -0.050000
v 0.073633 0.372778 -0.050000
v 0.084639 0.375952 -0.050000
v 0.090935 0.377143 -0.050000
v 0.090935 0.377143 0.050000
v 0.091442 0.378935 -0.050000
v 0.091905 0.380714 -0.050000
v 0.092324 0.382480 -0.050000
v 0.092699 0.384233 -0.050000
v 0.092699 0.384233 0.050000
v 0.093030 0.385972 -0.050000
v 0.093316 0.387698 -0.050000
v 0.093559 0.389411 -0.050000
v 0.093757 0.391111 -0.050000
v 0.093911 0.392798 -0.050000
v 0.093757 0.391111 0.050000
v 0.093911 0.392798 0.050000
v 0.093559 0.389411 0.050000
v 0.093316 0.387698 0.050000
v 0.093030 0.385972 0.050000
v 0.094022 0.394471 0.050000
v 0.094088 0.396131 0.050000
v 0.094110 0.397778 0.050000
v 0.094110 0.412699 0.050000
v -0.092557 0.412699 0.050000
v 0.094110 0.412699 -0.050000
v -0.092557 0.412699 -0.050000
v 0.094110 0.397778 -0.050000
v 0.094088 0.396131 -0.050000
v 0.094022 0.394471 -0.050000
v -0.095379 0.396755 -0.050000
v -0.095379 0.396755 0.050000
v -0.095732 0.377143 -0.050000
v -0.095732 0.377143 0.050000
v -0.077742 0.376367 -0.050000
v -0.073708 0.375930 -0.050000
v -0.077742 0.376367 0.050000
v -0.073708 0.375930 0.050000
v -0.069859 0.375397 0.050000
v -0.066195 0.374766 0.050000
v -0.062716 0.374039 0.050000
v -0.056314 0.372293 0.050000
v -0.062716 0.374039 -0.050000
v -0.056314 0.372293 -0.050000
v -0.066195 0.374766 -0.050000
v -0.069859 0.375397 -0.050000
v -0.050653 0.370159 -0.050000
v -0.050723 0.071188 -0.050000
v -0.050653 0.370159 0.050000
v -0.050723 0.071188 0.050000
v -0.051287 0.065457 0.050000
v -0.052416 0.060342 0.050000
v -0.051287 0.065457 -0.050000
v -0.052416 0.060342 -0.050000
v -0.054109 0.055845 -0.050000
v -0.054109 0.055845 0.050000
v -0.055167 0.053827 -0.050000
v -0.056366 0.051964 -0.050000
v -0.055167 0.053827 0.050000
v -0.056366 0.051964 0.050000
v -0.057707 0.050256 0.050000
v -0.059188 0.048702 0.050000
v -0.057707 0.050256 -0.050000
v -0.059188 0.048702 -0.050000
v -0.060811 0.047302 -0.050000
v -0.064462 0.044788 -0.050000
v -0.060811 0.047302 0.050000
v -0.064462 0.044788 0.050000
v -0.068642 0.042540 0.050000
v -0.070930 0.041514 0.050000
v -0.068642 0.042540 -0.050000
v -0.070930 0.041514 -0.050000
v -0.073351 0.040555 -0.050000
v -0.078589 0.038836 -0.050000
v -0.081406 0.038075 -0.050000
v -0.078589 0.038836 0.050000
v -0.073351 0.040555 0.050000
v -0.081406 0.038075 0.050000
v -0.084356 0.037381 0.050000
v -0.090652 0.036191 0.050000
v -0.092769 0.028712 0.050000
v -0.090652 0.036191 -0.050000
v -0.092769 0.028712 -0.050000
v -0.084356 0.037381 -0.050000
v -0.093165 0.026886 -0.050000
v -0.093509 0.025079 -0.050000
v -0.093800 0.023289 -0.050000
v -0.094038 0.021516 -0.050000
v -0.094224 0.019762 -0.050000
v -0.094356 0.018024 -0.050000
v -0.094462 0.000000 -0.050000
v -0.094356 0.018024 0.050000
v -0.094224 0.019762 0.050000
v -0.094462 0.000000 0.050000
v 0.092840 0.000000 0.050000
v 0.095662 0.016931 0.050000
v 0.092840 0.000000 -0.050000
v 0.095662 0.016931 -0.050000
v 0.095732 0.033086 -0.050000
v 0.095379 0.036191 -0.050000
v 0.095732 0.033086 0.050000
v 0.095379 0.036191 0.050000
v 0.090512 0.036234 0.050000
v 0.085855 0.036367 0.050000
v 0.081411 0.036587 0.050000
v 0.077178 0.036896 0.050000
v 0.077178 0.036896 -0.050000
v 0.062363 0.039012 0.050000
v 0.056226 0.040600 0.050000
v 0.062363 0.039012 -0.050000
v 0.056226 0.040600 -0.050000
v 0.050935 0.042540 -0.050000
v 0.050935 0.042540 0.050000
v 0.051005 0.342145 -0.050000
v 0.051570 0.347877 -0.050000
v 0.051005 0.342145 0.050000
v 0.051570 0.347877 0.050000
v 0.052698 0.352992 0.050000
v 0.054392 0.357489 0.050000
v 0.052698 0.352992 -0.050000
v 0.054392 0.357489 -0.050000
v 0.055450 0.359506 -0.050000
v 0.055450 0.359506 0.050000
v 0.056649 0.361369 -0.050000
v 0.057989 0.363078 -0.050000
v 0.056649 0.361369 0.050000
v 0.057989 0.363078 0.050000
v 0.081411 0.036587 -0.050000
v 0.085855 0.036367 -0.050000
v 0.090512 0.036234 -0.050000
v -0.094038 0.021516 0.050000
v -0.093800 0.023289 0.050000
v -0.093509 0.025079 0.050000
v -0.093165 0.026886 0.050000
v 0.092324 0.382480 0.050000
v 0.091905 0.380714 0.050000
v 0.091442 0.378935 0.050000
v 0.084639 0.375952 0.050000
vt 0.005814 1.000000
vt 0.000000 0.000000
vt 0.000000 1.000000
vt 0.795322 0.000000
vt 0.976608 0.000000
vt 0.970760 0.000000
vt 1.000000 0.000000
vt 0.988372 1.000000
vt 1.000000 1.000000
vt 0.403509 0.000000
vt 0.444444 0.000000
vt 0.450292 0.000000
vt 0.988372 0.000000
vt 0.976744 1.000000
vt 0.965116 0.000000
vt 0.953488 1.000000
vt 0.965116 1.000000
vt 0.941860 0.000000
vt 0.930233 1.000000
vt 0.941860 1.000000
vt 0.912791 0.000000
vt 0.906977 0.000000
vt 0.918605 1.000000
vt 0.889535 0.000000
vt 0.883721 0.000000
vt 0.895349 1.000000
vt 0.872093 1.000000
vt 0.877907 0.000000
vt 0.872093 0.000000
vt 0.790698 1.000000
vt 0.784884 0.000000
vt 0.784884 1.000000
vt 0.738372 0.000000
vt 0.738372 1.000000
vt 0.645349 1.000000
vt 0.645349 0.000000
vt 0.622093 1.000000
vt 0.610465 0.000000
vt 0.604651 0.000000
vt 0.610465 1.000000
vt 0.598837 0.000000
vt 0.587209 1.000000
vt 0.598837 1.000000
vt 0.587209 0.000000
vt 0.575581 1.000000
vt 0.563953 0.000000
vt 0.563953 1.000000
vt 0.552326 1.000000
vt 0.552326 0.000000
vt 0.540698 1.000000
vt 0.529070 0.000000
vt 0.529070 1.000000
vt 0.523256 0.000000
vt 0.523256 1.000000
vt 0.517442 0.000000
vt 0.517442 1.000000
vt 0.511628 0.000000
vt 0.511628 1.000000
vt 0.505814 0.000000
vt 0.505814 1.000000
vt 0.500000 0.000000
vt 0.500000 1.000000
vt 0.488372 1.000000
vt 0.488372 0.000000
vt 0.476744 1.000000
vt 0.465116 0.000000
vt 0.453488 1.000000
vt 0.465116 1.000000
vt 0.441860 0.000000
vt 0.430233 1.000000
vt 0.441860 1.000000
vt 0.406977 0.000000
vt 0.406977 1.000000
vt 0.377907 0.000000
vt 0.372093 0.000000
vt 0.377907 1.000000
vt 0.290698 1.000000
vt 0.372093 1.000000
vt 0.284884 0.000000
vt 0.284884 1.000000
vt 0.238372 1.000000
vt 0.238372 0.000000
vt 0.168605 1.000000
vt 0.145349 0.000000
vt 0.145349 1.000000
vt 0.133721 0.000000
vt 0.127907 0.000000
vt 0.133721 1.000000
vt 0.122093 0.000000
vt 0.098837 1.000000
vt 0.122093 1.000000
vt 0.087209 0.000000
vt 0.087209 1.000000
vt 0.075581 0.000000
vt 0.075581 1.000000
vt 0.063953 0.000000
vt 0.063953 1.000000
vt 0.052326 0.000000
vt 0.052326 1.000000
vt 0.040698 0.000000
vt 0.040698 1.000000
vt 0.029070 0.000000
vt 0.029070 1.000000
vt 0.023256 0.000000
vt 0.023256 1.000000
vt 0.017442 0.000000
vt 0.017442 1.000000
vt 0.011628 0.000000
vt 0.011628 1.000000
vt 0.005814 0.000000
vt 0.374269 0.000000
vt 0.292398 0.000000
vt 0.467836 0.000000
vt 0.286550 0.000000
vt 0.076023 0.000000
vt 0.099415 0.000000
vt 0.122807 0.000000
vt 0.239766 0.000000
vt 0.169591 0.000000
vt 0.134503 0.000000
vt 0.128655 0.000000
vt 0.146199 0.000000
vt 0.140351 0.000000
vt 0.087719 0.000000
vt 0.385965 0.000000
vt 0.380117 0.000000
vt 0.456140 0.000000
vt 0.397661 0.000000
vt 0.391813 0.000000
vt 0.450292 0.000000
vt 0.409357 0.000000
vt 0.403509 0.000000
vt 0.444444 0.000000
vt 0.432749 0.000000
vt 0.502924 0.000000
vt 0.491228 0.000000
vt 0.473684 0.000000
vt 0.479532 0.000000
vt 0.508772 0.000000
vt 0.514620 0.000000
vt 0.520468 0.000000
vt 0.526316 0.000000
vt 0.532164 0.000000
vt 0.543860 0.000000
vt 0.555556 0.000000
vt 0.567251 0.000000
vt 0.064327 0.000000
vt 0.578947 0.000000
vt 0.052632 0.000000
vt 0.040936 0.000000
vt 0.590643 0.000000
vt 0.789474 0.000000
vt 0.029240 0.000000
vt 0.023392 0.000000
vt 0.602339 0.000000
vt 0.017544 0.000000
vt 0.011696 0.000000
vt 0.608187 0.000000
vt 0.005848 0.000000
vt 0.000000 0.000000
vt 0.614035 0.000000
vt 0.619883 0.000000
vt 0.742690 0.000000
vt 0.649123 0.000000
vt 0.625731 0.000000
vt 0.865497 0.000000
vt 0.994152 0.000000
vt 0.877193 0.000000
vt 0.871345 0.000000
vt 0.959064 0.000000
vt 0.888889 0.000000
vt 0.883041 0.000000
vt 0.900585 0.000000
vt 0.894737 0.000000
vt 0.953216 0.000000
vt 0.912281 0.000000
vt 0.906433 0.000000
vt 0.947368 0.000000
vt 0.923977 0.000000
vt 0.918129 0.000000
vt 0.935673 0.000000
vt 0.929825 0.000000
vt 0.982456 0.000000
vt 0.742690 0.000000
vt 0.789474 0.000000
vt 0.619883 0.000000
vt 0.795322 0.000000
vt 0.578947 0.000000
vt 0.625731 0.000000
vt 0.865497 0.000000
vt 0.970760 0.000000
vt 0.871345 0.000000
vt 0.959064 0.000000
vt 0.982456 0.000000
vt 0.994152 0.000000
vt 0.877193 0.000000
vt 0.883041 0.000000
vt 0.888889 0.000000
vt 0.894737 0.000000
vt 0.900585 0.000000
vt 0.953216 0.000000
vt 0.906433 0.000000
vt 0.912281 0.000000
vt 0.947368 0.000000
vt 0.918129 0.000000
vt 0.923977 0.000000
vt 0.929825 0.000000
vt 0.935673 0.000000
vt 0.976608 0.000000
vt 0.649123 0.000000
vt 0.614035 0.000000
vt 0.608187 0.000000
vt 0.602339 0.000000
vt 0.590643 0.000000
vt 0.011696 0.000000
vt 0.017544 0.000000
vt 0.023392 0.000000
vt 0.029240 0.000000
vt 0.040936 0.000000
vt 0.567251 0.000000
vt 0.064327 0.000000
vt 0.052632 0.000000
vt 0.555556 0.000000
vt 0.076023 0.000000
vt 0.543860 0.000000
vt 0.532164 0.000000
vt 0.526316 0.000000
vt 0.087719 0.000000
vt 0.286550 0.000000
vt 0.520468 0.000000
vt 0.514620 0.000000
vt 0.099415 0.000000
vt 0.508772 0.000000
vt 0.502924 0.000000
vt 0.122807 0.000000
vt 0.292398 0.000000
vt 0.491228 0.000000
vt 0.479532 0.000000
vt 0.128655 0.000000
vt 0.239766 0.000000
vt 0.473684 0.000000
vt 0.134503 0.000000
vt 0.467836 0.000000
vt 0.140351 0.000000
vt 0.146199 0.000000
vt 0.169591 0.000000
vt 0.456140 0.000000
vt 0.374269 0.000000
vt 0.380117 0.000000
vt 0.385965 0.000000
vt 0.391813 0.000000
vt 0.397661 0.000000
vt 0.409357 0.000000
vt 0.432749 0.000000
vt 0.976744 0.000000
vt 0.970930 1.000000
vt 0.970930 0.000000
vt 0.953488 0.000000
vt 0.947674 1.000000
vt 0.947674 0.000000
vt 0.930233 0.000000
vt 0.906977 1.000000
vt 0.912791 1.000000
vt 0.924419 1.000000
vt 0.924419 0.000000
vt 0.918605 0.000000
vt 0.883721 1.000000
vt 0.889535 1.000000
vt 0.901163 1.000000
vt 0.901163 0.000000
vt 0.895349 0.000000
vt 0.860465 1.000000
vt 0.790698 0.000000
vt 0.866279 1.000000
vt 0.860465 0.000000
vt 0.877907 1.000000
vt 0.866279 0.000000
vt 0.622093 0.000000
vt 0.604651 1.000000
vt 0.616279 1.000000
vt 0.616279 0.000000
vt 0.575581 0.000000
vt 0.540698 0.000000
vt 0.476744 0.000000
vt 0.470930 1.000000
vt 0.470930 0.000000
vt 0.453488 0.000000
vt 0.447674 1.000000
vt 0.447674 0.000000
vt 0.430233 0.000000
vt 0.383721 1.000000
vt 0.389535 1.000000
vt 0.395349 0.000000
vt 0.395349 1.000000
vt 0.401163 0.000000
vt 0.401163 1.000000
vt 0.389535 0.000000
vt 0.383721 0.000000
vt 0.290698 0.000000
vt 0.168605 0.000000
vt 0.127907 1.000000
vt 0.139535 1.000000
vt 0.139535 0.000000
vt 0.098837 0.000000
vn 0.6894 -0.7244 0.0000
vn 0.6111 -0.7916 0.0000
vn 0.0000 -0.0000 1.0000
vn 0.5212 -0.8534 0.0000
vn -0.0000 -0.0000 -1.0000
vn 0.4416 -0.8972 0.0000
vn 0.3402 -0.9403 0.0000
vn 0.2864 -0.9581 0.0000
vn 0.2075 -0.9782 0.0000
vn 0.1858 -0.9826 0.0000
vn 0.9755 -0.2198 0.0002
vn 0.9802 -0.1981 0.0002
vn 0.9705 -0.2412 -0.0002
vn 0.9918 -0.1279 0.0002
vn 0.9946 -0.1035 0.0004
vn 0.9884 -0.1518 -0.0002
vn 0.9986 -0.0527 -0.0004
vn 0.9969 -0.0785 0.0002
vn 0.9986 -0.0527 0.0000
vn 0.0000 1.0000 0.0000
vn -0.9847 0.1743 0.0000
vn -0.9953 0.0964 0.0000
vn -0.9998 0.0180 0.0000
vn -0.0431 -0.9991 0.0000
vn -0.0754 -0.9972 0.0000
vn -0.1535 -0.9882 0.0000
vn -0.1872 -0.9823 0.0000
vn -0.2340 -0.9722 0.0000
vn -0.3083 -0.9513 0.0000
vn -0.3527 -0.9357 0.0000
vn -1.0000 0.0002 0.0000
vn -0.9988 0.0492 0.0000
vn -0.9876 0.1570 0.0000
vn -0.9586 0.2846 0.0000
vn -0.9124 0.4092 0.0000
vn -0.8641 0.5034 0.0000
vn -0.8147 0.5799 0.0000
vn -0.7562 0.6544 0.0000
vn -0.6894 0.7244 0.0000
vn -0.6111 0.7916 0.0000
vn -0.5212 0.8534 0.0000
vn -0.4416 0.8972 0.0000
vn -0.3402 0.9403 0.0000
vn -0.2864 0.9581 0.0000
vn -0.2075 0.9782 0.0000
vn -0.1858 0.9826 0.0000
vn -0.9622 0.2723 0.0000
vn -0.9702 0.2424 0.0000
vn -0.9959 0.0905 0.0000
vn -0.9992 0.0409 0.0000
vn -0.9959 0.0906 -0.0002
vn -1.0000 0.0059 0.0000
vn 0.0000 -1.0000 -0.0000
vn 0.9864 -0.1644 -0.0000
vn 0.9964 -0.0846 -0.0000
vn 0.9985 0.0543 0.0000
vn 0.9936 0.1128 0.0000
vn 0.0390 0.9992 0.0000
vn 0.0612 0.9981 0.0000
vn 0.1071 0.9942 0.0000
vn 0.1962 0.9806 0.0000
vn 0.2977 0.9547 0.0000
vn 0.3443 0.9389 0.0000
vn 1.0000 -0.0002 -0.0000
vn 0.9988 -0.0492 -0.0000
vn 0.9876 -0.1570 0.0000
vn 0.9586 -0.2846 0.0000
vn 0.9124 -0.4092 0.0000
vn 0.8640 -0.5034 0.0000
vn 0.8147 -0.5799 0.0000
vn 0.7562 -0.6544 0.0000
vn 0.3887 -0.9214 0.0000
vn 0.2449 -0.9695 0.0000
vn 0.9802 -0.1980 0.0000
vn 0.9755 -0.2201 -0.0002
vn 0.9650 -0.2621 0.0000
vn 0.9622 -0.2724 0.0000
vn 0.9704 -0.2413 0.0000
vn 0.9946 -0.1035 0.0000
vn 0.9918 -0.1282 -0.0002
vn 0.9845 -0.1753 0.0000
vn 0.9884 -0.1520 0.0000
vn 1.0000 0.0000 0.0000
vn 1.0000 -0.0067 0.0000
vn 0.9996 -0.0267 -0.0002
vn 1.0000 -0.0068 0.0002
vn 0.9969 -0.0783 -0.0002
vn 0.9997 -0.0264 0.0002
vn -0.1225 -0.9925 0.0000
vn -0.3887 0.9214 0.0000
vn -0.2449 0.9695 0.0000
vn -0.9929 0.1191 -0.0005
vn -0.9892 0.1469 -0.0005
vn -0.9848 0.1737 0.0005
vn -0.9848 0.1735 -0.0002
vn -0.9799 0.1995 0.0002
vn -0.9799 0.1996 0.0000
vn -0.9892 0.1469 0.0005
vn -0.9929 0.1193 0.0003
vn 0.0187 0.9998 0.0000
vn 0.0090 1.0000 0.0000
usemtl Material.004
s 1
f 2/1/1 4/2/2 1/3/2
f 38/4/3 10/5/3 11/6/3
f 4/7/2 3/8/4 1/9/2
f 99/10/5 98/11/5 89/12/5
f 6/13/4 9/14/6 3/8/4
f 16/15/7 12/16/8 11/17/7
f 17/18/9 19/19/10 152/20/9
f 22/21/11 23/22/12 150/23/13
f 27/24/14 28/25/15 33/26/16
f 35/27/17 29/28/18 44/29/19
f 38/30/20 41/31/20 39/32/20
f 39/32/21 45/33/22 46/34/22
f 45/33/22 48/35/23 46/34/22
f 47/36/24 51/37/25 48/35/24
f 60/38/26 59/39/27 53/40/26
f 57/41/28 56/42/29 55/43/28
f 58/44/29 63/45/30 56/42/29
f 63/45/31 62/46/32 64/47/32
f 62/46/32 65/48/33 64/47/32
f 67/49/33 66/50/34 65/48/33
f 66/50/34 69/51/35 70/52/35
f 70/52/35 71/53/36 73/54/36
f 73/54/36 72/55/37 74/56/37
f 74/56/37 77/57/38 75/58/38
f 75/58/38 78/59/39 76/60/39
f 76/60/39 79/61/40 81/62/40
f 79/61/40 82/63/41 81/62/40
f 80/64/41 83/65/42 82/63/41
f 87/66/43 90/67/44 91/68/43
f 98/69/45 94/70/46 93/71/45
f 94/70/47 97/72/48 95/73/48
f 103/74/49 104/75/50 107/76/51
f 104/75/50 108/77/52 106/78/50
f 108/77/53 111/79/53 109/80/53
f 111/79/54 110/81/55 109/80/54
f 112/82/55 115/83/56 110/81/55
f 115/83/56 114/84/57 116/85/57
f 143/86/58 142/87/59 118/88/58
f 121/89/60 122/90/61 120/91/60
f 122/90/61 125/92/62 123/93/62
f 123/93/62 126/94/63 127/95/63
f 127/95/64 128/96/65 130/97/65
f 130/97/65 129/98/66 131/99/66
f 131/99/66 134/100/67 132/101/67
f 132/101/67 135/102/68 133/103/68
f 133/103/68 136/104/69 137/105/69
f 137/105/69 138/106/70 140/107/70
f 140/107/70 139/108/71 141/109/71
f 141/109/71 5/110/1 2/1/1
f 2/1/1 5/110/1 4/2/2
f 106/111/3 108/112/3 91/113/3
f 108/112/3 109/114/3 127/115/3
f 122/116/3 109/114/3 120/117/3
f 109/114/3 110/118/3 120/117/3
f 110/118/3 115/119/3 118/120/3
f 120/117/3 110/118/3 119/121/3
f 115/119/3 116/122/3 117/123/3
f 115/119/3 117/123/3 118/120/3
f 109/114/3 122/116/3 123/124/3
f 145/125/3 107/126/3 90/127/3
f 107/126/3 106/111/3 90/127/3
f 147/128/3 146/129/3 92/130/3
f 146/129/3 145/125/3 90/127/3
f 95/131/3 148/132/3 93/133/3
f 148/132/3 147/128/3 92/130/3
f 93/133/3 94/134/3 95/131/3
f 92/130/3 93/133/3 148/132/3
f 146/129/3 90/127/3 92/130/3
f 118/120/3 119/121/3 110/118/3
f 109/114/3 123/124/3 127/115/3
f 91/113/3 90/127/3 106/111/3
f 108/112/3 127/115/3 81/135/3
f 82/136/3 108/112/3 81/135/3
f 84/137/3 91/113/3 108/112/3
f 83/138/3 84/137/3 108/112/3
f 108/112/3 82/136/3 83/138/3
f 76/139/3 81/135/3 127/115/3
f 75/140/3 76/139/3 127/115/3
f 74/141/3 75/140/3 127/115/3
f 73/142/3 74/141/3 127/115/3
f 70/143/3 73/142/3 127/115/3
f 66/144/3 70/143/3 127/115/3
f 65/145/3 66/144/3 127/115/3
f 65/145/3 127/115/3 64/146/3
f 127/115/3 130/147/3 64/146/3
f 64/146/3 130/147/3 63/148/3
f 130/147/3 131/149/3 63/148/3
f 63/148/3 131/149/3 132/150/3
f 56/151/3 63/148/3 39/152/3
f 63/148/3 132/150/3 133/153/3
f 63/148/3 133/153/3 137/154/3
f 55/155/3 56/151/3 39/152/3
f 63/148/3 137/154/3 140/156/3
f 63/148/3 140/156/3 141/157/3
f 54/158/3 55/155/3 39/152/3
f 63/148/3 141/157/3 2/159/3
f 63/148/3 2/159/3 1/160/3
f 53/161/3 54/158/3 39/152/3
f 63/148/3 1/160/3 38/4/3
f 63/148/3 38/4/3 39/152/3
f 52/162/3 53/161/3 39/152/3
f 46/163/3 48/164/3 51/165/3
f 51/165/3 52/162/3 46/163/3
f 52/162/3 39/152/3 46/163/3
f 37/166/3 38/4/3 11/6/3
f 3/167/3 38/4/3 1/160/3
f 35/168/3 36/169/3 12/170/3
f 36/169/3 37/166/3 12/170/3
f 12/170/3 37/166/3 11/6/3
f 30/171/3 31/172/3 12/170/3
f 31/172/3 35/168/3 12/170/3
f 33/173/3 32/174/3 13/175/3
f 32/174/3 30/171/3 12/170/3
f 24/176/3 34/177/3 152/178/3
f 34/177/3 33/173/3 13/175/3
f 152/178/3 34/177/3 13/175/3
f 150/179/3 149/180/3 152/178/3
f 149/180/3 24/176/3 152/178/3
f 19/181/3 151/182/3 152/178/3
f 151/182/3 150/179/3 152/178/3
f 32/174/3 12/170/3 13/175/3
f 38/4/3 3/167/3 9/183/3
f 38/4/3 9/183/3 10/5/3
f 4/7/2 6/13/4 3/8/4
f 45/184/5 41/185/5 50/186/5
f 41/185/5 40/187/5 61/188/5
f 45/184/5 50/186/5 49/189/5
f 40/187/5 42/190/5 16/191/5
f 42/190/5 43/192/5 14/193/5
f 40/187/5 7/194/5 6/195/5
f 43/192/5 44/196/5 14/193/5
f 44/196/5 29/197/5 14/193/5
f 29/197/5 28/198/5 14/193/5
f 28/198/5 27/199/5 14/193/5
f 27/199/5 26/200/5 15/201/5
f 26/200/5 25/202/5 15/201/5
f 27/199/5 15/201/5 14/193/5
f 25/202/5 23/203/5 17/204/5
f 23/203/5 22/205/5 17/204/5
f 25/202/5 17/204/5 15/201/5
f 22/205/5 21/206/5 17/204/5
f 21/206/5 20/207/5 17/204/5
f 20/207/5 18/208/5 17/204/5
f 7/194/5 40/187/5 8/209/5
f 8/209/5 40/187/5 16/191/5
f 47/210/5 45/184/5 49/189/5
f 50/186/5 41/185/5 60/211/5
f 60/211/5 41/185/5 59/212/5
f 14/193/5 16/191/5 42/190/5
f 59/212/5 41/185/5 57/213/5
f 57/213/5 41/185/5 58/214/5
f 58/214/5 41/185/5 61/188/5
f 40/187/5 6/195/5 4/2/5
f 61/188/5 40/187/5 4/2/5
f 61/188/5 4/2/5 5/110/5
f 61/188/5 5/110/5 139/215/5
f 61/188/5 139/215/5 138/216/5
f 61/188/5 138/216/5 136/217/5
f 61/188/5 136/217/5 135/218/5
f 61/188/5 135/218/5 134/219/5
f 62/220/5 61/188/5 128/221/5
f 61/188/5 134/219/5 129/222/5
f 61/188/5 129/222/5 128/221/5
f 67/223/5 62/220/5 126/224/5
f 62/220/5 128/221/5 126/224/5
f 68/225/5 67/223/5 126/224/5
f 69/226/5 68/225/5 126/224/5
f 69/226/5 126/224/5 71/227/5
f 126/224/5 125/228/5 111/229/5
f 71/227/5 126/224/5 72/230/5
f 72/230/5 126/224/5 77/231/5
f 125/228/5 124/232/5 111/229/5
f 77/231/5 126/224/5 78/233/5
f 78/233/5 126/224/5 79/234/5
f 124/232/5 121/235/5 111/229/5
f 79/234/5 126/224/5 105/236/5
f 105/236/5 126/224/5 111/229/5
f 80/237/5 79/234/5 105/236/5
f 85/238/5 80/237/5 105/236/5
f 121/235/5 142/239/5 112/240/5
f 111/229/5 121/235/5 112/240/5
f 86/241/5 85/238/5 105/236/5
f 142/239/5 143/242/5 112/240/5
f 87/243/5 86/241/5 105/236/5
f 144/244/5 114/245/5 113/246/5
f 143/242/5 144/244/5 113/246/5
f 88/247/5 87/243/5 104/248/5
f 113/246/5 112/240/5 143/242/5
f 87/243/5 105/236/5 104/248/5
f 104/248/5 103/249/5 88/247/5
f 103/249/5 102/250/5 88/247/5
f 102/250/5 101/251/5 88/247/5
f 88/247/5 101/251/5 89/12/5
f 101/251/5 100/252/5 89/12/5
f 100/252/5 99/10/5 89/12/5
f 99/10/5 97/253/5 98/11/5
f 97/253/5 96/254/5 98/11/5
f 6/13/4 7/255/6 9/14/6
f 11/17/7 10/256/72 16/15/7
f 10/256/72 9/14/6 8/257/72
f 16/15/7 10/256/72 8/257/72
f 9/14/6 7/255/6 8/257/72
f 16/15/7 14/258/8 12/16/8
f 152/20/9 13/259/73 17/18/9
f 13/259/73 12/16/8 15/260/73
f 17/18/9 13/259/73 15/260/73
f 12/16/8 14/258/8 15/260/73
f 17/18/9 18/261/10 19/19/10
f 24/262/74 149/263/75 23/22/12
f 149/263/75 150/23/13 23/22/12
f 151/264/76 19/19/77 18/261/77
f 150/23/13 151/264/76 20/265/76
f 151/264/76 18/261/77 20/265/76
f 20/265/76 21/266/78 150/23/13
f 21/266/78 22/21/11 150/23/13
f 30/267/79 32/268/80 28/25/15
f 32/268/80 33/26/16 28/25/15
f 34/269/81 24/262/74 23/22/12
f 33/26/16 34/269/81 25/270/81
f 34/269/81 23/22/12 25/270/81
f 25/270/81 26/271/82 33/26/16
f 26/271/82 27/24/14 33/26/16
f 38/30/83 37/272/84 40/273/83
f 37/272/84 36/274/85 42/275/86
f 40/273/83 37/272/84 42/275/86
f 35/27/17 31/276/87 28/25/15
f 31/276/87 30/267/79 28/25/15
f 36/274/85 35/27/17 42/275/86
f 44/29/19 43/277/88 35/27/17
f 43/277/88 42/275/86 35/27/17
f 35/27/17 28/25/15 29/28/18
f 38/30/20 40/273/20 41/31/20
f 39/32/21 41/31/21 45/33/22
f 45/33/22 47/36/23 48/35/23
f 47/36/24 49/278/25 51/37/25
f 55/43/28 54/279/27 57/41/28
f 54/279/27 53/40/26 59/39/27
f 57/41/28 54/279/27 59/39/27
f 52/280/89 51/37/25 49/278/25
f 53/40/26 52/280/89 50/281/89
f 52/280/89 49/278/25 50/281/89
f 50/281/89 60/38/26 53/40/26
f 57/41/28 58/44/29 56/42/29
f 58/44/29 61/282/30 63/45/30
f 63/45/31 61/282/31 62/46/32
f 62/46/32 67/49/33 65/48/33
f 67/49/33 68/283/34 66/50/34
f 66/50/34 68/283/34 69/51/35
f 70/52/35 69/51/35 71/53/36
f 73/54/36 71/53/36 72/55/37
f 74/56/37 72/55/37 77/57/38
f 75/58/38 77/57/38 78/59/39
f 76/60/39 78/59/39 79/61/40
f 79/61/40 80/64/41 82/63/41
f 80/64/41 85/284/42 83/65/42
f 91/68/43 84/285/90 87/66/43
f 84/285/90 83/65/42 86/286/90
f 87/66/43 84/285/90 86/286/90
f 83/65/42 85/284/42 86/286/90
f 87/66/43 88/287/44 90/67/44
f 93/71/45 92/288/91 98/69/45
f 92/288/91 90/67/44 89/289/91
f 98/69/45 92/288/91 89/289/91
f 90/67/44 88/287/44 89/289/91
f 98/69/45 96/290/46 94/70/46
f 94/70/47 96/290/47 97/72/48
f 145/291/92 146/292/93 100/293/94
f 146/292/93 147/294/95 99/295/96
f 148/296/97 95/73/48 97/72/48
f 107/76/51 145/291/92 101/297/98
f 146/292/93 99/295/96 100/293/94
f 147/294/95 148/296/97 99/295/96
f 148/296/97 97/72/48 99/295/96
f 100/293/94 101/297/98 145/291/92
f 104/75/50 106/78/50 107/76/51
f 101/297/98 102/298/99 107/76/51
f 102/298/99 103/74/49 107/76/51
f 104/75/50 105/299/52 108/77/52
f 108/77/53 105/299/53 111/79/53
f 111/79/54 112/82/55 110/81/55
f 112/82/55 113/300/56 115/83/56
f 115/83/56 113/300/56 114/84/57
f 120/91/60 119/301/59 121/89/60
f 119/301/59 118/88/58 142/87/59
f 121/89/60 119/301/59 142/87/59
f 117/302/100 116/85/101 114/84/101
f 118/88/58 117/302/100 144/303/100
f 117/302/100 114/84/101 144/303/100
f 144/303/100 143/86/58 118/88/58
f 121/89/60 124/304/61 122/90/61
f 122/90/61 124/304/61 125/92/62
f 123/93/62 125/92/62 126/94/63
f 127/95/64 126/94/64 128/96/65
f 130/97/65 128/96/65 129/98/66
f 131/99/66 129/98/66 134/100/67
f 132/101/67 134/100/67 135/102/68
f 133/103/68 135/102/68 136/104/69
f 137/105/69 136/104/69 138/106/70
f 140/107/70 138/106/70 139/108/71
f 141/109/71 139/108/71 5/110/1
