# Blender v2.92.0 OBJ File: 'letters.blend'
# www.blender.org
mtllib J_.mtl
o J__Curve.074
v 0.114286 0.413288 0.050000
v -0.072381 0.413288 0.050000
v 0.114286 0.398367 0.050000
v 0.114286 0.413288 -0.050000
v -0.072381 0.413288 -0.050000
v 0.114286 0.398367 -0.050000
v 0.114264 0.396721 -0.050000
v 0.114198 0.395060 -0.050000
v 0.114088 0.393387 -0.050000
v 0.113933 0.391701 -0.050000
v 0.113735 0.390001 -0.050000
v 0.113933 0.391701 0.050000
v 0.114088 0.393387 0.050000
v 0.113735 0.390001 0.050000
v 0.113492 0.388288 0.050000
v 0.113206 0.386562 0.050000
v 0.112875 0.384822 0.050000
v 0.112500 0.383070 0.050000
v 0.112875 0.384822 -0.050000
v 0.112500 0.383070 -0.050000
v 0.113206 0.386562 -0.050000
v 0.113492 0.388288 -0.050000
v 0.112082 0.381304 -0.050000
v 0.111619 0.379525 -0.050000
v 0.111111 0.377732 -0.050000
v 0.104815 0.376542 -0.050000
v 0.111111 0.377732 0.050000
v 0.111619 0.379525 0.050000
v 0.104815 0.376542 0.050000
v 0.101865 0.375847 0.050000
v 0.099048 0.375087 0.050000
v 0.093809 0.373367 0.050000
v 0.099048 0.375087 -0.050000
v 0.101865 0.375847 -0.050000
v 0.093809 0.373367 -0.050000
v 0.091389 0.372409 -0.050000
v 0.089100 0.371383 -0.050000
v 0.084921 0.369135 -0.050000
v 0.089100 0.371383 0.050000
v 0.091389 0.372409 0.050000
v 0.084921 0.369135 0.050000
v 0.081270 0.366621 0.050000
v 0.079647 0.365221 0.050000
v 0.081270 0.366621 -0.050000
v 0.079647 0.365221 -0.050000
v 0.078166 0.363667 -0.050000
v 0.076825 0.361959 -0.050000
v 0.078166 0.363667 0.050000
v 0.076825 0.361959 0.050000
v 0.075626 0.360096 0.050000
v 0.074568 0.358079 0.050000
v 0.075626 0.360096 -0.050000
v 0.074568 0.358079 -0.050000
v 0.072875 0.353581 -0.050000
v 0.071746 0.348467 -0.050000
v 0.072875 0.353581 0.050000
v 0.071746 0.348467 0.050000
v 0.071182 0.342735 0.050000
v 0.070811 0.039505 0.050000
v 0.071182 0.342735 -0.050000
v 0.070811 0.039505 -0.050000
v 0.068413 0.016859 -0.050000
v 0.063615 -0.004305 -0.050000
v 0.068413 0.016859 0.050000
v 0.063615 -0.004305 0.050000
v 0.056420 -0.023987 0.050000
v 0.046825 -0.042188 0.050000
v 0.056420 -0.023987 -0.050000
v 0.046825 -0.042188 -0.050000
v 0.041129 -0.050733 -0.050000
v 0.027936 -0.066712 -0.050000
v 0.041129 -0.050733 0.050000
v 0.027936 -0.066712 0.050000
v 0.012787 -0.081245 0.050000
v 0.012787 -0.081245 -0.050000
v -0.003880 -0.094366 0.050000
v -0.003880 -0.094366 -0.050000
v -0.022063 -0.106077 0.050000
v -0.041764 -0.116377 0.050000
v -0.022063 -0.106077 -0.050000
v -0.041764 -0.116377 -0.050000
v -0.052182 -0.120998 -0.050000
v -0.062980 -0.125266 -0.050000
v -0.074158 -0.129181 -0.050000
v -0.085714 -0.132744 -0.050000
v -0.096226 -0.124138 -0.050000
v -0.085714 -0.132744 0.050000
v -0.074158 -0.129182 0.050000
v -0.096226 -0.124138 0.050000
v -0.105750 -0.114403 0.050000
v -0.114286 -0.103537 0.050000
v -0.105750 -0.114403 -0.050000
v -0.114286 -0.103537 -0.050000
v -0.098677 -0.094084 -0.050000
v -0.091547 -0.089252 -0.050000
v -0.084868 -0.084349 -0.050000
v -0.072857 -0.074332 -0.050000
v -0.084868 -0.084349 0.050000
v -0.091547 -0.089252 0.050000
v -0.072857 -0.074332 0.050000
v -0.062646 -0.064032 0.050000
v -0.054233 -0.053450 0.050000
v -0.062646 -0.064032 -0.050000
v -0.054233 -0.053450 -0.050000
v -0.050701 -0.048053 -0.050000
v -0.044881 -0.036888 -0.050000
v -0.050701 -0.048053 0.050000
v -0.044881 -0.036888 0.050000
v -0.040119 -0.024331 0.050000
v -0.036309 -0.010222 0.050000
v -0.040119 -0.024331 -0.050000
v -0.036309 -0.010222 -0.050000
v -0.034762 -0.002585 -0.050000
v -0.033452 0.005440 -0.050000
v -0.032381 0.013852 -0.050000
v -0.031548 0.022653 -0.050000
v -0.030476 0.370748 -0.050000
v -0.031548 0.022653 0.050000
v -0.030476 0.370748 0.050000
v -0.032381 0.013852 0.050000
v -0.033452 0.005440 0.050000
v -0.034762 -0.002585 0.050000
v -0.036138 0.372882 0.050000
v -0.042540 0.374628 0.050000
v -0.036138 0.372882 -0.050000
v -0.042540 0.374628 -0.050000
v -0.046019 0.375356 -0.050000
v -0.049683 0.375986 -0.050000
v -0.053532 0.376520 -0.050000
v -0.057566 0.376956 -0.050000
v -0.075556 0.377732 -0.050000
v -0.057566 0.376956 0.050000
v -0.075556 0.377732 0.050000
v -0.053532 0.376520 0.050000
v -0.049683 0.375986 0.050000
v -0.046019 0.375356 0.050000
v -0.075203 0.397344 0.050000
v -0.075203 0.397344 -0.050000
v -0.098677 -0.094084 0.050000
v -0.062980 -0.125266 0.050000
v -0.052182 -0.120998 0.050000
v 0.112082 0.381304 0.050000
v 0.114198 0.395060 0.050000
v 0.114264 0.396721 0.050000
vt 0.006803 1.000000
vt 0.000000 0.000000
vt 0.000000 1.000000
vt 0.760274 0.000000
vt 0.280822 0.000000
vt 0.273973 0.000000
vt 0.108844 0.000000
vt 0.102041 0.000000
vt 0.108844 1.000000
vt 0.452055 0.000000
vt 0.657534 0.000000
vt 0.664384 0.000000
vt 0.122449 0.000000
vt 0.115646 0.000000
vt 0.129252 1.000000
vt 0.149660 0.000000
vt 0.142857 0.000000
vt 0.156463 1.000000
vt 0.183673 0.000000
vt 0.170068 1.000000
vt 0.183673 1.000000
vt 0.210884 0.000000
vt 0.197279 1.000000
vt 0.210884 1.000000
vt 0.238095 1.000000
vt 0.224490 0.000000
vt 0.224490 1.000000
vt 0.251701 0.000000
vt 0.251701 1.000000
vt 0.258503 1.000000
vt 0.265306 1.000000
vt 0.258503 0.000000
vt 0.272109 1.000000
vt 0.265306 0.000000
vt 0.278912 1.000000
vt 0.272109 0.000000
vt 0.285714 1.000000
vt 0.278912 0.000000
vt 0.299320 1.000000
vt 0.285714 0.000000
vt 0.312925 1.000000
vt 0.299320 0.000000
vt 0.326531 0.000000
vt 0.326531 1.000000
vt 0.346939 0.000000
vt 0.346939 1.000000
vt 0.360544 1.000000
vt 0.374150 1.000000
vt 0.360544 0.000000
vt 0.387755 0.000000
vt 0.387755 1.000000
vt 0.401361 1.000000
vt 0.408163 1.000000
vt 0.401361 0.000000
vt 0.421769 1.000000
vt 0.408163 0.000000
vt 0.435374 1.000000
vt 0.421769 0.000000
vt 0.448980 1.000000
vt 0.435374 0.000000
vt 0.462585 1.000000
vt 0.448980 0.000000
vt 0.476190 1.000000
vt 0.462585 0.000000
vt 0.489796 0.000000
vt 0.482993 0.000000
vt 0.489796 1.000000
vt 0.530612 1.000000
vt 0.503401 0.000000
vt 0.503401 1.000000
vt 0.557823 1.000000
vt 0.530612 0.000000
vt 0.585034 0.000000
vt 0.585034 1.000000
vt 0.598639 0.000000
vt 0.598639 1.000000
vt 0.625850 1.000000
vt 0.612245 0.000000
vt 0.612245 1.000000
vt 0.639456 1.000000
vt 0.625850 0.000000
vt 0.653061 1.000000
vt 0.639456 0.000000
vt 0.659864 1.000000
vt 0.653061 0.000000
vt 0.673469 0.000000
vt 0.673469 1.000000
vt 0.687075 0.000000
vt 0.687075 1.000000
vt 0.700680 1.000000
vt 0.714286 0.000000
vt 0.707483 0.000000
vt 0.714286 1.000000
vt 0.755102 0.000000
vt 0.727891 1.000000
vt 0.755102 1.000000
vt 0.768707 0.000000
vt 0.768707 1.000000
vt 0.782313 1.000000
vt 0.795918 0.000000
vt 0.789116 0.000000
vt 0.795918 1.000000
vt 0.836735 0.000000
vt 0.809524 1.000000
vt 0.836735 1.000000
vt 0.945578 1.000000
vt 1.000000 0.000000
vt 1.000000 1.000000
vt 0.006803 0.000000
vt 0.095890 0.000000
vt 0.089041 0.000000
vt 0.198630 0.000000
vt 0.006849 0.000000
vt 0.212329 0.000000
vt 0.000000 0.000000
vt 0.952055 0.000000
vt 0.808219 0.000000
vt 0.773973 0.000000
vt 0.787671 0.000000
vt 0.842466 0.000000
vt 0.815068 0.000000
vt 0.253425 0.000000
vt 0.109589 0.000000
vt 0.102740 0.000000
vt 0.123288 0.000000
vt 0.116438 0.000000
vt 0.136986 0.000000
vt 0.130137 0.000000
vt 0.191781 0.000000
vt 0.150685 0.000000
vt 0.143836 0.000000
vt 0.184932 0.000000
vt 0.164384 0.000000
vt 0.157534 0.000000
vt 0.171233 0.000000
vt 0.239726 0.000000
vt 0.801370 0.000000
vt 0.794521 0.000000
vt 0.226027 0.000000
vt 0.219178 0.000000
vt 0.602740 0.000000
vt 0.589041 0.000000
vt 0.561644 0.000000
vt 0.534247 0.000000
vt 0.506849 0.000000
vt 0.500000 0.000000
vt 0.609589 0.000000
vt 0.493151 0.000000
vt 0.486301 0.000000
vt 0.616438 0.000000
vt 0.479452 0.000000
vt 0.630137 0.000000
vt 0.465753 0.000000
vt 0.643836 0.000000
vt 0.452055 0.000000
vt 0.657534 0.000000
vt 0.438356 0.000000
vt 0.664384 0.000000
vt 0.424658 0.000000
vt 0.678082 0.000000
vt 0.410959 0.000000
vt 0.691781 0.000000
vt 0.404110 0.000000
vt 0.705479 0.000000
vt 0.390411 0.000000
vt 0.712329 0.000000
vt 0.376712 0.000000
vt 0.719178 0.000000
vt 0.363014 0.000000
vt 0.732877 0.000000
vt 0.349315 0.000000
vt 0.328767 0.000000
vt 0.726027 0.000000
vt 0.315068 0.000000
vt 0.301370 0.000000
vt 0.287671 0.000000
vt 0.260274 0.000000
vt 0.267123 0.000000
vt 0.088435 1.000000
vt 0.095238 1.000000
vt 0.102041 1.000000
vt 0.088435 0.000000
vt 0.095238 0.000000
vt 0.115646 1.000000
vt 0.842466 0.000000
vt 0.952055 0.000000
vt 0.815068 0.000000
vt 0.808219 0.000000
vt 0.760274 0.000000
vt 0.089041 0.000000
vt 0.212329 0.000000
vt 0.253425 0.000000
vt 0.095890 0.000000
vt 0.198630 0.000000
vt 0.102740 0.000000
vt 0.109589 0.000000
vt 0.116438 0.000000
vt 0.123288 0.000000
vt 0.130137 0.000000
vt 0.191781 0.000000
vt 0.136986 0.000000
vt 0.143836 0.000000
vt 0.184932 0.000000
vt 0.150685 0.000000
vt 0.157534 0.000000
vt 0.164384 0.000000
vt 0.171233 0.000000
vt 0.239726 0.000000
vt 0.226027 0.000000
vt 0.219178 0.000000
vt 0.801370 0.000000
vt 0.794521 0.000000
vt 0.787671 0.000000
vt 0.773973 0.000000
vt 0.260274 0.000000
vt 0.267123 0.000000
vt 0.273973 0.000000
vt 0.280822 0.000000
vt 0.287671 0.000000
vt 0.301370 0.000000
vt 0.315068 0.000000
vt 0.732877 0.000000
vt 0.328767 0.000000
vt 0.349315 0.000000
vt 0.363014 0.000000
vt 0.726027 0.000000
vt 0.376712 0.000000
vt 0.719178 0.000000
vt 0.390411 0.000000
vt 0.404110 0.000000
vt 0.712329 0.000000
vt 0.410959 0.000000
vt 0.705479 0.000000
vt 0.424658 0.000000
vt 0.691781 0.000000
vt 0.438356 0.000000
vt 0.678082 0.000000
vt 0.465753 0.000000
vt 0.479452 0.000000
vt 0.643836 0.000000
vt 0.630137 0.000000
vt 0.486301 0.000000
vt 0.493151 0.000000
vt 0.616438 0.000000
vt 0.500000 0.000000
vt 0.609589 0.000000
vt 0.506849 0.000000
vt 0.534247 0.000000
vt 0.561644 0.000000
vt 0.602740 0.000000
vt 0.589041 0.000000
vt 0.122449 1.000000
vt 0.136054 1.000000
vt 0.142857 1.000000
vt 0.136054 0.000000
vt 0.129252 0.000000
vt 0.149660 1.000000
vt 0.163265 1.000000
vt 0.170068 0.000000
vt 0.163265 0.000000
vt 0.156463 0.000000
vt 0.190476 1.000000
vt 0.190476 0.000000
vt 0.197279 0.000000
vt 0.217687 1.000000
vt 0.217687 0.000000
vt 0.238095 0.000000
vt 0.312925 0.000000
vt 0.374150 0.000000
vt 0.476190 0.000000
vt 0.482993 1.000000
vt 0.496599 1.000000
vt 0.496599 0.000000
vt 0.557823 0.000000
vt 0.605442 1.000000
vt 0.605442 0.000000
vt 0.659864 0.000000
vt 0.700680 0.000000
vt 0.707483 1.000000
vt 0.721088 1.000000
vt 0.727891 0.000000
vt 0.721088 0.000000
vt 0.782313 0.000000
vt 0.789116 1.000000
vt 0.802721 1.000000
vt 0.809524 0.000000
vt 0.802721 0.000000
vt 0.945578 0.000000
vn 0.0000 1.0000 0.0000
vn 0.0000 -0.0000 1.0000
vn 0.9969 -0.0784 0.0000
vn 0.9986 -0.0526 0.0002
vn 0.9970 -0.0780 -0.0006
vn 0.0000 0.0000 -1.0000
vn 0.9918 -0.1279 0.0002
vn 0.9946 -0.1036 0.0002
vn 0.9884 -0.1518 -0.0002
vn 0.9755 -0.2199 0.0002
vn 0.9802 -0.1981 0.0002
vn 0.9705 -0.2412 -0.0002
vn 0.2075 -0.9782 0.0000
vn 0.1858 -0.9826 0.0000
vn 0.3402 -0.9403 0.0000
vn 0.2864 -0.9581 0.0000
vn 0.5212 -0.8534 0.0000
vn 0.4416 -0.8972 0.0000
vn 0.6111 -0.7916 0.0000
vn 0.6894 -0.7244 0.0000
vn 0.7562 -0.6544 0.0000
vn 0.8147 -0.5799 0.0000
vn 0.8640 -0.5034 0.0000
vn 0.9124 -0.4092 0.0000
vn 0.9586 -0.2846 0.0000
vn 0.9876 -0.1570 0.0000
vn 0.9988 -0.0497 0.0000
vn 0.9986 -0.0534 -0.0000
vn 0.9865 -0.1635 -0.0000
vn 0.9592 -0.2828 -0.0000
vn 0.9140 -0.4058 -0.0000
vn 0.8595 -0.5112 -0.0000
vn 0.8026 -0.5965 -0.0000
vn 0.7329 -0.6803 -0.0000
vn 0.6562 -0.7546 -0.0000
vn 0.5807 -0.8141 -0.0000
vn 0.5029 -0.8643 -0.0000
vn 0.4346 -0.9006 -0.0000
vn 0.3492 -0.9371 -0.0000
vn 0.3866 -0.9222 -0.0000
vn -0.6752 -0.7377 -0.0000
vn -0.6335 -0.7738 -0.0000
vn -0.7517 -0.6595 -0.0000
vn -0.7864 -0.6178 -0.0000
vn -0.5397 0.8419 0.0000
vn -0.5180 0.8554 0.0000
vn -0.5397 0.8418 0.0000
vn -0.6761 0.7368 0.0000
vn -0.6164 0.7874 0.0000
vn -0.7476 0.6642 0.0000
vn -0.8106 0.5856 0.0000
vn -0.8628 0.5055 0.0000
vn -0.9125 0.4091 0.0000
vn -0.9514 0.3080 0.0000
vn -0.9732 0.2298 0.0000
vn -0.9896 0.1437 0.0000
vn -0.9837 0.1799 0.0000
vn -1.0000 0.0031 0.0000
vn -0.9988 0.0487 0.0000
vn -0.3083 -0.9513 0.0000
vn -0.3527 -0.9357 0.0000
vn -0.2340 -0.9722 0.0000
vn -0.1535 -0.9882 0.0000
vn -0.1872 -0.9823 0.0000
vn -0.0431 -0.9991 0.0000
vn -0.0754 -0.9972 0.0000
vn -0.9953 0.0964 0.0000
vn -0.9998 0.0180 0.0000
vn -0.9847 0.1743 0.0000
vn 1.0000 0.0000 0.0000
vn 1.0000 -0.0067 0.0000
vn 0.9996 -0.0267 -0.0002
vn 0.9986 -0.0530 -0.0009
vn 1.0000 -0.0071 0.0006
vn 0.9997 -0.0263 0.0009
vn 0.9946 -0.1035 0.0000
vn 0.9918 -0.1282 -0.0002
vn 0.9845 -0.1753 0.0000
vn 0.9802 -0.1980 0.0000
vn 0.9884 -0.1520 0.0000
vn 0.9755 -0.2201 -0.0002
vn 0.9650 -0.2621 0.0000
vn 0.9622 -0.2724 0.0000
vn 0.9704 -0.2413 0.0000
vn 0.2449 -0.9695 0.0000
vn 0.3887 -0.9214 0.0000
vn 0.3126 -0.9499 -0.0000
vn 0.2946 -0.9556 -0.0000
vn -0.5765 0.8171 0.0000
vn -0.9939 0.1103 0.0000
vn -0.1225 -0.9925 0.0000
usemtl Material.004
s 1
f 1/1/1 5/2/1 2/3/1
f 119/4/2 50/5/2 49/6/2
f 9/7/3 8/8/4 13/9/5
f 77/10/6 104/11/6 105/12/6
f 11/13/7 10/14/8 15/15/9
f 20/16/10 19/17/11 142/18/12
f 26/19/13 27/20/14 29/21/13
f 35/22/15 31/23/16 32/24/15
f 41/25/17 37/26/18 39/27/18
f 44/28/19 41/25/17 42/29/19
f 43/30/20 44/28/19 42/29/19
f 48/31/21 45/32/20 43/30/20
f 49/33/22 46/34/21 48/31/21
f 50/35/23 47/36/22 49/33/22
f 51/37/24 52/38/23 50/35/23
f 56/39/25 53/40/24 51/37/24
f 57/41/26 54/42/25 56/39/25
f 60/43/27 57/41/26 58/44/27
f 61/45/28 58/44/27 59/46/28
f 64/47/29 61/45/28 59/46/28
f 65/48/30 62/49/29 64/47/29
f 68/50/31 65/48/30 66/51/31
f 67/52/32 68/50/31 66/51/31
f 72/53/33 69/54/32 67/52/32
f 73/55/34 70/56/33 72/53/33
f 74/57/35 71/58/34 73/55/34
f 76/59/36 75/60/35 74/57/35
f 78/61/37 77/62/36 76/59/36
f 79/63/38 80/64/37 78/61/37
f 83/65/39 82/66/40 140/67/39
f 89/68/41 85/69/42 87/70/42
f 90/71/43 86/72/41 89/68/41
f 93/73/44 90/71/43 91/74/44
f 94/75/45 91/74/46 139/76/47
f 100/77/48 96/78/49 98/79/49
f 101/80/50 97/81/48 100/77/48
f 102/82/51 103/83/50 101/80/50
f 107/84/52 104/85/51 102/82/51
f 106/86/53 107/84/52 108/87/53
f 111/88/54 108/87/53 109/89/54
f 110/90/55 111/88/54 109/89/54
f 114/91/56 113/92/57 121/93/56
f 117/94/58 118/95/59 119/96/58
f 125/97/60 119/96/61 123/98/60
f 124/99/62 125/97/60 123/98/60
f 128/100/63 127/101/64 135/102/63
f 131/103/65 132/104/66 133/105/65
f 137/106/67 131/103/68 133/105/68
f 5/107/69 137/106/67 2/108/69
f 1/1/1 4/109/1 5/2/1
f 144/110/2 3/111/2 31/112/2
f 3/111/2 1/113/2 32/114/2
f 119/4/2 1/113/2 2/115/2
f 2/115/2 137/116/2 134/117/2
f 123/118/2 2/115/2 124/119/2
f 137/116/2 133/120/2 132/121/2
f 137/116/2 132/121/2 134/117/2
f 1/113/2 119/4/2 42/122/2
f 2/115/2 123/118/2 119/4/2
f 13/123/2 143/124/2 31/112/2
f 143/124/2 144/110/2 31/112/2
f 14/125/2 12/126/2 31/112/2
f 12/126/2 13/123/2 31/112/2
f 16/127/2 15/128/2 30/129/2
f 15/128/2 14/125/2 30/129/2
f 30/129/2 14/125/2 31/112/2
f 18/130/2 17/131/2 29/132/2
f 17/131/2 16/127/2 29/132/2
f 29/132/2 16/127/2 30/129/2
f 28/133/2 142/134/2 29/132/2
f 142/134/2 18/130/2 29/132/2
f 29/132/2 27/135/2 28/133/2
f 41/136/2 1/113/2 42/122/2
f 134/117/2 135/137/2 2/115/2
f 135/137/2 136/138/2 2/115/2
f 1/113/2 41/136/2 39/139/2
f 1/113/2 39/139/2 40/140/2
f 2/115/2 136/138/2 124/119/2
f 32/114/2 31/112/2 3/111/2
f 40/140/2 32/114/2 1/113/2
f 139/141/2 91/142/2 90/143/2
f 90/143/2 89/144/2 139/141/2
f 89/144/2 87/145/2 88/146/2
f 139/141/2 89/144/2 99/147/2
f 88/146/2 140/148/2 99/147/2
f 140/148/2 141/149/2 98/150/2
f 141/149/2 79/151/2 100/152/2
f 140/148/2 98/150/2 99/147/2
f 79/151/2 78/153/2 101/154/2
f 78/153/2 76/155/2 102/156/2
f 76/155/2 74/157/2 107/158/2
f 74/157/2 73/159/2 108/160/2
f 76/155/2 107/158/2 102/156/2
f 73/159/2 72/161/2 109/162/2
f 72/161/2 67/163/2 110/164/2
f 67/163/2 66/165/2 122/166/2
f 66/165/2 65/167/2 121/168/2
f 67/163/2 122/166/2 110/164/2
f 65/167/2 64/169/2 118/170/2
f 64/169/2 59/171/2 118/170/2
f 66/165/2 121/168/2 122/166/2
f 59/171/2 58/172/2 118/170/2
f 72/161/2 110/164/2 109/162/2
f 141/149/2 100/152/2 98/150/2
f 100/152/2 79/151/2 101/154/2
f 88/146/2 99/147/2 89/144/2
f 121/168/2 65/167/2 120/173/2
f 58/172/2 57/174/2 119/4/2
f 101/154/2 78/153/2 102/156/2
f 107/158/2 74/157/2 108/160/2
f 109/162/2 108/160/2 73/159/2
f 120/173/2 65/167/2 118/170/2
f 57/174/2 56/175/2 119/4/2
f 118/170/2 58/172/2 119/4/2
f 119/4/2 56/175/2 51/176/2
f 43/177/2 42/122/2 119/4/2
f 48/178/2 43/177/2 119/4/2
f 119/4/2 51/176/2 50/5/2
f 49/6/2 48/178/2 119/4/2
f 4/109/70 1/1/70 3/179/71
f 144/180/72 143/181/73 6/182/74
f 143/181/73 13/9/5 6/182/74
f 4/109/70 3/179/71 6/182/74
f 3/179/71 144/180/72 6/182/74
f 8/8/4 7/183/75 13/9/5
f 7/183/75 6/182/74 13/9/5
f 13/9/5 12/184/76 10/14/8
f 10/14/8 9/7/3 13/9/5
f 131/185/6 138/186/6 130/187/6
f 138/186/6 5/2/6 129/188/6
f 130/187/6 138/186/6 129/188/6
f 5/2/6 4/109/6 117/189/6
f 4/109/6 6/190/6 35/191/6
f 117/189/6 4/109/6 44/192/6
f 6/190/6 7/193/6 33/194/6
f 7/193/6 8/195/6 33/194/6
f 6/190/6 33/194/6 35/191/6
f 8/195/6 9/196/6 33/194/6
f 9/196/6 10/197/6 33/194/6
f 10/197/6 11/198/6 33/194/6
f 11/198/6 22/199/6 34/200/6
f 33/194/6 11/198/6 34/200/6
f 22/199/6 21/201/6 34/200/6
f 21/201/6 19/202/6 26/203/6
f 19/202/6 20/204/6 26/203/6
f 20/204/6 23/205/6 26/203/6
f 23/205/6 24/206/6 26/203/6
f 24/206/6 25/207/6 26/203/6
f 21/201/6 26/203/6 34/200/6
f 4/109/6 38/208/6 44/192/6
f 38/208/6 4/109/6 37/209/6
f 37/209/6 4/109/6 36/210/6
f 129/188/6 5/2/6 128/211/6
f 128/211/6 5/2/6 127/212/6
f 127/212/6 5/2/6 126/213/6
f 126/213/6 5/2/6 125/214/6
f 125/214/6 5/2/6 117/189/6
f 35/191/6 36/210/6 4/109/6
f 117/189/6 44/192/6 45/215/6
f 117/189/6 45/215/6 46/216/6
f 117/189/6 46/216/6 47/217/6
f 117/189/6 47/217/6 52/218/6
f 117/189/6 52/218/6 53/219/6
f 117/189/6 53/219/6 54/220/6
f 117/189/6 54/220/6 55/221/6
f 116/222/6 117/189/6 60/223/6
f 117/189/6 55/221/6 60/223/6
f 60/223/6 61/224/6 116/222/6
f 61/224/6 62/225/6 116/222/6
f 115/226/6 63/227/6 114/228/6
f 115/226/6 116/222/6 63/227/6
f 62/225/6 63/227/6 116/222/6
f 114/228/6 63/227/6 68/229/6
f 68/229/6 69/230/6 113/231/6
f 69/230/6 70/232/6 112/233/6
f 70/232/6 71/234/6 111/235/6
f 69/230/6 112/233/6 113/231/6
f 71/234/6 75/236/6 106/237/6
f 75/236/6 77/10/6 105/12/6
f 77/10/6 80/238/6 104/11/6
f 80/238/6 81/239/6 103/240/6
f 103/240/6 81/239/6 97/241/6
f 81/239/6 82/242/6 97/241/6
f 82/242/6 83/243/6 96/244/6
f 97/241/6 82/242/6 96/244/6
f 83/243/6 84/245/6 95/246/6
f 84/245/6 85/247/6 86/248/6
f 86/248/6 92/249/6 94/250/6
f 92/249/6 93/251/6 94/250/6
f 94/250/6 95/246/6 86/248/6
f 84/245/6 86/248/6 95/246/6
f 83/243/6 95/246/6 96/244/6
f 70/232/6 111/235/6 112/233/6
f 68/229/6 113/231/6 114/228/6
f 111/235/6 71/234/6 106/237/6
f 80/238/6 103/240/6 104/11/6
f 106/237/6 75/236/6 105/12/6
f 12/184/76 14/252/77 10/14/8
f 14/252/77 15/15/9 10/14/8
f 16/253/78 17/254/79 19/17/11
f 15/15/9 16/253/78 21/255/78
f 16/253/78 19/17/11 21/255/78
f 21/255/78 22/256/80 15/15/9
f 22/256/80 11/13/7 15/15/9
f 17/254/79 18/257/81 19/17/11
f 18/257/81 142/18/12 19/17/11
f 28/258/82 27/20/83 25/259/83
f 142/18/12 28/258/82 24/260/82
f 28/258/82 25/259/83 24/260/82
f 24/260/82 23/261/84 142/18/12
f 23/261/84 20/16/10 142/18/12
f 29/21/13 30/262/85 26/19/13
f 30/262/85 31/23/16 34/263/85
f 26/19/13 30/262/85 34/263/85
f 31/23/16 33/264/16 34/263/85
f 26/19/13 25/259/14 27/20/14
f 32/24/15 40/265/86 35/22/15
f 40/265/86 39/27/18 36/266/86
f 35/22/15 40/265/86 36/266/86
f 39/27/18 37/26/18 36/266/86
f 35/22/15 33/264/16 31/23/16
f 41/25/17 38/267/17 37/26/18
f 44/28/19 38/267/17 41/25/17
f 43/30/20 45/32/20 44/28/19
f 48/31/21 46/34/21 45/32/20
f 49/33/22 47/36/22 46/34/21
f 50/35/23 52/38/23 47/36/22
f 51/37/24 53/40/24 52/38/23
f 56/39/25 54/42/25 53/40/24
f 57/41/26 55/268/26 54/42/25
f 60/43/27 55/268/26 57/41/26
f 61/45/28 60/43/27 58/44/27
f 64/47/29 62/49/29 61/45/28
f 65/48/30 63/269/30 62/49/29
f 68/50/31 63/269/30 65/48/30
f 67/52/32 69/54/32 68/50/31
f 72/53/33 70/56/33 69/54/32
f 73/55/34 71/58/34 70/56/33
f 74/57/35 75/60/35 71/58/34
f 76/59/36 77/62/36 75/60/35
f 78/61/37 80/64/37 77/62/36
f 79/63/38 81/270/38 80/64/37
f 79/63/38 141/271/40 81/270/38
f 141/271/40 140/67/39 82/66/40
f 81/270/38 141/271/40 82/66/40
f 88/272/87 87/70/88 85/69/88
f 140/67/39 88/272/87 84/273/87
f 88/272/87 85/69/88 84/273/87
f 84/273/87 83/65/39 140/67/39
f 89/68/41 86/72/41 85/69/42
f 90/71/43 92/274/43 86/72/41
f 93/73/44 92/274/43 90/71/43
f 139/76/47 99/275/89 94/75/45
f 99/275/89 98/79/49 95/276/89
f 94/75/45 99/275/89 95/276/89
f 98/79/49 96/78/49 95/276/89
f 94/75/45 93/73/46 91/74/46
f 100/77/48 97/81/48 96/78/49
f 101/80/50 103/83/50 97/81/48
f 102/82/51 104/85/51 103/83/50
f 107/84/52 105/277/52 104/85/51
f 106/86/53 105/277/52 107/84/52
f 111/88/54 106/86/53 108/87/53
f 110/90/55 112/278/55 111/88/54
f 110/90/55 122/279/57 112/278/55
f 122/279/57 121/93/56 113/92/57
f 112/278/55 122/279/57 113/92/57
f 120/280/90 118/95/59 116/281/59
f 121/93/56 120/280/90 115/282/90
f 120/280/90 116/281/59 115/282/90
f 115/282/90 114/91/56 121/93/56
f 117/94/58 116/281/59 118/95/59
f 125/97/60 117/94/61 119/96/61
f 124/99/62 126/283/62 125/97/60
f 124/99/62 136/284/64 126/283/62
f 136/284/64 135/102/63 127/101/64
f 126/283/62 136/284/64 127/101/64
f 134/285/91 132/104/66 130/286/66
f 135/102/63 134/285/91 129/287/91
f 134/285/91 130/286/66 129/287/91
f 129/287/91 128/100/63 135/102/63
f 131/103/65 130/286/66 132/104/66
f 137/106/67 138/288/67 131/103/68
f 5/107/69 138/288/67 137/106/67
