# Blender v2.92.0 OBJ File: 'letters.blend'
# www.blender.org
mtllib l.mtl
o l.001_Curve.044
v -0.088571 0.000000 0.050000
v -0.088549 0.016572 0.050000
v 0.086032 0.000000 0.050000
v -0.088571 0.000000 -0.050000
v 0.086032 0.000000 -0.050000
v -0.088549 0.016572 -0.050000
v -0.088483 0.018245 -0.050000
v -0.088219 0.021657 -0.050000
v -0.085397 0.036191 -0.050000
v -0.088219 0.021657 0.050000
v -0.085397 0.036191 0.050000
v -0.088483 0.018245 0.050000
v -0.082183 0.036753 0.050000
v -0.079100 0.037381 0.050000
v -0.076151 0.038075 0.050000
v -0.073333 0.038836 0.050000
v -0.063386 0.042540 0.050000
v -0.073333 0.038836 -0.050000
v -0.063386 0.042540 -0.050000
v -0.076151 0.038075 -0.050000
v -0.079100 0.037381 -0.050000
v -0.082183 0.036753 -0.050000
v -0.059206 0.044788 -0.050000
v -0.055555 0.047301 -0.050000
v -0.059206 0.044788 0.050000
v -0.055555 0.047301 0.050000
v -0.053933 0.048697 0.050000
v -0.052451 0.050238 0.050000
v -0.053933 0.048697 -0.050000
v -0.052451 0.050238 -0.050000
v -0.051111 0.051925 -0.050000
v -0.049912 0.053757 -0.050000
v -0.051111 0.051925 0.050000
v -0.049912 0.053757 0.050000
v -0.048854 0.055734 0.050000
v -0.048854 0.055734 -0.050000
v -0.047160 0.060126 0.050000
v -0.046032 0.065100 0.050000
v -0.047160 0.060126 -0.050000
v -0.046032 0.065100 -0.050000
v -0.045467 0.070655 -0.050000
v -0.045397 0.396825 -0.050000
v -0.045467 0.070655 0.050000
v -0.045397 0.396825 0.050000
v -0.046592 0.397028 0.050000
v -0.047848 0.397213 0.050000
v -0.049167 0.397380 0.050000
v -0.050547 0.397530 0.050000
v -0.051988 0.397662 0.050000
v -0.053492 0.397777 0.050000
v -0.055057 0.397873 0.050000
v -0.056684 0.397953 0.050000
v -0.058373 0.398014 0.050000
v -0.056684 0.397953 -0.050000
v -0.058373 0.398014 -0.050000
v -0.055057 0.397873 -0.050000
v -0.053492 0.397777 -0.050000
v -0.051988 0.397662 -0.050000
v -0.050547 0.397530 -0.050000
v -0.049167 0.397380 -0.050000
v -0.047848 0.397213 -0.050000
v -0.046592 0.397028 -0.050000
v -0.060123 0.398058 -0.050000
v -0.061936 0.398084 -0.050000
v -0.063810 0.398095 -0.050000
v -0.065723 0.398091 -0.050000
v -0.067654 0.398077 -0.050000
v -0.069603 0.398056 -0.050000
v -0.073554 0.397985 -0.050000
v -0.077575 0.397879 -0.050000
v -0.081667 0.397738 -0.050000
v -0.085829 0.397562 -0.050000
v -0.087937 0.397460 -0.050000
v -0.087937 0.397460 0.050000
v -0.087703 0.401199 -0.050000
v -0.087425 0.404797 -0.050000
v -0.087103 0.408253 -0.050000
v -0.086737 0.411569 -0.050000
v -0.086327 0.414744 -0.050000
v -0.085873 0.417778 -0.050000
v -0.085375 0.420670 -0.050000
v -0.084832 0.423421 -0.050000
v -0.084832 0.423421 0.050000
v -0.083615 0.428501 -0.050000
v -0.082940 0.430829 -0.050000
v -0.082222 0.433016 -0.050000
v -0.040106 0.445291 -0.050000
v -0.082222 0.433016 0.050000
v -0.040106 0.445291 0.050000
v -0.082940 0.430829 0.050000
v -0.083615 0.428501 0.050000
v -0.029114 0.447698 0.050000
v -0.017936 0.449841 0.050000
v -0.006574 0.451719 0.050000
v 0.004974 0.453333 0.050000
v 0.053016 0.457143 0.050000
v 0.004974 0.453333 -0.050000
v 0.053016 0.457143 -0.050000
v -0.006574 0.451719 -0.050000
v -0.017936 0.449841 -0.050000
v -0.029114 0.447698 -0.050000
v 0.053016 0.042540 -0.050000
v 0.053016 0.042540 0.050000
v 0.055591 0.041525 -0.050000
v 0.058236 0.040599 -0.050000
v 0.063739 0.039012 -0.050000
v 0.075591 0.036896 -0.050000
v 0.063739 0.039012 0.050000
v 0.058236 0.040599 0.050000
v 0.075591 0.036896 0.050000
v 0.088571 0.036191 0.050000
v 0.088554 0.021971 0.050000
v 0.088571 0.036191 -0.050000
v 0.088554 0.021971 -0.050000
v 0.088501 0.020370 -0.050000
v 0.088413 0.018690 -0.050000
v 0.088289 0.016931 -0.050000
v 0.088289 0.016931 0.050000
v 0.088413 0.018690 0.050000
v 0.088501 0.020370 0.050000
v 0.055591 0.041525 0.050000
v -0.085375 0.420670 0.050000
v -0.085873 0.417778 0.050000
v -0.086327 0.414744 0.050000
v -0.086737 0.411569 0.050000
v -0.087103 0.408253 0.050000
v -0.087425 0.404797 0.050000
v -0.087703 0.401199 0.050000
v -0.085829 0.397562 0.050000
v -0.081667 0.397738 0.050000
v -0.077575 0.397879 0.050000
v -0.073554 0.397985 0.050000
v -0.069603 0.398056 0.050000
v -0.067654 0.398077 0.050000
v -0.065723 0.398091 0.050000
v -0.063810 0.398095 0.050000
v -0.061936 0.398084 0.050000
v -0.060123 0.398058 0.050000
vt 0.370370 1.000000
vt 0.377778 1.000000
vt 0.377778 0.000000
vt 0.940298 0.000000
vt 0.664179 0.000000
vt 0.656716 0.000000
vt 0.274074 1.000000
vt 0.266667 0.000000
vt 0.266667 1.000000
vt 0.641791 0.000000
vt 0.649254 0.000000
vt 0.940298 0.000000
vt 0.451852 0.000000
vt 0.392593 1.000000
vt 0.451852 1.000000
vt 0.459259 1.000000
vt 0.466667 1.000000
vt 0.466667 0.000000
vt 0.511111 0.000000
vt 0.481481 1.000000
vt 0.511111 1.000000
vt 0.525926 0.000000
vt 0.525926 1.000000
vt 0.540741 0.000000
vt 0.540741 1.000000
vt 0.548148 1.000000
vt 0.555556 1.000000
vt 0.548148 0.000000
vt 0.562963 1.000000
vt 0.555556 0.000000
vt 0.570370 1.000000
vt 0.562963 0.000000
vt 0.577778 1.000000
vt 0.570370 0.000000
vt 0.592593 0.000000
vt 0.592593 1.000000
vt 0.607407 0.000000
vt 0.607407 1.000000
vt 0.622222 0.000000
vt 0.622222 1.000000
vt 0.637037 1.000000
vt 0.681481 1.000000
vt 0.696296 0.000000
vt 0.688889 0.000000
vt 0.711111 0.000000
vt 0.703704 0.000000
vt 0.703704 1.000000
vt 0.822222 1.000000
vt 0.829630 1.000000
vt 0.829630 0.000000
vt 0.888889 0.000000
vt 0.874074 1.000000
vt 0.888889 1.000000
vt 0.933333 0.000000
vt 0.903704 1.000000
vt 0.933333 1.000000
vt 0.948148 0.000000
vt 0.940741 0.000000
vt 0.948148 1.000000
vt 0.992593 0.000000
vt 0.962963 1.000000
vt 0.992593 1.000000
vt 1.000000 1.000000
vt 0.014815 1.000000
vt 0.029630 0.000000
vt 0.014815 0.000000
vt 0.059259 1.000000
vt 0.029630 1.000000
vt 0.088889 1.000000
vt 0.059259 0.000000
vt 0.185185 1.000000
vt 0.192593 1.000000
vt 0.192593 0.000000
vt 0.207407 0.000000
vt 0.207407 1.000000
vt 0.392593 0.000000
vt 0.370370 0.000000
vt 0.274074 0.000000
vt 0.373134 0.000000
vt 0.276119 0.000000
vt 0.514925 0.000000
vt 0.268657 0.000000
vt 0.000000 0.000000
vt 0.529851 0.000000
vt 0.208955 0.000000
vt 0.029851 0.000000
vt 0.201493 0.000000
vt 0.059701 0.000000
vt 0.007463 0.000000
vt 0.194030 0.000000
vt 0.186567 0.000000
vt 0.089552 0.000000
vt 0.014925 0.000000
vt 0.380597 0.000000
vt 0.485075 0.000000
vt 0.455224 0.000000
vt 0.395522 0.000000
vt 0.462687 0.000000
vt 0.470149 0.000000
vt 0.477612 0.000000
vt 0.544776 0.000000
vt 1.000000 0.000000
vt 0.641791 0.000000
vt 0.970149 0.000000
vt 0.962687 0.000000
vt 0.955224 0.000000
vt 0.947761 0.000000
vt 0.723881 0.000000
vt 0.880597 0.000000
vt 0.731343 0.000000
vt 0.910448 0.000000
vt 0.708955 0.000000
vt 0.902985 0.000000
vt 0.895522 0.000000
vt 0.716418 0.000000
vt 0.738806 0.000000
vt 0.873134 0.000000
vt 0.746269 0.000000
vt 0.865672 0.000000
vt 0.753731 0.000000
vt 0.858209 0.000000
vt 0.850746 0.000000
vt 0.768657 0.000000
vt 0.843284 0.000000
vt 0.783582 0.000000
vt 0.835821 0.000000
vt 0.798507 0.000000
vt 0.828358 0.000000
vt 0.820895 0.000000
vt 0.813433 0.000000
vt 0.552239 0.000000
vt 0.559702 0.000000
vt 0.567164 0.000000
vt 0.574627 0.000000
vt 0.582090 0.000000
vt 0.597015 0.000000
vt 0.701493 0.000000
vt 0.694030 0.000000
vt 0.611940 0.000000
vt 0.626866 0.000000
vt 0.686567 0.000000
vt 0.679105 0.000000
vt 0.671642 0.000000
vt 0.649254 0.000000
vt 0.813433 0.000000
vt 0.820895 0.000000
vt 0.828358 0.000000
vt 0.835821 0.000000
vt 0.798507 0.000000
vt 0.843284 0.000000
vt 0.783582 0.000000
vt 0.850746 0.000000
vt 0.858209 0.000000
vt 0.768657 0.000000
vt 0.865672 0.000000
vt 0.753731 0.000000
vt 0.873134 0.000000
vt 0.746269 0.000000
vt 0.880597 0.000000
vt 0.738806 0.000000
vt 0.895522 0.000000
vt 0.723881 0.000000
vt 0.902985 0.000000
vt 0.716418 0.000000
vt 0.910448 0.000000
vt 0.708955 0.000000
vt 0.947761 0.000000
vt 0.955224 0.000000
vt 0.962687 0.000000
vt 0.970149 0.000000
vt 1.000000 0.000000
vt 0.000000 0.000000
vt 0.731343 0.000000
vt 0.059701 0.000000
vt 0.089552 0.000000
vt 0.186567 0.000000
vt 0.194030 0.000000
vt 0.201493 0.000000
vt 0.208955 0.000000
vt 0.268657 0.000000
vt 0.029851 0.000000
vt 0.276119 0.000000
vt 0.373134 0.000000
vt 0.514925 0.000000
vt 0.529851 0.000000
vt 0.380597 0.000000
vt 0.485075 0.000000
vt 0.395522 0.000000
vt 0.455224 0.000000
vt 0.462687 0.000000
vt 0.470149 0.000000
vt 0.544776 0.000000
vt 0.014925 0.000000
vt 0.007463 0.000000
vt 0.477612 0.000000
vt 0.552239 0.000000
vt 0.559702 0.000000
vt 0.567164 0.000000
vt 0.574627 0.000000
vt 0.701493 0.000000
vt 0.694030 0.000000
vt 0.582090 0.000000
vt 0.597015 0.000000
vt 0.686567 0.000000
vt 0.679105 0.000000
vt 0.611940 0.000000
vt 0.626866 0.000000
vt 0.671642 0.000000
vt 0.664179 0.000000
vt 0.656716 0.000000
vt 0.474074 1.000000
vt 0.474074 0.000000
vt 0.481481 0.000000
vt 0.459259 0.000000
vt 0.577778 0.000000
vt 0.637037 0.000000
vt 0.644444 1.000000
vt 0.651852 1.000000
vt 0.659259 1.000000
vt 0.666667 1.000000
vt 0.644444 0.000000
vt 0.674074 1.000000
vt 0.651852 0.000000
vt 0.659259 0.000000
vt 0.688889 1.000000
vt 0.696296 1.000000
vt 0.674074 0.000000
vt 0.666667 0.000000
vt 0.681481 0.000000
vt 0.748148 1.000000
vt 0.762963 1.000000
vt 0.762963 0.000000
vt 0.777778 1.000000
vt 0.777778 0.000000
vt 0.792593 0.000000
vt 0.792593 1.000000
vt 0.807407 1.000000
vt 0.807407 0.000000
vt 0.814815 1.000000
vt 0.814815 0.000000
vt 0.740741 1.000000
vt 0.748148 0.000000
vt 0.733333 1.000000
vt 0.718518 1.000000
vt 0.725926 1.000000
vt 0.733333 0.000000
vt 0.740741 0.000000
vt 0.711111 1.000000
vt 0.718518 0.000000
vt 0.725926 0.000000
vt 0.859259 1.000000
vt 0.866667 1.000000
vt 0.859259 0.000000
vt 0.866667 0.000000
vt 0.874074 0.000000
vt 0.851852 0.000000
vt 0.844444 0.000000
vt 0.851852 1.000000
vt 0.844444 1.000000
vt 0.837037 0.000000
vt 0.837037 1.000000
vt 0.822222 0.000000
vt 0.896296 1.000000
vt 0.896296 0.000000
vt 0.903704 0.000000
vt 0.940741 1.000000
vt 0.955556 1.000000
vt 0.962963 0.000000
vt 0.955556 0.000000
vt 1.000000 0.000000
vt 0.000000 1.000000
vt 0.007407 1.000000
vt 0.007407 0.000000
vt 0.088889 0.000000
vt 0.200000 1.000000
vt 0.200000 0.000000
vt 0.185185 0.000000
vn -0.9998 0.0204 0.0000
vn -0.9983 0.0584 0.0000
vn -0.0000 -0.0000 1.0000
vn 0.0000 -1.0000 -0.0000
vn 0.0000 0.0000 -1.0000
vn -0.9817 0.1906 0.0000
vn -0.9910 0.1342 0.0000
vn -0.1861 0.9825 0.0000
vn -0.2145 0.9767 0.0000
vn -0.4123 0.9110 0.0000
vn -0.3051 0.9523 0.0000
vn -0.5212 0.8535 0.0000
vn -0.6104 0.7921 0.0000
vn -0.6873 0.7264 0.0000
vn -0.7527 0.6583 0.0000
vn -0.8106 0.5856 0.0000
vn -0.8600 0.5102 0.0000
vn -0.9091 0.4166 0.0000
vn -0.9566 0.2913 0.0000
vn -0.9869 0.1615 0.0000
vn -0.9987 0.0507 0.0000
vn -1.0000 0.0002 0.0000
vn -0.0692 -0.9976 0.0007
vn -0.0426 -0.9991 -0.0001
vn -0.0551 -0.9985 -0.0001
vn -0.0197 -0.9998 -0.0001
vn -0.0307 -0.9995 0.0000
vn -0.0307 -0.9995 0.0001
vn -0.9976 0.0697 0.0000
vn -0.9964 0.0848 0.0000
vn -0.9667 0.2558 0.0000
vn -0.9770 0.2133 0.0000
vn -0.2470 0.9690 0.0000
vn -0.2798 0.9601 0.0000
vn -0.1757 0.9844 0.0000
vn -0.2011 0.9796 0.0000
vn -0.0791 0.9969 0.0000
vn -0.1088 0.9941 0.0000
vn 1.0000 0.0000 0.0000
vn 0.3039 0.9527 0.0000
vn 0.2268 0.9739 0.0000
vn 0.1152 0.9933 0.0000
vn 0.0543 0.9985 0.0000
vn 0.9999 -0.0171 -0.0000
vn 0.9991 -0.0427 -0.0000
vn 0.9991 -0.0428 0.0002
vn 0.9912 -0.1322 -0.0000
vn 0.9949 -0.1011 -0.0000
vn 0.9949 -0.1011 -0.0001
vn -1.0000 0.0013 0.0000
vn -0.2449 0.9695 0.0000
vn -0.1723 0.9850 0.0000
vn -0.1672 -0.9859 0.0000
vn -0.1564 -0.9877 0.0001
vn -0.1670 -0.9860 -0.0003
vn -0.1358 -0.9907 0.0003
vn -0.1168 -0.9932 0.0005
vn -0.0993 -0.9951 0.0011
vn -0.1560 -0.9878 -0.0009
vn -0.0836 -0.9965 0.0014
vn -0.1358 -0.9907 -0.0015
vn -0.1172 -0.9931 -0.0011
vn -0.0552 -0.9985 0.0001
vn -0.0425 -0.9991 0.0000
vn -0.0836 -0.9965 -0.0001
vn -0.0997 -0.9950 -0.0005
vn -0.0688 -0.9976 0.0000
vn 0.0146 -0.9999 0.0000
vn 0.0221 -0.9998 0.0000
vn 0.0304 -0.9995 0.0000
vn 0.0384 -0.9993 0.0000
vn 0.0452 -0.9990 0.0000
vn 0.0481 -0.9988 0.0000
vn 0.0091 -1.0000 0.0000
vn 0.0145 -0.9999 -0.0000
vn 0.0046 -1.0000 0.0001
vn -0.0102 -0.9999 0.0002
vn -0.0018 -1.0000 0.0001
vn 0.0046 -1.0000 -0.0001
vn 0.0091 -1.0000 -0.0001
vn -0.0198 -0.9998 0.0002
vn -0.0102 -0.9999 -0.0002
vn -0.0018 -1.0000 -0.0002
vn -0.9873 0.1589 0.0000
vn -0.9834 0.1816 0.0000
vn -0.9904 0.1381 0.0000
vn -0.9929 0.1189 0.0000
vn -0.9949 0.1012 0.0000
vn -0.9981 0.0624 0.0000
vn -0.9554 0.2953 0.0000
vn -0.9501 0.3120 0.0000
vn -0.1508 0.9886 0.0000
vn 0.3665 0.9304 0.0000
vn 0.3485 0.9373 0.0000
vn 0.9981 -0.0613 -0.0001
vn 0.9981 -0.0611 0.0002
vn 1.0000 -0.0012 -0.0000
usemtl Material.004
s 1
f 2/1/1 12/2/2 7/3/2
f 89/4/3 47/5/3 46/6/3
f 1/7/4 5/8/4 3/9/4
f 42/10/5 62/11/5 87/12/5
f 9/13/6 10/14/7 11/15/6
f 13/16/8 14/17/9 21/18/9
f 19/19/10 16/20/11 17/21/10
f 23/22/12 17/21/10 25/23/12
f 24/24/13 25/23/12 26/25/13
f 27/26/14 24/24/13 26/25/13
f 28/27/15 29/28/14 27/26/14
f 33/29/16 30/30/15 28/27/15
f 34/31/17 31/32/16 33/29/16
f 35/33/18 32/34/17 34/31/17
f 39/35/19 35/33/18 37/36/19
f 40/37/20 37/36/19 38/38/20
f 41/39/21 38/38/20 43/40/21
f 44/41/22 41/39/21 43/40/21
f 50/42/23 54/43/24 56/44/25
f 63/45/26 55/46/27 53/47/28
f 128/48/29 127/49/30 76/50/30
f 84/51/31 83/52/32 91/53/31
f 87/54/33 88/55/34 89/56/33
f 100/57/35 101/58/36 93/59/35
f 98/60/37 95/61/38 96/62/37
f 103/63/39 98/60/39 96/62/39
f 109/64/40 106/65/41 105/66/40
f 110/67/42 106/65/41 108/68/41
f 111/69/43 107/70/42 110/67/42
f 112/71/44 120/72/45 115/73/46
f 3/9/47 117/74/48 118/75/49
f 12/2/2 10/14/7 8/76/7
f 7/3/2 6/77/1 2/1/1
f 6/77/1 4/78/50 2/1/1
f 12/2/2 8/76/7 7/3/2
f 4/78/50 1/7/50 2/1/1
f 2/79/3 1/80/3 17/81/3
f 1/80/3 3/82/3 103/83/3
f 17/81/3 1/80/3 25/84/3
f 3/82/3 118/85/3 108/86/3
f 118/85/3 119/87/3 110/88/3
f 3/82/3 121/89/3 103/83/3
f 119/87/3 120/90/3 110/88/3
f 120/90/3 112/91/3 110/88/3
f 112/91/3 111/92/3 110/88/3
f 110/88/3 108/86/3 118/85/3
f 121/89/3 3/82/3 109/93/3
f 109/93/3 3/82/3 108/86/3
f 12/94/3 2/79/3 16/95/3
f 11/96/3 10/97/3 13/98/3
f 10/97/3 12/94/3 16/95/3
f 13/98/3 10/97/3 14/99/3
f 14/99/3 10/97/3 15/100/3
f 2/79/3 17/81/3 16/95/3
f 15/100/3 10/97/3 16/95/3
f 1/80/3 103/83/3 26/101/3
f 103/83/3 96/102/3 44/103/3
f 96/102/3 95/104/3 44/103/3
f 95/104/3 94/105/3 44/103/3
f 94/105/3 93/106/3 44/103/3
f 93/106/3 92/107/3 44/103/3
f 92/107/3 89/4/3 44/103/3
f 137/108/3 83/109/3 136/110/3
f 89/4/3 88/111/3 53/112/3
f 88/111/3 90/113/3 53/112/3
f 90/113/3 91/114/3 138/115/3
f 91/114/3 83/109/3 137/108/3
f 135/116/3 122/117/3 134/118/3
f 83/109/3 122/117/3 135/116/3
f 122/117/3 123/119/3 134/118/3
f 134/118/3 123/119/3 133/120/3
f 123/119/3 124/121/3 133/120/3
f 124/121/3 125/122/3 132/123/3
f 125/122/3 126/124/3 131/125/3
f 126/124/3 127/126/3 131/125/3
f 131/125/3 127/126/3 130/127/3
f 127/126/3 128/128/3 130/127/3
f 128/128/3 74/129/3 129/130/3
f 128/128/3 129/130/3 130/127/3
f 124/121/3 132/123/3 133/120/3
f 83/109/3 135/116/3 136/110/3
f 25/84/3 1/80/3 26/101/3
f 125/122/3 131/125/3 132/123/3
f 27/131/3 26/101/3 103/83/3
f 28/132/3 27/131/3 103/83/3
f 91/114/3 137/108/3 138/115/3
f 33/133/3 28/132/3 103/83/3
f 34/134/3 33/133/3 103/83/3
f 90/113/3 138/115/3 53/112/3
f 35/135/3 34/134/3 103/83/3
f 37/136/3 35/135/3 103/83/3
f 89/4/3 53/112/3 52/137/3
f 89/4/3 52/137/3 51/138/3
f 38/139/3 37/136/3 103/83/3
f 43/140/3 38/139/3 103/83/3
f 89/4/3 51/138/3 50/141/3
f 89/4/3 50/141/3 49/142/3
f 43/140/3 103/83/3 44/103/3
f 89/4/3 49/142/3 48/143/3
f 89/4/3 48/143/3 47/5/3
f 45/144/3 44/103/3 89/4/3
f 46/6/3 45/144/3 89/4/3
f 1/7/4 4/78/4 5/8/4
f 72/145/5 73/146/5 75/147/5
f 75/147/5 76/148/5 71/149/5
f 76/148/5 77/150/5 70/151/5
f 71/149/5 76/148/5 70/151/5
f 77/150/5 78/152/5 70/151/5
f 78/152/5 79/153/5 69/154/5
f 79/153/5 80/155/5 68/156/5
f 80/155/5 81/157/5 67/158/5
f 79/153/5 68/156/5 69/154/5
f 81/157/5 82/159/5 66/160/5
f 82/159/5 84/161/5 64/162/5
f 84/161/5 85/163/5 63/164/5
f 85/163/5 86/165/5 55/166/5
f 86/165/5 87/12/5 55/166/5
f 87/12/5 101/167/5 42/10/5
f 101/167/5 100/168/5 42/10/5
f 100/168/5 99/169/5 42/10/5
f 84/161/5 63/164/5 64/162/5
f 99/169/5 97/170/5 42/10/5
f 97/170/5 98/171/5 42/10/5
f 98/171/5 102/172/5 42/10/5
f 66/160/5 82/159/5 65/173/5
f 65/173/5 82/159/5 64/162/5
f 67/158/5 81/157/5 66/160/5
f 78/152/5 69/154/5 70/151/5
f 72/145/5 75/147/5 71/149/5
f 107/174/5 113/175/5 114/176/5
f 114/176/5 115/177/5 107/174/5
f 115/177/5 116/178/5 107/174/5
f 116/178/5 117/179/5 107/174/5
f 117/179/5 5/180/5 106/181/5
f 5/180/5 4/182/5 102/172/5
f 4/182/5 6/183/5 19/184/5
f 23/185/5 4/182/5 19/184/5
f 6/183/5 7/186/5 18/187/5
f 7/186/5 8/188/5 18/187/5
f 8/188/5 9/189/5 22/190/5
f 8/188/5 22/190/5 21/191/5
f 4/182/5 23/185/5 24/192/5
f 117/179/5 106/181/5 107/174/5
f 105/193/5 106/181/5 5/180/5
f 105/193/5 5/180/5 104/194/5
f 8/188/5 21/191/5 20/195/5
f 8/188/5 20/195/5 18/187/5
f 104/194/5 5/180/5 102/172/5
f 18/187/5 19/184/5 6/183/5
f 102/172/5 4/182/5 24/192/5
f 68/156/5 80/155/5 67/158/5
f 63/164/5 85/163/5 55/166/5
f 102/172/5 24/192/5 29/196/5
f 102/172/5 29/196/5 30/197/5
f 102/172/5 30/197/5 31/198/5
f 102/172/5 31/198/5 32/199/5
f 55/166/5 87/12/5 54/200/5
f 54/200/5 87/12/5 56/201/5
f 102/172/5 32/199/5 36/202/5
f 102/172/5 36/202/5 39/203/5
f 56/201/5 87/12/5 57/204/5
f 57/204/5 87/12/5 58/205/5
f 102/172/5 39/203/5 40/206/5
f 102/172/5 40/206/5 41/207/5
f 58/205/5 87/12/5 59/208/5
f 59/208/5 87/12/5 60/209/5
f 102/172/5 41/207/5 42/10/5
f 60/209/5 87/12/5 61/210/5
f 61/210/5 87/12/5 62/11/5
f 9/13/6 8/76/7 10/14/7
f 14/17/9 15/211/51 21/18/9
f 15/211/51 16/20/11 20/212/51
f 21/18/9 15/211/51 20/212/51
f 16/20/11 18/213/11 20/212/51
f 21/18/9 22/214/8 13/16/8
f 22/214/8 9/13/52 11/15/52
f 11/15/52 13/16/8 22/214/8
f 19/19/10 18/213/11 16/20/11
f 23/22/12 19/19/10 17/21/10
f 24/24/13 23/22/12 25/23/12
f 27/26/14 29/28/14 24/24/13
f 28/27/15 30/30/15 29/28/14
f 33/29/16 31/32/16 30/30/15
f 34/31/17 32/34/17 31/32/16
f 35/33/18 36/215/18 32/34/17
f 39/35/19 36/215/18 35/33/18
f 40/37/20 39/35/19 37/36/19
f 41/39/21 40/37/20 38/38/20
f 44/41/22 42/216/22 41/39/21
f 44/41/53 45/217/54 42/216/55
f 45/217/54 46/218/56 42/216/55
f 47/219/57 48/220/58 62/221/59
f 48/220/58 49/222/60 62/221/59
f 49/222/60 50/42/23 61/223/61
f 62/221/59 49/222/60 61/223/61
f 42/216/55 46/218/56 62/221/59
f 46/218/56 47/219/57 62/221/59
f 60/224/62 61/223/61 50/42/23
f 50/42/23 51/225/63 54/43/24
f 51/225/63 52/226/64 54/43/24
f 58/227/65 59/228/66 50/42/23
f 59/228/66 60/224/62 50/42/23
f 56/44/25 57/229/67 50/42/23
f 57/229/67 58/227/65 50/42/23
f 133/230/68 132/231/69 69/232/69
f 132/231/69 131/233/70 70/234/70
f 71/235/71 131/233/70 130/236/71
f 130/236/71 129/237/72 72/238/72
f 129/237/72 74/239/73 73/240/73
f 134/241/74 133/230/68 68/242/75
f 131/233/70 71/235/71 70/234/70
f 129/237/72 73/240/73 72/238/72
f 135/243/76 134/241/74 68/242/75
f 72/238/72 71/235/71 130/236/71
f 133/230/68 69/232/69 68/242/75
f 137/244/77 136/245/78 66/246/79
f 136/245/78 135/243/76 67/247/80
f 132/231/69 70/234/70 69/232/69
f 53/47/28 138/248/81 64/249/82
f 138/248/81 137/244/77 65/250/83
f 66/246/79 136/245/78 67/247/80
f 68/242/75 67/247/80 135/243/76
f 54/43/24 52/226/64 53/47/28
f 66/246/79 65/250/83 137/244/77
f 65/250/83 64/249/82 138/248/81
f 55/46/27 54/43/24 53/47/28
f 64/249/82 63/45/26 53/47/28
f 123/251/84 122/252/85 80/253/84
f 122/252/85 83/52/32 81/254/85
f 80/253/84 122/252/85 81/254/85
f 83/52/32 82/255/32 81/254/85
f 80/253/84 79/256/86 123/251/84
f 79/256/86 78/257/87 124/258/86
f 123/251/84 79/256/86 124/258/86
f 125/259/87 124/258/86 78/257/87
f 78/257/87 77/260/88 125/259/87
f 77/260/88 76/50/30 126/261/88
f 125/259/87 77/260/88 126/261/88
f 127/49/30 126/261/88 76/50/30
f 76/50/30 75/262/29 128/48/29
f 75/262/29 73/240/89 74/239/89
f 74/239/89 128/48/29 75/262/29
f 91/53/31 90/263/90 84/51/31
f 90/263/90 88/55/91 85/264/90
f 84/51/31 90/263/90 85/264/90
f 88/55/91 86/265/91 85/264/90
f 84/51/31 82/255/32 83/52/32
f 87/54/33 86/265/34 88/55/34
f 89/56/33 92/266/36 87/54/33
f 92/266/36 93/59/35 101/58/36
f 87/54/33 92/266/36 101/58/36
f 94/267/92 95/61/38 97/268/38
f 93/59/35 94/267/92 99/269/92
f 94/267/92 97/268/38 99/269/92
f 99/269/92 100/57/35 93/59/35
f 98/60/37 97/268/38 95/61/38
f 103/63/39 102/270/39 98/60/39
f 103/271/93 121/272/94 102/172/93
f 121/272/94 109/64/40 104/273/94
f 102/172/93 121/272/94 104/273/94
f 109/64/40 108/68/41 106/65/41
f 105/66/40 104/273/94 109/64/40
f 110/67/42 107/70/42 106/65/41
f 111/69/43 113/274/43 107/70/42
f 120/72/45 119/275/95 115/73/46
f 119/275/95 118/75/49 115/73/46
f 118/75/49 117/74/48 116/276/96
f 115/73/46 114/277/44 112/71/44
f 114/277/44 113/274/97 111/69/97
f 118/75/49 116/276/96 115/73/46
f 111/69/97 112/71/44 114/277/44
f 3/9/47 5/8/47 117/74/48
