# Blender v2.92.0 OBJ File: 'letters.blend'
# www.blender.org
mtllib Z_.mtl
o Z__Curve.058
v -0.035874 0.050794 0.050000
v 0.080343 0.050875 0.050000
v 0.149523 0.367619 0.050000
v -0.035874 0.050794 -0.050000
v 0.149523 0.367619 -0.050000
v 0.080343 0.050875 -0.050000
v 0.087538 0.051528 -0.050000
v 0.094100 0.052833 -0.050000
v 0.087538 0.051528 0.050000
v 0.094100 0.052833 0.050000
v 0.100026 0.054791 0.050000
v 0.105317 0.057401 0.050000
v 0.100026 0.054791 -0.050000
v 0.105317 0.057401 -0.050000
v 0.109972 0.060664 -0.050000
v 0.112063 0.062540 -0.050000
v 0.109972 0.060664 0.050000
v 0.112063 0.062540 0.050000
v 0.114029 0.064645 0.050000
v 0.115908 0.067046 0.050000
v 0.114029 0.064645 -0.050000
v 0.115908 0.067046 -0.050000
v 0.119401 0.072734 -0.050000
v 0.122540 0.079604 -0.050000
v 0.119401 0.072734 0.050000
v 0.122540 0.079604 0.050000
v 0.125327 0.087655 0.050000
v 0.129840 0.107302 0.050000
v 0.125327 0.087655 -0.050000
v 0.129840 0.107302 -0.050000
v 0.134390 0.107143 -0.050000
v 0.136586 0.106945 -0.050000
v 0.138729 0.106667 -0.050000
v 0.140818 0.106310 -0.050000
v 0.138729 0.106667 0.050000
v 0.136586 0.106945 0.050000
v 0.140818 0.106310 0.050000
v 0.142855 0.105873 0.050000
v 0.144839 0.105357 0.050000
v 0.146770 0.104762 0.050000
v 0.150473 0.103333 0.050000
v 0.146770 0.104762 -0.050000
v 0.144839 0.105357 -0.050000
v 0.150473 0.103333 -0.050000
v 0.153967 0.101587 -0.050000
v 0.153403 0.062363 -0.050000
v 0.153967 0.101587 0.050000
v 0.153403 0.062363 0.050000
v 0.152697 0.044762 0.050000
v 0.151709 0.028501 0.050000
v 0.150439 0.013580 0.050000
v 0.149698 0.006622 0.050000
v 0.148888 0.000000 0.050000
v -0.147620 0.000000 0.050000
v 0.148888 0.000000 -0.050000
v 0.149698 0.006622 -0.050000
v -0.147620 0.000000 -0.050000
v -0.149559 0.005785 -0.050000
v -0.150397 0.008572 -0.050000
v -0.151146 0.011288 -0.050000
v -0.152380 0.016508 -0.050000
v -0.151146 0.011288 0.050000
v -0.150397 0.008572 0.050000
v -0.152380 0.016508 0.050000
v -0.152866 0.019012 0.050000
v -0.153263 0.021446 0.050000
v -0.153924 0.028325 0.050000
v -0.153263 0.021446 -0.050000
v -0.153924 0.028325 -0.050000
v -0.152866 0.019012 -0.050000
v -0.153968 0.045079 -0.050000
v 0.031428 0.362540 -0.050000
v -0.153968 0.045079 0.050000
v 0.031428 0.362540 0.050000
v -0.078973 0.362456 0.050000
v -0.085993 0.361786 0.050000
v -0.078973 0.362456 -0.050000
v -0.085993 0.361786 -0.050000
v -0.092412 0.360445 -0.050000
v -0.098233 0.358435 -0.050000
v -0.092412 0.360445 0.050000
v -0.098233 0.358435 0.050000
v -0.103453 0.355754 0.050000
v -0.108074 0.352403 0.050000
v -0.103453 0.355754 -0.050000
v -0.108074 0.352403 -0.050000
v -0.110159 0.350476 -0.050000
v -0.114039 0.345873 -0.050000
v -0.110159 0.350476 0.050000
v -0.114039 0.345873 0.050000
v -0.117636 0.340106 0.050000
v -0.120951 0.333175 0.050000
v -0.117636 0.340106 -0.050000
v -0.120951 0.333175 -0.050000
v -0.123984 0.325079 -0.050000
v -0.125395 0.320595 -0.050000
v -0.123984 0.325079 0.050000
v -0.125395 0.320595 0.050000
v -0.126736 0.315820 0.050000
v -0.128006 0.310754 0.050000
v -0.129207 0.305397 0.050000
v -0.137249 0.305961 0.050000
v -0.129207 0.305397 -0.050000
v -0.128006 0.310754 -0.050000
v -0.137249 0.305961 -0.050000
v -0.145290 0.307654 -0.050000
v -0.153334 0.310476 -0.050000
v -0.145290 0.307654 0.050000
v -0.153334 0.310476 0.050000
v -0.147620 0.412699 0.050000
v -0.147620 0.412699 -0.050000
v 0.143174 0.412699 0.050000
v 0.144188 0.409872 0.050000
v 0.143174 0.412699 -0.050000
v 0.144188 0.409872 -0.050000
v 0.145114 0.407108 -0.050000
v 0.145953 0.404405 -0.050000
v 0.146702 0.401764 -0.050000
v 0.146702 0.401764 0.050000
v 0.147364 0.399184 -0.050000
v 0.147937 0.396667 -0.050000
v 0.148423 0.394211 -0.050000
v 0.148819 0.391817 -0.050000
v 0.149128 0.389484 -0.050000
v 0.148819 0.391817 0.050000
v 0.148423 0.394211 0.050000
v 0.149128 0.389484 0.050000
v 0.149349 0.387213 0.050000
v 0.149481 0.385005 0.050000
v 0.149481 0.385005 -0.050000
v 0.149349 0.387213 -0.050000
v 0.147937 0.396667 0.050000
v 0.147364 0.399184 0.050000
v 0.145953 0.404405 0.050000
v 0.145114 0.407108 0.050000
v -0.126736 0.315820 -0.050000
v -0.149559 0.005785 0.050000
v 0.150439 0.013580 -0.050000
v 0.151709 0.028501 -0.050000
v 0.152697 0.044762 -0.050000
v 0.142855 0.105873 -0.050000
v 0.134390 0.107143 0.050000
vt 0.013333 0.000000
vt 0.000000 1.000000
vt 0.013333 1.000000
vt 0.832215 0.000000
vt 0.516779 0.000000
vt 0.503356 0.000000
vt 1.000000 1.000000
vt 0.993333 0.000000
vt 0.993333 1.000000
vt 0.516779 0.000000
vt 0.832215 0.000000
vt 0.503356 0.000000
vt 0.026667 0.000000
vt 0.026667 1.000000
vt 0.040000 0.000000
vt 0.040000 1.000000
vt 0.053333 0.000000
vt 0.053333 1.000000
vt 0.066667 0.000000
vt 0.066667 1.000000
vt 0.080000 0.000000
vt 0.080000 1.000000
vt 0.086667 1.000000
vt 0.093333 1.000000
vt 0.086667 0.000000
vt 0.100000 1.000000
vt 0.093333 0.000000
vt 0.113333 0.000000
vt 0.113333 1.000000
vt 0.126667 0.000000
vt 0.126667 1.000000
vt 0.140000 0.000000
vt 0.140000 1.000000
vt 0.166667 0.000000
vt 0.166667 1.000000
vt 0.180000 0.000000
vt 0.180000 1.000000
vt 0.200000 1.000000
vt 0.206667 1.000000
vt 0.206667 0.000000
vt 0.233333 1.000000
vt 0.220000 0.000000
vt 0.220000 1.000000
vt 0.246667 1.000000
vt 0.233333 0.000000
vt 0.300000 0.000000
vt 0.286667 0.000000
vt 0.300000 1.000000
vt 0.333333 1.000000
vt 0.326667 0.000000
vt 0.326667 1.000000
vt 0.346667 0.000000
vt 0.346667 1.000000
vt 0.373333 0.000000
vt 0.360000 1.000000
vt 0.373333 1.000000
vt 0.406667 0.000000
vt 0.386667 1.000000
vt 0.406667 1.000000
vt 0.493333 1.000000
vt 0.500000 1.000000
vt 0.493333 0.000000
vt 0.513333 0.000000
vt 0.513333 1.000000
vt 0.526667 1.000000
vt 0.540000 1.000000
vt 0.526667 0.000000
vt 0.553333 1.000000
vt 0.540000 0.000000
vt 0.566667 1.000000
vt 0.553333 0.000000
vt 0.580000 1.000000
vt 0.566667 0.000000
vt 0.586667 1.000000
vt 0.580000 0.000000
vt 0.600000 1.000000
vt 0.586667 0.000000
vt 0.613333 1.000000
vt 0.600000 0.000000
vt 0.626667 1.000000
vt 0.613333 0.000000
vt 0.640000 1.000000
vt 0.626667 0.000000
vt 0.653333 0.000000
vt 0.646667 0.000000
vt 0.653333 1.000000
vt 0.693333 0.000000
vt 0.666667 1.000000
vt 0.693333 1.000000
vt 0.720000 0.000000
vt 0.720000 1.000000
vt 0.746667 0.000000
vt 0.746667 1.000000
vt 0.826667 1.000000
vt 0.833333 1.000000
vt 0.826667 0.000000
vt 0.840000 1.000000
vt 0.846667 1.000000
vt 0.846667 0.000000
vt 0.866667 1.000000
vt 0.873333 1.000000
vt 0.873333 0.000000
vt 0.900000 1.000000
vt 0.906667 0.000000
vt 0.900000 0.000000
vt 0.906667 1.000000
vt 0.000000 0.000000
vt 0.275168 0.000000
vt 0.248322 0.000000
vt 0.140940 0.000000
vt 0.234899 0.000000
vt 0.221477 0.000000
vt 0.214765 0.000000
vt 0.208054 0.000000
vt 0.201342 0.000000
vt 0.194631 0.000000
vt 0.187919 0.000000
vt 0.181208 0.000000
vt 0.167785 0.000000
vt 0.302013 0.000000
vt 0.288591 0.000000
vt 0.080537 0.000000
vt 0.100671 0.000000
vt 0.114094 0.000000
vt 0.322148 0.000000
vt 0.315436 0.000000
vt 0.040268 0.000000
vt 0.053691 0.000000
vt 0.087248 0.000000
vt 0.093960 0.000000
vt 0.335570 0.000000
vt 0.328859 0.000000
vt 0.000000 0.000000
vt 0.013423 0.000000
vt 0.355705 0.000000
vt 0.348993 0.000000
vt 0.375839 0.000000
vt 0.362416 0.000000
vt 0.389262 0.000000
vt 0.382550 0.000000
vt 0.496644 0.000000
vt 0.409396 0.000000
vt 0.127517 0.000000
vt 0.697987 0.000000
vt 0.671141 0.000000
vt 0.664430 0.000000
vt 0.751678 0.000000
vt 0.724832 0.000000
vt 0.651007 0.000000
vt 0.657718 0.000000
vt 0.845638 0.000000
vt 0.838926 0.000000
vt 0.859060 0.000000
vt 0.852349 0.000000
vt 0.872483 0.000000
vt 0.865772 0.000000
vt 0.885906 0.000000
vt 0.879195 0.000000
vt 0.899329 0.000000
vt 0.892617 0.000000
vt 0.912752 0.000000
vt 0.906040 0.000000
vt 1.000000 0.000000
vt 0.617450 0.000000
vt 0.644295 0.000000
vt 0.630872 0.000000
vt 0.067114 0.000000
vt 0.604027 0.000000
vt 0.590604 0.000000
vt 0.583893 0.000000
vt 0.570470 0.000000
vt 0.026846 0.000000
vt 0.557047 0.000000
vt 0.543624 0.000000
vt 0.530201 0.000000
vt 1.000000 0.000000
vt 0.838926 0.000000
vt 0.845638 0.000000
vt 0.852349 0.000000
vt 0.859060 0.000000
vt 0.865772 0.000000
vt 0.872483 0.000000
vt 0.879195 0.000000
vt 0.885906 0.000000
vt 0.892617 0.000000
vt 0.899329 0.000000
vt 0.906040 0.000000
vt 0.912752 0.000000
vt 1.000000 0.000000
vt 0.724832 0.000000
vt 0.751678 0.000000
vt 0.651007 0.000000
vt 0.617450 0.000000
vt 0.657718 0.000000
vt 0.671141 0.000000
vt 0.697987 0.000000
vt 0.664430 0.000000
vt 0.644295 0.000000
vt 0.140940 0.000000
vt 0.167785 0.000000
vt 0.181208 0.000000
vt 0.187919 0.000000
vt 0.194631 0.000000
vt 0.201342 0.000000
vt 0.208054 0.000000
vt 0.214765 0.000000
vt 0.221477 0.000000
vt 0.234899 0.000000
vt 0.248322 0.000000
vt 0.275168 0.000000
vt 0.288591 0.000000
vt 0.100671 0.000000
vt 0.127517 0.000000
vt 0.114094 0.000000
vt 0.302013 0.000000
vt 0.080537 0.000000
vt 0.315436 0.000000
vt 0.053691 0.000000
vt 0.093960 0.000000
vt 0.322148 0.000000
vt 0.040268 0.000000
vt 0.328859 0.000000
vt 0.026846 0.000000
vt 0.335570 0.000000
vt 0.348993 0.000000
vt 0.355705 0.000000
vt 0.362416 0.000000
vt 0.375839 0.000000
vt 0.382550 0.000000
vt 0.389262 0.000000
vt 0.409396 0.000000
vt 0.496644 0.000000
vt 0.087248 0.000000
vt 0.013423 0.000000
vt 0.630872 0.000000
vt 0.067114 0.000000
vt 0.604027 0.000000
vt 0.590604 0.000000
vt 0.583893 0.000000
vt 0.570470 0.000000
vt 0.557047 0.000000
vt 0.543624 0.000000
vt 0.530201 0.000000
vt 0.100000 0.000000
vt 0.186667 1.000000
vt 0.193333 1.000000
vt 0.186667 0.000000
vt 0.193333 0.000000
vt 0.213333 1.000000
vt 0.213333 0.000000
vt 0.200000 0.000000
vt 0.246667 0.000000
vt 0.273333 1.000000
vt 0.286667 1.000000
vt 0.273333 0.000000
vt 0.313333 1.000000
vt 0.320000 1.000000
vt 0.320000 0.000000
vt 0.313333 0.000000
vt 0.333333 0.000000
vt 0.353333 1.000000
vt 0.353333 0.000000
vt 0.360000 0.000000
vt 0.380000 1.000000
vt 0.380000 0.000000
vt 0.386667 0.000000
vt 0.500000 0.000000
vt 0.640000 0.000000
vt 0.646667 1.000000
vt 0.660000 1.000000
vt 0.666667 0.000000
vt 0.660000 0.000000
vt 0.833333 0.000000
vt 0.853333 1.000000
vt 0.860000 1.000000
vt 0.853333 0.000000
vt 0.860000 0.000000
vt 0.840000 0.000000
vt 0.880000 1.000000
vt 0.886667 1.000000
vt 0.880000 0.000000
vt 0.886667 0.000000
vt 0.866667 0.000000
vt 0.893333 1.000000
vt 0.893333 0.000000
vn -0.0456 0.9990 0.0000
vn -0.0007 1.0000 0.0000
vn 0.0000 -0.0000 1.0000
vn 0.8631 -0.5051 -0.0000
vn 0.0000 0.0000 -1.0000
vn -0.1429 0.9897 0.0000
vn -0.2549 0.9670 0.0000
vn -0.3790 0.9254 0.0000
vn -0.5097 0.8604 0.0000
vn -0.6220 0.7830 0.0000
vn -0.7001 0.7141 0.0000
vn -0.7599 0.6500 0.0000
vn -0.7000 0.7141 0.0000
vn -0.8212 0.5707 0.0000
vn -0.8825 0.4703 0.0000
vn -0.9283 0.3718 0.0000
vn -0.9612 0.2759 0.0000
vn -0.9746 0.2239 0.0000
vn 0.0624 0.9980 0.0000
vn 0.0348 0.9994 0.0000
vn 0.1888 0.9820 -0.0004
vn 0.2307 0.9730 0.0000
vn 0.2307 0.9730 0.0009
vn 0.4039 0.9148 0.0000
vn 0.3275 0.9449 0.0000
vn 0.3272 0.9450 -0.0004
vn 0.4470 0.8945 0.0000
vn 0.9974 -0.0727 -0.0000
vn 0.9987 -0.0504 -0.0000
vn 0.0000 -1.0000 -0.0000
vn -0.9530 -0.3029 -0.0000
vn -0.9481 -0.3179 -0.0000
vn -0.9777 -0.2102 -0.0000
vn -0.9687 -0.2481 -0.0000
vn -0.9988 -0.0493 -0.0000
vn -0.9917 -0.1284 -0.0000
vn -1.0000 -0.0026 -0.0000
vn -0.8635 0.5043 0.0000
vn 0.0480 -0.9988 0.0000
vn 0.0008 -1.0000 0.0000
vn 0.1499 -0.9887 0.0000
vn 0.2660 -0.9640 0.0000
vn 0.3926 -0.9197 0.0000
vn 0.5235 -0.8520 0.0000
vn 0.6340 -0.7734 0.0000
vn 0.7230 -0.6908 0.0000
vn 0.8086 -0.5883 0.0000
vn 0.8767 -0.4811 0.0000
vn 0.9202 -0.3915 0.0000
vn 0.9455 -0.3256 0.0000
vn 0.9665 -0.2568 0.0000
vn 0.9584 -0.2853 0.0000
vn -0.1384 -0.9904 0.0000
vn -0.0700 -0.9975 0.0000
vn -0.2691 -0.9631 0.0000
vn -0.3310 -0.9436 0.0000
vn -0.9984 0.0558 0.0000
vn 0.0000 1.0000 0.0000
vn 0.9448 0.3278 0.0000
vn 0.9517 0.3070 0.0000
vn 0.9719 0.2353 0.0000
vn 0.9781 0.2080 0.0000
vn 0.9969 0.0782 0.0000
vn 0.9995 0.0312 0.0000
vn 1.0000 0.0024 0.0000
vn 0.0001 0.0000 -1.0000
vn 0.1093 0.9940 0.0000
vn 0.1488 0.9889 -0.0004
vn 0.1485 0.9889 0.0000
vn 0.2735 0.9619 -0.0005
vn 0.2729 0.9620 0.0005
vn 0.1893 0.9819 0.0004
vn 0.9996 -0.0272 -0.0000
vn 0.9999 -0.0144 -0.0000
vn 0.9954 -0.0954 -0.0000
vn 0.9935 -0.1136 -0.0000
vn 0.9926 -0.1214 -0.0000
vn -0.9609 -0.2769 -0.0000
vn -0.9845 -0.1756 -0.0000
vn 0.9730 -0.2310 0.0000
vn 0.9758 -0.2187 0.0000
vn 0.9586 0.2847 0.0000
vn 0.9654 0.2608 0.0000
vn 0.9412 0.3379 0.0000
vn 0.9839 0.1787 0.0000
vn 0.9891 0.1474 0.0000
vn 0.9935 0.1140 0.0000
usemtl Material.004
s 1
f 6/1/1 1/2/2 2/3/1
f 110/4/3 75/5/3 74/6/3
f 1/7/4 5/8/4 3/9/4
f 77/10/5 111/11/5 72/12/5
f 7/13/6 2/3/1 9/14/6
f 8/15/7 9/14/6 10/16/7
f 13/17/8 10/16/7 11/18/8
f 14/19/9 11/18/8 12/20/9
f 15/21/10 12/20/9 17/22/10
f 18/23/11 15/21/10 17/22/10
f 19/24/12 16/25/13 18/23/11
f 20/26/14 21/27/12 19/24/12
f 23/28/15 20/26/14 25/29/15
f 24/30/16 25/29/15 26/31/16
f 29/32/17 26/31/16 27/33/17
f 30/34/18 27/33/17 28/35/18
f 31/36/19 28/35/20 142/37/19
f 37/38/21 38/39/22 141/40/23
f 41/41/24 42/42/25 40/43/26
f 47/44/27 44/45/24 41/41/24
f 139/46/28 140/47/29 50/48/28
f 54/49/30 55/50/30 53/51/30
f 58/52/31 54/49/32 137/53/31
f 61/54/33 62/55/34 64/56/33
f 69/57/35 66/58/36 67/59/35
f 73/60/37 69/57/35 67/59/35
f 74/61/38 71/62/38 73/60/38
f 77/63/39 74/61/40 75/64/39
f 76/65/41 77/63/39 75/64/39
f 81/66/42 78/67/41 76/65/41
f 82/68/43 79/69/42 81/66/42
f 83/70/44 80/71/43 82/68/43
f 84/72/45 85/73/44 83/70/44
f 89/74/46 86/75/45 84/72/45
f 90/76/47 87/77/46 89/74/46
f 91/78/48 88/79/47 90/76/47
f 92/80/49 93/81/48 91/78/48
f 97/82/50 94/83/49 92/80/49
f 136/84/51 96/85/52 99/86/51
f 105/87/53 101/88/54 102/89/53
f 106/90/55 102/89/53 108/91/55
f 107/92/56 108/91/55 109/93/56
f 110/94/57 107/92/57 109/93/57
f 112/95/58 111/96/58 110/94/58
f 113/97/59 135/98/60 116/99/60
f 133/100/61 132/101/62 121/102/62
f 128/103/63 130/104/64 131/105/63
f 3/9/65 130/104/64 129/106/64
f 6/1/1 4/107/2 1/2/2
f 48/108/3 47/109/3 27/110/3
f 47/109/3 41/111/3 27/110/3
f 41/111/3 40/112/3 27/110/3
f 40/112/3 39/113/3 27/110/3
f 39/113/3 38/114/3 27/110/3
f 38/114/3 37/115/3 27/110/3
f 37/115/3 35/116/3 27/110/3
f 35/116/3 36/117/3 27/110/3
f 36/117/3 142/118/3 27/110/3
f 142/118/3 28/119/3 27/110/3
f 50/120/3 49/121/3 17/122/3
f 49/121/3 48/108/3 20/123/3
f 20/123/3 48/108/3 25/124/3
f 52/125/3 51/126/3 10/127/3
f 51/126/3 50/120/3 11/128/3
f 18/129/3 49/121/3 19/130/3
f 54/131/3 53/132/3 1/133/3
f 53/132/3 52/125/3 10/127/3
f 1/133/3 53/132/3 2/134/3
f 63/135/3 137/136/3 1/133/3
f 137/136/3 54/131/3 1/133/3
f 64/137/3 62/138/3 1/133/3
f 62/138/3 63/135/3 1/133/3
f 66/139/3 65/140/3 1/133/3
f 65/140/3 64/137/3 1/133/3
f 73/141/3 67/142/3 1/133/3
f 67/142/3 66/139/3 1/133/3
f 74/6/3 73/141/3 1/133/3
f 49/121/3 18/129/3 17/122/3
f 27/110/3 26/143/3 48/108/3
f 26/143/3 25/124/3 48/108/3
f 49/121/3 20/123/3 19/130/3
f 102/144/3 101/145/3 100/146/3
f 109/147/3 108/148/3 98/149/3
f 108/148/3 102/144/3 99/150/3
f 98/149/3 108/148/3 99/150/3
f 113/151/3 112/152/3 74/6/3
f 112/152/3 110/4/3 74/6/3
f 134/153/3 135/154/3 74/6/3
f 135/154/3 113/151/3 74/6/3
f 133/155/3 119/156/3 74/6/3
f 119/156/3 134/153/3 74/6/3
f 126/157/3 132/158/3 74/6/3
f 132/158/3 133/155/3 74/6/3
f 127/159/3 125/160/3 74/6/3
f 125/160/3 126/157/3 74/6/3
f 129/161/3 128/162/3 127/159/3
f 1/133/3 3/163/3 74/6/3
f 3/163/3 129/161/3 74/6/3
f 129/161/3 127/159/3 74/6/3
f 110/4/3 109/147/3 91/164/3
f 102/144/3 100/146/3 99/150/3
f 109/147/3 98/149/3 97/165/3
f 109/147/3 97/165/3 92/166/3
f 109/147/3 92/166/3 91/164/3
f 50/120/3 17/122/3 12/167/3
f 50/120/3 12/167/3 11/128/3
f 110/4/3 91/164/3 90/168/3
f 110/4/3 90/168/3 89/169/3
f 51/126/3 11/128/3 10/127/3
f 110/4/3 89/169/3 84/170/3
f 110/4/3 84/170/3 83/171/3
f 10/127/3 9/172/3 53/132/3
f 110/4/3 83/171/3 82/173/3
f 9/172/3 2/134/3 53/132/3
f 110/4/3 82/173/3 81/174/3
f 110/4/3 81/174/3 76/175/3
f 110/4/3 76/175/3 75/5/3
f 1/7/4 4/176/4 5/8/4
f 111/11/5 114/177/5 72/12/5
f 114/177/5 115/178/5 72/12/5
f 115/178/5 116/179/5 72/12/5
f 116/179/5 117/180/5 72/12/5
f 117/180/5 118/181/5 72/12/5
f 118/181/5 120/182/5 72/12/5
f 120/182/5 121/183/5 72/12/5
f 121/183/5 122/184/5 72/12/5
f 122/184/5 123/185/5 72/12/5
f 123/185/5 124/186/5 72/12/5
f 124/186/5 131/187/66 130/188/5
f 130/188/5 5/189/5 72/12/5
f 5/189/5 4/107/5 72/12/5
f 124/186/5 130/188/5 72/12/5
f 106/190/5 107/191/5 96/192/5
f 107/191/5 111/11/5 93/193/5
f 106/190/5 96/192/5 136/194/5
f 103/195/5 105/196/5 104/197/5
f 105/196/5 106/190/5 136/194/5
f 104/197/5 105/196/5 136/194/5
f 96/192/5 107/191/5 95/198/5
f 29/199/5 30/200/5 31/201/5
f 31/201/5 32/202/5 29/199/5
f 32/202/5 33/203/5 29/199/5
f 33/203/5 34/204/5 29/199/5
f 34/204/5 141/205/5 29/199/5
f 141/205/5 43/206/5 29/199/5
f 43/206/5 42/207/5 29/199/5
f 42/207/5 44/208/5 29/199/5
f 44/208/5 45/209/5 29/199/5
f 45/209/5 46/210/5 29/199/5
f 46/210/5 140/211/5 22/212/5
f 24/213/5 46/210/5 23/214/5
f 140/211/5 139/215/5 15/216/5
f 139/215/5 138/217/5 13/218/5
f 140/211/5 21/219/5 22/212/5
f 138/217/5 56/220/5 8/221/5
f 56/220/5 55/222/5 8/221/5
f 8/221/5 55/222/5 7/223/5
f 55/222/5 57/224/5 4/107/5
f 57/224/5 58/225/5 4/107/5
f 58/225/5 59/226/5 4/107/5
f 59/226/5 60/227/5 4/107/5
f 60/227/5 61/228/5 4/107/5
f 61/228/5 70/229/5 4/107/5
f 70/229/5 68/230/5 4/107/5
f 68/230/5 69/231/5 4/107/5
f 69/231/5 71/232/5 4/107/5
f 71/232/5 72/12/5 4/107/5
f 46/210/5 24/213/5 29/199/5
f 21/219/5 140/211/5 16/233/5
f 23/214/5 46/210/5 22/212/5
f 55/222/5 4/107/5 6/234/5
f 95/198/5 107/191/5 94/235/5
f 94/235/5 107/191/5 93/193/5
f 16/233/5 140/211/5 15/216/5
f 15/216/5 139/215/5 14/236/5
f 14/236/5 139/215/5 13/218/5
f 88/237/5 93/193/5 111/11/5
f 87/238/5 88/237/5 111/11/5
f 86/239/5 87/238/5 111/11/5
f 8/221/5 13/218/5 138/217/5
f 85/240/5 86/239/5 111/11/5
f 80/241/5 85/240/5 111/11/5
f 6/234/5 7/223/5 55/222/5
f 79/242/5 80/241/5 111/11/5
f 78/243/5 79/242/5 111/11/5
f 78/243/5 111/11/5 77/10/5
f 7/13/6 6/1/1 2/3/1
f 8/15/7 7/13/6 9/14/6
f 13/17/8 8/15/7 10/16/7
f 14/19/9 13/17/8 11/18/8
f 15/21/10 14/19/9 12/20/9
f 18/23/11 16/25/13 15/21/10
f 19/24/12 21/27/12 16/25/13
f 20/26/14 22/244/14 21/27/12
f 23/28/15 22/244/14 20/26/14
f 24/30/16 23/28/15 25/29/15
f 29/32/17 24/30/16 26/31/16
f 30/34/18 29/32/17 27/33/17
f 142/37/19 36/245/67 31/36/19
f 36/245/67 35/246/68 32/247/67
f 31/36/19 36/245/67 32/247/67
f 35/246/68 33/248/69 32/247/67
f 31/36/19 30/34/20 28/35/20
f 38/39/22 39/249/70 141/40/23
f 39/249/70 40/43/26 141/40/23
f 40/43/26 42/42/25 43/250/71
f 141/40/23 34/251/72 35/246/68
f 34/251/72 33/248/69 35/246/68
f 40/43/26 43/250/71 141/40/23
f 35/246/68 37/38/21 141/40/23
f 41/41/24 44/45/24 42/42/25
f 47/44/27 45/252/27 44/45/24
f 48/253/73 49/254/29 46/255/73
f 49/254/29 50/48/28 140/47/29
f 48/253/73 46/255/73 45/252/74
f 51/256/75 52/257/76 56/258/76
f 52/257/76 53/51/77 55/50/77
f 47/44/74 48/253/73 45/252/74
f 52/257/76 55/50/77 56/258/76
f 46/255/73 49/254/29 140/47/29
f 50/48/28 51/256/75 138/259/75
f 56/258/76 138/259/75 51/256/75
f 138/259/75 139/46/28 50/48/28
f 54/49/30 57/260/30 55/50/30
f 137/53/31 63/261/78 58/52/31
f 63/261/78 62/55/34 59/262/78
f 58/52/31 63/261/78 59/262/78
f 62/55/34 60/263/34 59/262/78
f 58/52/31 57/260/32 54/49/32
f 64/56/33 65/264/79 61/54/33
f 65/264/79 66/58/36 70/265/79
f 61/54/33 65/264/79 70/265/79
f 66/58/36 68/266/36 70/265/79
f 61/54/33 60/263/34 62/55/34
f 69/57/35 68/266/36 66/58/36
f 73/60/37 71/62/37 69/57/35
f 74/61/38 72/267/38 71/62/38
f 77/63/39 72/267/40 74/61/40
f 76/65/41 78/67/41 77/63/39
f 81/66/42 79/69/42 78/67/41
f 82/68/43 80/71/43 79/69/42
f 83/70/44 85/73/44 80/71/43
f 84/72/45 86/75/45 85/73/44
f 89/74/46 87/77/46 86/75/45
f 90/76/47 88/79/47 87/77/46
f 91/78/48 93/81/48 88/79/47
f 92/80/49 94/83/49 93/81/48
f 97/82/50 95/268/50 94/83/49
f 97/82/50 98/269/52 95/268/50
f 98/269/52 99/86/51 96/85/52
f 95/268/50 98/269/52 96/85/52
f 100/270/80 101/88/81 103/271/81
f 99/86/51 100/270/80 104/272/80
f 100/270/80 103/271/81 104/272/80
f 104/272/80 136/84/51 99/86/51
f 105/87/53 103/271/54 101/88/54
f 106/90/55 105/87/53 102/89/53
f 107/92/56 106/90/55 108/91/55
f 110/94/57 111/96/57 107/92/57
f 112/95/58 114/273/58 111/96/58
f 135/98/60 134/274/82 116/99/60
f 134/274/82 119/275/83 117/276/82
f 116/99/60 134/274/82 117/276/82
f 119/275/83 118/277/83 117/276/82
f 116/99/60 115/278/59 113/97/59
f 115/278/59 114/273/84 112/95/84
f 112/95/84 113/97/59 115/278/59
f 132/101/62 126/279/85 121/102/62
f 126/279/85 125/280/86 122/281/85
f 121/102/62 126/279/85 122/281/85
f 125/280/86 123/282/86 122/281/85
f 121/102/62 120/283/61 133/100/61
f 120/283/61 118/277/83 119/275/83
f 119/275/83 133/100/61 120/283/61
f 125/280/86 127/284/87 123/282/86
f 127/284/87 128/103/63 124/285/87
f 123/282/86 127/284/87 124/285/87
f 128/103/63 129/106/64 130/104/64
f 131/105/63 124/285/87 128/103/63
f 3/9/65 5/8/65 130/104/64
